<?xml version="1.0" encoding="utf-8"?>
<!-- Generator: Adobe Illustrator 27.3.1, SVG Export Plug-In . SVG Version: 6.00 Build 0)  -->
<svg version="1.1" id="Layer_1" xmlns="http://www.w3.org/2000/svg" xmlns:xlink="http://www.w3.org/1999/xlink" x="0px" y="0px"
	 viewBox="0 0 234.5 233.4" style="enable-background:new 0 0 234.5 233.4;" xml:space="preserve">
<style type="text/css">
	.st0{fill:#F5F5F5;}
	.st1{fill:none;stroke:#052C50;}
	.st2{fill:none;stroke:#052C50;stroke-dasharray:13.667,13.667;}
	.st3{fill:none;stroke:#052C50;stroke-miterlimit:10;}
	.st4{opacity:0.1;}
	.st5{clip-path:url(#SVGID_00000079473605242440890680000017896994778634998146_);fill:#BE14DC;}
	.st6{fill:#5A50F9;}
	.st7{clip-path:url(#SVGID_00000106135275047653866440000006816395397654449299_);fill:#BE14DC;}
	.st8{clip-path:url(#SVGID_00000152228171713379095570000001515936730714851718_);fill:#BE14DC;}
	.st9{clip-path:url(#SVGID_00000144306241907230416850000007963032667785066431_);fill:#BE14DC;}
</style>
<path class="st0" d="M216.9,165.3L216.9,165.3v-19.4c-16.3,0-29.6-13.3-29.6-29.6s13.3-29.6,29.6-29.6V67.4c-27,0-49,22-49,49
	S189.9,165.3,216.9,165.3"/>
<path class="st0" d="M17.8,165.3L17.8,165.3l0-19.4h0c16.3,0,29.6-13.3,29.6-29.6S34.1,86.8,17.8,86.8h0V67.4h0c27,0,49,22,49,49
	S44.8,165.3,17.8,165.3"/>
<path class="st0" d="M66.5,215.7L66.5,215.7l20.1,0v0c0-16.9,13.7-30.6,30.6-30.6c16.9,0,30.6,13.7,30.6,30.6v0h20.1v0
	c0-28-22.7-50.7-50.7-50.7S66.5,187.7,66.5,215.7"/>
<path class="st0" d="M66.5,17.1L66.5,17.1l20.1,0v0c0,16.9,13.7,30.6,30.6,30.6c16.9,0,30.6-13.7,30.6-30.6v0h20.1v0
	c0,28-22.7,50.7-50.7,50.7S66.5,45.1,66.5,17.1"/>
<line class="st1" x1="66.7" y1="15.8" x2="66.7" y2="218.2"/>
<line class="st1" x1="167.7" y1="15.8" x2="167.7" y2="217.9"/>
<line class="st1" x1="218.4" y1="67.5" x2="16" y2="67.5"/>
<line class="st1" x1="218.4" y1="165.1" x2="16" y2="165.1"/>
<line class="st2" x1="0" y1="67.5" x2="16" y2="67.5"/>
<line class="st2" x1="0" y1="165.3" x2="16" y2="165.3"/>
<line class="st2" x1="234.5" y1="165.1" x2="218.4" y2="165.1"/>
<line class="st2" x1="234.5" y1="67.5" x2="218.4" y2="67.5"/>
<line class="st2" x1="66.7" y1="0" x2="66.7" y2="16"/>
<line class="st2" x1="167.7" y1="0" x2="167.7" y2="16"/>
<line class="st2" x1="66.7" y1="218.2" x2="66.7" y2="234.2"/>
<line class="st2" x1="167.7" y1="218.2" x2="167.7" y2="234.2"/>
<rect x="18" y="17.4" class="st3" width="198.7" height="198.1"/>
<g class="st4">
	<g>
		<defs>
			<rect id="SVGID_1_" x="66.2" y="16.8" width="102.2" height="51.3"/>
		</defs>
		<clipPath id="SVGID_00000099651544306488702730000013103094651531515776_">
			<use xlink:href="#SVGID_1_"  style="overflow:visible;"/>
		</clipPath>
		
			<rect x="66.5" y="17.2" style="clip-path:url(#SVGID_00000099651544306488702730000013103094651531515776_);fill:#BE14DC;" width="101.4" height="50.5"/>
	</g>
</g>
<path class="st6" d="M149.4,67.6H66.9v32.8h6.2V73.9h76.3c6.4,0,12.3,5.3,12.3,11v51.4h-30.2v0c-19.8,0-35.8-16.1-35.8-35.8h-6.2
	c0,23.2,18.9,42.1,42.1,42.1v0h36.4V84.9C167.9,75.7,159.3,67.6,149.4,67.6"/>
<path class="st6" d="M131.5,113.8c-7.4,0-13.3-6-13.3-13.3h-6.2c0,10.8,8.8,19.6,19.6,19.6V113.8z"/>
<path class="st6" d="M73.2,100.5h-6.2c0,35.6,29,64.6,64.6,64.6v-6.2C99.3,158.8,73.2,132.6,73.2,100.5"/>
<g class="st4">
	<g>
		<defs>
			<rect id="SVGID_00000088821152811442401420000018159064832025696924_" x="17.4" y="17" width="49.5" height="198.8"/>
		</defs>
		<clipPath id="SVGID_00000146469661277614004950000002356722417960234672_">
			<use xlink:href="#SVGID_00000088821152811442401420000018159064832025696924_"  style="overflow:visible;"/>
		</clipPath>
		
			<rect x="17.8" y="17.4" style="clip-path:url(#SVGID_00000146469661277614004950000002356722417960234672_);fill:#BE14DC;" width="48.8" height="198.1"/>
	</g>
</g>
<g class="st4">
	<g>
		<defs>
			<rect id="SVGID_00000152254084912639773400000000251123706585814170_" x="167.4" y="16.8" width="49.9" height="198.8"/>
		</defs>
		<clipPath id="SVGID_00000004522961811710163840000001381866982843484080_">
			<use xlink:href="#SVGID_00000152254084912639773400000000251123706585814170_"  style="overflow:visible;"/>
		</clipPath>
		
			<rect x="167.7" y="17.2" style="clip-path:url(#SVGID_00000004522961811710163840000001381866982843484080_);fill:#BE14DC;" width="49.2" height="198.1"/>
	</g>
</g>
<g class="st4">
	<g>
		<defs>
			<rect id="SVGID_00000023994338384113337780000002019040584444211085_" x="66.1" y="164.6" width="102.2" height="51.3"/>
		</defs>
		<clipPath id="SVGID_00000003078261182634612630000008264459912468254850_">
			<use xlink:href="#SVGID_00000023994338384113337780000002019040584444211085_"  style="overflow:visible;"/>
		</clipPath>
		
			<rect x="66.5" y="165" style="clip-path:url(#SVGID_00000003078261182634612630000008264459912468254850_);fill:#BE14DC;" width="101.4" height="50.5"/>
	</g>
</g>
</svg>
