<?xml version="1.0" encoding="utf-8"?>
<!-- Generator: Adobe Illustrator 27.3.1, SVG Export Plug-In . SVG Version: 6.00 Build 0)  -->
<svg version="1.1" id="Layer_1" xmlns="http://www.w3.org/2000/svg" xmlns:xlink="http://www.w3.org/1999/xlink" x="0px" y="0px"
	 viewBox="0 0 849.9 233.4" style="enable-background:new 0 0 849.9 233.4;" xml:space="preserve">
<style type="text/css">
	.st0{fill:#F5F5F5;}
	.st1{opacity:0.1;}
	.st2{clip-path:url(#SVGID_00000090981605743837896380000016216062875266631566_);}
	.st3{fill:#BE14DC;}
	.st4{clip-path:url(#SVGID_00000023991403590012019220000007838730953904767872_);}
	.st5{fill:#052C50;}
	.st6{clip-path:url(#SVGID_00000143582431131449073070000009586733457114687894_);}
	.st7{clip-path:url(#SVGID_00000170972530686232496160000011920017002928723629_);}
	.st8{fill:#594FFA;}
</style>
<g>
	<g>
		<path class="st0" d="M439.7,66.6c0,8.9-7.2,16.2-16.2,16.2c-8.9,0-16.2-7.2-16.2-16.2s7.2-16.2,16.2-16.2
			C432.5,50.4,439.7,57.7,439.7,66.6 M423.6,39.8c-14.8,0-26.8,12-26.8,26.8c0,14.8,12,26.8,26.8,26.8c14.8,0,26.8-12,26.8-26.8
			C450.3,51.8,438.3,39.8,423.6,39.8"/>
	</g>
	<g>
		<path class="st0" d="M439.7,170.7c0,8.9-7.2,16.2-16.2,16.2c-8.9,0-16.2-7.2-16.2-16.2c0-8.9,7.2-16.2,16.2-16.2
			C432.5,154.5,439.7,161.8,439.7,170.7 M423.6,143.9c-14.8,0-26.8,12-26.8,26.8c0,14.8,12,26.8,26.8,26.8c14.8,0,26.8-12,26.8-26.8
			C450.3,155.9,438.3,143.9,423.6,143.9"/>
	</g>
	<g class="st1">
		<g>
			<defs>
				<rect id="SVGID_1_" x="87" y="39.5" width="673.1" height="55.4"/>
			</defs>
			<clipPath id="SVGID_00000168074499006279040730000012574550154573475517_">
				<use xlink:href="#SVGID_1_"  style="overflow:visible;"/>
			</clipPath>
			<g style="clip-path:url(#SVGID_00000168074499006279040730000012574550154573475517_);">
				<rect x="88" y="40.5" class="st3" width="671.1" height="53.4"/>
			</g>
		</g>
	</g>
	<g class="st1">
		<g>
			<defs>
				<rect id="SVGID_00000108276894582345288220000003738401701052550577_" x="87" y="143.1" width="673.1" height="55.4"/>
			</defs>
			<clipPath id="SVGID_00000114054571621580676330000004774180704327156393_">
				<use xlink:href="#SVGID_00000108276894582345288220000003738401701052550577_"  style="overflow:visible;"/>
			</clipPath>
			<g style="clip-path:url(#SVGID_00000114054571621580676330000004774180704327156393_);">
				<rect x="88" y="144.1" class="st3" width="671.1" height="53.4"/>
			</g>
		</g>
	</g>
	<g>
		<path class="st0" d="M513.4,119.3c0,8.9-7.2,16.2-16.2,16.2c-8.9,0-16.2-7.2-16.2-16.2s7.2-16.2,16.2-16.2
			C506.1,103.1,513.4,110.4,513.4,119.3 M497.2,92.5c-14.8,0-26.8,12-26.8,26.8c0,14.8,12,26.8,26.8,26.8c14.8,0,26.8-12,26.8-26.8
			C524,104.6,512,92.5,497.2,92.5"/>
	</g>
	<g>
		<path class="st0" d="M78.5,119.3c0,8.9-7.2,16.2-16.2,16.2c-8.9,0-16.2-7.2-16.2-16.2s7.2-16.2,16.2-16.2
			C71.3,103.1,78.5,110.4,78.5,119.3 M62.3,92.5c-14.8,0-26.8,12-26.8,26.8c0,14.8,12,26.8,26.8,26.8c14.8,0,26.8-12,26.8-26.8
			C89.1,104.6,77.1,92.5,62.3,92.5"/>
	</g>
</g>
<g>
	<rect x="811.5" y="39.4" class="st5" width="0.6" height="159"/>
</g>
<g>
	<path class="st5" d="M849.9,145h-10v-0.6h10V145z M830,145h-10v-0.6h10V145z"/>
</g>
<g>
	<path class="st5" d="M849.9,93.6h-10V93h10V93.6z M830,93.6h-10V93h10V93.6z"/>
</g>
<g>
	<rect x="88.2" y="39" class="st5" width="0.6" height="159"/>
</g>
<g>
	<rect x="758.5" y="39.8" class="st5" width="0.6" height="157.8"/>
</g>
<g>
	<rect x="35.2" y="39" class="st5" width="0.6" height="158.6"/>
</g>
<g>
	<rect x="35.1" y="93" class="st5" width="776.7" height="0.6"/>
</g>
<g>
	<path class="st5" d="M88.9,29.9h-0.6v-10h0.6V29.9z M88.9,10h-0.6V0h0.6V10z"/>
</g>
<g>
	<path class="st5" d="M758.5,29.9h-0.6v-10h0.6V29.9z M758.5,10h-0.6V0h0.6V10z"/>
</g>
<g>
	<path class="st5" d="M88.9,234.2h-0.6v-10h0.6V234.2z M88.9,214.2h-0.6v-10h0.6V214.2z"/>
</g>
<g>
	<path class="st5" d="M758.5,234.2h-0.6v-10h0.6V234.2z M758.5,214.2h-0.6v-10h0.6V214.2z"/>
</g>
<g>
	<rect x="35.1" y="39" class="st5" width="776.4" height="0.8"/>
</g>
<g>
	<rect x="35.1" y="197.7" class="st5" width="776.4" height="0.6"/>
</g>
<g>
	<rect x="35.1" y="144.4" class="st5" width="776.7" height="0.6"/>
</g>
<g>
	<path class="st5" d="M30.6,145h-10v-0.6h10V145z M10.7,145h-10v-0.6h10V145z"/>
</g>
<g>
	<path class="st5" d="M30.6,93.6h-10V93h10V93.6z M10.7,93.6h-10V93h10V93.6z"/>
</g>
<g>
	<g class="st1">
		<g>
			<defs>
				<rect id="SVGID_00000065759030826553088030000010713397518003254149_" x="34.8" y="38.9" width="55" height="160.4"/>
			</defs>
			<clipPath id="SVGID_00000170979840623845244200000013018719489666646702_">
				<use xlink:href="#SVGID_00000065759030826553088030000010713397518003254149_"  style="overflow:visible;"/>
			</clipPath>
			<g style="clip-path:url(#SVGID_00000170979840623845244200000013018719489666646702_);">
				<rect x="35.8" y="39.9" class="st3" width="53" height="158.4"/>
			</g>
		</g>
	</g>
	<g class="st1">
		<g>
			<defs>
				<rect id="SVGID_00000074415541354356766820000005726579450198352557_" x="758.1" y="38.9" width="55" height="160"/>
			</defs>
			<clipPath id="SVGID_00000099652725450860071010000018313638962955225002_">
				<use xlink:href="#SVGID_00000074415541354356766820000005726579450198352557_"  style="overflow:visible;"/>
			</clipPath>
			<g style="clip-path:url(#SVGID_00000099652725450860071010000018313638962955225002_);">
				<rect x="759.1" y="39.9" class="st3" width="53" height="158"/>
			</g>
		</g>
	</g>
</g>
<g>
	<path class="st8" d="M152.4,88H88.5v25.3h4.8V92.9h59c5,0,9.5,4.1,9.5,8.5V141h-23.4v0c-15.3,0-27.7-12.4-27.7-27.6H106
		c0,17.9,14.6,32.4,32.6,32.4v0h28.2v-44.4C166.8,94.3,160.1,88,152.4,88"/>
</g>
<g>
	<path class="st8" d="M138.6,123.6c-5.7,0-10.3-4.6-10.3-10.3h-4.8c0,8.3,6.8,15.1,15.2,15.1V123.6z"/>
</g>
<g>
	<path class="st8" d="M93.4,113.4h-4.8c0,27.4,22.4,49.8,50,49.8v-4.8C113.6,158.3,93.4,138.2,93.4,113.4"/>
</g>
<g>
	<path class="st8" d="M268.9,114.9c1.3-8.1,6.4-12.7,14.2-12.7c3.8,0,7,1.2,9.3,3.5c2.3,2.3,3.5,5.4,3.7,9.2H268.9z M257.5,119.3
		c0,7.7,2.3,14.2,6.6,18.9c4.6,5,11.4,7.7,19.7,7.7c9.7,0,18.6-5.5,22.7-14l0.3-0.6l-9-4.1l-0.3,0.5c-2.8,5.4-7.6,8.2-13.9,8.2
		c-10.4,0-13.8-6.6-14.7-12.4h38.3v-5.3c0-7.4-2.1-13.7-6.1-18.2c-4.2-4.8-10.4-7.3-17.8-7.3c-7.1,0-13.7,2.6-18.4,7.5
		C260.1,105,257.5,111.8,257.5,119.3"/>
</g>
<g>
	<path class="st8" d="M210.3,119.2c0-10.1,6.3-17,15.6-17c8.1,0,13.5,6.6,13.5,16.5c0,10.3-5.8,17.4-14.2,17.4
		C216.3,136.2,210.3,129.4,210.3,119.2 M208.5,105V94.1H199v68.8h10.4v-25.7c2.3,4.3,8.4,8.7,17.1,8.7c6,0,12-2.7,16.4-7.4
		c4.7-5,7.2-11.9,7.2-19.5c0-15-9.8-26.3-22.7-26.3C218.1,92.7,210.9,97.4,208.5,105"/>
</g>
<g>
	<path class="st8" d="M314.8,94.1v50.4h10.4v-31.1c0-5.9,3-9,8.8-9h8.4V94h-5c-5.2,0-10.8,1.2-13.3,10.1v-10H314.8z"/>
</g>
<g>
	<path class="st8" d="M387.8,104.7c-1.3-2.9-3.2-5.4-5.5-7.4c-3.7-3.1-8.4-4.7-13.9-4.7c-5.1,0-10,1.5-13.7,4.3
		c-3.9,2.9-6.1,7.1-6.1,11.6c0,11.2,10.1,13.8,18.2,15.8c6,1.5,11.2,2.8,11.1,7c-0.1,3.3-3.7,5.5-9.2,5.5c-6.3,0-10.9-3.3-12.9-9.2
		l-0.2-0.6l-9.4,3.7l0.2,0.5c3.1,9.3,11.3,14.6,22.3,14.6c11.9,0,19.9-6,20-15c0.1-10.2-9.2-12.5-17.3-14.5c-6.5-1.6-12-3-12-7.8
		c0-4.2,3.4-6.8,8.8-6.8c5.2,0,9.4,3.1,11.3,8.1L387.8,104.7z"/>
</g>
<g>
	<path class="st8" d="M481.6,92.5c-7.6,0-14.4,4.9-17,12.2V94.1h-9.4v50.4h10.4v-24.7c0-10.8,5.1-17.2,13.7-17.2
		c6.5,0,10.5,4.6,10.5,12.1v29.8H500v-29.8C500,100.8,493.1,92.5,481.6,92.5"/>
</g>
<g>
	<path class="st8" d="M540.5,122.9c-0.4,7.2-7,13.7-14.3,13.7c-4.5,0-7.3-2.4-7.3-6.3c0-1.7,0.6-3.2,1.8-4.3c2-2,5.6-3.1,10.1-3.1
		c0.1,0,0.2,0,0.4,0H540.5z M550.9,133.7v-22.1c0-11.5-7.8-19-19.8-19c-9.7,0-17.5,4.8-22.3,13.5l8.8,3.7c3.5-5.2,8-8,13.2-8
		c6.2,0,9.8,3.5,9.8,9.3v4.3h-11.3c-5.4,0-10.4,1.4-14.2,3.9c-4.3,2.8-6.6,6.9-6.6,11.6c0,8.8,6.4,14.7,15.9,14.7
		c7.6,0,14-4.5,16.8-11.7v1.2c0,6.1,2.8,9.3,8.1,9.3h7.2v-9h-4.4C551.2,135.4,550.9,135.4,550.9,133.7"/>
</g>
<g>
	<path class="st8" d="M574.3,134.6c-1,0-1.2,0-1.2-1.7l-0.1-57.2h-10.4l0.1,54.6c0,4.9,0.8,8.2,2.6,10.4c2,2.5,5.4,3.8,10.3,3.8h7.4
		v-9.8H574.3z"/>
</g>
<g>
	<path class="st8" d="M420.8,102.6c-9.2,0-16.7,7.5-16.7,16.7s7.5,16.7,16.7,16.7c9.2,0,16.7-7.5,16.7-16.7S430,102.6,420.8,102.6
		 M420.8,145.9c-14.7,0-26.7-11.9-26.7-26.6c0-14.7,12-26.6,26.7-26.6c14.7,0,26.7,11.9,26.7,26.6
		C447.5,133.9,435.5,145.9,420.8,145.9"/>
</g>
<g>
	<path class="st8" d="M632.7,140.8c10.3,0,17.7-7.9,17.7-21.8c0-13.4-6.8-22.3-17.4-22.3c-11.8,0-18.3,10.4-18.3,22.3
		C614.8,130.5,620.8,140.8,632.7,140.8 M609.6,93.4h4.8v11.2h0.4c2.6-6.6,8.4-12.6,18.4-12.6c13.2,0,22.5,11.1,22.5,27
		c0,16.3-9.9,26.7-22.8,26.7c-9.7,0-15.6-6.1-18-12.8h-0.5v30.4h-4.8V93.4z"/>
</g>
<g>
	<path class="st8" d="M680,140.5c9,0,17.1-8.2,18.2-20.1h-12.8c-9.2,0-16.9,3.7-16.9,10.8C668.6,137.8,673.7,140.5,680,140.5
		 M663.3,131.2c0-9.4,9.1-15.1,21.9-15.1h13v-6.5c0-7.5-4.7-12.6-13-12.6c-6.8,0-14.1,4.1-17.4,12.5l-4.6-2.2
		c3.8-9.6,12.5-15.3,22.1-15.3c11.8,0,17.9,7.9,17.9,17.6v28.3c0,0.9,0.6,1.6,1.1,1.6h4.6v4.7h-5.1c-4.2,0-5.6-2.6-5.6-7.1l0.1-5
		h-0.8c-3.1,7.7-9.7,13.3-18.5,13.3C670.5,145.4,663.3,140.5,663.3,131.2"/>
</g>
<g>
	<path class="st8" d="M717.3,93.5l17.2,46.5h0.7l17.4-46.5h5.3l-23.1,59.9c-2.2,5.6-4.6,8.5-8.9,8.5h-9.2v-4.7h8.5
		c2.6,0,4.1-2.1,5.3-5.2l3-7.6h-2.9L712,93.5H717.3z"/>
</g>
</svg>
