<?xml version="1.0" encoding="utf-8"?>
<!-- Generator: Adobe Illustrator 27.3.1, SVG Export Plug-In . SVG Version: 6.00 Build 0)  -->
<svg version="1.1" id="Layer_1" xmlns="http://www.w3.org/2000/svg" xmlns:xlink="http://www.w3.org/1999/xlink" x="0px" y="0px"
	 viewBox="0 0 849.9 233.4" style="enable-background:new 0 0 849.9 233.4;" xml:space="preserve">
<style type="text/css">
	.st0{fill:none;stroke:#FFFFFF;stroke-width:0.7905;stroke-miterlimit:10;}
	.st1{fill:#FFFFFF;}
</style>
<g>
	<line class="st0" x1="296.4" y1="197.5" x2="553.6" y2="197.5"/>
	<line class="st0" x1="296.4" y1="178.1" x2="296.4" y2="216.9"/>
	<line class="st0" x1="553.6" y1="178.1" x2="553.6" y2="216.9"/>
</g>
<g>
	<path class="st1" d="M321,105.3h-24.5v9.8c0,10.6,8.6,19.2,19.2,19.2v-1.8c-9.6,0-17.4-7.8-17.4-17.4v-7.9H321
		c1.9,0,3.7,1.6,3.7,3.3v15.2h-9c-5.9,0-10.7-4.8-10.7-10.7h-1.8c0,6.9,5.6,12.5,12.5,12.5h10.8v-17.1
		C326.5,107.7,323.9,105.3,321,105.3z"/>
	<path class="st1" d="M315.6,119c-2.2,0-4-1.8-4-4h-1.8c0,3.2,2.6,5.8,5.8,5.8V119z"/>
	<path class="st1" d="M371.3,107.1c-2.7,0-5.3,1-7.1,2.9c-1.8,1.9-2.9,4.5-2.9,7.4c0,3,0.9,5.5,2.5,7.3c1.8,1.9,4.4,3,7.6,3
		c3.7,0,7.2-2.1,8.7-5.4l0.1-0.2l-3.5-1.6l-0.1,0.2c-1.1,2.1-2.9,3.2-5.3,3.2c-4,0-5.3-2.6-5.6-4.8h14.7v-2c0-2.8-0.8-5.3-2.3-7
		C376.5,108,374.1,107.1,371.3,107.1z M365.7,115.6c0.5-3.1,2.5-4.9,5.5-4.9c1.4,0,2.7,0.5,3.6,1.4s1.4,2.1,1.4,3.5H365.7z"/>
	<path class="st1" d="M349.5,107c-3.6,0-6.3,1.8-7.3,4.7v-4.2h-3.6v26.6h4v-9.9c0.9,1.7,3.2,3.3,6.6,3.3c2.3,0,4.6-1,6.3-2.9
		c1.8-1.9,2.8-4.6,2.8-7.5C358.2,111.3,354.5,107,349.5,107z M348.7,123.8c-3.4,0-5.7-2.6-5.7-6.5s2.4-6.5,6-6.5
		c3.1,0,5.2,2.6,5.2,6.4C354.1,121,351.9,123.8,348.7,123.8z"/>
	<path class="st1" d="M386.9,111.5v-3.9h-3.5V127h4v-12c0-2.3,1.1-3.5,3.4-3.5h3.2v-4h-2C390,107.5,387.8,108,386.9,111.5z"/>
	<path class="st1" d="M405,116.2c-2.5-0.6-4.6-1.2-4.6-3c0-1.6,1.3-2.6,3.4-2.6c2,0,3.6,1.2,4.3,3.1l3.2-2c-0.5-1.1-1.2-2.1-2.1-2.8
		c-1.4-1.2-3.2-1.8-5.4-1.8c-2,0-3.9,0.6-5.2,1.7c-1.5,1.1-2.3,2.7-2.3,4.5c0,4.3,3.9,5.3,7,6.1c2.3,0.6,4.3,1.1,4.3,2.7
		c0,1.3-1.4,2.1-3.5,2.1c-2.4,0-4.2-1.3-5-3.5l-0.1-0.2l-3.6,1.4l0.1,0.2c1.2,3.6,4.3,5.6,8.6,5.6c4.6,0,7.6-2.3,7.7-5.8
		C411.7,117.8,408.2,116.9,405,116.2z"/>
	<path class="st1" d="M447.4,107c-2.9,0-5.5,1.9-6.5,4.7v-4.1h-3.6V127h4v-9.5c0-4.2,2-6.7,5.3-6.7c2.5,0,4,1.8,4,4.7V127h4v-11.5
		C454.5,110.2,451.9,107,447.4,107z"/>
	<path class="st1" d="M474,122.9v-8.5c0-4.5-3-7.3-7.6-7.3c-3.7,0-6.7,1.8-8.6,5.2l3.4,1.4c1.4-2,3.1-3.1,5.1-3.1
		c2.4,0,3.8,1.4,3.8,3.6v1.7h-4.3c-2.1,0-4,0.5-5.5,1.5c-1.7,1.1-2.5,2.6-2.5,4.5c0,3.4,2.5,5.7,6.1,5.7c2.9,0,5.4-1.7,6.4-4.5v0.5
		c0,2.4,1.1,3.6,3.1,3.6h2.7v-3.5h-1.7C474.2,123.6,474,123.6,474,122.9z M464.6,124c-1.7,0-2.8-0.9-2.8-2.4c0-0.6,0.2-1.2,0.7-1.7
		c0.8-0.7,2.2-1.2,3.9-1.2c0.1,0,0.1,0,0.2,0h3.6C469.9,121.5,467.4,124,464.6,124z"/>
	<path class="st1" d="M482.6,122.6v-22.1h-4v21.1c0,1.9,0.3,3.1,1,4c0.8,1,2.1,1.4,3.9,1.4h2.9v-3.8H483
		C482.7,123.2,482.6,123.2,482.6,122.6z"/>
	<path class="st1" d="M424.1,107.1c-5.7,0-10.3,4.6-10.3,10.3s4.6,10.3,10.3,10.3s10.3-4.6,10.3-10.3
		C434.3,111.6,429.7,107.1,424.1,107.1z M424.1,123.7c-3.5,0-6.4-2.9-6.4-6.4s2.9-6.4,6.4-6.4s6.4,2.9,6.4,6.4
		S427.6,123.7,424.1,123.7z"/>
	<path class="st1" d="M505.6,106.8c-3.9,0-6.1,2.3-7.1,4.9h-0.2v-4.3h-1.8v26.9h1.8v-11.7h0.2c0.9,2.6,3.2,5,6.9,5
		c5,0,8.7-4,8.7-10.3C514.3,111.1,510.7,106.8,505.6,106.8z M505.5,125.6c-4.6,0-6.9-4-6.9-8.4c0-4.6,2.5-8.6,7-8.6
		c4.1,0,6.7,3.5,6.7,8.6C512.3,122.6,509.4,125.6,505.5,125.6z"/>
	<path class="st1" d="M532.6,124.5v-10.9c0-3.7-2.3-6.8-6.9-6.8c-3.7,0-7,2.2-8.5,5.9l1.8,0.8c1.2-3.3,4.1-4.8,6.7-4.8
		c3.2,0,5,2,5,4.9v2.5h-5c-5,0-8.4,2.2-8.4,5.8s2.7,5.5,6.1,5.5c3.4,0,5.9-2.2,7.1-5.1h0.3v1.9c0,1.8,0.6,2.7,2.2,2.7h1.9v-1.8h-1.8
		C532.8,125.1,532.6,124.9,532.6,124.5z M523.6,125.5c-2.4,0-4.4-1-4.4-3.6c0-2.7,3-4.2,6.5-4.2h5
		C530.2,122.3,527.1,125.5,523.6,125.5z"/>
	<path class="st1" d="M551.5,107.3L551.5,107.3l-6.7,18h-0.2l-6.6-18h-2.1l7.2,19.6h1.1l-1.1,2.9c-0.5,1.2-1,2-2.1,2h-3.3v1.8h3.5
		c1.7,0,2.6-1.1,3.4-3.3l8.9-23.1L551.5,107.3L551.5,107.3z"/>
</g>
</svg>
