<?xml version="1.0" encoding="utf-8"?>
<!-- Generator: Adobe Illustrator 27.3.1, SVG Export Plug-In . SVG Version: 6.00 Build 0)  -->
<svg version="1.1" id="Layer_1" xmlns="http://www.w3.org/2000/svg" xmlns:xlink="http://www.w3.org/1999/xlink" x="0px" y="0px"
	 viewBox="0 0 315.6 125.6" style="enable-background:new 0 0 315.6 125.6;" xml:space="preserve">
<style type="text/css">
	.st0{fill:#5A50F9;}
	.st1{fill:#FF0000;}
</style>
<g>
	<path class="st0" d="M43.3,55.6h-27v5.8h2v-4.7h25c2.1,0,4,0.9,4,1.9v9h-9.9l0,0c-6.5,0-11.7-2.8-11.7-6.3h-2
		c0,4.1,6.2,7.4,13.8,7.4h11.9v-10C49.3,57.1,46.5,55.6,43.3,55.6"/>
	<path class="st0" d="M37.4,63.8c-2.4,0-4.4-1.1-4.4-2.3h-2c0,1.9,2.9,3.4,6.4,3.4V63.8z"/>
	<path class="st0" d="M18.3,61.4h-2c0,6.3,9.5,11.4,21.2,11.4v-1.1C26.9,71.7,18.3,67.1,18.3,61.4"/>
	<path class="st0" d="M92.5,61.8c0.5-1.8,2.7-2.9,6-2.9c1.6,0,2.9,0.3,3.9,0.8c1,0.5,1.5,1.2,1.5,2.1
		C103.9,61.8,92.5,61.8,92.5,61.8z M87.7,62.8c0,1.7,1,3.2,2.8,4.3c1.9,1.1,4.8,1.8,8.3,1.8c4.1,0,7.9-1.3,9.6-3.2l0.1-0.1l-3.8-0.9
		l-0.1,0.1c-1.2,1.2-3.2,1.9-5.9,1.9c-4.4,0-5.8-1.5-6.2-2.8h16.2v-1.2c0-1.7-0.9-3.1-2.6-4.1c-1.8-1.1-4.4-1.7-7.5-1.7
		c-3,0-5.8,0.6-7.8,1.7C88.8,59.5,87.7,61.1,87.7,62.8"/>
	<path class="st0" d="M67.7,62.8c0-2.3,2.6-3.9,6.6-3.9c3.4,0,5.7,1.5,5.7,3.8c0,2.3-2.5,4-6,4C70.3,66.6,67.7,65.1,67.7,62.8
		 M67,59.5V57h-4v15.7h4.4v-5.9c1,1,3.5,2,7.2,2c2.6,0,5.1-0.6,6.9-1.7c2-1.1,3.1-2.7,3.1-4.4c0-3.4-4.1-6-9.6-6
		C71,56.7,68,57.8,67,59.5"/>
	<path class="st0" d="M111.9,57v11.5h4.4v-7.1c0-1.4,1.3-2,3.7-2h3.5V57h-2.1c-2.2,0-4.6,0.3-5.6,2.3V57H111.9z"/>
	<path class="st0" d="M142.8,59.4c-0.5-0.7-1.3-1.2-2.3-1.7c-1.6-0.7-3.6-1.1-5.9-1.1c-2.2,0-4.2,0.3-5.8,1
		c-1.7,0.7-2.6,1.6-2.6,2.6c0,2.6,4.3,3.1,7.7,3.6c2.5,0.3,4.7,0.6,4.7,1.6c0,0.8-1.6,1.2-3.9,1.2c-2.7,0-4.6-0.7-5.5-2.1l-0.1-0.1
		l-4,0.8l0.1,0.1c1.3,2.1,4.8,3.3,9.4,3.3c5,0,8.4-1.4,8.5-3.4c0-2.3-3.9-2.9-7.3-3.3c-2.7-0.4-5.1-0.7-5.1-1.8c0-1,1.4-1.5,3.7-1.5
		c2.2,0,4,0.7,4.8,1.9L142.8,59.4z"/>
	<path class="st0" d="M182.5,56.7c-3.2,0-6.1,1.1-7.2,2.8V57h-4v11.5h4.4v-5.6c0-2.5,2.2-3.9,5.8-3.9c2.7,0,4.4,1.1,4.4,2.8v6.8h4.4
		v-6.8C190.3,58.6,187.4,56.7,182.5,56.7"/>
	<path class="st0" d="M207.4,63.6c-0.1,1.7-3,3.1-6.1,3.1c-1.9,0-3.1-0.5-3.1-1.4c0-0.4,0.3-0.7,0.8-1c0.8-0.4,2.4-0.7,4.3-0.7
		c0.1,0,0.1,0,0.2,0C203.5,63.6,207.4,63.6,207.4,63.6z M211.8,66.1v-5c0-2.6-3.3-4.3-8.4-4.3c-4.1,0-7.4,1.1-9.5,3.1l3.7,0.8
		c1.5-1.2,3.4-1.8,5.6-1.8c2.6,0,4.2,0.8,4.2,2.1v1h-4.8c-2.3,0-4.4,0.3-6,0.9c-1.8,0.6-2.8,1.6-2.8,2.7c0,2,2.7,3.3,6.7,3.3
		c3.2,0,5.9-1,7.1-2.7v0.3c0,1.4,1.2,2.1,3.4,2.1h3v-2.1h-1.9C211.9,66.5,211.8,66.5,211.8,66.1"/>
	<path class="st0" d="M221.7,66.3c-0.4,0-0.5,0-0.5-0.4V52.8h-4.4v12.4c0,1.1,0.4,1.9,1.1,2.4c0.9,0.6,2.3,0.9,4.3,0.9h3.1v-2.2
		C225.3,66.3,221.7,66.3,221.7,66.3z"/>
	<path class="st0" d="M156.8,59c-3.9,0-7.1,1.7-7.1,3.8s3.2,3.8,7.1,3.8c3.9,0,7.1-1.7,7.1-3.8C163.9,60.7,160.7,59,156.8,59
		 M156.8,68.8c-6.2,0-11.3-2.7-11.3-6.1c0-3.3,5.1-6.1,11.3-6.1s11.3,2.7,11.3,6.1C168.1,66.1,163,68.8,156.8,68.8"/>
	<path class="st0" d="M246.4,67.7c4.4,0,7.5-1.8,7.5-5c0-3.1-2.9-5.1-7.3-5.1c-5,0-7.7,2.4-7.7,5.1
		C238.8,65.3,241.4,67.7,246.4,67.7 M236.7,56.9h2v2.6h0.2c1.1-1.5,3.6-2.9,7.8-2.9c5.6,0,9.5,2.5,9.5,6.1c0,3.7-4.2,6.1-9.6,6.1
		c-4.1,0-6.6-1.4-7.6-2.9h-0.2v6.9h-2L236.7,56.9L236.7,56.9z"/>
	<path class="st0" d="M266.4,67.6c3.8,0,7.2-1.9,7.7-4.6h-5.4c-3.9,0-7.1,0.8-7.1,2.5C261.6,67,263.8,67.6,266.4,67.6 M259.4,65.5
		c0-2.1,3.8-3.4,9.3-3.4h5.5v-1.5c0-1.7-2-2.9-5.5-2.9c-2.9,0-6,0.9-7.3,2.9l-1.9-0.5c1.6-2.2,5.3-3.5,9.4-3.5c5,0,7.6,1.8,7.6,4V67
		c0,0.2,0.2,0.4,0.5,0.4h1.9v1.1h-2.1c-1.8,0-2.4-0.6-2.4-1.6v-1.1h-0.3c-1.3,1.8-4.1,3-7.8,3C262.4,68.7,259.4,67.6,259.4,65.5"/>
	<path class="st0" d="M282.2,56.9l7.3,10.6h0.3l7.3-10.6h2.3l-9.8,13.7c-0.9,1.3-1.9,1.9-3.8,1.9H282v-1.1h3.6
		c1.1,0,1.7-0.5,2.3-1.2l1.3-1.7H288l-8-11.6C280,56.9,282.2,56.9,282.2,56.9z"/>
</g>
<g>
	<g>
		<path class="st1" d="M298,16.3l-281,91c-0.5,0.2-0.8,0.7-0.6,1.3c0.2,0.5,0.7,0.8,1.3,0.6l281-91c0.5-0.2,0.8-0.7,0.6-1.3
			C299.1,16.5,298.5,16.2,298,16.3"/>
	</g>
</g>
</svg>
