<?xml version="1.0" encoding="utf-8"?>
<!-- Generator: Adobe Illustrator 27.3.1, SVG Export Plug-In . SVG Version: 6.00 Build 0)  -->
<svg version="1.1" id="Layer_1" xmlns="http://www.w3.org/2000/svg" xmlns:xlink="http://www.w3.org/1999/xlink" x="0px" y="0px"
	 viewBox="0 0 315.6 125.6" style="enable-background:new 0 0 315.6 125.6;" xml:space="preserve">
<style type="text/css">
	.st0{fill:#052C50;}
	.st1{font-family:'Pulso-Regular';}
	.st2{font-size:19px;}
	.st3{fill:#5A50F9;}
	.st4{fill:#FF0000;}
</style>
<g>
	<text transform="matrix(1 0 0 1 25.4567 69.0852)"><tspan x="0" y="0" class="st0 st1 st2">L</tspan><tspan x="9.6" y="0" class="st0 st1 st2">orem </tspan><tspan x="59.9" y="0" class="st0 st1 st2">I</tspan><tspan x="64.6" y="0" class="st0 st1 st2">p</tspan><tspan x="76.3" y="0" class="st0 st1 st2">sum</tspan></text>
	<path class="st3" d="M158.4,56.7h-13.9v5.5h1.1v-4.5h12.9c1.1,0,2.1,0.9,2.1,1.9v8.6h-5.1c-3.3,0-6-2.7-6-6h-1.1
		c0,3.9,3.2,7.1,7.1,7.1v0h6.1v-9.7C161.5,58,160,56.7,158.4,56.7"/>
	<path class="st3" d="M155.4,64.4c-1.2,0-2.2-1-2.2-2.2h-1.1c0,1.8,1.5,3.3,3.3,3.3V64.4z"/>
	<path class="st3" d="M145.5,62.2h-1.1c0,6,4.9,10.8,10.9,10.8v-1C149.9,72,145.5,67.6,145.5,62.2"/>
	<path class="st3" d="M183.7,62.5c0.3-1.8,1.4-2.8,3.1-2.8c0.8,0,1.5,0.3,2,0.8c0.5,0.5,0.8,1.2,0.8,2H183.7z M181.2,63.4
		c0,1.7,0.5,3.1,1.4,4.1c1,1.1,2.5,1.7,4.3,1.7c2.1,0,4.1-1.2,4.9-3.1L192,66l-2-0.9l-0.1,0.1c-0.6,1.2-1.7,1.8-3,1.8
		c-2.3,0-3-1.4-3.2-2.7h8.3v-1.2c0-1.6-0.5-3-1.3-4c-0.9-1-2.3-1.6-3.9-1.6c-1.6,0-3,0.6-4,1.6C181.8,60.4,181.2,61.8,181.2,63.4"/>
	<path class="st3" d="M171,63.4c0-2.2,1.4-3.7,3.4-3.7c1.8,0,2.9,1.4,2.9,3.6c0,2.2-1.3,3.8-3.1,3.8C172.3,67.1,171,65.6,171,63.4
		 M170.6,60.3V58h-2.1v15h2.3v-5.6c0.5,0.9,1.8,1.9,3.7,1.9c1.3,0,2.6-0.6,3.6-1.6c1-1.1,1.6-2.6,1.6-4.2c0-3.3-2.1-5.7-4.9-5.7
		C172.7,57.7,171.1,58.7,170.6,60.3"/>
	<path class="st3" d="M193.7,58v11h2.3v-6.8c0-1.3,0.6-2,1.9-2h1.8v-2.3h-1.1c-1.1,0-2.3,0.3-2.9,2.2V58H193.7z"/>
	<path class="st3" d="M209.6,60.3c-0.3-0.6-0.7-1.2-1.2-1.6c-0.8-0.7-1.8-1-3-1c-1.1,0-2.2,0.3-3,0.9c-0.9,0.6-1.3,1.5-1.3,2.5
		c0,2.4,2.2,3,4,3.4c1.3,0.3,2.4,0.6,2.4,1.5c0,0.7-0.8,1.2-2,1.2c-1.4,0-2.4-0.7-2.8-2l0-0.1l-2.1,0.8l0,0.1c0.7,2,2.4,3.2,4.8,3.2
		c2.6,0,4.3-1.3,4.4-3.3c0-2.2-2-2.7-3.8-3.2c-1.4-0.4-2.6-0.7-2.6-1.7c0-0.9,0.7-1.5,1.9-1.5c1.1,0,2,0.7,2.5,1.8L209.6,60.3z"/>
	<path class="st3" d="M230,57.6c-1.7,0-3.1,1.1-3.7,2.7V58h-2.1v11h2.3v-5.4c0-2.3,1.1-3.8,3-3.8c1.4,0,2.3,1,2.3,2.6v6.5h2.3v-6.5
		C234,59.4,232.5,57.6,230,57.6"/>
	<path class="st3" d="M242.9,64.2c-0.1,1.6-1.5,3-3.1,3c-1,0-1.6-0.5-1.6-1.4c0-0.4,0.1-0.7,0.4-0.9c0.4-0.4,1.2-0.7,2.2-0.7
		c0,0,0.1,0,0.1,0H242.9z M245.1,66.6v-4.8c0-2.5-1.7-4.1-4.3-4.1c-2.1,0-3.8,1-4.9,2.9l1.9,0.8c0.8-1.1,1.7-1.7,2.9-1.7
		c1.3,0,2.1,0.8,2.1,2v0.9h-2.5c-1.2,0-2.3,0.3-3.1,0.8c-0.9,0.6-1.4,1.5-1.4,2.5c0,1.9,1.4,3.2,3.5,3.2c1.7,0,3-1,3.6-2.5v0.3
		c0,1.3,0.6,2,1.8,2h1.6v-2h-1C245.2,67,245.1,67,245.1,66.6"/>
	<path class="st3" d="M250.2,66.8c-0.2,0-0.3,0-0.3-0.4l0-12.5h-2.3l0,11.9c0,1.1,0.2,1.8,0.6,2.3c0.4,0.6,1.2,0.8,2.2,0.8h1.6v-2.1
		H250.2z"/>
	<path class="st3" d="M216.8,59.8c-2,0-3.6,1.6-3.6,3.6c0,2,1.6,3.6,3.6,3.6c2,0,3.6-1.6,3.6-3.6C220.4,61.4,218.8,59.8,216.8,59.8
		 M216.8,69.2c-3.2,0-5.8-2.6-5.8-5.8c0-3.2,2.6-5.8,5.8-5.8c3.2,0,5.8,2.6,5.8,5.8C222.6,66.6,220,69.2,216.8,69.2"/>
	<path class="st3" d="M262.9,68.1c2.2,0,3.9-1.7,3.9-4.8c0-2.9-1.5-4.9-3.8-4.9c-2.6,0-4,2.3-4,4.9C259,65.9,260.3,68.1,262.9,68.1
		 M257.9,57.8h1v2.4h0.1c0.6-1.4,1.8-2.7,4-2.7c2.9,0,4.9,2.4,4.9,5.9c0,3.6-2.2,5.8-5,5.8c-2.1,0-3.4-1.3-3.9-2.8h-0.1V73h-1V57.8z
		"/>
	<path class="st3" d="M273.2,68.1c2,0,3.7-1.8,4-4.4h-2.8c-2,0-3.7,0.8-3.7,2.4C270.7,67.5,271.8,68.1,273.2,68.1 M269.6,66
		c0-2,2-3.3,4.8-3.3h2.8v-1.4c0-1.6-1-2.7-2.8-2.7c-1.5,0-3.1,0.9-3.8,2.7l-1-0.5c0.8-2.1,2.7-3.3,4.8-3.3c2.6,0,3.9,1.7,3.9,3.8
		v6.2c0,0.2,0.1,0.4,0.2,0.4h1v1h-1.1c-0.9,0-1.2-0.6-1.2-1.5l0-1.1h-0.2c-0.7,1.7-2.1,2.9-4,2.9C271.1,69.1,269.6,68.1,269.6,66"/>
	<path class="st3" d="M281.3,57.8l3.7,10.1h0.1l3.8-10.1h1.2l-5,13c-0.5,1.2-1,1.8-1.9,1.8h-2v-1h1.8c0.6,0,0.9-0.5,1.2-1.1l0.6-1.7
		h-0.6l-4.1-11.1H281.3z"/>
</g>
<g>
	<g>
		<path class="st4" d="M298,16.3l-281,91c-0.5,0.2-0.8,0.7-0.6,1.3c0.2,0.5,0.7,0.8,1.3,0.6l281-91c0.5-0.2,0.8-0.7,0.6-1.3
			C299.1,16.5,298.5,16.2,298,16.3"/>
	</g>
</g>
</svg>
