<?xml version="1.0" encoding="utf-8"?>
<!-- Generator: Adobe Illustrator 27.3.1, SVG Export Plug-In . SVG Version: 6.00 Build 0)  -->
<svg version="1.1" id="Layer_1" xmlns="http://www.w3.org/2000/svg" xmlns:xlink="http://www.w3.org/1999/xlink" x="0px" y="0px"
	 viewBox="0 0 315.6 125.6" style="enable-background:new 0 0 315.6 125.6;" xml:space="preserve">
<style type="text/css">
	.st0{fill:none;stroke:#5A50F9;stroke-miterlimit:10;}
	.st1{fill:#FF0000;}
</style>
<g>
	<path class="st0" d="M43.3,49.5h-27v10.7c0,11.6,9.5,21.1,21.1,21.1v-2c-10.5,0-19.1-8.5-19.1-19v-8.7h25c2.1,0,4,1.7,4,3.6v16.8
		h-9.9v0c-6.5,0-11.7-5.2-11.7-11.7h-2c0,7.6,6.2,13.7,13.8,13.7v0h11.9V55.2C49.4,52.2,46.6,49.5,43.3,49.5z"/>
	<path class="st0" d="M37.5,64.6c-2.4,0-4.4-2-4.4-4.3h-2c0,3.5,2.9,6.4,6.4,6.4V64.6z"/>
	<path class="st0" d="M98.7,51.5c-3,0-5.8,1.1-7.8,3.2c-2,2.1-3.1,4.9-3.1,8.1c0,3.2,1,6,2.8,8c1.9,2.1,4.8,3.2,8.3,3.2
		c4.1,0,7.9-2.3,9.6-5.9l0.1-0.2l-3.8-1.7l-0.1,0.2c-1.2,2.3-3.2,3.5-5.9,3.5c-4.4,0-5.8-2.8-6.2-5.2h16.2v-2.2
		c0-3.1-0.9-5.8-2.6-7.7C104.4,52.6,101.8,51.5,98.7,51.5z M92.6,60.9c0.5-3.4,2.7-5.4,6-5.4c1.6,0,2.9,0.5,3.9,1.5
		c1,1,1.5,2.3,1.5,3.9H92.6z"/>
	<path class="st0" d="M75,51.5c-3.9,0-7,2-8,5.2v-4.6h-4v29.1h4.4V70.3c1,1.8,3.5,3.7,7.2,3.7c2.6,0,5.1-1.1,6.9-3.1
		c2-2.1,3.1-5,3.1-8.2C84.6,56.3,80.5,51.5,75,51.5z M74.1,69.9c-3.8,0-6.3-2.9-6.3-7.2s2.6-7.2,6.6-7.2c3.4,0,5.7,2.8,5.7,7
		C80.1,66.8,77.6,69.9,74.1,69.9z"/>
	<path class="st0" d="M115.9,56.3v-4.2H112v21.3h4.4V60.2c0-2.5,1.3-3.8,3.7-3.8h3.5V52h-2.1C119.3,52,116.9,52.5,115.9,56.3z"/>
	<path class="st0" d="M135.9,61.5c-2.7-0.7-5.1-1.3-5.1-3.3c0-1.8,1.4-2.9,3.7-2.9c2.2,0,4,1.3,4.8,3.4l3.6-2.2
		c-0.5-1.2-1.3-2.3-2.3-3.1c-1.6-1.3-3.6-2-5.9-2c-2.2,0-4.2,0.6-5.8,1.8c-1.7,1.2-2.6,3-2.6,4.9c0,4.8,4.3,5.8,7.7,6.7
		c2.5,0.6,4.7,1.2,4.7,3c0,1.4-1.6,2.3-3.9,2.3c-2.7,0-4.6-1.4-5.5-3.9l-0.1-0.3l-4,1.5l0.1,0.2c1.3,3.9,4.8,6.2,9.4,6.2
		c5,0,8.4-2.6,8.5-6.4C143.2,63.3,139.3,62.3,135.9,61.5z"/>
	<path class="st0" d="M182.5,51.4c-3.2,0-6.1,2.1-7.2,5.1v-4.5h-4v21.3h4.4V62.9c0-4.6,2.2-7.3,5.8-7.3c2.7,0,4.4,2,4.4,5.1v12.6
		h4.4V60.8C190.3,54.9,187.4,51.4,182.5,51.4z"/>
	<path class="st0" d="M211.8,68.8v-9.3c0-4.9-3.3-8-8.4-8c-4.1,0-7.4,2-9.4,5.7l3.7,1.5c1.5-2.2,3.4-3.4,5.6-3.4
		c2.6,0,4.2,1.5,4.2,3.9v1.8h-4.8c-2.3,0-4.4,0.6-6,1.6c-1.8,1.2-2.8,2.9-2.8,4.9c0,3.7,2.7,6.2,6.7,6.2c3.2,0,5.9-1.9,7.1-4.9v0.5
		c0,2.6,1.2,3.9,3.4,3.9h3v-3.8h-1.9C211.9,69.6,211.8,69.6,211.8,68.8z M201.4,70c-1.9,0-3.1-1-3.1-2.7c0-0.7,0.3-1.3,0.8-1.8
		c0.8-0.8,2.4-1.3,4.3-1.3c0.1,0,0.1,0,0.2,0h4C207.3,67.3,204.5,70,201.4,70z"/>
	<path class="st0" d="M221.2,68.5l0-24.2h-4.4l0,23.1c0,2.1,0.4,3.5,1.1,4.4c0.9,1.1,2.3,1.6,4.3,1.6h3.1v-4.2h-3.7
		C221.3,69.2,221.2,69.2,221.2,68.5z"/>
	<path class="st0" d="M156.8,51.5c-6.2,0-11.3,5-11.3,11.3c0,6.2,5.1,11.3,11.3,11.3c6.2,0,11.3-5,11.3-11.3
		C168.1,56.5,163,51.5,156.8,51.5z M156.8,69.8c-3.9,0-7.1-3.2-7.1-7c0-3.9,3.2-7,7.1-7c3.9,0,7.1,3.2,7.1,7
		C163.9,66.6,160.7,69.8,156.8,69.8z"/>
	<path class="st0" d="M246.6,51.2c-4.2,0-6.7,2.6-7.8,5.3h-0.2v-4.7h-2v29.5h2V68.4h0.2c1,2.9,3.5,5.4,7.6,5.4
		c5.4,0,9.6-4.4,9.6-11.3C256.1,55.9,252.2,51.2,246.6,51.2z M246.4,71.8c-5,0-7.6-4.4-7.6-9.2c0-5,2.7-9.4,7.7-9.4
		c4.5,0,7.3,3.8,7.3,9.4C253.9,68.5,250.8,71.8,246.4,71.8z"/>
	<path class="st0" d="M276.3,70.6v-12c0-4.1-2.6-7.4-7.6-7.4c-4.1,0-7.7,2.4-9.4,6.5l1.9,0.9c1.4-3.6,4.5-5.3,7.3-5.3
		c3.5,0,5.5,2.2,5.5,5.3v2.7h-5.5c-5.4,0-9.3,2.4-9.3,6.4c0,4,3,6,6.7,6c3.7,0,6.5-2.4,7.8-5.6h0.3l0,2.1c0,1.9,0.6,3,2.4,3h2.1v-2
		h-1.9C276.6,71.3,276.3,71,276.3,70.6z M266.4,71.7c-2.7,0-4.8-1.1-4.8-3.9c0-3,3.3-4.6,7.1-4.6h5.4
		C273.6,68.2,270.2,71.7,266.4,71.7z"/>
	<path class="st0" d="M297.1,51.8l-7.3,19.7h-0.3l-7.3-19.7h-2.3l7.9,21.5h1.2l-1.2,3.2c-0.5,1.3-1.2,2.2-2.3,2.2H282v2h3.9
		c1.8,0,2.8-1.2,3.8-3.6l9.8-25.3H297.1z"/>
</g>
<g>
	<g>
		<path class="st1" d="M298,16.3l-281,91c-0.5,0.2-0.8,0.7-0.6,1.3c0.2,0.5,0.7,0.8,1.3,0.6l281-91c0.5-0.2,0.8-0.7,0.6-1.3
			C299.1,16.5,298.5,16.2,298,16.3"/>
	</g>
</g>
</svg>
