<?xml version="1.0" encoding="utf-8"?>
<!-- Generator: Adobe Illustrator 27.3.1, SVG Export Plug-In . SVG Version: 6.00 Build 0)  -->
<svg version="1.1" id="Layer_1" xmlns="http://www.w3.org/2000/svg" xmlns:xlink="http://www.w3.org/1999/xlink" x="0px" y="0px"
	 viewBox="0 0 679 284.5" style="enable-background:new 0 0 679 284.5;" xml:space="preserve">
<style type="text/css">
	.st0{fill:#F5F5F5;}
	.st1{fill:#00B8ED;}
	.st2{fill:#002850;}
	.st3{opacity:0.1;}
	.st4{clip-path:url(#SVGID_00000101817743703297397980000005774954740124343711_);}
	.st5{fill:#DE0CE1;}
	.st6{clip-path:url(#SVGID_00000132079003290585619590000011172773792243249292_);}
	.st7{clip-path:url(#SVGID_00000170237932421592855620000012603233983745509567_);}
	.st8{clip-path:url(#SVGID_00000037656098288893032490000010248203979382963097_);}
</style>
<g>
	<g>
		<path class="st0" d="M625.3,145.3c0,10.9-8.8,19.7-19.7,19.7c-10.9,0-19.7-8.8-19.7-19.7c0-10.9,8.8-19.7,19.7-19.7
			C616.4,125.6,625.3,134.5,625.3,145.3 M605.6,112.7c-18,0-32.6,14.6-32.6,32.6c0,18,14.6,32.6,32.6,32.6c18,0,32.6-14.6,32.6-32.6
			C638.2,127.4,623.6,112.7,605.6,112.7"/>
	</g>
	<g>
		<path class="st0" d="M360.9,81.1c0,10.9-8.8,19.7-19.7,19.7c-10.9,0-19.7-8.8-19.7-19.7c0-10.9,8.8-19.7,19.7-19.7
			C352.1,61.4,360.9,70.2,360.9,81.1 M341.2,48.5c-18,0-32.6,14.6-32.6,32.6c0,18,14.6,32.6,32.6,32.6c18,0,32.6-14.6,32.6-32.6
			C373.8,63.1,359.2,48.5,341.2,48.5"/>
	</g>
	<g>
		<path class="st0" d="M95.6,145.3c0,10.9-8.8,19.7-19.7,19.7c-10.9,0-19.7-8.8-19.7-19.7c0-10.9,8.8-19.7,19.7-19.7
			C86.7,125.6,95.6,134.5,95.6,145.3 M75.9,112.7c-18,0-32.6,14.6-32.6,32.6c0,18,14.6,32.6,32.6,32.6c18,0,32.6-14.6,32.6-32.6
			C108.5,127.4,93.8,112.7,75.9,112.7"/>
	</g>
	<g>
		<path class="st0" d="M360.9,207.9c0,10.9-8.8,19.7-19.7,19.7c-10.9,0-19.7-8.8-19.7-19.7c0-10.9,8.8-19.7,19.7-19.7
			C352.1,188.2,360.9,197.1,360.9,207.9 M341.2,175.3c-18,0-32.6,14.6-32.6,32.6c0,18,14.6,32.6,32.6,32.6c18,0,32.6-14.6,32.6-32.6
			C373.8,190,359.2,175.3,341.2,175.3"/>
	</g>
</g>
<g>
	<path class="st1" d="M222.7,140.3h-31.8c1.4-9.9,6.9-14.6,16.9-14.6C216.3,125.7,222.2,131.6,222.7,140.3 M207.5,112.7
		c-8.3,0-16.1,3.3-21.8,9.3c-5.8,6.1-8.9,14.4-8.9,23.4c0,9.3,3,17.4,8.6,23.2c5.8,6,13.9,9.2,23.4,9.2c5,0,10-1.1,14.4-3.1
		c4.6-2.1,8.5-5.2,11.6-9.1l0.3-0.4l-7.7-7.8l-0.4,0.4c-4.2,4.9-10.4,7.7-16.9,7.7c-11.3,0-17.6-4.8-19.1-14.6h44.9l0-0.5
		c0.1-4.3,0.1-5.9,0.1-8.1c0-7.9-2.7-15.3-7.5-20.7C223.2,115.8,216,112.7,207.5,112.7"/>
</g>
<g>
	<path class="st1" d="M394.4,145.3c0,10.9-8.8,19.7-19.7,19.7c-10.9,0-19.7-8.8-19.7-19.7c0-10.9,8.8-19.7,19.7-19.7
		C385.6,125.6,394.4,134.5,394.4,145.3 M374.7,112.7c-18,0-32.6,14.6-32.6,32.6c0,18,14.6,32.6,32.6,32.6c18,0,32.6-14.6,32.6-32.6
		C407.3,127.3,392.7,112.7,374.7,112.7"/>
</g>
<g>
	<path class="st1" d="M155,145.5c0,11.9-6.6,19.9-16.5,19.9c-5,0-9.3-2.1-12.2-5.9c-2.8-3.6-4.3-8.6-4.3-14.1
		c0-5.6,1.6-10.7,4.5-14.3c3.1-3.9,7.3-5.9,12.4-5.9c4.7,0,8.8,2,11.7,5.7C153.5,134.5,155,139.6,155,145.5 M140.7,112.6
		c-9.4,0-16.3,4.5-20.6,13.4h-0.4l-0.3-11.7h-10.9v84h13.1v-33.5h0.4c1.6,3.7,3.9,6.7,6.7,8.9c3.5,2.7,7.8,4.1,12.7,4.1
		c7.5,0,14.4-3.2,19.4-9.1c5.1-6,7.9-14.3,7.9-23.6c0-9.2-2.8-17.6-7.9-23.5C155.8,115.8,148.6,112.6,140.7,112.6"/>
</g>
<g>
	<path class="st1" d="M258.8,125.6h-0.4l-0.8-11.1h-11.2v61.9h13.4v-35.8c0-8.2,3.3-11.6,11-11.6h8.6v-14.6H275
		C266.4,114.3,261.1,118,258.8,125.6"/>
</g>
<g>
	<path class="st1" d="M309.3,123c7.3,0,13,3.9,15.5,10.7l0.2,0.5l10.4-3.9l-0.2-0.5c-2.2-5.5-5.5-9.8-9.9-12.8
		c-4.4-3-9.7-4.5-15.9-4.5c-5.6,0-11.1,1.8-15.2,5c-4.5,3.5-7,8.6-7,14.1c0,5.3,1.9,9.7,5.7,13c3.2,2.8,7.7,5,13.8,6.6l0,0
		c0.4,0.1,0.9,0.2,1.3,0.3c3.7,0.8,7.3,1.6,9.8,2.9c2.7,1.3,3.9,3.1,3.9,5.4c0,4.8-5.7,7-11.4,7c-7.5,0-14.5-4-18.2-10.4L292,156
		l-9.6,5.3l0.2,0.4c2.3,4.9,6,9,10.9,11.8c4.9,2.8,10.7,4.3,17,4.3c6.7,0,12.9-1.7,17.3-4.7c4.9-3.3,7.5-8,7.5-13.6
		c0.1-5.3-2.1-9.4-6.7-12.7c-4.2-3-9.9-4.7-14.4-5.8c-6.9-1.9-14.7-4.1-14.7-10.2C299.5,127,303.2,123,309.3,123"/>
</g>
<g>
	<path class="st1" d="M449.4,112.7c-4.7,0-9.1,1.4-12.7,4c-3.3,2.3-5.9,5.6-7.7,9.4h-0.6v-11.7H416v61.9h13.4v-34.5
		c0-2.6,1.1-6.9,3.6-10.6c2.1-3.1,5.8-6.7,11.9-6.7c4.2,0,7.2,1.2,9.1,3.7c1.9,2.4,2.8,6,2.8,11v37.1h13.4v-38.8
		c0-7.7-1.8-13.8-5.3-18.1C461.4,115,456.2,112.7,449.4,112.7"/>
</g>
<g>
	<path class="st1" d="M519.9,151.4c-0.5,3.7-2.8,7.3-6.4,10.2c-3.2,2.6-7.2,4.2-10.1,4.2c-2.7,0-5.1-0.6-6.8-1.7
		c-1.8-1.2-2.8-2.8-2.8-4.8c0-2.6,1.6-4.6,4.7-6c2.8-1.2,6.8-1.9,11.5-1.9H519.9z M533.4,164.1v-27.9c0-6.9-2.2-12.7-6.3-16.9
		c-4.3-4.3-10.5-6.6-18-6.6c-13.4,0-22.6,6.1-28.3,18.6l-0.2,0.5l11.6,5.4l0.2-0.5c3.2-6.9,9.5-11.5,15.6-11.5c6.8,0,12,4.6,12,10.6
		v4.4h-14.1c-15.8,0-25.7,7.6-25.7,19.9c0,5.3,2,9.8,5.7,13c3.5,3,8.4,4.7,13.9,4.7c5,0,9.7-1.4,13.7-4.2c3.6-2.5,6.5-5.9,8.4-10
		h0.5l-0.1,3.3c0,6.1,3,9.4,8.7,9.4h8.7v-10.6h-5.2C533.6,165.7,533.4,164.8,533.4,164.1"/>
</g>
<g>
	<path class="st1" d="M563.8,164.2c-1,0-1.2-0.2-1.4-0.4c-0.2-0.3-0.3-0.9-0.3-2v-70h-13.4v70.7c0,4.6,0.9,8,2.8,10.3
		c1.8,2.3,4.6,3.5,8.2,3.5h12.9v-12.1H563.8z"/>
</g>
<g>
	<rect x="637.5" y="48" class="st2" width="0.8" height="193.7"/>
</g>
<g>
	<path class="st2" d="M678.9,176.6h-12.1v-0.8h12.1V176.6z M654.6,176.6h-12.1v-0.8h12.1V176.6z"/>
</g>
<g>
	<path class="st2" d="M678.9,114h-12.1v-0.8h12.1V114z M654.6,114h-12.1v-0.8h12.1V114z"/>
</g>
<g>
	<rect x="107.4" y="47.5" class="st2" width="0.8" height="193.7"/>
</g>
<g>
	<rect x="572.9" y="48.5" class="st2" width="0.8" height="192.2"/>
</g>
<g>
	<rect x="42.8" y="47.5" class="st2" width="0.8" height="193.2"/>
</g>
<g>
	<rect x="42.7" y="113.3" class="st2" width="594.4" height="0.8"/>
</g>
<g>
	<path class="st2" d="M108.2,36.4h-0.8V24.3h0.8V36.4z M108.2,12.1h-0.8V0h0.8V12.1z"/>
</g>
<g>
	<path class="st2" d="M573.2,36.4h-0.8V24.3h0.8V36.4z M573.2,12.1h-0.8V0h0.8V12.1z"/>
</g>
<g>
	<path class="st2" d="M108.2,285.3h-0.8v-12.1h0.8V285.3z M108.2,261h-0.8v-12.1h0.8V261z"/>
</g>
<g>
	<path class="st2" d="M573.2,285.3h-0.8v-12.1h0.8V285.3z M573.2,261h-0.8v-12.1h0.8V261z"/>
</g>
<g>
	<rect x="42.7" y="47.5" class="st2" width="594.4" height="1"/>
</g>
<g>
	<rect x="42.7" y="240.8" class="st2" width="594.4" height="0.8"/>
</g>
<g>
	<rect x="42.7" y="175.9" class="st2" width="594.4" height="0.8"/>
</g>
<g>
	<path class="st2" d="M37.2,176.6H25.1v-0.8h12.1V176.6z M13,176.6H0.8v-0.8H13V176.6z"/>
</g>
<g>
	<path class="st2" d="M37.2,114H25.1v-0.8h12.1V114z M13,114H0.8v-0.8H13V114z"/>
</g>
<g>
	<g class="st3">
		<g>
			<defs>
				<rect id="SVGID_1_" x="42.6" y="47.5" width="66.6" height="195.2"/>
			</defs>
			<clipPath id="SVGID_00000122717057846612824990000017722204593880011179_">
				<use xlink:href="#SVGID_1_"  style="overflow:visible;"/>
			</clipPath>
			<g style="clip-path:url(#SVGID_00000122717057846612824990000017722204593880011179_);">
				<rect x="43.6" y="48.5" class="st5" width="64.6" height="193.2"/>
			</g>
		</g>
	</g>
	<g class="st3">
		<g>
			<defs>
				<rect id="SVGID_00000146461058717486468950000007882220713499713949_" x="106.3" y="48.2" width="468.9" height="67.2"/>
			</defs>
			<clipPath id="SVGID_00000146468926294520235140000004210078483587997330_">
				<use xlink:href="#SVGID_00000146461058717486468950000007882220713499713949_"  style="overflow:visible;"/>
			</clipPath>
			<g style="clip-path:url(#SVGID_00000146468926294520235140000004210078483587997330_);">
				<rect x="107.3" y="49.2" class="st5" width="466.9" height="65.2"/>
			</g>
		</g>
	</g>
	<g class="st3">
		<g>
			<defs>
				<rect id="SVGID_00000119818651870029516160000001248436578807578793_" x="571.8" y="47.5" width="66.6" height="194.7"/>
			</defs>
			<clipPath id="SVGID_00000143589305241967578700000015755583368333846161_">
				<use xlink:href="#SVGID_00000119818651870029516160000001248436578807578793_"  style="overflow:visible;"/>
			</clipPath>
			<g style="clip-path:url(#SVGID_00000143589305241967578700000015755583368333846161_);">
				<rect x="572.8" y="48.5" class="st5" width="64.6" height="192.7"/>
			</g>
		</g>
	</g>
	<g class="st3">
		<g>
			<defs>
				<rect id="SVGID_00000004528790474185488390000018117862546277037209_" x="106.3" y="174.6" width="468.9" height="67.2"/>
			</defs>
			<clipPath id="SVGID_00000183212105248334498590000001308978128377980566_">
				<use xlink:href="#SVGID_00000004528790474185488390000018117862546277037209_"  style="overflow:visible;"/>
			</clipPath>
			<g style="clip-path:url(#SVGID_00000183212105248334498590000001308978128377980566_);">
				<rect x="107.3" y="175.6" class="st5" width="466.9" height="65.2"/>
			</g>
		</g>
	</g>
</g>
</svg>
