<?xml version="1.0" encoding="UTF-8"?>
<svg id="Layer_1" data-name="Layer 1" xmlns="http://www.w3.org/2000/svg" width="105.83mm" height="24.69mm" viewBox="0 0 300 70">
  <path d="M113.83,30.09l-3.81,3.86,8.13,8.24,18.09-18.34c-.98-1.55-2.15-2.96-3.48-4.19l-14.61,14.82-4.32-4.38Z" fill="#fff"/>
  <path d="M131.06,33.4c.07.52.1,1.06.1,1.6,0,6.98-5.66,12.63-12.63,12.63s-12.63-5.66-12.63-12.63,5.66-12.63,12.63-12.63c2.12,0,4.12.52,5.87,1.45l5.98-6.06c-3.37-2.32-7.45-3.68-11.85-3.68-11.56,0-20.93,9.43-20.93,20.93s9.43,20.93,20.93,20.93,20.93-9.43,20.93-20.93c0-2.97-.62-5.79-1.74-8.35l-6.66,6.76Z" fill="#fff"/>
  <path d="M157.63,26.51c-3.13,0-5.08,1.72-6.13,3.97h-.2v-3.47h-3.06v24.57h3.57v-9.93h.24c.84,1.99,2.69,3.87,5.79,3.87,4.44,0,7.91-3.84,7.91-9.52s-3.4-9.49-8.11-9.49ZM156.95,42.16c-3.26,0-5.05-2.83-5.05-6.09s1.92-6.16,5.15-6.16c2.96,0,4.95,2.56,4.95,6.19s-2.12,6.06-5.05,6.06Z" fill="#fff"/>
  <path d="M182.94,41.52v-8.18c0-4.31-2.76-6.8-6.93-6.8-3.74,0-6.53,2.09-7.71,5.65l3.03,1.28c1.08-2.62,2.36-3.77,4.68-3.77,1.88,0,3.5,1.41,3.5,4.04v1.11h-4.24c-3.9,0-7.44,1.95-7.44,5.62,0,3.1,2.49,5.01,5.65,5.01s5.45-1.82,6.53-4.21h.3l-.03,1.14c0,1.72.81,2.63,2.42,2.63h2.09v-2.89h-1.38c-.3,0-.47-.24-.47-.64ZM174.19,42.33c-1.41,0-2.86-.74-2.86-2.15,0-1.78,2.29-2.66,5.18-2.66h3c-.27,2.36-2.76,4.81-5.32,4.81Z" fill="#fff"/>
  <path d="M198.89,27.05l-4.71,15.01h-.27l-4.85-15.01h-3.6l5.92,18.01h1.92l-.47,1.28c-.57,1.55-1.04,2.19-2.25,2.19h-3.4v2.96h4.11c2.52,0,3.53-1.35,4.54-4.41l6.56-20.02h-3.5Z" fill="#fff"/>
</svg>