<?xml version="1.0" encoding="UTF-8"?>
<svg id="Layer_1" data-name="Layer 1" xmlns="http://www.w3.org/2000/svg" width="30mm" height="30mm" viewBox="0 0 85.04 85.04">
  <polygon points="52.43 57.22 23.13 57.22 23.13 39.42 30.73 39.42 30.73 36.82 20.53 36.82 20.53 59.72 54.93 59.72 54.93 36.82 52.43 36.82 52.43 57.22"/>
  <path d="M62.33,41.22l-2.1,1.4c2.3,3.4,2.3,7.9,0,11.3l2.1,1.4c2.9-4.2,2.9-9.9,0-14.1Z"/>
  <path d="M41.63,41.92c4.5,0,8.2-3.7,8.3-8.3,0-4.6-3.7-8.3-8.3-8.3s-8.3,3.7-8.3,8.3,3.7,8.3,8.3,8.3ZM41.63,27.92c3.1,0,5.7,2.6,5.7,5.7s-2.6,5.7-5.7,5.7-5.7-2.5-5.7-5.7,2.5-5.7,5.7-5.7Z"/>
</svg>