<?xml version="1.0" encoding="UTF-8"?>
<svg id="Layer_1" data-name="Layer 1" xmlns="http://www.w3.org/2000/svg" width="30mm" height="30mm" viewBox="0 0 85.04 85.04">
  <path d="M39.42,49.47c-7,0-13.9,3.9-18,10.2l2,1.3c3.6-5.6,9.7-9.1,15.9-9.1s12.3,3.5,15.9,9.1l2-1.3c-3.9-6.2-10.7-10.2-17.8-10.2Z"/>
  <path d="M39.42,45.87c6,0,10.9-4.9,10.9-10.9s-4.9-10.9-10.9-10.9-10.9,4.9-10.9,10.9c.1,6,4.9,10.9,10.9,10.9ZM39.42,26.57c4.7,0,8.5,3.8,8.5,8.5s-3.8,8.5-8.5,8.5-8.5-3.8-8.5-8.5c.1-4.7,3.9-8.5,8.5-8.5Z"/>
  <polygon points="58.82 41.07 58.82 36.17 56.42 36.17 56.42 41.07 51.52 41.07 51.52 43.47 56.42 43.47 56.42 48.27 58.82 48.27 58.82 43.47 63.62 43.47 63.62 41.07 58.82 41.07"/>
</svg>