<?xml version="1.0" encoding="UTF-8"?>
<svg id="Layer_1" data-name="Layer 1" xmlns="http://www.w3.org/2000/svg" width="30mm" height="30mm" viewBox="0 0 85.04 85.04">
  <path d="M45.31,44.97c1.4-1.4,1.4-3.7,0-5.1s-3.7-1.4-5.1,0c-1.1,1.1-1.3,2.7-.8,4l-4.3,4-9.1-9.1-.8,1.2c-4.4,6.7-1.8,14,2.5,18.1,2.5,2.3,5.9,3.9,9.5,3.9,2.5,0,5.1-.8,7.5-2.6l1.1-.8-9-9,4.3-3.9c1.4.6,3.1.4,4.2-.7ZM42.01,58.17c-4.8,2.8-9.7.8-12.7-1.9-3.4-3.2-5.4-8.5-2.9-13.7l15.6,15.6Z"/>
  <path d="M42.81,23.07v2.4c10.2,0,16.9,6.6,16.9,16.9h2.4c0-11.5-7.8-19.3-19.3-19.3Z"/>
  <path d="M42.81,30.37v2.4c5.3,0,9.6,4.3,9.6,9.6h2.4c0-6.6-5.4-12-12-12Z"/>
</svg>