<?xml version="1.0" encoding="UTF-8"?>
<svg id="Layer_1" data-name="Layer 1" xmlns="http://www.w3.org/2000/svg" width="30mm" height="30mm" viewBox="0 0 85.04 85.04">
  <path d="M25.57,37.07v8.5c0,9.3,7.6,16.9,16.9,16.9s16.9-7.6,17-16.9v-8.5H25.57ZM56.97,45.57c0,8-6.5,14.5-14.5,14.5s-14.5-6.5-14.5-14.5v-6h29v6Z"/>
  <path d="M34.47,32.97c0-4.4,3.6-8,8-8s8,3.6,8,8v1.7h2.4v-1.7c0-5.7-4.7-10.4-10.4-10.4s-10.4,4.7-10.4,10.4v1.7h2.4v-1.7Z"/>
  <rect x="41.27" y="44.27" width="2.4" height="6.6"/>
</svg>