<?xml version="1.0" encoding="UTF-8"?>
<svg id="Layer_1" data-name="Layer 1" xmlns="http://www.w3.org/2000/svg" width="30mm" height="30mm" viewBox="0 0 85.04 85.04">
  <path d="M42.62,25.52c-9.3,0-16.9,7.6-16.9,16.9,0,2.2.4,4.4,1.3,6.5l-1.5,10.6,10.6-1.5c2.1.9,4.3,1.3,6.5,1.3,9.3,0,16.9-7.6,16.9-16.9,0-9.3-7.6-16.9-16.9-16.9ZM42.62,56.92c-2,0-4-.4-5.8-1.2l-.3-.1-8.1,1.2,1.2-8.1-.1-.3c-.8-1.9-1.2-3.8-1.2-5.8,0-8,6.5-14.5,14.5-14.5s14.5,6.5,14.5,14.5c-.2,7.8-6.7,14.3-14.7,14.3Z"/>
  <rect x="41.42" y="38.82" width="2.4" height="12.1"/>
  <circle cx="42.62" cy="35.12" r="1.8"/>
</svg>