<?xml version="1.0" encoding="UTF-8"?>
<svg id="Layer_1" data-name="Layer 1" xmlns="http://www.w3.org/2000/svg" width="30mm" height="30mm" viewBox="0 0 85.04 85.04">
  <path d="M64.22,47.27h-1.2c-2.8,0-4.8-2-4.8-4.8s2-4.8,4.8-4.8h1.2v-12.1H20.72v12.2h1.2c2.8,0,4.8,2,4.8,4.8s-2,4.8-4.8,4.8h-1.2v12.1h43.6l-.1-12.2ZM61.82,57.07H23.12v-7.3c3.5-.6,6-3.5,6-7.2s-2.5-6.7-6-7.2v-7.3h38.7v7.3c-3.5.6-6,3.5-6,7.2s2.5,6.7,6,7.2v7.3Z"/>
  <path d="M42.52,44.17c-3.6,0-6.8-1.7-8.7-4.7l-2,1.3c2.4,3.7,6.4,5.9,10.7,5.9s8.3-2.2,10.7-5.9l-2-1.3c-1.9,2.9-5.1,4.7-8.7,4.7Z"/>
</svg>