<?xml version="1.0" encoding="UTF-8"?>
<svg id="Layer_1" data-name="Layer 1" xmlns="http://www.w3.org/2000/svg" width="30mm" height="30mm" viewBox="0 0 85.04 85.04">
  <path d="M57.72,44.37c-3.6,0-6.6,3-6.6,6.6v5.5c0,3.6,3,6.6,6.6,6.6s6.6-3,6.6-6.6v-5.5c0-3.6-3-6.6-6.6-6.6ZM61.92,56.47c0,2.3-1.9,4.2-4.2,4.2s-4.2-1.9-4.2-4.2v-5.5c0-2.3,1.9-4.2,4.2-4.2s4.1,1.9,4.2,4.2v5.5Z"/>
  <path d="M27.32,44.37c-3.6,0-6.6,3-6.6,6.6v5.5c0,3.6,3,6.6,6.6,6.6s6.6-3,6.6-6.6v-5.5c0-3.6-3-6.6-6.6-6.6ZM31.52,56.47c0,2.3-1.9,4.2-4.2,4.2s-4.2-1.9-4.2-4.2v-5.5c0-2.3,1.9-4.2,4.2-4.2s4.2,1.9,4.2,4.2v5.5Z"/>
  <path d="M60.62,42.47h2.4c0-11.3-9.2-20.5-20.5-20.5s-20.5,9.2-20.5,20.5h2.4c0-10,8.1-18.1,18.1-18.1s18.1,8.1,18.1,18.1Z"/>
</svg>