<?xml version="1.0" encoding="UTF-8"?>
<svg id="Layer_1" data-name="Layer 1" xmlns="http://www.w3.org/2000/svg" width="30mm" height="30mm" viewBox="0 0 85.04 85.04">
  <path d="M57.02,35.88c0-4-1.6-7.7-4.5-10.5-2.9-2.8-6.7-4.2-10.7-4-7.5.3-13.8,7-13.8,14.8-.1,10.4-3.1,15.8-4.9,18.1-.6.8-1.1,1.2-1.1,1.2l1.4,2c5.7-3.7,12.3-5.6,19.1-5.6s13.4,2,19.1,5.6l1.4-2c-.1,0-6-5-6-19.6ZM42.52,49.38c-5.4,0-10.7,1.2-15.6,3.4,1.7-3.3,3.5-8.6,3.5-16.6,0-6.6,5.2-12.1,11.5-12.4h.6c3.1,0,6.1,1.2,8.4,3.3,2.4,2.3,3.7,5.4,3.7,8.7,0,8.2,1.8,13.6,3.5,16.9-4.9-2.2-10.2-3.3-15.6-3.3Z"/>
  <path d="M42.72,61.18c-3.1,0-6-1.2-8.3-3.3l-1.7,1.8c2.7,2.6,6.2,4,9.9,4s7.2-1.4,10.1-4l-1.7-1.8c-2.3,2.1-5.2,3.3-8.3,3.3Z"/>
</svg>