<?xml version="1.0" encoding="UTF-8"?>
<svg id="Layer_1" data-name="Layer 1" xmlns="http://www.w3.org/2000/svg" width="30mm" height="30mm" viewBox="0 0 85.04 85.04">
  <path d="M61.77,42.02c-3.4-7.8-11-12.8-19.2-12.8s-15.8,5-19.3,12.8l-.2.5.2.5c3.4,7.8,11,12.8,19.3,12.8s15.8-5,19.2-12.8l.2-.5-.2-.5ZM42.47,53.42c-7.2,0-13.7-4.3-16.8-10.9,3.1-6.6,9.7-10.9,16.8-10.9s13.7,4.3,16.8,10.9c-3.1,6.7-9.6,10.9-16.8,10.9Z"/>
  <path d="M42.47,35.32c-4,0-7.3,3.3-7.3,7.3s3.3,7.3,7.3,7.3,7.3-3.3,7.3-7.3-3.2-7.3-7.3-7.3ZM42.47,47.42c-2.7,0-4.8-2.2-4.8-4.8s2.2-4.8,4.8-4.8,4.8,2.2,4.8,4.8c.1,2.6-2.1,4.8-4.8,4.8Z"/>
</svg>