<?xml version="1.0" encoding="UTF-8"?>
<svg id="Layer_1" data-name="Layer 1" xmlns="http://www.w3.org/2000/svg" width="30mm" height="30mm" viewBox="0 0 85.04 85.04">
  <polygon points="41.22 30.37 41.22 43.27 52.82 48.47 53.82 46.27 43.62 41.67 43.62 30.37 41.22 30.37"/>
  <path d="M42.42,24.37c7.8,0,14.8,5,17.2,12.5l2.3-.8c-2.8-8.5-10.6-14.1-19.5-14.1s-16.7,5.7-19.5,14.1l2.3.8c2.4-7.5,9.4-12.5,17.2-12.5Z"/>
  <path d="M62.92,41.47v-.3l-2.4.1v1.1c0,10-8.1,18.1-18.1,18.1s-18.1-8.1-18.1-18.1v-1.1l-2.4-.1v1.3c0,11.3,9.2,20.6,20.6,20.6s20.6-9.2,20.6-20.6c-.1-.3-.2-.7-.2-1Z"/>
</svg>