<?xml version="1.0" encoding="UTF-8"?>
<svg id="Layer_1" data-name="Layer 1" xmlns="http://www.w3.org/2000/svg" width="30mm" height="30mm" viewBox="0 0 85.04 85.04">
  <polygon points="19.57 23.77 19.57 34.67 21.97 34.67 21.97 26.17 63.07 26.17 63.07 58.87 47.37 58.87 47.37 61.27 65.47 61.27 65.47 23.77 19.57 23.77"/>
  <path d="M19.57,39.37v2.4c10.7,0,19.5,8.7,19.5,19.5h2.4c0-12.1-9.8-21.9-21.9-21.9Z"/>
  <path d="M19.57,46.67v2.4c6.7,0,12.2,5.5,12.2,12.2h2.4c0-8-6.6-14.6-14.6-14.6Z"/>
  <path d="M19.57,53.97v2.4c2.7,0,4.9,2.2,4.9,4.9h2.4c0-4-3.3-7.3-7.3-7.3Z"/>
</svg>