<?xml version="1.0" encoding="UTF-8"?>
<svg id="Layer_1" data-name="Layer 1" xmlns="http://www.w3.org/2000/svg" width="30mm" height="30mm" viewBox="0 0 85.04 85.04">
  <path d="M47.77,49.47c1.8.9,3.4,2,5,3.3,4.2,1.4,8,4.3,10.5,8.2l2-1.3c-3.9-6.2-10.6-10-17.5-10.2Z"/>
  <path d="M47.97,26.57c4.4.3,7.9,4,7.9,8.4s-3.5,8.1-7.9,8.4c-.7.9-1.5,1.6-2.4,2.3.6.1,1.2.2,1.8.2,6,0,10.9-4.9,10.9-10.9s-4.9-10.9-10.9-10.9c-.6,0-1.2.1-1.8.2.9.7,1.7,1.4,2.4,2.3Z"/>
  <path d="M37.77,49.47c-7.1,0-14,3.9-18,10.2l2,1.3c3.6-5.6,9.9-9.1,16.1-9.1s12.3,3.5,15.9,9.1l2-1.3c-4.1-6.3-11-10.2-18-10.2Z"/>
  <path d="M37.77,45.87c6,0,10.8-4.9,10.9-10.9,0-6-4.9-10.9-10.9-10.9s-10.9,4.9-10.9,10.9,4.9,10.9,10.9,10.9ZM37.77,26.47c4.6,0,8.4,3.8,8.5,8.5,0,4.7-3.8,8.5-8.5,8.5s-8.5-3.8-8.5-8.5,3.8-8.5,8.5-8.5Z"/>
</svg>