<?xml version="1.0" encoding="UTF-8"?>
<svg id="Layer_1" data-name="Layer 1" xmlns="http://www.w3.org/2000/svg" width="30mm" height="30mm" viewBox="0 0 85.04 85.04">
  <path d="M67.86,46.71c-.01-.11-.03-.22-.04-.33-.04-.32-.09-.63-.15-.94-.02-.1-.04-.19-.06-.29-.08-.35-.17-.7-.27-1.04-.01-.04-.02-.08-.04-.12-.9-2.87-2.74-5.34-5.21-7.02-.24-.17-.5-.32-.75-.47-.04-.02-.08-.05-.12-.07-.94-.55-1.94-.99-3.01-1.3-.42-6.38-5.71-11.36-12.1-11.36-4.4,0-8.5,2.4-10.6,6.3-.9-.1-1.8-.2-2.7-.2-8.6,0-15.7,7-15.7,15.7s7,15.7,15.7,15.7h21.8c7.3,0,13.3-5.9,13.3-13.3,0-.42-.03-.84-.06-1.26ZM54.62,58.87h-21.8c-7.3,0-13.3-6-13.3-13.3s6-13.3,13.3-13.3c1,0,2,.1,3.1.3l1,.2.4-.9c1.5-3.4,5-5.7,8.8-5.7,4.98,0,9.02,3.66,9.62,8.47-.37-.04-.74-.07-1.12-.07-4.8,0-9.2,2.6-11.6,6.8l2.1,1.2c2-3.4,5.6-5.5,9.5-5.5,1.48,0,2.88.3,4.17.84.09.04.18.08.27.12.19.08.37.17.56.27.17.09.33.18.49.28.1.06.2.12.3.18.19.12.38.25.56.38.06.04.12.09.18.13.2.15.4.31.6.48.02.02.05.04.07.07.85.76,1.59,1.64,2.17,2.62.04.06.08.12.11.19.1.18.19.37.29.55.06.12.11.23.17.35.08.17.14.34.21.51.06.15.11.29.16.44.05.16.1.31.15.47.05.18.1.35.14.53.03.14.07.29.1.43.04.21.07.43.1.65.02.12.04.24.05.36.03.34.05.69.05,1.04h0c0,6-4.9,10.9-10.9,10.9Z"/>
</svg>