<?xml version="1.0" encoding="UTF-8"?>
<svg id="Layer_1" data-name="Layer 1" xmlns="http://www.w3.org/2000/svg" width="30mm" height="30mm" viewBox="0 0 85.04 85.04">
  <path d="M34.82,26.57v23.2c-1.36-1.24-3.18-2-5.2-2-4.3,0-7.7,3.5-7.7,7.7s3.5,7.7,7.7,7.7,7.7-3.4,7.7-7.7v-26.9l23.3-3.9v20.8c-1.36-1.24-3.18-2-5.2-2-4.3,0-7.7,3.5-7.7,7.7s3.5,7.7,7.7,7.7,7.7-3.4,7.7-7.7v-29.3l-28.3,4.7ZM29.62,60.67c-2.8,0-5.2-2.3-5.2-5.2s2.3-5.2,5.2-5.2,5.2,2.3,5.2,5.2c0,2.8-2.4,5.2-5.2,5.2ZM55.42,56.37c-2.8,0-5.2-2.3-5.2-5.2s2.3-5.2,5.2-5.2,5.2,2.3,5.2,5.2-2.4,5.2-5.2,5.2Z"/>
</svg>