<?xml version="1.0" encoding="UTF-8"?>
<svg id="Layer_1" data-name="Layer 1" xmlns="http://www.w3.org/2000/svg" width="30mm" height="30mm" viewBox="0 0 85.04 85.04">
  <path d="M42.57,22.32l-20.6,19.3v21.1h41.1v-21.1l-20.5-19.3ZM60.67,60.22H24.47v-4.3c4.4-5.7,11-8.9,18.1-8.9s13.7,3.3,18.1,8.9v4.3ZM60.67,52.22c-4.7-4.9-11.2-7.7-18.1-7.7-1.29,0-2.57.1-3.83.29-.84.13-1.66.3-2.48.51-1.22.32-2.41.72-3.57,1.21-.77.33-1.52.69-2.25,1.1-1.1.6-2.15,1.29-3.15,2.06-.67.51-1.31,1.06-1.92,1.64-.31.29-.61.59-.9.89v-9.6l18.1-17,18.1,17v9.6Z"/>
</svg>