<?xml version="1.0" encoding="UTF-8"?>
<svg id="Layer_1" data-name="Layer 1" xmlns="http://www.w3.org/2000/svg" width="30mm" height="30mm" viewBox="0 0 85.04 85.04">
  <path d="M55.02,27.97c-.3,0-.7,0-1,.1-.6-3.2-3.4-5.6-6.8-5.6-1.8,0-3.5.7-4.7,1.9-1.3-1.2-2.9-1.9-4.7-1.9-3.4,0-6.2,2.4-6.8,5.6-.3-.1-.7-.1-1-.1-3.5,0-6.4,2.9-6.4,6.4,0,2.1,1.1,4,2.6,5.1l4,23.1h24.5l4-23.1c1.7-1.1,2.7-3,2.7-5.1,0-3.5-2.9-6.4-6.4-6.4ZM54.92,47.07l-.9,5-1.3,7.8h-20l-1.28-7.71c3.08,2.64,7.04,4.11,11.18,4.11s8.2-1.5,11.3-4.2l.9-5c-2.7,4.1-7.3,6.6-12.2,6.6s-9.5-2.5-12.2-6.6l-1-6h26.5l-1,6ZM55.12,38.07h-25c-2,0-3.7-1.6-3.7-3.7s1.6-3.7,3.7-3.7c.6,0,1.1.1,1.6.4l2.2,1.1-.2-2.4v-.4c0-2.3,1.9-4.2,4.2-4.2,1.5,0,2.8.7,3.6,2l1.1,1.9,1.1-1.9c.8-1.3,2.1-2,3.6-2,2.3,0,4.2,1.9,4.2,4.2v.4l-.2,2.4,2.2-1.1c.5-.3,1.1-.4,1.6-.4,2,0,3.7,1.6,3.7,3.7s-1.6,3.7-3.7,3.7Z"/>
</svg>