<?xml version="1.0" encoding="UTF-8"?>
<svg id="Layer_1" data-name="Layer 1" xmlns="http://www.w3.org/2000/svg" width="30mm" height="30mm" viewBox="0 0 85.04 85.04">
  <path d="M39.42,49.52c-7.1,0-14,3.9-18,10.2l2,1.3c3.7-5.6,9.9-9.1,16.1-9.1s12.3,3.5,15.9,9.1l2-1.3c-4.1-6.3-10.9-10.2-18-10.2Z"/>
  <path d="M39.42,45.82c6,0,10.8-4.9,10.9-10.9,0-6-4.9-10.9-10.9-10.9s-10.9,4.9-10.9,10.9,4.9,10.9,10.9,10.9ZM39.42,26.52c4.6,0,8.4,3.8,8.5,8.5,0,4.7-3.8,8.5-8.5,8.5s-8.5-3.8-8.5-8.5,3.8-8.5,8.5-8.5Z"/>
  <rect x="51.52" y="41.02" width="12.1" height="2.4"/>
</svg>