<?xml version="1.0" encoding="UTF-8"?>
<svg id="Layer_1" data-name="Layer 1" xmlns="http://www.w3.org/2000/svg" width="30mm" height="30mm" viewBox="0 0 85.04 85.04">
  <path d="M63.02,31.02h-4.8c0-4.7-3.8-8.5-8.5-8.5-3.2,0-6,1.8-7.5,4.4-1.4-2.6-4.2-4.4-7.5-4.4-4.7,0-8.5,3.8-8.5,8.5h-4.3v12.1h3.9v19.4h33.4v-19.4h3.9v-12.1h-.1ZM49.82,25.02c3.3,0,6,2.7,6,6h-12c0-3.3,2.7-6,6-6ZM35.02,25.02c3.3,0,6,2.7,6,6h-12c0-3.3,2.7-6,6-6ZM24.32,40.72v-7.3h16.9v7.3h-16.9ZM41.32,60.02h-13.1v-16.9h13.1v16.9ZM56.72,60.02h-13.1v-16.9h13.1v16.9ZM60.62,40.72h-16.9v-7.3h16.9v7.3Z"/>
</svg>