<?xml version="1.0" encoding="UTF-8"?>
<svg id="Layer_1" data-name="Layer 1" xmlns="http://www.w3.org/2000/svg" width="30mm" height="30mm" viewBox="0 0 85.04 85.04">
  <path d="M56.02,34.37c0-7.5-6.1-13.5-13.5-13.5s-13.5,6.1-13.5,13.5c0,4.5,2.2,8.4,5.5,10.9l-3.6,18.9,2.7-2.5c2.3-2.2,5.4-3.3,8.8-3.3s6.6,1.1,8.8,3.3l2.7,2.5-3.6-18.9c3.5-2.5,5.7-6.5,5.7-10.9ZM31.42,34.37c0-6.1,5-11.1,11.1-11.1s11.1,5,11.1,11.1-5,11.1-11.1,11.1-11.1-5-11.1-11.1ZM50.42,57.97c-2.3-1.3-5-2-7.9-2s-5.6.7-7.9,2l2.1-11.4c1.8.8,3.7,1.3,5.8,1.3s4-.5,5.8-1.3l2.1,11.4Z"/>
</svg>