<?xml version="1.0" encoding="UTF-8"?>
<svg id="Layer_1" data-name="Layer 1" xmlns="http://www.w3.org/2000/svg" width="30mm" height="30mm" viewBox="0 0 85.04 85.04">
  <path d="M63.57,55.07c-6.2,0-6.2-13.2-6.2-24.8v-1.2h-6.63c-2.06-4.09-6.35-6.6-11.37-6.6s-9.32,2.51-11.37,6.6h-6.63v33.5h34.8v-5h7.5l-.1-2.5ZM39.37,24.97c2.82,0,6.36,1.1,8.46,4.1h-16.92c2.08-3,5.56-4.1,8.46-4.1ZM53.57,60.07h-29.8v-8.8c1.8,3.8,4.8,6.4,9.9,6.4h19.9v2.4ZM33.77,55.07c-9,0-9.9-9.7-9.9-23.6h31c0,9.6.1,19.2,3.6,23.6h-24.7Z"/>
  <polygon points="37.47 40.17 39.97 40.17 39.97 50.17 42.47 50.17 42.47 37.77 37.47 37.77 37.47 40.17"/>
</svg>