<?xml version="1.0" encoding="UTF-8"?>
<svg id="Layer_1" data-name="Layer 1" xmlns="http://www.w3.org/2000/svg" width="300" height="100" viewBox="0 0 300 100">
  <path d="M107.92,26.51c-12.98,0-23.49,10.58-23.49,23.49s10.58,23.49,23.49,23.49,23.49-10.58,23.49-23.49-10.51-23.49-23.49-23.49ZM107.92,64.18c-7.83,0-14.18-6.35-14.18-14.18s6.35-14.18,14.18-14.18,14.18,6.35,14.18,14.18-6.35,14.18-14.18,14.18Z" fill="#21dbaa"/>
  <polygon points="103.86 56.71 116.25 49.82 103.86 43.07 103.86 56.71" fill="#21dbaa"/>
  <path d="M141.26,37.87v3.21h-2.42v3.32h2.42v16.89h4.08v-16.89h4.42v-3.32h-4.42v-3.21c0-.72.34-1.06.94-1.06h4.46v-3.29h-4.99c-2.72,0-4.5,1.55-4.5,4.34Z" fill="#21dbaa"/>
  <path d="M157.84,56.64v-23.08h-4.12v23.31c0,2.98,1.21,4.42,3.48,4.42h4.12v-3.66h-2.72c-.6,0-.76-.23-.76-.98Z" fill="#21dbaa"/>
  <path d="M173.48,40.51c-5.82,0-9.86,4.42-9.86,10.65s3.93,10.65,9.71,10.65,9.78-4.68,9.78-10.69-3.82-10.62-9.63-10.62ZM173.37,58.27c-3.78,0-5.82-3.21-5.82-7.1s2.08-7.1,5.89-7.1,5.74,3.21,5.74,7.1-2.12,7.1-5.82,7.1Z" fill="#21dbaa"/>
  <polygon points="211.64 41.08 207.14 57.93 206.8 57.93 201.81 41.08 197.55 41.08 192.82 57.93 192.52 57.93 187.91 41.08 183.83 41.08 189.42 61.29 195.32 61.29 199.66 46.37 203.78 61.29 209.71 61.29 215.57 41.08 211.64 41.08" fill="#21dbaa"/>
</svg>