<?xml version="1.0" encoding="UTF-8"?>
<svg xmlns="http://www.w3.org/2000/svg" version="1.1" viewBox="0 0 50 40">
  <defs>
    <style>
      .cls-1 {
        fill: #fff;
      }
    </style>
  </defs>
  <!-- Generator: Adobe Illustrator 28.6.0, SVG Export Plug-In . SVG Version: 1.2.0 Build 709)  -->
  <g>
    <g id="Layer_1">
      <g>
        <path class="cls-1" d="M20.6,21.2h-10.1l-2.3,6.3h-3.3L14.2,3.5h2.8l9.2,24h-3.2l-2.3-6.3ZM11.5,18.6h8.2l-4.1-11.2-4.1,11.2Z"/>
        <path class="cls-1" d="M28.1,18.4c0-2.8.6-5,1.9-6.6,1.3-1.6,3-2.5,5.1-2.5s3.9.8,5.1,2.3v-2h2.9v17.4c0,2.3-.7,4.1-2.1,5.5-1.4,1.3-3.2,2-5.5,2s-2.5-.3-3.8-.8c-1.2-.6-2.2-1.3-2.8-2.3l1.6-1.8c1.3,1.6,2.9,2.4,4.8,2.4s2.6-.4,3.5-1.3,1.2-2,1.2-3.5v-1.5c-1.2,1.4-2.9,2.1-5,2.1s-3.8-.8-5.1-2.5c-1.3-1.7-1.9-4-1.9-6.9ZM31.2,18.8c0,2,.4,3.6,1.2,4.7s2,1.7,3.5,1.7,3.3-.9,4.2-2.6v-8.1c-.9-1.7-2.3-2.6-4.2-2.6s-2.6.6-3.5,1.7c-.8,1.2-1.3,2.9-1.3,5.1Z"/>
      </g>
    </g>
  </g>
</svg>