<?xml version="1.0" encoding="UTF-8"?>
<svg id="Layer_1" data-name="Layer 1" xmlns="http://www.w3.org/2000/svg" width="30mm" height="30mm" viewBox="0 0 85.04 85.04">
  <path d="M58.32,29.67v-1.9h-6.9c-2.2-4-6.6-6.5-11.7-6.5s-9.5,2.5-11.7,6.5h-6.9v36h36v-6.2h6.8v-3.7c-5.6,0-5.6-13.4-5.6-24.2ZM39.72,24.97c2.3,0,5.1.8,7.1,2.8h-14.2c2-2,4.7-2.8,7.1-2.8ZM24.72,60.07v-7.2c1.9,2.9,4.9,4.7,9.3,4.7h19.2v2.5h-28.5ZM34.12,53.87c-8.3,0-9.2-9.2-9.3-22.3h29.8c0,8.5.2,17.5,3.1,22.3h-23.6Z"/>
  <polygon points="37.82 40.17 39.72 40.17 39.72 49.47 43.42 49.47 43.42 36.47 37.82 36.47 37.82 40.17"/>
</svg>