<?xml version="1.0" encoding="UTF-8"?>
<svg id="Layer_1" data-name="Layer 1" xmlns="http://www.w3.org/2000/svg" width="30mm" height="30mm" viewBox="0 0 85.04 85.04">
  <path d="M42.62,42.57c-3,0-5.5,2.5-5.5,5.5,0,2.4,1.4,4.4,3.6,5.2v8.7l3.8.1v-8.8c2.1-.8,3.6-2.9,3.6-5.2,0-3-2.5-5.5-5.5-5.5ZM42.62,49.77c-.9,0-1.7-.8-1.7-1.7s.8-1.7,1.7-1.7,1.7.7,1.7,1.7c0,.9-.8,1.7-1.7,1.7Z"/>
  <path d="M64.02,31.87c-5.8-5.7-13.4-8.9-21.5-8.9s-15.8,3.2-21.5,8.9l-.5.5,2.7,2.7.5-.5c5-5,11.7-7.8,18.8-7.8s13.8,2.8,18.8,7.8l.5.5,2.7-2.7-.5-.5Z"/>
  <path d="M42.62,32.67c-5.5,0-10.7,2.2-14.6,6.1l-.5.5,2.7,2.7.5-.5c3.2-3.1,7.4-4.9,11.9-4.9s8.7,1.7,11.9,4.9l.5.5,2.7-2.7-.5-.5c-3.9-4-9.1-6.1-14.6-6.1Z"/>
</svg>