<?xml version="1.0" encoding="UTF-8"?>
<svg id="Layer_1" data-name="Layer 1" xmlns="http://www.w3.org/2000/svg" width="30mm" height="30mm" viewBox="0 0 85.04 85.04">
  <path d="M42.86,46.62c1.2,0,2.3-.5,3.1-1.3,1.7-1.7,1.7-4.4,0-6.1-.9-.9-1.9-1.3-3.1-1.3s-2.3.5-3.1,1.3c-1.2,1.2-1.6,2.8-1.1,4.3l-3.5,3.2-9.2-9.2-1.3,2c-4.6,7-1.9,14.8,2.6,19,2.8,2.6,6.4,4.1,10,4.1,2.8,0,5.5-.9,7.8-2.9l1.8-1.3-9-9,3.4-3.1c.5.2,1.1.3,1.6.3ZM40.96,58.12c-1.2.5-2.5.8-3.8.8-2.5,0-5.2-1.1-7.3-3.1-2.7-2.6-5-7.2-3.1-12l14.2,14.3Z"/>
  <path d="M42.76,22.42h-.7v3.8h.7c9.9,0,16.2,6.4,16.2,16.2v.7h3.8v-.7c0-12-8.1-20-20-20Z"/>
  <path d="M42.86,29.72h-.7v3.8h.7c4.9,0,8.9,4,8.9,8.9v.7h3.8v-.7c0-7-5.7-12.7-12.7-12.7Z"/>
</svg>