<?xml version="1.0" encoding="UTF-8"?>
<svg id="Layer_1" data-name="Layer 1" xmlns="http://www.w3.org/2000/svg" width="30mm" height="30mm" viewBox="0 0 85.04 85.04">
  <path d="M39.67,49.02c-7.2,0-14.3,4-18.5,10.5l3.1,2c3.5-5.5,9.4-8.8,15.4-8.8s11.9,3.4,15.4,8.8l3.1-2c-4.2-6.5-11.3-10.5-18.5-10.5Z"/>
  <path d="M39.67,46.52c6.3,0,11.5-5.2,11.5-11.5s-5.2-11.5-11.5-11.5-11.5,5.2-11.5,11.5,5.2,11.5,11.5,11.5ZM39.67,27.22c4.3,0,7.9,3.5,7.9,7.9s-3.5,7.9-7.9,7.9-7.9-3.5-7.9-7.9,3.6-7.9,7.9-7.9Z"/>
  <polygon points="59.67 40.52 59.67 36.32 55.97 36.32 55.97 40.52 51.77 40.52 51.77 44.12 55.97 44.12 55.97 48.42 59.67 48.42 59.67 44.12 63.87 44.12 63.87 40.52 59.67 40.52"/>
</svg>