<?xml version="1.0" encoding="UTF-8"?>
<svg id="Layer_1" data-name="Layer 1" xmlns="http://www.w3.org/2000/svg" width="30mm" height="30mm" viewBox="0 0 85.04 85.04">
  <rect x="40.32" y="58.27" width="4.8" height="3.6"/>
  <path d="M42.82,49.87c3.7,0,6.7-3,6.7-6.7v-13.3c0-3.7-3-6.7-6.7-6.7s-6.7,3-6.7,6.7v13.3c0,3.7,3,6.7,6.7,6.7ZM39.72,29.87c0-1.7,1.4-3,3-3,1.7,0,3,1.4,3,3v13.3c0,1.7-1.4,3-3,3-1.7,0-3-1.4-3-3v-13.3Z"/>
  <path d="M52.02,47.47c-2.1,3.3-5.6,5.3-9.4,5.3s-7.2-2-9.4-5.3l-3.1,2c2.8,4.4,7.4,7,12.4,7s9.6-2.6,12.4-7l-2.9-2Z"/>
</svg>