<?xml version="1.0" encoding="UTF-8"?>
<svg id="Layer_1" data-name="Layer 1" xmlns="http://www.w3.org/2000/svg" width="30mm" height="30mm" viewBox="0 0 85.04 85.04">
  <path d="M44.42,43.42v-17.4h-3.8v17.4c-2.2.8-3.8,2.9-3.8,5.4s1.6,4.6,3.8,5.4v4.8h3.8v-4.8c2.2-.8,3.8-2.9,3.8-5.4s-1.6-4.6-3.8-5.4ZM42.52,50.72c-1,0-1.9-.9-1.9-1.9s.9-1.9,1.9-1.9,1.9.9,1.9,1.9-.9,1.9-1.9,1.9Z"/>
  <path d="M59.62,37.12v-11.1h-3.8v11.1c-2.2.8-3.8,2.9-3.8,5.4s1.6,4.6,3.8,5.4v11h3.8v-11.1c2.2-.8,3.8-2.9,3.8-5.3s-1.6-4.6-3.8-5.4ZM57.72,44.42c-1,0-1.9-.9-1.9-1.9s.9-1.9,1.9-1.9,1.9.9,1.9,1.9-.9,1.9-1.9,1.9Z"/>
  <path d="M29.22,29.52v-3.5h-3.8v3.5c-2.2.8-3.8,2.9-3.8,5.4s1.6,4.6,3.8,5.4v18.6h3.8v-18.7c2.2-.8,3.8-2.9,3.8-5.4,0-2.4-1.6-4.5-3.8-5.3ZM27.32,36.82c-1,0-1.9-.9-1.9-1.9s.9-1.9,1.9-1.9,1.9.9,1.9,1.9-.9,1.9-1.9,1.9Z"/>
</svg>