<?xml version="1.0" encoding="UTF-8"?>
<svg id="Layer_1" data-name="Layer 1" xmlns="http://www.w3.org/2000/svg" width="30mm" height="30mm" viewBox="0 0 85.04 85.04">
  <polygon points="60.37 31.52 58.17 46.62 34.57 46.62 29.77 22.72 21.07 22.72 21.07 26.42 26.77 26.42 31.67 50.22 61.27 50.22 63.97 32.02 60.37 31.52"/>
  <path d="M40.77,51.52c-3,0-5.4,2.4-5.4,5.4s2.4,5.4,5.4,5.4,5.4-2.5,5.4-5.4c0-3-2.4-5.4-5.4-5.4ZM40.77,58.72c-1,0-1.8-.8-1.8-1.8s.8-1.8,1.8-1.8,1.8.8,1.8,1.8-.8,1.8-1.8,1.8Z"/>
  <path d="M54.87,51.52c-3,0-5.4,2.4-5.4,5.4s2.4,5.4,5.4,5.4,5.5-2.5,5.4-5.4c0-3-2.4-5.4-5.4-5.4ZM54.87,58.72c-1,0-1.8-.8-1.8-1.8s.8-1.8,1.8-1.8,1.8.8,1.8,1.8-.8,1.8-1.8,1.8Z"/>
  <path d="M45.77,28.82c3.8,0,7,1.4,8.8,4l2.8-2.1c-2.5-3.6-6.8-5.6-11.7-5.6s-9.2,2.1-11.7,5.6l3,2.1c1.8-2.5,5-4,8.8-4Z"/>
</svg>