<?xml version="1.0" encoding="UTF-8"?>
<svg id="Layer_1" data-name="Layer 1" xmlns="http://www.w3.org/2000/svg" width="30mm" height="30mm" viewBox="0 0 85.04 85.04">
  <path d="M63.72,30.72h-4.8c0-5-4.1-9.1-9.1-9.1-3,0-5.6,1.4-7.3,3.7-1.7-2.2-4.3-3.7-7.3-3.7-5,0-9.1,4.1-9.1,9.1h-4.8v13.3h3.9v19.4h34.6v-19.4h3.9v-13.3ZM35.32,25.22c3,0,5.4,2.4,5.4,5.4h-10.9c0-2.9,2.5-5.4,5.5-5.4ZM25.02,40.32v-6h15.7v6h-15.7ZM40.82,59.72h-11.9v-15.7h11.9v15.7ZM49.82,25.22c3,0,5.4,2.4,5.4,5.4h-10.9c.1-2.9,2.5-5.4,5.5-5.4ZM56.22,59.72h-11.9v-15.7h11.9v15.7ZM60.12,40.32h-15.7v-6h15.7v6Z"/>
</svg>