<?xml version="1.0" encoding="UTF-8"?>
<svg id="Layer_1" data-name="Layer 1" xmlns="http://www.w3.org/2000/svg" width="30mm" height="30mm" viewBox="0 0 85.04 85.04">
  <path d="M57.72,44.42c-4,0-7.2,3.2-7.2,7.2v5.5c0,4,3.2,7.2,7.2,7.2s7.2-3.2,7.2-7.2v-5.5c0-4-3.2-7.2-7.2-7.2ZM61.32,57.12c0,2-1.6,3.6-3.6,3.6s-3.6-1.6-3.6-3.6v-5.5c0-2,1.6-3.6,3.6-3.6s3.6,1.6,3.6,3.6v5.5Z"/>
  <path d="M27.32,44.42c-4,0-7.2,3.2-7.2,7.2v5.5c0,4,3.2,7.2,7.2,7.2s7.2-3.2,7.2-7.2v-5.5c0-4-3.2-7.2-7.2-7.2ZM30.92,57.12c0,2-1.6,3.6-3.6,3.6s-3.6-1.6-3.6-3.6v-5.5c0-2,1.6-3.6,3.6-3.6s3.6,1.6,3.6,3.6v5.5Z"/>
  <path d="M60.12,41.92h3.6c0-11.7-9.3-21.2-21-21.2s-21.2,9.5-21.2,21.2h3.6c0-9.6,7.9-17.5,17.5-17.5s17.5,6.2,17.5,17.5Z"/>
</svg>