<?xml version="1.0" encoding="UTF-8"?>
<svg id="Layer_1" data-name="Layer 1" xmlns="http://www.w3.org/2000/svg" width="30mm" height="30mm" viewBox="0 0 85.04 85.04">
  <path d="M54.77,27.27c-.9-3.2-3.8-5.6-7.4-5.6-1.8,0-3.4.6-4.8,1.7-1.3-1.1-3-1.7-4.8-1.7-3.5,0-6.5,2.4-7.4,5.6h-.5c-3.9,0-7.1,3.2-7.1,7.1,0,2.2,1.1,4.2,2.7,5.5l4,23.5h25.8l4-23.5c2-1.3,3-3.2,3-5.5,0-4.1-3.5-7.3-7.5-7.1ZM51.97,59.37h-18.8l-1-5.6c3,2.1,6.6,3.3,10.4,3.3s7.4-1.2,10.4-3.3l-1,5.6ZM54.27,46.87c-2.6,3.9-6.9,6.2-11.6,6.2s-9-2.3-11.6-6.2l-.9-5.1h25l-.9,5.1ZM55.17,37.37h-25.1c-1.7,0-3-1.3-3-3s1.3-3,3-3c.5,0,.9.1,1.3.3l2.8,1.1.2-3.1v-.3c0-2,1.6-3.6,3.6-3.6,1.2,0,2.4.6,3,1.7l1.7,1.9,1.7-1.9c.7-1.1,1.8-1.7,3-1.7,2,0,3.6,1.6,3.6,3.6v.3l.2,3.1,2.7-1.1c.4-.2.9-.3,1.3-.3,1.7,0,3,1.3,3,3s-1.3,3-3,3Z"/>
</svg>