<?xml version="1.0" encoding="UTF-8"?>
<svg id="Layer_1" data-name="Layer 1" xmlns="http://www.w3.org/2000/svg" width="30mm" height="30mm" viewBox="0 0 85.04 85.04">
  <path d="M39.31,24.97c-5.8,0-10.9,4-12.2,9.7l-1.1,4.9c-.5,2.3,0,4.7,1.5,6.6,1.5,1.8,3.7,2.9,6.1,2.9h4v4.4c0,3.6,3,6.6,6.7,6.6h1.2l5.8-14.5h7.9v-20.6h-19.9ZM48.61,43.57l-5.4,12.8c-1.1-.4-1.9-1.5-1.9-2.8v-8h-7.6c-1.2,0-2.4-.6-3.2-1.6s-1.1-2.3-.8-3.5l1.1-4.9c1-4.1,4.5-6.9,8.7-6.9h0v.1h9.1v14.8ZM55.81,41.97h-3.6v-13.3h3.6v13.3Z"/>
</svg>