<?xml version="1.0" encoding="UTF-8"?>
<svg id="Layer_1" data-name="Layer 1" xmlns="http://www.w3.org/2000/svg" width="30mm" height="30mm" viewBox="0 0 85.04 85.04">
  <path d="M42.52,48.97c-7.3,0-14.3,4-18.5,10.5l3.1,2c3.5-5.4,9.4-8.8,15.4-8.8s11.9,3.3,15.4,8.8l3.1-2c-4.2-6.5-11.3-10.5-18.5-10.5Z"/>
  <path d="M42.52,46.57c6.3,0,11.5-5.1,11.5-11.5s-5.2-11.5-11.5-11.5-11.5,5.2-11.5,11.5,5.2,11.5,11.5,11.5ZM42.52,27.27c4.3,0,7.9,3.5,7.9,7.9,0,4.4-3.6,7.9-7.9,7.9s-7.9-3.6-7.9-7.9,3.6-7.9,7.9-7.9Z"/>
</svg>