<?xml version="1.0" encoding="UTF-8"?>
<svg id="Layer_1" data-name="Layer 1" xmlns="http://www.w3.org/2000/svg" width="300" height="100" viewBox="0 0 300 100">
  <path d="M98.58,26.51c-12.98,0-23.49,10.58-23.49,23.49s10.58,23.49,23.49,23.49,23.49-10.58,23.49-23.49-10.51-23.49-23.49-23.49ZM98.58,64.18c-7.83,0-14.18-6.35-14.18-14.18s6.35-14.18,14.18-14.18,14.18,6.35,14.18,14.18-6.35,14.18-14.18,14.18Z" fill="#fff"/>
  <rect x="89.69" y="48.83" width="4.27" height="5.9" fill="#fff"/>
  <rect x="96.5" y="45.73" width="4.27" height="9.01" fill="#fff"/>
  <rect x="103.19" y="42.93" width="4.27" height="11.81" fill="#fff"/>
  <path d="M155.93,40.51c-3.51,0-5.89,2.08-6.91,4.95h-.26c-.76-2.95-2.76-4.95-6.12-4.95s-5.86,1.96-6.69,4.46h-.26v-3.89h-3.78v20.21h4.12v-10.54c0-2.87,1.59-6.76,5.02-6.76,2.57,0,4.19,1.55,4.19,5.14v12.16h4.12v-10.88c0-2.72,1.7-6.42,5.29-6.42,2.91,0,3.93,2.19,3.93,5.14v12.16h4.12v-12.73c0-4.99-2.42-8.05-6.76-8.05Z" fill="#fff"/>
  <path d="M176.22,40.51c-5.82,0-9.86,4.42-9.86,10.65s3.93,10.65,9.71,10.65,9.78-4.68,9.78-10.69-3.82-10.62-9.63-10.62ZM176.1,58.27c-3.78,0-5.82-3.21-5.82-7.1s2.08-7.1,5.89-7.1,5.74,3.21,5.74,7.1-2.12,7.1-5.82,7.1Z" fill="#fff"/>
  <polygon points="182.6 33.18 182.6 32.65 178.3 32.65 174.63 38.24 177.96 38.24 182.6 33.18" fill="#fff"/>
  <polygon points="196.35 57.81 196.05 57.81 190.65 41.08 186.57 41.08 193.22 61.29 198.89 61.29 205.57 41.08 201.64 41.08 196.35 57.81" fill="#fff"/>
  <path d="M210.14,32.81c-1.51,0-2.72,1.13-2.72,2.57,0,1.51,1.25,2.64,2.76,2.64s2.68-1.13,2.68-2.64-1.25-2.57-2.72-2.57Z" fill="#fff"/>
  <rect x="208.1" y="41.04" width="4.08" height="20.25" fill="#fff"/>
  <path d="M222.19,57.62c-.6,0-.76-.23-.76-.98v-23.08h-4.12v23.31c0,2.98,1.21,4.42,3.48,4.42h4.12v-3.66h-2.72Z" fill="#fff"/>
</svg>