<?xml version="1.0" encoding="UTF-8"?>
<svg id="Layer_1" data-name="Layer 1" xmlns="http://www.w3.org/2000/svg" width="300" height="300" viewBox="0 0 300 300">
  <path d="M120.5,212.27c-4.77,0-8.01,2.82-9.39,6.72h-.36c-1.03-4-3.75-6.72-8.32-6.72s-7.96,2.67-9.09,6.06h-.36v-5.29h-5.13v27.46h5.59v-14.32c0-3.9,2.16-9.19,6.83-9.19,3.49,0,5.7,2.1,5.7,6.98v16.53h5.59v-14.78c0-3.7,2.31-8.73,7.19-8.73,3.95,0,5.34,2.98,5.34,6.98v16.53h5.59v-17.3c0-6.78-3.29-10.93-9.19-10.93Z" fill="#fff"/>
  <path d="M148.07,212.27c-7.91,0-13.4,6.01-13.4,14.48s5.34,14.48,13.19,14.48,13.29-6.37,13.29-14.53-5.18-14.42-13.09-14.42ZM147.92,236.4c-5.13,0-7.9-4.36-7.9-9.65s2.82-9.65,8.01-9.65,7.8,4.36,7.8,9.65-2.87,9.65-7.91,9.65Z" fill="#fff"/>
  <polygon points="150.43 209.19 156.74 202.32 156.74 201.6 150.89 201.6 145.91 209.19 150.43 209.19" fill="#fff"/>
  <polygon points="175.43 235.78 175.02 235.78 167.68 213.04 162.14 213.04 171.17 240.51 178.87 240.51 187.96 213.04 182.62 213.04 175.43 235.78" fill="#fff"/>
  <path d="M194.17,201.8c-2.05,0-3.7,1.54-3.7,3.49,0,2.05,1.69,3.59,3.75,3.59s3.64-1.54,3.64-3.59-1.69-3.49-3.7-3.49Z" fill="#fff"/>
  <rect x="191.4" y="212.99" width="5.54" height="27.51" fill="#fff"/>
  <path d="M210.55,235.53c-.82,0-1.03-.31-1.03-1.33v-31.36h-5.59v31.67c0,4.06,1.64,6.01,4.72,6.01h5.6v-4.98h-3.7Z" fill="#fff"/>
  <path d="M150,186.71c35.05,0,63.42-28.57,63.42-63.43s-28.38-63.42-63.42-63.42-63.42,28.57-63.42,63.42,28.57,63.43,63.42,63.43ZM150,85c21.14,0,38.28,17.14,38.28,38.28s-17.14,38.28-38.28,38.28-38.28-17.14-38.28-38.28,17.14-38.28,38.28-38.28Z" fill="#fff"/>
  <rect x="126.01" y="120.12" width="11.53" height="15.94" fill="#fff"/>
  <rect x="144.39" y="111.74" width="11.53" height="24.32" fill="#fff"/>
  <rect x="162.46" y="104.18" width="11.53" height="31.88" fill="#fff"/>
</svg>