<svg width="24" height="24" xmlns="http://www.w3.org/2000/svg"><g fill="none" fill-rule="evenodd"><path d="M7.79022 3C6.801509 3 6 3.827982 6 4.84935v11.695874c0 1.021368.801509 1.84935 1.79022 1.84935H15l2.598664 3.837222C17.85752 22.690864 18.34335 23 18.9 23c.828427 0 1.5-.684692 1.5-1.529302v-3.076124h1.80978c.988711 0 1.79022-.827982 1.79022-1.84935V4.84935C24 3.827982 23.198491 3 22.20978 3H7.79022z" fill="#0260AA" fill-rule="nonzero"/><path d="M18.010867 0C19.109435 0 20 .874123 20 1.952407v12.347641c0 1.078285-.890565 1.952407-1.989133 1.952407H10l-3.294016 4.139671C6.432707 20.760935 5.994272 21 5.5 21c-.828427 0-1.5-.671573-1.5-1.5v-3.247545H1.989133C.890565 16.252455 0 15.378333 0 14.300048V1.952408C0 .874122.890565 0 1.989133 0h16.021734z" fill="#238BDE" fill-rule="nonzero"/><path d="M7.0262 5.916468c-.02705-.06549-.02759-.21437-.025403-.239407C7.137442 4.1126 8.186595 3 10.029505 3 11.810502 3 13 4.121495 13 5.69017c0 1.086004-.494 1.845498-1.377998 2.420442-.764204.49052-1.036265.83239-1.084016 1.405316-.003408.040898-.018986.130565-.022395.177936-.003409.047371-.023117.12583-.046094.174507-.01143.024212-.035913.118324-.164919.202606-.130347.085159-.34127.124426-.471517.124426-.259152 0-.452951-.04316-.585064-.162141-.132112-.11898-.16921-.247079-.200884-.32072-.031674-.073641-.036343-.173445-.03709-.224263-.01429-.972486.368529-1.576573 1.220982-2.122965.805998-.532355 1.078998-.908553 1.078998-1.611262 0-.7382-.546-1.270555-1.364998-1.270555-.745916 0-1.255215.438137-1.395197 1.144516-.017374.087675-.0445.173178-.065964.252043-.021465.078865-.126091.24888-.176512.31051-.068746.08403-.286306.261423-.637761.227765-.351455-.033657-.46323-.196042-.529213-.263337-.065982-.067296-.087107-.173035-.114158-.238526zM9.8255 13c.552285 0 1-.447715 1-1s-.447715-1-1-1c-.552284 0-1 .447715-1 1s.447716 1 1 1z" fill="#FFF"/></g></svg>