<?xml version="1.0" encoding="UTF-8"?>
<svg id="Layer_1" data-name="Layer 1" xmlns="http://www.w3.org/2000/svg" width="300" height="100" viewBox="0 0 300 100">
  <path d="M109.4,44.49l-4.28,4.33,9.13,9.25,20.31-20.59c-1.1-1.74-2.41-3.32-3.91-4.71l-16.4,16.63-4.85-4.92Z"/>
  <path d="M128.75,48.21c.07.59.12,1.18.12,1.79,0,7.83-6.35,14.18-14.18,14.18s-14.18-6.35-14.18-14.18,6.35-14.18,14.18-14.18c2.38,0,4.62.59,6.59,1.63l6.71-6.81c-3.78-2.6-8.36-4.13-13.3-4.13-12.98,0-23.49,10.58-23.49,23.49s10.58,23.49,23.49,23.49,23.49-10.58,23.49-23.49c0-3.33-.7-6.5-1.95-9.38l-7.48,7.58Z"/>
  <path d="M158.56,40.47c-3.51,0-5.7,1.93-6.88,4.46h-.23v-3.89h-3.44v27.58h4v-11.14h.26c.94,2.23,3.02,4.34,6.5,4.34,4.99,0,8.88-4.31,8.88-10.69s-3.82-10.65-9.1-10.65ZM157.81,58.04c-3.66,0-5.67-3.17-5.67-6.84s2.15-6.91,5.78-6.91c3.32,0,5.55,2.87,5.55,6.95s-2.38,6.8-5.67,6.8Z"/>
  <path d="M186.97,57.32v-9.18c0-4.84-3.1-7.63-7.78-7.63-4.19,0-7.33,2.34-8.65,6.35l3.4,1.44c1.21-2.95,2.64-4.23,5.25-4.23,2.12,0,3.93,1.59,3.93,4.53v1.25h-4.76c-4.38,0-8.35,2.19-8.35,6.31,0,3.48,2.8,5.63,6.35,5.63s6.12-2.04,7.33-4.72h.34l-.04,1.28c0,1.93.91,2.95,2.72,2.95h2.34v-3.25h-1.55c-.34,0-.53-.26-.53-.72ZM177.15,58.23c-1.59,0-3.21-.83-3.21-2.42,0-2,2.57-2.98,5.82-2.98h3.36c-.3,2.64-3.1,5.4-5.97,5.4Z"/>
  <path d="M204.88,41.08l-5.29,16.85h-.3l-5.44-16.85h-4.04l6.65,20.21h2.15l-.53,1.44c-.64,1.74-1.17,2.46-2.53,2.46h-3.82v3.32h4.61c2.83,0,3.97-1.51,5.1-4.95l7.37-22.48h-3.93Z"/>
</svg>