<?xml version="1.0" encoding="UTF-8"?>
<svg id="Layer_1" data-name="Layer 1" xmlns="http://www.w3.org/2000/svg" width="300" height="300" viewBox="0 0 300 300">
  <path d="M124.79,211.97c-4.77,0-7.75,2.62-9.34,6.06h-.31v-5.29h-4.67v37.47h5.44v-15.14h.36c1.28,3.03,4.11,5.9,8.83,5.9,6.78,0,12.06-5.85,12.06-14.53s-5.18-14.47-12.37-14.47ZM123.76,235.84c-4.98,0-7.7-4.31-7.7-9.29s2.93-9.39,7.85-9.39c4.52,0,7.55,3.9,7.55,9.44s-3.23,9.24-7.7,9.24Z" fill="#fff"/>
  <path d="M163.39,234.86v-12.47c0-6.57-4.21-10.37-10.57-10.37-5.7,0-9.96,3.18-11.75,8.62l4.62,1.95c1.64-4,3.59-5.75,7.13-5.75,2.87,0,5.34,2.16,5.34,6.16v1.69h-6.47c-5.95,0-11.34,2.98-11.34,8.57,0,4.72,3.8,7.65,8.62,7.65s8.32-2.77,9.96-6.42h.46l-.05,1.75c0,2.62,1.23,4,3.7,4h3.18v-4.42h-2.1c-.46,0-.72-.36-.72-.97ZM150.05,236.09c-2.16,0-4.36-1.13-4.36-3.29,0-2.72,3.49-4.05,7.9-4.05h4.57c-.41,3.59-4.21,7.34-8.11,7.34Z" fill="#fff"/>
  <path d="M180.54,235.68h-.41l-7.39-22.89h-5.49l9.03,27.46h2.93l-.72,1.95c-.87,2.36-1.59,3.34-3.44,3.34h-5.18v4.52h6.26c3.85,0,5.39-2.05,6.93-6.72l10.01-30.54h-5.34l-7.19,22.89Z" fill="#fff"/>
  <path d="M135.73,108.14l-11.54,11.7,24.64,24.98,54.84-55.6c-2.96-4.69-6.51-8.96-10.55-12.71l-44.29,44.9-13.1-13.28Z" fill="#fff"/>
  <path d="M208.16,97.72l-20.2,20.48c.2,1.59.32,3.2.32,4.84,0,21.14-17.14,38.28-38.28,38.28s-38.28-17.14-38.28-38.28,17.14-38.28,38.28-38.28c6.43,0,12.48,1.59,17.79,4.39l18.13-18.38c-10.21-7.03-22.58-11.15-35.92-11.15-35.05,0-63.42,28.57-63.42,63.42s28.57,63.43,63.42,63.43,63.43-28.57,63.43-63.43c0-9-1.88-17.56-5.26-25.31Z" fill="#fff"/>
</svg>