<?xml version="1.0" encoding="UTF-8"?>
<svg id="Layer_1" data-name="Layer 1" xmlns="http://www.w3.org/2000/svg" width="300" height="100" viewBox="0 0 300 100">
  <path d="M185.91,19.27h-71.83c-16.95,0-30.73,13.79-30.73,30.73s13.79,30.73,30.73,30.73h71.83c16.95,0,30.73-13.79,30.73-30.73s-13.79-30.73-30.73-30.73ZM185.91,79.4h-71.83c-16.21,0-29.4-13.19-29.4-29.4s13.19-29.4,29.4-29.4h71.83c16.21,0,29.4,13.19,29.4,29.4s-13.19,29.4-29.4,29.4Z" fill="#5a50f7"/>
  <path d="M109.32,45.02l-3.86,3.91,8.24,8.35,18.33-18.59c-.99-1.57-2.17-3-3.53-4.25l-14.8,15.01-4.38-4.44Z" fill="#5a50f7"/>
  <path d="M126.78,48.38c.07.53.11,1.07.11,1.62,0,7.07-5.73,12.8-12.8,12.8s-12.8-5.73-12.8-12.8,5.73-12.8,12.8-12.8c2.15,0,4.17.53,5.95,1.47l6.06-6.14c-3.41-2.35-7.55-3.73-12.01-3.73-11.72,0-21.2,9.55-21.2,21.2s9.55,21.2,21.2,21.2,21.2-9.55,21.2-21.2c0-3.01-.63-5.87-1.76-8.46l-6.75,6.84Z" fill="#5a50f7"/>
  <path d="M153.69,41.4c-3.17,0-5.15,1.74-6.21,4.02h-.2v-3.51h-3.1v24.89h3.61v-10.06h.24c.85,2.01,2.73,3.92,5.86,3.92,4.5,0,8.01-3.89,8.01-9.65s-3.44-9.62-8.22-9.62ZM153.01,57.26c-3.31,0-5.11-2.86-5.11-6.17s1.94-6.24,5.22-6.24c3,0,5.01,2.59,5.01,6.27s-2.15,6.14-5.11,6.14Z" fill="#5a50f7"/>
  <path d="M179.33,56.61v-8.29c0-4.36-2.8-6.89-7.02-6.89-3.78,0-6.61,2.11-7.81,5.73l3.07,1.3c1.09-2.66,2.39-3.82,4.74-3.82,1.91,0,3.55,1.43,3.55,4.09v1.12h-4.3c-3.96,0-7.54,1.98-7.54,5.69,0,3.14,2.52,5.08,5.73,5.08s5.52-1.84,6.61-4.26h.31l-.03,1.16c0,1.74.82,2.66,2.46,2.66h2.11v-2.93h-1.4c-.31,0-.48-.24-.48-.65ZM170.47,57.43c-1.43,0-2.9-.75-2.9-2.18,0-1.81,2.32-2.69,5.25-2.69h3.03c-.27,2.39-2.8,4.88-5.39,4.88Z" fill="#5a50f7"/>
  <path d="M190.72,57.15h-.27l-4.91-15.21h-3.65l6,18.24h1.94l-.48,1.3c-.58,1.57-1.06,2.22-2.28,2.22h-3.44v3h4.16c2.56,0,3.58-1.36,4.6-4.47l6.65-20.29h-3.55l-4.77,15.21Z" fill="#5a50f7"/>
</svg>