<?xml version="1.0" encoding="UTF-8"?>
<svg id="Layer_1" data-name="Layer 1" xmlns="http://www.w3.org/2000/svg" width="60mm" height="60mm" viewBox="0 0 170.08 170.08">
  <path d="M78.66,78.38l-5.16,5.23,11.01,11.17,24.51-24.85c-1.32-2.09-2.91-4-4.72-5.68l-19.79,20.07-5.85-5.94Z"/>
  <path d="M111.03,73.73l-9.03,9.15c.09.71.14,1.43.14,2.16,0,9.45-7.66,17.11-17.11,17.11s-17.11-7.66-17.11-17.11,7.66-17.11,17.11-17.11c2.87,0,5.58.71,7.95,1.96l8.1-8.21c-4.56-3.14-10.09-4.98-16.05-4.98-15.66,0-28.35,12.77-28.35,28.35s12.77,28.35,28.35,28.35,28.35-12.77,28.35-28.35c0-4.02-.84-7.85-2.35-11.31Z"/>
</svg>