<?xml version="1.0" encoding="UTF-8"?>
<svg id="Layer_1" data-name="Layer 1" xmlns="http://www.w3.org/2000/svg" width="300" height="100" viewBox="0 0 300 100">
  <path d="M258.22,19.27H41.79c-16.95,0-30.73,13.79-30.73,30.73s13.79,30.73,30.73,30.73h216.43c16.95,0,30.73-13.79,30.73-30.73s-13.79-30.73-30.73-30.73ZM258.22,79.4H41.79c-16.21,0-29.4-13.19-29.4-29.4s13.19-29.4,29.4-29.4h216.43c16.21,0,29.4,13.19,29.4,29.4s-13.19,29.4-29.4,29.4Z" fill="#5a50f7"/>
  <polygon points="78.11 52.55 78.12 52.55 78.11 52.55 78.11 52.55" fill="#5a50f7"/>
  <path d="M227.66,41.75c-3.51,0-5.55,2.11-6.45,4.38h-.13v-3.89h-1.67v24.2h1.67v-10.54h.17c.84,2.34,2.91,4.45,6.32,4.45,4.51,0,7.99-3.59,7.99-9.25s-3.28-9.35-7.89-9.35ZM227.49,58.7c-4.18,0-6.28-3.59-6.28-7.57s2.27-7.74,6.42-7.74c3.71,0,6.08,3.09,6.08,7.74s-2.61,7.57-6.22,7.57Z" fill="#5a50f7"/>
  <path d="M252.26,57.68v-9.81c0-3.36-2.14-6.09-6.28-6.09-3.38,0-6.42,1.98-7.75,5.3l1.6.76c1.14-2.93,3.71-4.35,6.08-4.35,2.91,0,4.55,1.78,4.55,4.38v2.24h-4.55c-4.51,0-7.69,1.98-7.69,5.23s2.51,4.94,5.58,4.94,5.38-1.94,6.48-4.61h.27l-.03,1.74c0,1.58.5,2.47,1.97,2.47h1.77v-1.65h-1.6c-.2,0-.4-.23-.4-.56ZM244.07,58.57c-2.21,0-4.01-.92-4.01-3.23,0-2.47,2.71-3.75,5.92-3.75h4.48c-.4,4.15-3.24,6.98-6.38,6.98Z" fill="#5a50f7"/>
  <path d="M263.39,58.41h-.23l-6.02-16.13h-1.87l6.55,17.61h1l-1.04,2.63c-.43,1.09-.97,1.81-1.87,1.81h-2.97v1.65h3.21c1.5,0,2.34-.99,3.11-2.93l8.09-20.78h-1.87l-6.08,16.13Z" fill="#5a50f7"/>
  <path d="M101.39,41.46c-5.15,0-9.29,4.35-9.29,9.85,0,6.12,4.63,9.57,9.47,9.57,2.97,0,5.8-1.17,7.81-3.7l-2.35-2.35c-1.21,1.24-2.87,2.42-5.18,2.42-3.08,0-5.53-1.8-5.84-4.42h13.72v-2.21c0-5.29-3.21-9.16-8.33-9.16ZM95.99,49.72c.31-2.76,2.63-4.63,5.22-4.63,3.01,0,4.56,2.04,4.63,4.63h-9.85Z" fill="#5a50f7"/>
  <path d="M81.79,41.46c-2.73,0-5.01,1.59-6.25,3.94h-.14l-.07-3.49h-3.46v24.88h3.97v-9.43h.14c.9,1.83,2.56,3.56,5.77,3.56,5.08,0,8.09-4.53,8.09-9.78s-2.94-9.67-8.05-9.67ZM80.83,57.12c-3.18,0-4.84-2.73-4.84-5.98s1.87-6.05,4.98-6.05,4.84,3.01,4.84,6.19c0,3.46-2,5.84-4.98,5.84Z" fill="#5a50f7"/>
  <path d="M172.53,41.39c-3.11,0-4.87,1.8-6.12,4.01h-.07v-3.49h-3.63v18.49h3.97v-9.57c0-2.87,1.59-5.91,4.7-5.91,2.49,0,3.42,1.9,3.42,4.42v11.06h3.97v-11.68c0-4.28-2.21-7.33-6.25-7.33Z" fill="#5a50f7"/>
  <path d="M206.25,56.43v-21.42h-3.97v21.46c0,2.32.73,3.94,3.25,3.94h3.84v-3.28h-2.49c-.59,0-.62-.21-.62-.69Z" fill="#5a50f7"/>
  <path d="M197.61,56.53v-8.09c0-4.49-3.08-6.98-7.33-6.98-3.73,0-6.88,2.04-8.43,5.6l3.35,1.62c.97-2.11,2.9-3.59,5.04-3.59s3.39,1.45,3.39,3.35v1.17h-3.63c-4.66,0-8.19,2.21-8.19,5.84s2.8,5.36,5.77,5.36c2.8,0,5.32-1.55,6.57-4.25h.17v.9c0,2,1.07,2.94,2.66,2.94h2.52v-3.28h-1.38c-.45,0-.52-.17-.52-.59ZM188.39,57.53c-1.52,0-2.59-.86-2.59-2.32,0-1.9,1.83-2.83,4.42-2.83h3.42c-.31,3.08-2.76,5.15-5.25,5.15Z" fill="#5a50f7"/>
  <path d="M150.48,41.39c-5.32,0-9.78,4.42-9.78,9.74s4.39,9.78,9.71,9.78,9.71-4.42,9.71-9.78-4.08-9.74-9.64-9.74ZM150.42,57.29c-3.35,0-5.91-2.76-5.91-6.15s2.56-6.12,5.91-6.12,5.91,2.73,5.91,6.12-2.59,6.15-5.91,6.15Z" fill="#5a50f7"/>
  <path d="M116.59,45.3h-.1v-3.39h-3.63v18.49h3.97v-10.68c0-2.49.97-3.84,3.25-3.84h2.56v-3.97h-1.21c-2.63,0-3.94,1-4.84,3.39Z" fill="#5a50f7"/>
  <path d="M131.55,44.68c1.62,0,3.56.9,4.46,2.9l2.9-1.49c-1.07-2.42-3.39-4.7-7.36-4.7s-6.88,2.59-6.88,5.63c0,3.52,3.49,4.8,6.32,5.7,2.07.62,3.84,1.35,3.84,2.83s-1.42,2.07-3.11,2.07c-2.42,0-4.28-1.38-5.8-3.25l-2.49,2.11c1.73,2.7,4.8,4.42,8.15,4.42,3.73,0,7.22-2.04,7.22-5.7s-3.63-4.77-6.53-5.67c-2.11-.66-3.63-1.17-3.63-2.73,0-1.28,1.24-2.14,2.9-2.14Z" fill="#5a50f7"/>
  <path d="M37.01,45.02l-3.86,3.91,8.24,8.35,18.33-18.59c-.99-1.57-2.17-3-3.53-4.25l-14.8,15.01-4.38-4.44Z" fill="#5a50f7"/>
  <path d="M54.48,48.38c.07.53.11,1.07.11,1.62,0,7.07-5.73,12.8-12.8,12.8s-12.8-5.73-12.8-12.8,5.73-12.8,12.8-12.8c2.15,0,4.17.53,5.95,1.47l6.06-6.14c-3.41-2.35-7.55-3.73-12.01-3.73-11.72,0-21.2,9.55-21.2,21.2s9.55,21.2,21.2,21.2,21.2-9.55,21.2-21.2c0-3.01-.63-5.87-1.76-8.46l-6.75,6.84Z" fill="#5a50f7"/>
</svg>