<?xml version="1.0" encoding="UTF-8"?>
<svg id="Layer_1" data-name="Layer 1" xmlns="http://www.w3.org/2000/svg" width="300" height="100" viewBox="0 0 300 100">
  <polygon points="75.3 52.81 75.31 52.8 75.3 52.8 75.3 52.81"/>
  <path d="M239.94,40.91c-3.86,0-6.11,2.32-7.1,4.82h-.15v-4.28h-1.84v26.64h1.84v-11.6h.18c.92,2.57,3.2,4.89,6.96,4.89,4.97,0,8.8-3.95,8.8-10.19s-3.61-10.29-8.68-10.29ZM239.75,59.58c-4.6,0-6.92-3.95-6.92-8.34s2.5-8.52,7.07-8.52c4.08,0,6.7,3.41,6.7,8.52s-2.87,8.34-6.84,8.34Z"/>
  <path d="M267.02,58.46v-10.8c0-3.7-2.36-6.71-6.92-6.71-3.72,0-7.07,2.17-8.54,5.84l1.77.83c1.25-3.23,4.08-4.78,6.7-4.78,3.2,0,5,1.96,5,4.82v2.46h-5c-4.97,0-8.46,2.17-8.46,5.76s2.76,5.44,6.15,5.44,5.92-2.14,7.14-5.07h.29l-.04,1.92c0,1.74.55,2.72,2.17,2.72h1.95v-1.81h-1.77c-.22,0-.44-.25-.44-.62ZM258.01,59.43c-2.43,0-4.42-1.02-4.42-3.55,0-2.72,2.98-4.13,6.51-4.13h4.93c-.44,4.57-3.57,7.68-7.03,7.68Z"/>
  <path d="M285.97,41.49l-6.7,17.76h-.26l-6.62-17.76h-2.06l7.21,19.39h1.1l-1.14,2.9c-.48,1.2-1.07,1.99-2.06,1.99h-3.28v1.81h3.53c1.66,0,2.58-1.09,3.42-3.23l8.91-22.87h-2.06Z"/>
  <path d="M100.92,40.6c-5.67,0-10.23,4.79-10.23,10.84,0,6.73,5.1,10.54,10.42,10.54,3.27,0,6.39-1.29,8.6-4.07l-2.59-2.59c-1.33,1.37-3.16,2.66-5.71,2.66-3.39,0-6.09-1.98-6.43-4.87h15.1v-2.43c0-5.82-3.54-10.08-9.17-10.08ZM94.99,49.69c.34-3.04,2.89-5.1,5.74-5.1,3.31,0,5.02,2.24,5.1,5.1h-10.84Z"/>
  <path d="M79.35,40.6c-3.01,0-5.52,1.75-6.89,4.34h-.15l-.08-3.84h-3.8v27.39h4.37v-10.38h.15c.99,2.02,2.81,3.92,6.35,3.92,5.59,0,8.9-4.98,8.9-10.77s-3.23-10.65-8.86-10.65ZM78.29,57.83c-3.5,0-5.33-3.01-5.33-6.58s2.05-6.66,5.48-6.66,5.33,3.31,5.33,6.81c0,3.8-2.21,6.43-5.48,6.43Z"/>
  <path d="M179.25,40.53c-3.42,0-5.36,1.98-6.73,4.41h-.08v-3.84h-3.99v20.35h4.37v-10.54c0-3.16,1.75-6.5,5.17-6.5,2.74,0,3.77,2.09,3.77,4.87v12.17h4.37v-12.86c0-4.72-2.43-8.06-6.89-8.06Z"/>
  <path d="M216.37,57.07v-23.58h-4.37v23.62c0,2.55.8,4.34,3.58,4.34h4.22v-3.61h-2.74c-.65,0-.68-.23-.68-.76Z"/>
  <path d="M206.86,57.19v-8.9c0-4.94-3.39-7.68-8.06-7.68-4.11,0-7.57,2.24-9.28,6.16l3.69,1.79c1.06-2.32,3.2-3.96,5.55-3.96s3.73,1.6,3.73,3.69v1.29h-3.99c-5.14,0-9.02,2.43-9.02,6.43s3.08,5.9,6.35,5.9c3.08,0,5.86-1.71,7.23-4.68h.19v.99c0,2.21,1.18,3.23,2.93,3.23h2.78v-3.61h-1.52c-.49,0-.57-.19-.57-.65ZM196.71,58.29c-1.67,0-2.85-.95-2.85-2.55,0-2.09,2.02-3.12,4.87-3.12h3.77c-.34,3.39-3.04,5.67-5.78,5.67Z"/>
  <path d="M154.98,40.53c-5.86,0-10.77,4.87-10.77,10.73s4.83,10.77,10.69,10.77,10.69-4.87,10.69-10.77-4.49-10.73-10.61-10.73ZM154.9,58.02c-3.69,0-6.5-3.04-6.5-6.77s2.81-6.73,6.5-6.73,6.5,3.01,6.5,6.73-2.85,6.77-6.5,6.77Z"/>
  <path d="M117.66,44.82h-.11v-3.73h-3.99v20.35h4.37v-11.75c0-2.74,1.07-4.22,3.58-4.22h2.81v-4.37h-1.33c-2.89,0-4.34,1.1-5.33,3.73Z"/>
  <path d="M134.13,44.14c1.79,0,3.92.99,4.91,3.2l3.2-1.64c-1.18-2.66-3.73-5.17-8.1-5.17s-7.57,2.85-7.57,6.2c0,3.88,3.84,5.29,6.96,6.28,2.28.68,4.22,1.48,4.22,3.12s-1.56,2.28-3.42,2.28c-2.66,0-4.72-1.52-6.39-3.58l-2.74,2.32c1.9,2.97,5.29,4.87,8.98,4.87,4.11,0,7.95-2.24,7.95-6.28s-3.99-5.25-7.19-6.24c-2.32-.72-3.99-1.29-3.99-3.01,0-1.41,1.37-2.36,3.2-2.36Z"/>
  <path d="M30.06,44.52l-4.25,4.31,9.07,9.19,20.18-20.46c-1.09-1.72-2.39-3.3-3.88-4.68l-16.3,16.52-4.82-4.89Z"/>
  <path d="M49.28,48.22c.07.58.12,1.18.12,1.78,0,7.78-6.31,14.09-14.09,14.09s-14.09-6.31-14.09-14.09,6.31-14.09,14.09-14.09c2.36,0,4.59.59,6.55,1.62l6.67-6.76c-3.76-2.59-8.31-4.1-13.22-4.1-12.9,0-23.34,10.51-23.34,23.34s10.51,23.34,23.34,23.34,23.34-10.51,23.34-23.34c0-3.31-.69-6.46-1.94-9.32l-7.43,7.54Z"/>
</svg>