<?xml version="1.0" encoding="utf-8"?>
<!-- Generator: Adobe Illustrator 27.3.1, SVG Export Plug-In . SVG Version: 6.00 Build 0)  -->
<svg version="1.1" id="Layer_1" xmlns="http://www.w3.org/2000/svg" xmlns:xlink="http://www.w3.org/1999/xlink" x="0px" y="0px"
	 viewBox="0 0 234.5 233.4" style="enable-background:new 0 0 234.5 233.4;" xml:space="preserve">
<style type="text/css">
	.st0{fill:#FFFFFF;}
</style>
<g>
	<polygon class="st0" points="137.3,178.1 137.3,197.1 97.2,197.1 97.2,178.1 96.4,178.1 96.4,216.9 97.2,216.9 97.2,197.9 
		137.3,197.9 137.3,216.9 138.1,216.9 138.1,178.1 	"/>
	<g>
		<path class="st0" d="M130.2,94.9H96.9v13.3c0,14.4,11.7,26.1,26.1,26.1v-2.4c-13,0-23.6-10.6-23.6-23.6V97.5h30.8
			c2.6,0,5,2.2,5,4.5v20.7H123c-8,0-14.5-6.5-14.5-14.5H106c0,9.4,7.6,17,17,17h14.7V102C137.7,98.2,134.2,94.9,130.2,94.9z"/>
		<path class="st0" d="M122.9,113.5c-3,0-5.4-2.4-5.4-5.4H115c0,4.3,3.5,7.9,7.9,7.9V113.5z"/>
	</g>
</g>
</svg>
