<?xml version="1.0" encoding="utf-8"?>
<!-- Generator: Adobe Illustrator 27.3.1, SVG Export Plug-In . SVG Version: 6.00 Build 0)  -->
<svg version="1.1" id="Layer_1" xmlns="http://www.w3.org/2000/svg" xmlns:xlink="http://www.w3.org/1999/xlink" x="0px" y="0px"
	 viewBox="0 0 315.6 125.6" style="enable-background:new 0 0 315.6 125.6;" xml:space="preserve">
<style type="text/css">
	.st0{fill:url(#SVGID_1_);}
	.st1{fill:url(#SVGID_00000148650836154572252560000000706487631597998722_);}
	.st2{fill:url(#SVGID_00000142164989188109835970000008349953735454305980_);}
	.st3{fill:url(#SVGID_00000177447398477398799900000006703300496153930370_);}
	.st4{fill:url(#SVGID_00000111886532402551772940000001364124037801200291_);}
	.st5{fill:url(#SVGID_00000139278596374880842120000016138089510302570132_);}
	.st6{fill:url(#SVGID_00000153694175005960093830000010249884040601807239_);}
	.st7{fill:url(#SVGID_00000062872874617445010960000006858749214509672380_);}
	.st8{fill:url(#SVGID_00000053533856834213136410000017749062883207889833_);}
	.st9{fill:url(#SVGID_00000062912373465013289890000013426137616491784594_);}
	.st10{fill:url(#SVGID_00000066516473226403678780000011891004703390634168_);}
	.st11{fill:url(#SVGID_00000163059264698556078870000009279797060605024405_);}
	.st12{fill:url(#SVGID_00000011717452708924335140000011764871052828868773_);}
	.st13{fill:url(#SVGID_00000008109859406484171980000017774572778922754197_);}
	.st14{fill:#FF0000;}
</style>
<g>
	<linearGradient id="SVGID_1_" gradientUnits="userSpaceOnUse" x1="47.7588" y1="61.75" x2="278.9232" y2="61.75">
		<stop  offset="2.587384e-04" style="stop-color:#A64796"/>
		<stop  offset="0.9989" style="stop-color:#4453A0"/>
	</linearGradient>
	<path class="st0" d="M43.5,49.6h-27v10.7h2v-8.7h24.9c2.1,0,4,1.7,4,3.6v16.7h-9.9l0,0c-6.5,0-11.7-5.2-11.7-11.7h-2
		c0,7.5,6.2,13.7,13.8,13.7l0,0h11.9V55.2C49.5,52.2,46.7,49.6,43.5,49.6"/>
	
		<linearGradient id="SVGID_00000065783186110047740650000017968289242163102384_" gradientUnits="userSpaceOnUse" x1="47.7588" y1="63.5" x2="278.9232" y2="63.5">
		<stop  offset="2.587384e-04" style="stop-color:#A64796"/>
		<stop  offset="0.9989" style="stop-color:#4453A0"/>
	</linearGradient>
	<path style="fill:url(#SVGID_00000065783186110047740650000017968289242163102384_);" d="M37.6,64.6c-2.4,0-4.4-1.9-4.4-4.3h-2
		c0,3.5,2.9,6.4,6.4,6.4V64.6z"/>
	
		<linearGradient id="SVGID_00000171722052716944474060000007089409938061665174_" gradientUnits="userSpaceOnUse" x1="47.7588" y1="70.7" x2="278.9232" y2="70.7">
		<stop  offset="2.587384e-04" style="stop-color:#A64796"/>
		<stop  offset="0.9989" style="stop-color:#4453A0"/>
	</linearGradient>
	<path style="fill:url(#SVGID_00000171722052716944474060000007089409938061665174_);" d="M18.5,60.2h-2c0,11.6,9.5,21,21.1,21v-2
		C27.1,79.2,18.5,70.7,18.5,60.2"/>
	
		<linearGradient id="SVGID_00000178913511734476242100000009331774207161435569_" gradientUnits="userSpaceOnUse" x1="47.7588" y1="62.75" x2="278.9232" y2="62.75">
		<stop  offset="2.587384e-04" style="stop-color:#A64796"/>
		<stop  offset="0.9989" style="stop-color:#4453A0"/>
	</linearGradient>
	<path style="fill:url(#SVGID_00000178913511734476242100000009331774207161435569_);" d="M92.7,60.9c0.5-3.4,2.7-5.4,6-5.4
		c1.6,0,2.9,0.5,3.9,1.5s1.5,2.3,1.5,3.9H92.7z M87.8,62.7c0,3.2,1,6,2.8,8c1.9,2.1,4.8,3.2,8.3,3.2c4.1,0,7.9-2.3,9.6-5.9l0.1-0.2
		l-3.8-1.7l-0.1,0.2c-1.2,2.3-3.2,3.5-5.9,3.5c-4.4,0-5.8-2.8-6.2-5.2h16.2v-2.2c0-3.1-0.9-5.8-2.6-7.7c-1.8-2-4.4-3.1-7.5-3.1
		c-3,0-5.8,1.1-7.8,3.1C88.9,56.7,87.8,59.6,87.8,62.7"/>
	
		<linearGradient id="SVGID_00000091701384912802694000000017034827909449197737_" gradientUnits="userSpaceOnUse" x1="47.7588" y1="66.3982" x2="278.9232" y2="66.3982">
		<stop  offset="2.587384e-04" style="stop-color:#A64796"/>
		<stop  offset="0.9989" style="stop-color:#4453A0"/>
	</linearGradient>
	<path style="fill:url(#SVGID_00000091701384912802694000000017034827909449197737_);" d="M67.9,62.7c0-4.3,2.6-7.2,6.6-7.2
		c3.4,0,5.7,2.8,5.7,7c0,4.3-2.5,7.4-6,7.4C70.4,69.9,67.9,67,67.9,62.7 M67.1,56.7v-4.6h-4v29.1h4.4V70.3c1,1.8,3.5,3.7,7.2,3.7
		c2.5,0,5.1-1.1,6.9-3.1c2-2.1,3.1-5,3.1-8.2c0-6.3-4.1-11.1-9.6-11.1C71.2,51.5,68.2,53.5,67.1,56.7"/>
	
		<linearGradient id="SVGID_00000164501561665237948990000003617729830637751731_" gradientUnits="userSpaceOnUse" x1="47.7588" y1="62.7" x2="278.9232" y2="62.7">
		<stop  offset="2.587384e-04" style="stop-color:#A64796"/>
		<stop  offset="0.9989" style="stop-color:#4453A0"/>
	</linearGradient>
	<path style="fill:url(#SVGID_00000164501561665237948990000003617729830637751731_);" d="M112,52.1v21.3h4.4V60.2
		c0-2.5,1.3-3.8,3.7-3.8h3.5V52h-2.1c-2.2,0-4.5,0.5-5.6,4.3v-4.2H112z"/>
	
		<linearGradient id="SVGID_00000029003832348348033520000001591710627376604601_" gradientUnits="userSpaceOnUse" x1="47.7588" y1="62.7" x2="278.9232" y2="62.7">
		<stop  offset="2.587384e-04" style="stop-color:#A64796"/>
		<stop  offset="0.9989" style="stop-color:#4453A0"/>
	</linearGradient>
	<path style="fill:url(#SVGID_00000029003832348348033520000001591710627376604601_);" d="M142.8,56.6c-0.5-1.2-1.3-2.3-2.3-3.1
		c-1.6-1.3-3.6-2-5.9-2c-2.2,0-4.2,0.6-5.8,1.8c-1.7,1.2-2.6,3-2.6,4.9c0,4.7,4.3,5.8,7.7,6.7c2.5,0.6,4.7,1.2,4.7,3
		c0,1.4-1.6,2.3-3.9,2.3c-2.7,0-4.6-1.4-5.5-3.9l-0.1-0.3l-4,1.5l0.1,0.2c1.3,3.9,4.8,6.2,9.4,6.2c5,0,8.4-2.6,8.4-6.3
		c0-4.3-3.9-5.3-7.3-6.1c-2.7-0.7-5.1-1.3-5.1-3.3c0-1.8,1.4-2.9,3.7-2.9c2.2,0,4,1.3,4.8,3.4L142.8,56.6z"/>
	
		<linearGradient id="SVGID_00000022518660547931786160000015252897543555933084_" gradientUnits="userSpaceOnUse" x1="47.7588" y1="62.4" x2="278.9232" y2="62.4">
		<stop  offset="2.587384e-04" style="stop-color:#A64796"/>
		<stop  offset="0.9989" style="stop-color:#4453A0"/>
	</linearGradient>
	<path style="fill:url(#SVGID_00000022518660547931786160000015252897543555933084_);" d="M182.5,51.4c-3.2,0-6.1,2.1-7.2,5.1V52h-4
		v21.3h4.4V63c0-4.6,2.2-7.3,5.8-7.3c2.7,0,4.4,2,4.4,5.1v12.6h4.4V60.8C190.2,54.9,187.3,51.4,182.5,51.4"/>
	
		<linearGradient id="SVGID_00000070095942726909993950000008026354276946993844_" gradientUnits="userSpaceOnUse" x1="47.7588" y1="62.7" x2="278.9232" y2="62.7">
		<stop  offset="2.587384e-04" style="stop-color:#A64796"/>
		<stop  offset="0.9989" style="stop-color:#4453A0"/>
	</linearGradient>
	<path style="fill:url(#SVGID_00000070095942726909993950000008026354276946993844_);" d="M207.4,64.3c-0.1,3.1-3,5.8-6.1,5.8
		c-1.9,0-3.1-1-3.1-2.7c0-0.7,0.3-1.3,0.8-1.8c0.8-0.8,2.4-1.3,4.3-1.3c0.1,0,0.1,0,0.2,0H207.4z M211.7,68.9v-9.3
		c0-4.9-3.3-8-8.4-8c-4.1,0-7.4,2-9.4,5.7l3.7,1.5c1.5-2.2,3.4-3.4,5.6-3.4c2.6,0,4.2,1.5,4.2,3.9v1.8h-4.8c-2.3,0-4.4,0.6-6,1.6
		c-1.8,1.2-2.8,2.9-2.8,4.9c0,3.7,2.7,6.2,6.7,6.2c3.2,0,5.9-1.9,7.1-4.9v0.5c0,2.6,1.2,3.9,3.4,3.9h3v-3.8h-1.9
		C211.8,69.6,211.7,69.6,211.7,68.9"/>
	
		<linearGradient id="SVGID_00000047771120158945287400000006335057708988222882_" gradientUnits="userSpaceOnUse" x1="47.7588" y1="58.8" x2="278.9232" y2="58.8">
		<stop  offset="2.587384e-04" style="stop-color:#A64796"/>
		<stop  offset="0.9989" style="stop-color:#4453A0"/>
	</linearGradient>
	<path style="fill:url(#SVGID_00000047771120158945287400000006335057708988222882_);" d="M221.6,69.2c-0.4,0-0.5,0-0.5-0.7V44.3
		h-4.4v23c0,2.1,0.4,3.5,1.1,4.4c0.9,1.1,2.3,1.6,4.3,1.6h3.1v-4.2L221.6,69.2L221.6,69.2z"/>
	
		<linearGradient id="SVGID_00000044149372044538838940000018279406661841170595_" gradientUnits="userSpaceOnUse" x1="47.7588" y1="62.8" x2="278.9232" y2="62.8">
		<stop  offset="2.587384e-04" style="stop-color:#A64796"/>
		<stop  offset="0.9989" style="stop-color:#4453A0"/>
	</linearGradient>
	<path style="fill:url(#SVGID_00000044149372044538838940000018279406661841170595_);" d="M156.8,55.7c-3.9,0-7.1,3.2-7.1,7
		c0,3.9,3.2,7,7.1,7c3.9,0,7.1-3.2,7.1-7C163.9,58.9,160.7,55.7,156.8,55.7 M156.8,74c-6.2,0-11.3-5-11.3-11.2s5.1-11.2,11.3-11.2
		s11.3,5,11.3,11.2C168.1,68.9,163,74,156.8,74"/>
	
		<linearGradient id="SVGID_00000129178512633630753590000005322512673084688274_" gradientUnits="userSpaceOnUse" x1="47.7588" y1="66.25" x2="278.9232" y2="66.25">
		<stop  offset="2.587384e-04" style="stop-color:#A64796"/>
		<stop  offset="0.9989" style="stop-color:#4453A0"/>
	</linearGradient>
	<path style="fill:url(#SVGID_00000129178512633630753590000005322512673084688274_);" d="M246.3,71.8c4.3,0,7.5-3.3,7.5-9.2
		c0-5.7-2.9-9.4-7.3-9.4c-5,0-7.7,4.4-7.7,9.4C238.7,67.5,241.2,71.8,246.3,71.8 M236.5,51.8h2v4.7h0.2c1.1-2.8,3.5-5.3,7.8-5.3
		c5.6,0,9.5,4.7,9.5,11.4c0,6.9-4.2,11.3-9.6,11.3c-4.1,0-6.6-2.6-7.6-5.4h-0.2v12.8h-2L236.5,51.8L236.5,51.8z"/>
	
		<linearGradient id="SVGID_00000102524690347307634000000003828850333012369794_" gradientUnits="userSpaceOnUse" x1="47.7588" y1="62.55" x2="278.9232" y2="62.55">
		<stop  offset="2.587384e-04" style="stop-color:#A64796"/>
		<stop  offset="0.9989" style="stop-color:#4453A0"/>
	</linearGradient>
	<path style="fill:url(#SVGID_00000102524690347307634000000003828850333012369794_);" d="M266.3,71.7c3.8,0,7.2-3.4,7.7-8.5h-5.4
		c-3.9,0-7.1,1.6-7.1,4.6C261.4,70.6,263.6,71.7,266.3,71.7 M259.2,67.8c0-4,3.8-6.4,9.3-6.4h5.5v-2.7c0-3.2-2-5.3-5.5-5.3
		c-2.9,0-6,1.7-7.3,5.3l-1.9-0.9c1.6-4,5.3-6.5,9.3-6.5c5,0,7.6,3.3,7.6,7.4v11.9c0,0.4,0.2,0.7,0.5,0.7h1.9v2h-2.1
		c-1.8,0-2.4-1.1-2.4-3v-2.1h-0.3c-1.3,3.2-4.1,5.6-7.8,5.6C262.2,73.8,259.2,71.7,259.2,67.8"/>
	
		<linearGradient id="SVGID_00000119112311634261882230000002858391062829355199_" gradientUnits="userSpaceOnUse" x1="47.7588" y1="66.25" x2="278.9232" y2="66.25">
		<stop  offset="2.587384e-04" style="stop-color:#A64796"/>
		<stop  offset="0.9989" style="stop-color:#4453A0"/>
	</linearGradient>
	<path style="fill:url(#SVGID_00000119112311634261882230000002858391062829355199_);" d="M282,51.8l7.2,19.6h0.3l7.3-19.6h2.3
		l-9.7,25.3c-0.9,2.4-1.9,3.6-3.7,3.6h-3.9v-2h3.6c1.1,0,1.7-0.9,2.3-2.2l1.2-3.2h-1.2l-7.9-21.5L282,51.8L282,51.8z"/>
</g>
<g>
	<g>
		<path class="st14" d="M298,16.3l-281,91c-0.5,0.2-0.8,0.7-0.6,1.3c0.2,0.5,0.7,0.8,1.3,0.6l281-91c0.5-0.2,0.8-0.7,0.6-1.3
			C299.1,16.5,298.5,16.2,298,16.3"/>
	</g>
</g>
</svg>
