<?xml version="1.0" encoding="utf-8"?>
<!-- Generator: Adobe Illustrator 27.3.1, SVG Export Plug-In . SVG Version: 6.00 Build 0)  -->
<svg version="1.1" id="Layer_1" xmlns="http://www.w3.org/2000/svg" xmlns:xlink="http://www.w3.org/1999/xlink" x="0px" y="0px"
	 viewBox="0 0 315.6 125.6" style="enable-background:new 0 0 315.6 125.6;" xml:space="preserve">
<style type="text/css">
	.st0{fill:#5A50F9;}
	.st1{fill:#FF0000;}
</style>
<g>
	<path class="st0" d="M130.2,9.8H90v15.9h3V12.8h37.2c3.1,0,6,2.6,6,5.4v25h-14.7v0c-9.6,0-17.5-7.8-17.5-17.4h-3
		c0,11.3,9.2,20.4,20.5,20.4v0h17.8v-28C139.3,13.7,135.1,9.8,130.2,9.8"/>
	<path class="st0" d="M121.5,32.2c-3.6,0-6.5-2.9-6.5-6.5h-3c0,5.2,4.3,9.5,9.6,9.5V32.2z"/>
	<path class="st0" d="M93,25.8h-3c0,17.3,14.1,31.4,31.5,31.4v-3C105.8,54.1,93,41.4,93,25.8"/>
	<path class="st0" d="M115.9,71.6c0.5-3,2.4-4.7,5.3-4.7c1.4,0,2.6,0.5,3.4,1.3c0.8,0.8,1.3,2,1.4,3.4H115.9z M111.6,73.3
		c0,2.8,0.8,5.2,2.4,7c1.7,1.9,4.2,2.8,7.3,2.8c3.6,0,6.9-2,8.4-5.2l0.1-0.2l-3.3-1.5l-0.1,0.2c-1,2-2.8,3-5.1,3
		c-3.8,0-5.1-2.4-5.4-4.6H130v-2c0-2.7-0.8-5.1-2.2-6.7c-1.6-1.8-3.8-2.7-6.6-2.7c-2.6,0-5.1,1-6.8,2.8
		C112.6,68,111.6,70.5,111.6,73.3"/>
	<path class="st0" d="M94.2,73.2c0-3.8,2.3-6.3,5.8-6.3c3,0,5,2.5,5,6.1c0,3.8-2.2,6.4-5.2,6.4C96.4,79.5,94.2,77,94.2,73.2
		 M93.5,68v-4.1H90v25.5h3.8v-9.5c0.8,1.6,3.1,3.2,6.3,3.2c2.2,0,4.4-1,6.1-2.7c1.7-1.9,2.7-4.4,2.7-7.2c0-5.5-3.6-9.7-8.4-9.7
		C97.1,63.4,94.4,65.2,93.5,68"/>
	<path class="st0" d="M132.9,63.9v18.7h3.8V71.1c0-2.2,1.1-3.3,3.3-3.3h3.1v-3.8h-1.9c-1.9,0-4,0.5-4.9,3.8v-3.7H132.9z"/>
	<path class="st0" d="M159.9,67.9c-0.5-1.1-1.2-2-2-2.7c-1.4-1.1-3.1-1.7-5.2-1.7c-1.9,0-3.7,0.6-5.1,1.6c-1.4,1.1-2.2,2.6-2.2,4.3
		c0,4.2,3.7,5.1,6.7,5.8c2.2,0.6,4.1,1,4.1,2.6c0,1.2-1.4,2-3.4,2c-2.3,0-4-1.2-4.8-3.4l-0.1-0.2l-3.5,1.4l0.1,0.2
		c1.2,3.4,4.2,5.4,8.2,5.4c4.4,0,7.4-2.2,7.4-5.6c0-3.8-3.4-4.6-6.4-5.4c-2.4-0.6-4.5-1.1-4.5-2.9c0-1.5,1.3-2.5,3.3-2.5
		c1.9,0,3.5,1.1,4.2,3L159.9,67.9z"/>
	<path class="st0" d="M194.6,63.4c-2.8,0-5.3,1.8-6.3,4.5v-3.9h-3.5v18.7h3.8v-9.1c0-4,1.9-6.4,5.1-6.4c2.4,0,3.9,1.7,3.9,4.5v11
		h3.8v-11C201.4,66.4,198.9,63.4,194.6,63.4"/>
	<path class="st0" d="M216.4,74.6c-0.1,2.7-2.6,5.1-5.3,5.1c-1.7,0-2.7-0.9-2.7-2.3c0-0.6,0.2-1.2,0.7-1.6c0.7-0.7,2.1-1.1,3.7-1.1
		c0,0,0.1,0,0.1,0H216.4z M220.2,78.6v-8.2c0-4.3-2.9-7-7.3-7c-3.6,0-6.5,1.8-8.3,5l3.3,1.4c1.3-1.9,3-3,4.9-3
		c2.3,0,3.6,1.3,3.6,3.5v1.6h-4.2c-2,0-3.9,0.5-5.2,1.4c-1.6,1-2.4,2.5-2.4,4.3c0,3.2,2.4,5.4,5.9,5.4c2.8,0,5.2-1.6,6.2-4.3v0.5
		c0,2.3,1,3.5,3,3.5h2.7v-3.3h-1.6C220.3,79.3,220.2,79.3,220.2,78.6"/>
	<path class="st0" d="M228.9,78.9c-0.4,0-0.4,0-0.4-0.6l0-21.2h-3.8l0,20.2c0,1.8,0.3,3,1,3.9c0.8,0.9,2,1.4,3.8,1.4h2.8v-3.6H228.9
		z"/>
	<path class="st0" d="M172.1,67.1c-3.4,0-6.2,2.8-6.2,6.2c0,3.4,2.8,6.2,6.2,6.2c3.4,0,6.2-2.8,6.2-6.2
		C178.3,69.9,175.5,67.1,172.1,67.1 M172.1,83.1c-5.5,0-9.9-4.4-9.9-9.8c0-5.4,4.4-9.8,9.9-9.8c5.5,0,9.9,4.4,9.9,9.8
		C182,78.7,177.5,83.1,172.1,83.1"/>
	<path class="st0" d="M185.9,107.5c3.8,0,6.6-2.9,6.6-8.1c0-5-2.5-8.3-6.4-8.3c-4.4,0-6.8,3.9-6.8,8.3
		C179.2,103.7,181.4,107.5,185.9,107.5 M177.3,89.9h1.8v4.1h0.1c1-2.4,3.1-4.7,6.8-4.7c4.9,0,8.3,4.1,8.3,10c0,6-3.7,9.9-8.4,9.9
		c-3.6,0-5.8-2.2-6.7-4.7h-0.2v11.2h-1.8V89.9z"/>
	<path class="st0" d="M203.4,107.4c3.3,0,6.3-3,6.7-7.5h-4.7c-3.4,0-6.2,1.4-6.2,4C199.1,106.4,201,107.4,203.4,107.4 M197.2,103.9
		c0-3.5,3.4-5.6,8.1-5.6h4.8v-2.4c0-2.8-1.7-4.7-4.8-4.7c-2.5,0-5.2,1.5-6.4,4.6l-1.7-0.8c1.4-3.5,4.6-5.7,8.2-5.7
		c4.4,0,6.6,2.9,6.6,6.5v10.5c0,0.4,0.2,0.6,0.4,0.6h1.7v1.8h-1.9c-1.6,0-2.1-0.9-2.1-2.6l0-1.9h-0.3c-1.2,2.8-3.6,4.9-6.8,4.9
		C199.8,109.2,197.2,107.4,197.2,103.9"/>
	<path class="st0" d="M217.2,90l6.4,17.2h0.2l6.4-17.2h2l-8.5,22.2c-0.8,2.1-1.7,3.1-3.3,3.1H217v-1.8h3.1c1,0,1.5-0.8,2-1.9
		l1.1-2.8h-1.1L215.2,90H217.2z"/>
</g>
<g>
	<g>
		<path class="st1" d="M301.2,16.3l-281,91c-0.5,0.2-0.8,0.7-0.6,1.3c0.2,0.5,0.7,0.8,1.3,0.6l281-91c0.5-0.2,0.8-0.7,0.6-1.3
			C302.3,16.5,301.7,16.2,301.2,16.3"/>
	</g>
</g>
</svg>
