<?xml version="1.0" encoding="utf-8"?>
<!-- Generator: Adobe Illustrator 27.3.1, SVG Export Plug-In . SVG Version: 6.00 Build 0)  -->
<svg version="1.1" id="Layer_1" xmlns="http://www.w3.org/2000/svg" xmlns:xlink="http://www.w3.org/1999/xlink" x="0px" y="0px"
	 viewBox="0 0 200 200" style="enable-background:new 0 0 200 200;" xml:space="preserve">
<style type="text/css">
	.st0{fill:#FFFFFF;}
	.st1{fill:#FF0000;}
</style>
<g>
	<path class="st0" d="M30.1,91.9H13.6v6.6c0,7.1,5.8,12.9,12.9,12.9v-1.2c-6.4,0-11.7-5.2-11.7-11.7v-5.3h15.2
		c1.3,0,2.5,1.1,2.5,2.2v10.3h-6c-4,0-7.2-3.2-7.2-7.2h-1.2c0,4.6,3.8,8.4,8.4,8.4h7.3V95.3C33.8,93.5,32.1,91.9,30.1,91.9z"/>
	<path class="st0" d="M26.5,101.1c-1.5,0-2.7-1.2-2.7-2.7h-1.2c0,2.2,1.8,3.9,3.9,3.9V101.1z"/>
	<path class="st0" d="M63.9,93.1c-1.8,0-3.5,0.7-4.8,1.9c-1.2,1.3-1.9,3-1.9,4.9c0,2,0.6,3.7,1.7,4.9c1.2,1.3,2.9,2,5.1,2
		c2.5,0,4.8-1.4,5.9-3.6l0.1-0.1l-2.3-1.1l-0.1,0.1c-0.7,1.4-2,2.1-3.6,2.1c-2.7,0-3.6-1.7-3.8-3.2h9.9v-1.4c0-1.9-0.5-3.5-1.6-4.7
		C67.4,93.7,65.8,93.1,63.9,93.1z M60.2,98.8c0.3-2.1,1.7-3.3,3.7-3.3c1,0,1.8,0.3,2.4,0.9c0.6,0.6,0.9,1.4,1,2.4H60.2z"/>
	<path class="st0" d="M49.3,93c-2.4,0-4.3,1.2-4.9,3.2v-2.8H42v17.8h2.7v-6.7c0.6,1.1,2.2,2.2,4.4,2.2c1.6,0,3.1-0.7,4.2-1.9
		c1.2-1.3,1.9-3.1,1.9-5C55.2,95.9,52.7,93,49.3,93z M48.7,104.3c-2.3,0-3.8-1.8-3.8-4.4s1.6-4.4,4-4.4c2.1,0,3.5,1.7,3.5,4.3
		C52.4,102.4,50.9,104.3,48.7,104.3z"/>
	<path class="st0" d="M74.4,96v-2.6H72v13.1h2.7v-8.1c0-1.5,0.8-2.3,2.3-2.3h2.2v-2.7h-1.3C76.5,93.4,75,93.7,74.4,96z"/>
	<path class="st0" d="M86.6,99.2c-1.7-0.4-3.1-0.8-3.1-2c0-1.1,0.9-1.8,2.3-1.8c1.3,0,2.4,0.8,2.9,2.1l2.2-1.3
		c-0.3-0.7-0.8-1.4-1.4-1.9c-1-0.8-2.2-1.2-3.6-1.2c-1.3,0-2.6,0.4-3.5,1.1c-1,0.8-1.6,1.8-1.6,3c0,2.9,2.6,3.6,4.7,4.1
		c1.6,0.4,2.9,0.7,2.9,1.8c0,0.9-1,1.4-2.4,1.4c-1.6,0-2.8-0.8-3.3-2.4l-0.1-0.1l-2.4,1l0,0.1c0.8,2.4,2.9,3.8,5.8,3.8
		c3.1,0,5.1-1.6,5.2-3.9C91.1,100.3,88.7,99.7,86.6,99.2z"/>
	<path class="st0" d="M115.1,93c-2,0-3.7,1.3-4.4,3.2v-2.8h-2.4v13.1h2.7v-6.4c0-2.8,1.3-4.5,3.5-4.5c1.7,0,2.7,1.2,2.7,3.1v7.7h2.7
		v-7.7C119.8,95.2,118,93,115.1,93z"/>
	<path class="st0" d="M132.9,103.7V98c0-3-2-4.9-5.1-4.9c-2.5,0-4.5,1.2-5.8,3.5l2.3,1c0.9-1.4,2.1-2.1,3.4-2.1
		c1.6,0,2.5,0.9,2.5,2.4V99h-2.9c-1.4,0-2.7,0.4-3.7,1c-1.1,0.7-1.7,1.8-1.7,3c0,2.3,1.7,3.8,4.1,3.8c2,0,3.6-1.2,4.3-3v0.3
		c0,1.6,0.7,2.4,2.1,2.4h1.8v-2.3h-1.1C133,104.2,132.9,104.2,132.9,103.7z M126.6,104.4c-1.2,0-1.9-0.6-1.9-1.6
		c0-0.4,0.2-0.8,0.5-1.1c0.5-0.5,1.4-0.8,2.6-0.8c0,0,0.1,0,0.1,0h2.4C130.2,102.8,128.5,104.4,126.6,104.4z"/>
	<path class="st0" d="M138.7,103.5l0-14.8H136l0,14.2c0,1.3,0.2,2.1,0.7,2.7c0.5,0.7,1.4,1,2.6,1h1.9V104H139
		C138.7,103.9,138.7,103.9,138.7,103.5z"/>
	<path class="st0" d="M99.4,93.1c-3.8,0-6.9,3.1-6.9,6.9c0,3.8,3.1,6.9,6.9,6.9c3.8,0,6.9-3.1,6.9-6.9
		C106.3,96.2,103.2,93.1,99.4,93.1z M99.4,104.3c-2.4,0-4.3-1.9-4.3-4.3s1.9-4.3,4.3-4.3c2.4,0,4.3,1.9,4.3,4.3
		S101.8,104.3,99.4,104.3z"/>
	<path class="st0" d="M154.2,92.9c-2.6,0-4.1,1.6-4.8,3.3h-0.1v-2.9h-1.2v18.1h1.2v-7.9h0.1c0.6,1.7,2.1,3.3,4.7,3.3
		c3.3,0,5.9-2.7,5.9-6.9C160,95.8,157.6,92.9,154.2,92.9z M154.1,105.5c-3.1,0-4.6-2.7-4.6-5.7c0-3.1,1.7-5.8,4.7-5.8
		c2.7,0,4.5,2.3,4.5,5.8C158.6,103.5,156.7,105.5,154.1,105.5z"/>
	<path class="st0" d="M172.3,104.8v-7.3c0-2.5-1.6-4.6-4.6-4.6c-2.5,0-4.7,1.5-5.7,4l1.2,0.6c0.8-2.2,2.7-3.2,4.5-3.2
		c2.1,0,3.4,1.3,3.4,3.3v1.7h-3.4c-3.3,0-5.7,1.5-5.7,3.9c0,2.4,1.8,3.7,4.1,3.7c2.3,0,4-1.4,4.8-3.4h0.2l0,1.3
		c0,1.2,0.4,1.8,1.4,1.8h1.3v-1.2h-1.2C172.5,105.2,172.3,105,172.3,104.8z M166.3,105.4c-1.6,0-3-0.7-3-2.4c0-1.8,2-2.8,4.3-2.8
		h3.3C170.7,103.3,168.6,105.4,166.3,105.4z"/>
	<path class="st0" d="M185,93.3L185,93.3l-4.5,12.1h-0.2l-4.4-12.1h-1.4l4.8,13.2h0.7l-0.8,2c-0.3,0.8-0.7,1.3-1.4,1.3h-2.2v1.2h2.4
		c1.1,0,1.7-0.7,2.3-2.2l6-15.5L185,93.3L185,93.3z"/>
</g>
<g>
	<path class="st1" d="M4.2,196.4c-0.2,0-0.4-0.1-0.5-0.2c-0.3-0.3-0.3-0.7,0-1l192-192c0.3-0.3,0.7-0.3,1,0c0.3,0.3,0.3,0.7,0,1
		l-192,192C4.6,196.3,4.4,196.4,4.2,196.4z"/>
</g>
</svg>
