<?xml version="1.0" encoding="utf-8"?>
<!-- Generator: Adobe Illustrator 27.3.1, SVG Export Plug-In . SVG Version: 6.00 Build 0)  -->
<svg version="1.1" id="Layer_1" xmlns="http://www.w3.org/2000/svg" xmlns:xlink="http://www.w3.org/1999/xlink" x="0px" y="0px"
	 viewBox="0 0 315.6 125.6" style="enable-background:new 0 0 315.6 125.6;" xml:space="preserve">
<style type="text/css">
	.st0{fill:#594FFA;}
	.st1{fill:#FF0000;}
</style>
<g>
	<path class="st0" d="M48.4,30.1l-26.3-4.4l-1.7,10.4l2,0.3l1.4-8.4L48,32c2,0.3,3.6,2.3,3.3,4.2l-2.7,16.3L39,50.9v0
		c-6.3-1.1-10.6-7-9.5-13.3l-2-0.3c-1.2,7.4,3.8,14.4,11.2,15.6v0l11.6,1.9l3.1-18.3C53.8,33.6,51.5,30.6,48.4,30.1"/>
	<path class="st0" d="M40.2,43.8c-2.3-0.4-3.9-2.6-3.5-4.9l-2-0.3c-0.6,3.4,1.8,6.7,5.2,7.3L40.2,43.8z"/>
	<path class="st0" d="M22.3,36.4l-2-0.3c-1.9,11.3,5.8,22,17.2,23.9l0.3-2C27.5,56.3,20.6,46.6,22.3,36.4"/>
	<path class="st0" d="M94.5,49.1c1.1-3.2,3.5-4.8,6.7-4.2c1.5,0.3,2.8,1,3.6,2.1c0.8,1.1,1.1,2.5,0.9,4L94.5,49.1z M89.4,50.2
		c-0.5,3.2,0,6,1.4,8.2c1.6,2.4,4.2,3.9,7.6,4.5c4,0.7,8.1-1,10.3-4.2l0.1-0.2l-3.4-2.3l-0.1,0.2c-1.5,2-3.7,2.9-6.3,2.4
		c-4.3-0.7-5.2-3.7-5.2-6.1l15.8,2.6l0.4-2.2c0.5-3,0.1-5.8-1.2-7.9c-1.4-2.2-3.8-3.7-6.8-4.2c-2.9-0.5-5.8,0.1-8.1,1.8
		C91.5,44.5,90,47.1,89.4,50.2"/>
	<path class="st0" d="M70,46.9c0.7-4.2,3.7-6.6,7.6-5.9c3.3,0.6,5.1,3.7,4.4,7.7c-0.7,4.2-3.6,6.8-7,6.2
		C71.3,54.3,69.3,51.1,70,46.9 M70.3,40.9l0.8-4.5l-3.9-0.7l-4.7,28.3l4.3,0.7l1.8-10.6c0.6,1.9,2.8,4.1,6.5,4.7
		c2.5,0.4,5.1-0.3,7.3-1.9c2.3-1.7,3.8-4.4,4.3-7.5c1-6.2-2.2-11.5-7.5-12.4C75.1,36.5,71.8,37.9,70.3,40.9"/>
	<path class="st0" d="M114.8,43.7l-3.5,20.7l4.3,0.7l2.1-12.8c0.4-2.4,1.8-3.5,4.2-3.1l3.4,0.6l0.7-4.3l-2.1-0.3
		c-2.1-0.4-4.5-0.2-6.2,3.3l0.7-4.1L114.8,43.7z"/>
	<path class="st0" d="M144.1,53.1c-0.3-1.3-0.9-2.4-1.8-3.4c-1.3-1.5-3.1-2.5-5.4-2.9c-2.1-0.4-4.2-0.1-5.9,0.8
		c-1.8,0.9-3,2.5-3.3,4.4c-0.8,4.6,3.2,6.4,6.4,7.8c2.4,1,4.4,1.9,4.1,3.6c-0.3,1.4-1.9,2-4.2,1.6c-2.6-0.4-4.3-2.1-4.7-4.7l0-0.3
		l-4.1,0.9l0,0.2c0.7,4,3.6,6.8,8.2,7.5c4.9,0.8,8.6-1.1,9.3-4.8c0.7-4.2-2.9-5.8-6.1-7.2c-2.5-1.1-4.7-2.1-4.4-4
		c0.3-1.7,1.9-2.5,4.1-2.2c2.1,0.4,3.6,1.9,4.1,4.1L144.1,53.1z"/>
	<path class="st0" d="M183.6,54.6c-3.1-0.5-6.3,1-7.9,3.8l0.7-4.4l-3.9-0.6l-3.5,20.7l4.3,0.7l1.7-10.2c0.7-4.4,3.3-6.7,6.8-6.2
		c2.7,0.4,4,2.6,3.5,5.7l-2.1,12.3l4.3,0.7l2-12.2C190.6,59.3,188.3,55.4,183.6,54.6"/>
	<path class="st0" d="M205.7,71.1c-0.6,3-3.8,5.2-6.8,4.6c-1.9-0.3-2.9-1.5-2.6-3.1c0.1-0.7,0.5-1.3,1-1.7c1-0.7,2.5-0.9,4.4-0.6
		c0,0,0.1,0,0.2,0L205.7,71.1z M209.3,76.3l1.5-9.1c0.8-4.8-1.9-8.4-6.8-9.2c-4-0.7-7.6,0.8-10.1,4l3.4,2.1c1.8-1.9,3.8-2.7,6-2.4
		c2.5,0.4,3.8,2.1,3.4,4.5l-0.3,1.8l-4.7-0.8c-2.2-0.4-4.4-0.2-6.1,0.6c-2,0.9-3.2,2.4-3.5,4.3c-0.6,3.6,1.6,6.5,5.6,7.1
		c3.1,0.5,6.1-0.9,7.7-3.7l-0.1,0.5c-0.4,2.5,0.5,4,2.7,4.4l2.9,0.5l0.6-3.7l-1.8-0.3C209.3,77.1,209.1,77,209.3,76.3"/>
	<path class="st0" d="M218.8,78.3c-0.4-0.1-0.5-0.1-0.4-0.8l3.9-23.6l-4.3-0.7l-3.7,22.5c-0.3,2-0.2,3.4,0.4,4.5
		c0.7,1.2,2,1.9,4,2.3l3.1,0.5l0.7-4.1L218.8,78.3z"/>
	<path class="st0" d="M157.8,54.5c-3.8-0.6-7.4,1.9-8,5.7c-0.6,3.8,1.9,7.4,5.7,8c3.8,0.6,7.4-1.9,8-5.7
		C164.2,58.8,161.6,55.2,157.8,54.5 M154.9,72.4c-6.1-1-10.2-6.8-9.2-12.8c1-6,6.8-10.1,12.8-9.1c6.1,1,10.2,6.8,9.2,12.8
		C166.7,69.3,160.9,73.4,154.9,72.4"/>
	<path class="st0" d="M242.4,84.9c4.2,0.7,7.8-2,8.8-7.8c0.9-5.5-1.3-9.7-5.6-10.4c-4.9-0.8-8.3,3-9.1,7.9
		C235.8,79.4,237.5,84.1,242.4,84.9 M236.2,63.8l2,0.3l-0.8,4.6l0.2,0c1.5-2.5,4.3-4.6,8.4-3.9c5.4,0.9,8.5,6.1,7.4,12.7
		c-1.1,6.7-5.9,10.3-11.2,9.4c-4-0.7-6-3.6-6.5-6.5l-0.2,0l-2.1,12.5l-2-0.3L236.2,63.8z"/>
	<path class="st0" d="M261.9,88c3.7,0.6,7.6-2.2,8.9-7l-5.3-0.9c-3.8-0.6-7.2,0.4-7.7,3.3C257.4,86.1,259.4,87.6,261.9,88 M255.7,83
		c0.6-3.9,4.8-5.6,10.1-4.7l5.3,0.9l0.4-2.7c0.5-3.1-1.1-5.5-4.5-6.1c-2.8-0.5-6.1,0.7-8,4l-1.7-1.2c2.2-3.7,6.2-5.4,10.2-4.8
		c4.9,0.8,6.8,4.5,6.2,8.5l-1.9,11.6c-0.1,0.4,0.1,0.7,0.4,0.7l1.9,0.3l-0.3,2l-2.1-0.3c-1.7-0.3-2.1-1.4-1.8-3.3l0.4-2.1l-0.3-0.1
		c-1.8,2.9-4.9,4.8-8.5,4.2C257.7,89.4,255.1,86.9,255.7,83"/>
	<path class="st0" d="M280.5,71.2l3.9,20.3l0.3,0l10.4-18l2.2,0.4l-13.6,23.1c-1.3,2.2-2.5,3.2-4.2,2.9l-3.8-0.6l0.3-2l3.5,0.6
		c1.1,0.2,1.8-0.6,2.6-1.8l1.7-2.9l-1.2-0.2l-4.2-22.2L280.5,71.2z"/>
</g>
<g>
	<g>
		<path class="st1" d="M298.8,16.4l-281,91c-0.5,0.2-0.8,0.7-0.6,1.3c0.2,0.5,0.7,0.8,1.3,0.6l281-91c0.5-0.2,0.8-0.7,0.6-1.3
			C299.9,16.6,299.3,16.3,298.8,16.4"/>
	</g>
</g>
</svg>
