<?xml version="1.0" encoding="UTF-8"?>
<svg xmlns="http://www.w3.org/2000/svg" version="1.1" viewBox="0 0 50 50">
  <!-- Generator: Adobe Illustrator 28.6.0, SVG Export Plug-In . SVG Version: 1.2.0 Build 709)  -->
  <g>
    <g id="Layer_1">
      <g>
        <path d="M25.1,9.4c-8.6,0-15.4,7-15.4,15.4s.4,4,1.1,5.8l-1.4,10,10-1.4c1.9.8,3.8,1.1,5.8,1.1,8.6,0,15.4-7,15.4-15.4,0-8.6-7-15.5-15.5-15.5ZM25.1,37.1c-1.7,0-3.4-.4-4.9-1.1l-.4-.2-6.6,1,1-6.6-.2-.4c-.7-1.6-1.1-3.3-1.1-4.9,0-6.8,5.5-12.3,12.3-12.3s12.3,5.5,12.3,12.3c0,6.8-5.5,12.3-12.3,12.3Z"/>
        <rect x="23.4" y="21.6" width="3.2" height="10.7"/>
        <path d="M25,16.4c-1.1,0-2.1,1-2.1,2.1s1,2.1,2.1,2.1,2.1-1,2.1-2.1-.9-2.1-2.1-2.1Z"/>
      </g>
    </g>
  </g>
</svg>