<?xml version="1.0" encoding="UTF-8"?>
<svg xmlns="http://www.w3.org/2000/svg" version="1.1" viewBox="0 0 50 50">
  <!-- Generator: Adobe Illustrator 28.6.0, SVG Export Plug-In . SVG Version: 1.2.0 Build 709)  -->
  <g>
    <g id="Layer_1">
      <g>
        <rect x="23.1" y="38.9" width="4.2" height="3.2"/>
        <path d="M25.3,31.5c3.3,0,5.9-2.6,5.9-5.9v-11.7c0-3.3-2.6-5.9-5.9-5.9s-5.9,2.6-5.9,5.9v11.7c0,3.3,2.6,5.9,5.9,5.9ZM22.5,13.8c0-1.5,1.2-2.6,2.6-2.6s2.6,1.2,2.6,2.6v11.7c0,1.5-1.2,2.6-2.6,2.6s-2.6-1.2-2.6-2.6v-11.7Z"/>
        <path d="M33.4,29.4c-1.9,2.9-4.9,4.7-8.3,4.7s-6.4-1.8-8.3-4.7l-2.7,1.8c2.5,3.9,6.5,6.2,10.9,6.2s8.5-2.3,10.9-6.2l-2.6-1.8Z"/>
      </g>
    </g>
  </g>
</svg>