<?xml version="1.0" encoding="UTF-8"?>
<svg xmlns="http://www.w3.org/2000/svg" version="1.1" viewBox="0 0 50 50">
  <!-- Generator: Adobe Illustrator 28.6.0, SVG Export Plug-In . SVG Version: 1.2.0 Build 709)  -->
  <g>
    <g id="Layer_1">
      <g>
        <path d="M39.8,15.6l-.9-2.3-5.5,5.5c-.6.6-1.7.6-2.3,0s-.6-1.7,0-2.3l5.5-5.5-2.3-.9c-3.4-1.4-7.7-.4-10.4,2.3-2.5,2.5-3.4,6-2.5,9.3l-8.3,8.3,2.3,2.3,9.7-9.7-.4-1c-1-2.4-.4-5.1,1.4-6.9,1.1-1.1,2.6-1.8,4.2-1.9l-1.5,1.5c-1.9,1.9-1.9,4.9,0,6.8,1.9,1.9,4.9,1.9,6.8,0l1.5-1.5c0,1.6-.8,3.1-1.9,4.2-1.9,1.8-4.5,2.4-6.9,1.4l-1-.4-9.7,9.7,2.3,2.3,8.2-8.4c3.3.9,6.8,0,9.3-2.5,2.7-2.7,3.7-6.9,2.3-10.4Z"/>
        <path d="M13.3,37c-.3-.4-.4-.7-.4-1.1s.2-.9.4-1.1l-2.3-2.3c-.9.9-1.4,2-1.4,3.4s.5,2.5,1.4,3.4,2,1.4,3.4,1.4,2.5-.5,3.5-1.2l-2.3-2.3c-.6.6-1.7.6-2.3,0Z"/>
      </g>
    </g>
  </g>
</svg>