<?xml version="1.0" encoding="UTF-8"?>
<svg xmlns="http://www.w3.org/2000/svg" version="1.1" viewBox="0 0 50 50">
  <!-- Generator: Adobe Illustrator 28.6.0, SVG Export Plug-In . SVG Version: 1.2.0 Build 709)  -->
  <g>
    <g id="Layer_1">
      <path d="M9.5,8.3v17.6c0,8.6,14.2,15.1,14.8,15.4l.7.4.7-.4c.6-.3,14.8-6.8,14.8-15.4V8.3H9.5ZM37.2,26c0,5.6-9.6,10.8-12.2,12-2.6-1.3-12.2-6.4-12.2-12v-2.3c3.4,2.6,7.8,4.1,12.2,4.1s8.9-1.5,12.2-4.1v2.3ZM37.2,19c-2.6,3.3-7.3,5.4-12.2,5.4s-9.7-2.1-12.2-5.4h0v-7.3h24.3v7.3Z"/>
    </g>
  </g>
</svg>