<?xml version="1.0" encoding="UTF-8"?>
<svg xmlns="http://www.w3.org/2000/svg" version="1.1" viewBox="0 0 50 50">
  <!-- Generator: Adobe Illustrator 28.6.0, SVG Export Plug-In . SVG Version: 1.2.0 Build 709)  -->
  <g>
    <g id="Layer_1">
      <g>
        <path d="M42.5,14.9h-8.3c-2.3-2.6-5.7-4.2-9.3-4.2s-7,1.6-9.3,4.2H7.4v24.5h35.2V14.9ZM39.4,36.1H10.7v-18.2h6.7l.4-.6c1.7-2.3,4.4-3.6,7.2-3.6s5.6,1.3,7.2,3.6l.4.6h6.7v18.2Z"/>
        <path d="M25.1,20.1c-3.9,0-7,3.2-7,7h3.2c0-2,1.7-3.7,3.7-3.7s3.7,1.7,3.7,3.7h3.2c0-3.9-3.1-7-6.8-7Z"/>
      </g>
    </g>
  </g>
</svg>