<?xml version="1.0" encoding="UTF-8"?>
<svg xmlns="http://www.w3.org/2000/svg" version="1.1" viewBox="0 0 50 50">
  <!-- Generator: Adobe Illustrator 28.6.0, SVG Export Plug-In . SVG Version: 1.2.0 Build 709)  -->
  <g>
    <g id="Layer_1">
      <g>
        <path d="M25,6.1c-8.5,0-15.4,7.1-15.4,15.6s13.9,21.1,14.6,21.5l.9.6.9-.6c.6-.4,14.6-10.1,14.6-21.5s-7-15.6-15.4-15.6ZM25,39.9c-3-2.2-12.3-9.9-12.3-18.2s5.5-12.4,12.3-12.4,12.3,5.6,12.3,12.4-9.3,16-12.3,18.2Z"/>
        <path d="M25.1,13.6c-3.9,0-7,3.2-7,7h3.2c0-2,1.7-3.7,3.7-3.7s3.7,1.7,3.7,3.7h3.3c0-3.8-3.2-7-6.9-7Z"/>
      </g>
    </g>
  </g>
</svg>