<?xml version="1.0" encoding="UTF-8"?>
<svg xmlns="http://www.w3.org/2000/svg" version="1.1" viewBox="0 0 50 50">
  <!-- Generator: Adobe Illustrator 28.6.0, SVG Export Plug-In . SVG Version: 1.2.0 Build 709)  -->
  <g>
    <g id="Layer_1">
      <path d="M32.9,19.2h-3.5v-3.9c0-3.2-2.6-5.8-5.9-5.8h-1.1l-5.3,12.8h-7v18.2h17.6c5.2,0,9.6-3.4,10.9-8.6l1-4.3c.4-2,0-4.1-1.3-5.8-1.3-1.6-3.3-2.6-5.4-2.6ZM16.6,37.3h-3.2v-11.7h3.2v11.7ZM36.4,26.9l-1,4.3c-.9,3.6-4,6.1-7.7,6.1h-8v-13.1l4.8-11.3c1,.4,1.7,1.3,1.7,2.5v7.1h6.7c1.1,0,2.1.5,2.8,1.4.7.9,1,2,.7,3.1Z"/>
    </g>
  </g>
</svg>