<?xml version="1.0" encoding="UTF-8"?>
<svg xmlns="http://www.w3.org/2000/svg" version="1.1" viewBox="0 0 50 50">
  <!-- Generator: Adobe Illustrator 28.6.0, SVG Export Plug-In . SVG Version: 1.2.0 Build 709)  -->
  <g>
    <g id="Layer_1">
      <g>
        <path d="M25.1,25c-2.6,0-4.9,2.2-4.9,4.9s1.2,3.9,3.2,4.6v7.7h3.4c0,0,0-7.7,0-7.7,1.9-.7,3.2-2.6,3.2-4.6s-2.2-4.9-4.9-4.9ZM25.1,31.4c-.8,0-1.5-.7-1.5-1.5s.7-1.5,1.5-1.5,1.5.6,1.5,1.5-.7,1.5-1.5,1.5Z"/>
        <path d="M44,15.6c-5.1-5-11.8-7.9-19-7.9s-13.9,2.8-19,7.9l-.4.4,2.4,2.4.4-.4c4.4-4.4,10.3-6.9,16.6-6.9s12.2,2.5,16.6,6.9l.4.4,2.4-2.4-.4-.4Z"/>
        <path d="M25.1,16.3c-4.9,0-9.4,1.9-12.9,5.4l-.4.4,2.4,2.4.4-.4c2.8-2.7,6.5-4.3,10.5-4.3s7.7,1.5,10.5,4.3l.4.4,2.4-2.4-.4-.4c-3.4-3.5-8-5.4-12.9-5.4Z"/>
      </g>
    </g>
  </g>
</svg>