<?xml version="1.0" encoding="UTF-8"?>
<svg xmlns="http://www.w3.org/2000/svg" version="1.1" viewBox="0 0 50 50">
  <!-- Generator: Adobe Illustrator 28.6.0, SVG Export Plug-In . SVG Version: 1.2.0 Build 709)  -->
  <g>
    <g id="Layer_1">
      <g>
        <polygon points="40.8 15.3 38.8 28.6 18 28.6 13.7 7.5 6.1 7.5 6.1 10.8 11.1 10.8 15.4 31.8 41.5 31.8 43.9 15.7 40.8 15.3"/>
        <path d="M23.5,32.9c-2.6,0-4.8,2.1-4.8,4.8s2.1,4.8,4.8,4.8,4.8-2.2,4.8-4.8c0-2.6-2.1-4.8-4.8-4.8ZM23.5,39.3c-.9,0-1.6-.7-1.6-1.6s.7-1.6,1.6-1.6,1.6.7,1.6,1.6-.7,1.6-1.6,1.6Z"/>
        <path d="M35.9,32.9c-2.6,0-4.8,2.1-4.8,4.8s2.1,4.8,4.8,4.8,4.9-2.2,4.8-4.8c0-2.6-2.1-4.8-4.8-4.8ZM35.9,39.3c-.9,0-1.6-.7-1.6-1.6s.7-1.6,1.6-1.6,1.6.7,1.6,1.6-.7,1.6-1.6,1.6Z"/>
        <path d="M27.9,12.9c3.4,0,6.2,1.2,7.8,3.5l2.5-1.9c-2.2-3.2-6-4.9-10.3-4.9s-8.1,1.9-10.3,4.9l2.6,1.9c1.6-2.2,4.4-3.5,7.8-3.5Z"/>
      </g>
    </g>
  </g>
</svg>