<?xml version="1.0" encoding="UTF-8"?>
<svg xmlns="http://www.w3.org/2000/svg" version="1.1" viewBox="0 0 50 50">
  <!-- Generator: Adobe Illustrator 28.6.0, SVG Export Plug-In . SVG Version: 1.2.0 Build 709)  -->
  <g>
    <g id="Layer_1">
      <g>
        <path d="M7.4,7.4v35.2h35.2V7.4H7.4ZM39.4,39.3H10.6v-5.2c7.9-7.3,21-7.3,28.9,0v5.2ZM39.4,30.1c-8.4-6-20.5-6-28.9,0V10.6h28.9v19.5Z"/>
        <path d="M31.4,24.4c3.3,0,5.9-2.6,5.9-5.9s-2.6-5.9-5.9-5.9-5.9,2.6-5.9,5.9c0,3.3,2.7,5.9,5.9,5.9ZM31.4,15.9c1.5,0,2.6,1.2,2.6,2.6s-1.2,2.6-2.6,2.6-2.6-1.2-2.6-2.6,1.2-2.6,2.6-2.6Z"/>
      </g>
    </g>
  </g>
</svg>