<?xml version="1.0" encoding="UTF-8"?>
<svg xmlns="http://www.w3.org/2000/svg" version="1.1" viewBox="0 0 50 50">
  <!-- Generator: Adobe Illustrator 28.6.0, SVG Export Plug-In . SVG Version: 1.2.0 Build 709)  -->
  <g>
    <g id="Layer_1">
      <g>
        <path d="M22.5,30.7c-6.4,0-12.6,3.5-16.3,9.3l2.7,1.8c3.1-4.9,8.3-7.8,13.6-7.8s10.5,3,13.6,7.8l2.7-1.8c-3.7-5.7-10-9.3-16.3-9.3Z"/>
        <path d="M22.5,28.5c5.6,0,10.1-4.6,10.1-10.1s-4.6-10.1-10.1-10.1-10.1,4.6-10.1,10.1,4.6,10.1,10.1,10.1ZM22.5,11.5c3.8,0,7,3.1,7,7s-3.1,7-7,7-7-3.1-7-7c0-3.9,3.2-7,7-7Z"/>
        <rect x="33.2" y="23.2" width="10.7" height="3.2"/>
      </g>
    </g>
  </g>
</svg>