<?xml version="1.0" encoding="UTF-8"?>
<svg xmlns="http://www.w3.org/2000/svg" version="1.1" viewBox="0 0 50 50">
  <!-- Generator: Adobe Illustrator 28.6.0, SVG Export Plug-In . SVG Version: 1.2.0 Build 709)  -->
  <g>
    <g id="Layer_1">
      <path d="M37.4,17.3c0-6.9-5.6-12.4-12.4-12.4s-12.4,5.6-12.4,12.4,1.9,7.6,4.9,9.8l-3.4,18,3.6-3.4c1.9-1.9,4.5-2.7,7.4-2.7s5.6,1,7.4,2.7l3.6,3.4-3.5-17.9c3-2.3,4.9-5.9,4.9-9.9ZM25,35.9c-2.2,0-4.4.4-6.3,1.3l1.6-8.3c1.4.6,3,.9,4.7.9s3.3-.4,4.7-.9l1.6,8.3c-1.9-.9-4.1-1.3-6.3-1.3ZM25,26.6c-5.1,0-9.3-4.1-9.3-9.3s4.1-9.3,9.3-9.3,9.3,4.1,9.3,9.3-4.1,9.3-9.3,9.3Z"/>
    </g>
  </g>
</svg>