<?xml version="1.0" encoding="UTF-8"?>
<svg xmlns="http://www.w3.org/2000/svg" version="1.1" viewBox="0 0 50 50">
  <!-- Generator: Adobe Illustrator 28.6.0, SVG Export Plug-In . SVG Version: 1.2.0 Build 709)  -->
  <g>
    <g id="Layer_1">
      <g>
        <path d="M38.4,26.7c-3.5,0-6.4,2.8-6.4,6.4v4.9c0,3.5,2.8,6.4,6.4,6.4s6.4-2.8,6.4-6.4v-4.9c0-3.5-2.8-6.4-6.4-6.4ZM41.6,37.9c0,1.8-1.4,3.2-3.2,3.2s-3.2-1.4-3.2-3.2v-4.9c0-1.8,1.4-3.2,3.2-3.2s3.2,1.4,3.2,3.2v4.9Z"/>
        <path d="M11.6,26.7c-3.5,0-6.4,2.8-6.4,6.4v4.9c0,3.5,2.8,6.4,6.4,6.4s6.4-2.8,6.4-6.4v-4.9c0-3.5-2.8-6.4-6.4-6.4ZM14.8,37.9c0,1.8-1.4,3.2-3.2,3.2s-3.2-1.4-3.2-3.2v-4.9c0-1.8,1.4-3.2,3.2-3.2s3.2,1.4,3.2,3.2v4.9Z"/>
        <path d="M40.5,24.5h3.2c0-10.3-8.2-18.7-18.5-18.7S6.5,14.1,6.5,24.5h3.2c0-8.5,7-15.4,15.4-15.4s15.4,5.5,15.4,15.4Z"/>
      </g>
    </g>
  </g>
</svg>