<?xml version="1.0" encoding="UTF-8"?>
<svg xmlns="http://www.w3.org/2000/svg" version="1.1" viewBox="0 0 50 50">
  <!-- Generator: Adobe Illustrator 28.6.0, SVG Export Plug-In . SVG Version: 1.2.0 Build 709)  -->
  <g>
    <g id="Layer_1">
      <path d="M30.9,10.4c-2,0-3.7-.5-5.4-1-1.9-.5-3.9-1.1-6.4-1.1-4.8,0-7,1.1-7.1,1.2l-.8.4v31.9h3.2v-11.7c.9-.3,2.5-.6,4.8-.6s3.7.5,5.4,1c1.9.5,3.9,1.1,6.4,1.1,4.8,0,7-1.1,7.1-1.2l.8-.4V8.2l-2.3,1.2s-1.8.9-5.6.9ZM35.6,27.8c-.9.3-2.5.5-4.8.5s-3.7-.5-5.4-1c-1.9-.5-3.9-1.1-6.4-1.1s-3.6.2-4.8.4v-14.8c.9-.3,2.5-.5,4.8-.5s3.7.5,5.4,1c1.9.5,3.9,1.1,6.4,1.1s3.6-.2,4.8-.4v14.8Z"/>
    </g>
  </g>
</svg>