<?xml version="1.0" encoding="UTF-8"?>
<svg xmlns="http://www.w3.org/2000/svg" version="1.1" viewBox="0 0 50 50">
  <!-- Generator: Adobe Illustrator 28.6.0, SVG Export Plug-In . SVG Version: 1.2.0 Build 709)  -->
  <g>
    <g id="Layer_1">
      <g>
        <polygon points="23.3 14.3 23.3 26 33.9 30.7 35.1 27.8 26.5 23.9 26.5 14.3 23.3 14.3"/>
        <path d="M24.9,9.5c6.7,0,12.6,4.2,14.7,10.7l3-1c-2.6-7.7-9.6-12.9-17.7-12.9s-15.2,5.1-17.7,12.9l3,1c2.1-6.4,8-10.7,14.7-10.7Z"/>
        <path d="M43.5,24.1v-.3l-3.2.2v1c0,8.6-7,15.4-15.4,15.4s-15.4-7-15.4-15.4v-1l-3.2-.2v1.1c0,10.3,8.4,18.7,18.7,18.7s18.7-8.4,18.7-18.7c0-.3-.2-.6-.2-.9Z"/>
      </g>
    </g>
  </g>
</svg>