<?xml version="1.0" encoding="UTF-8"?>
<svg xmlns="http://www.w3.org/2000/svg" version="1.1" viewBox="0 0 50 50">
  <!-- Generator: Adobe Illustrator 28.6.0, SVG Export Plug-In . SVG Version: 1.2.0 Build 709)  -->
  <g>
    <g id="Layer_1">
      <g>
        <path d="M48,26.4c0-.2,0-.3,0-.4,0-.3,0-.4,0-.7s0-.4,0-.4c0-.2,0-.4-.2-.6,0-.2,0-.4-.2-.5,0-.2,0-.4-.2-.5,0-.4-.3-.6-.4-1,0-.2-.2-.3-.2-.4,0-.2-.2-.4-.3-.5,0-.2-.2-.3-.3-.4,0-.2-.2-.4-.4-.4,0-.2-.2-.3-.4-.4,0-.2-.2-.3-.4-.4s-.4-.4-.4-.5c0,0-.2-.2-.3-.3-.3-.3-.5-.5-.8-.7,0,0-.2,0-.3-.2-.2-.2-.4-.4-.6-.5,0,0-.2,0-.3-.2-.2-.2-.4-.3-.7-.4,0,0-.2,0-.3-.2-.3-.2-.5-.3-.8-.4,0,0-.2,0-.3,0-.4-.2-.7-.3-1.1-.4-.5-5.7-5.3-10.1-11.1-10.1s-7.7,2.1-9.6,5.5c-.7,0-1.4-.2-2.1-.2-7.9,0-14.4,6.4-14.4,14.4s6.4,14.4,14.4,14.4v-3.2c-6.2,0-11.2-5-11.2-11.2s5-11.2,11.2-11.2,1.7,0,2.6.4l1.3.3.5-1.2c1.3-2.9,4.1-4.8,7.3-4.8s7.1,2.7,7.9,6.4h-.4c-4.4,0-8.5,2.4-10.7,6.3l2.8,1.6c1.6-2.8,4.7-4.6,7.9-4.6s1.2,0,1.9.2h0c.3,0,.5,0,.7.2,0,0,.2,0,.2,0,.2,0,.4.2.6.2s.2,0,.3,0c.2,0,.4.2.5.3,0,0,.2,0,.3,0,.2,0,.4.2.5.3,0,0,.2,0,.3.2.2,0,.3.2.4.4s.2,0,.3.2c.2,0,.3.3.4.4,0,0,.2.2.2.2,0,0,.3.3.4.4,0,0,.2.2.2.3.2.2.4.4.4.6,0,0,.2.3.3.4,0,0,0,.2.2.3,0,.2.2.3.2.4,0,0,0,.2.2.3,0,.2,0,.3.2.4,0,0,0,.3,0,.4,0,.2,0,.3.2.4,0,.2,0,.3,0,.4s0,.3,0,.4,0,.4,0,.5v.4c0,.3,0,.5,0,.9,0,5-4.1,9.1-9.1,9.1v3.2c6.8,0,12.3-5.5,12.3-12.3,0-.3,0-.6,0-1Z"/>
        <polygon points="18.6 32.8 20.9 35.1 23.5 32.5 23.5 44.5 26.7 44.5 26.7 32.5 29.3 35.1 31.6 32.8 25.1 26.3 18.6 32.8"/>
      </g>
    </g>
  </g>
</svg>