<?xml version="1.0" encoding="UTF-8"?>
<svg xmlns="http://www.w3.org/2000/svg" version="1.1" viewBox="0 0 50 50">
  <!-- Generator: Adobe Illustrator 28.6.0, SVG Export Plug-In . SVG Version: 1.2.0 Build 709)  -->
  <g>
    <g id="Layer_1">
      <g>
        <path d="M26.7,25.8v-15.4h-3.4v15.4c-1.9.7-3.4,2.6-3.4,4.8s1.4,4.1,3.4,4.8v4.2h3.4v-4.2c1.9-.7,3.4-2.6,3.4-4.8s-1.4-4.1-3.4-4.8ZM25,32.2c-.9,0-1.7-.8-1.7-1.7s.8-1.7,1.7-1.7,1.7.8,1.7,1.7-.8,1.7-1.7,1.7Z"/>
        <path d="M40.1,20.2v-9.8h-3.4v9.8c-1.9.7-3.4,2.6-3.4,4.8s1.4,4.1,3.4,4.8v9.7h3.4v-9.8c1.9-.7,3.4-2.6,3.4-4.7s-1.4-4.1-3.4-4.8ZM38.4,26.7c-.9,0-1.7-.8-1.7-1.7s.8-1.7,1.7-1.7,1.7.8,1.7,1.7-.8,1.7-1.7,1.7Z"/>
        <path d="M13.3,13.5v-3.1h-3.4v3.1c-1.9.7-3.4,2.6-3.4,4.8s1.4,4.1,3.4,4.8v16.4h3.4v-16.5c1.9-.7,3.4-2.6,3.4-4.8s-1.4-4-3.4-4.7ZM11.6,20c-.9,0-1.7-.8-1.7-1.7s.8-1.7,1.7-1.7,1.7.8,1.7,1.7-.8,1.7-1.7,1.7Z"/>
      </g>
    </g>
  </g>
</svg>