<?xml version="1.0" encoding="UTF-8"?>
<svg xmlns="http://www.w3.org/2000/svg" version="1.1" viewBox="0 0 50 50">
  <!-- Generator: Adobe Illustrator 28.6.0, SVG Export Plug-In . SVG Version: 1.2.0 Build 709)  -->
  <g>
    <g id="Layer_1">
      <g>
        <path d="M25,25.9c-2.6,0-5.1-1.4-6.5-3.6l-2.5,1.6c2,3.1,5.4,4.9,9,4.9s7-1.9,9-4.9l-2.5-1.6c-1.4,2.3-3.9,3.6-6.5,3.6Z"/>
        <path d="M43.2,21.2h1.6v-11.7H5.2v11.8h1.6c2.2,0,3.7,1.5,3.7,3.7s-1.5,3.7-3.7,3.7h-1.6v11.7h39.5v-11.8h-1.6c-2.2,0-3.7-1.5-3.7-3.7s1.5-3.7,3.7-3.7ZM41.5,31.8v5.5H8.4v-5.5c3.1-.7,5.3-3.4,5.3-6.8s-2.2-6.1-5.3-6.8v-5.5h33.1v5.5c-3.1.7-5.3,3.4-5.3,6.8s2.2,6.1,5.3,6.8Z"/>
      </g>
    </g>
  </g>
</svg>