<?xml version="1.0" encoding="UTF-8"?>
<svg xmlns="http://www.w3.org/2000/svg" version="1.1" viewBox="0 0 50 50">
  <!-- Generator: Adobe Illustrator 28.6.0, SVG Export Plug-In . SVG Version: 1.2.0 Build 709)  -->
  <g>
    <g id="Layer_1">
      <path d="M17.7,10.5v19.8c-1.2-.8-2.6-1.2-4.1-1.2-4.1,0-7.3,3.3-7.3,7.3s3.3,7.3,7.3,7.3,7.3-3.2,7.3-7.2h0V13.3l19.5-3.3v16.6c-1.2-.8-2.6-1.2-4.1-1.2-4.1,0-7.3,3.3-7.3,7.3s3.3,7.3,7.3,7.3,7.3-3.2,7.3-7.2h0V6.2l-26,4.3ZM13.6,40.5c-2.2,0-4.1-1.8-4.1-4.1s1.8-4.1,4.1-4.1,4.1,1.9,4.1,4.1-1.8,4.1-4.1,4.1ZM36.4,36.7c-2.2,0-4.1-1.8-4.1-4.1s1.8-4.1,4.1-4.1,4.1,1.9,4.1,4.1h0c0,2.2-1.9,4.1-4.1,4.1Z"/>
    </g>
  </g>
</svg>