<?xml version="1.0" encoding="UTF-8"?>
<svg xmlns="http://www.w3.org/2000/svg" version="1.1" viewBox="0 0 50 50">
  <!-- Generator: Adobe Illustrator 28.6.0, SVG Export Plug-In . SVG Version: 1.2.0 Build 709)  -->
  <g>
    <g id="Layer_1">
      <g>
        <path d="M42.5,24.4c-3.1-7.1-10-11.6-17.5-11.6s-14.4,4.6-17.5,11.6l-.3.6.3.6c3.1,7.1,10,11.6,17.5,11.6s14.4-4.6,17.5-11.6l.3-.6-.3-.6ZM24.9,34.1c-6,0-11.6-3.5-14.2-9.1,2.7-5.6,8.2-9.1,14.2-9.1s11.6,3.5,14.2,9.1c-2.6,5.6-8.1,9.1-14.2,9.1Z"/>
        <path d="M24.9,18c-3.8,0-7,3.1-7,7s3.1,7,7,7,7-3.1,7-7-3.1-7-7-7ZM24.9,28.7c-2,0-3.7-1.7-3.7-3.7s1.7-3.7,3.7-3.7,3.7,1.7,3.7,3.7c0,2-1.6,3.7-3.7,3.7Z"/>
      </g>
    </g>
  </g>
</svg>