<?xml version="1.0" encoding="UTF-8"?>
<svg xmlns="http://www.w3.org/2000/svg" version="1.1" viewBox="0 0 50 50">
  <!-- Generator: Adobe Illustrator 28.6.0, SVG Export Plug-In . SVG Version: 1.2.0 Build 709)  -->
  <g>
    <g id="Layer_1">
      <path d="M47.9,29.8c0-5.5-3.6-10.2-8.6-11.8-.5-5.6-5.3-10-11.1-10s-7.6,2.1-9.6,5.5c-.7,0-1.4-.2-2.1-.2-7.9,0-14.4,6.4-14.4,14.4s6.4,14.4,14.4,14.4h19.2c6.7,0,12.3-5.5,12.2-12.2,0,0,0,0,0,0h0ZM35.7,38.9h-19.2c-6.2,0-11.2-5-11.2-11.2s5-11.2,11.2-11.2,1.7,0,2.6.4l1.3.3.5-1.2c1.3-2.9,4.1-4.8,7.3-4.8s7.1,2.7,7.9,6.4c-.1,0-.2,0-.4,0-4.4,0-8.5,2.4-10.7,6.3l2.8,1.6c1.6-2.8,4.6-4.6,7.9-4.6s2.4.2,3.5.7c.1,0,.3.1.4.2.1,0,.2,0,.3.1.2,0,.4.2.5.3,0,0,0,0,0,0,1.7,1.1,3.1,2.7,3.8,4.6,0,0,0,0,0,0,0,.2.1.4.2.6,0,0,0,.1,0,.2,0,.2,0,.4.1.5,0,.1,0,.3,0,.4,0,.1,0,.3,0,.4,0,.3,0,.6,0,.9h0c0,5-4.1,9.1-9.1,9.1Z"/>
    </g>
  </g>
</svg>