<?xml version="1.0" encoding="UTF-8"?>
<svg id="Layer_1" data-name="Layer 1" xmlns="http://www.w3.org/2000/svg" width="105.83mm" height="24.69mm" viewBox="0 0 300 70">
  <path d="M96.57,47.39c-7.18,0-12.99-5.82-12.99-12.99h-8.53c0,11.9,9.7,21.53,21.53,21.53s21.53-9.7,21.53-21.53h-8.53c0,7.18-5.82,12.99-12.99,12.99Z" fill="#fff"/>
  <rect x="91.95" y="29.78" width="9.25" height="9.25" fill="#fff"/>
  <path d="M130.88,22.07h-3.5l-.24,4.15h-2.87v3.01h2.87l.03,11.46c0,2.74,1.07,4.05,3.15,4.05h5.16v-3.36h-3.84c-.55,0-.73-.21-.73-.9v-11.25h4.57v-3.01h-4.6v-4.15Z" fill="#fff"/>
  <rect x="138.67" y="26.19" width="3.74" height="18.56" fill="#fff"/>
  <path d="M140.54,18.64c-1.38,0-2.49,1.04-2.49,2.35,0,1.38,1.14,2.42,2.53,2.42s2.46-1.04,2.46-2.42-1.14-2.35-2.49-2.35Z" fill="#fff"/>
  <path d="M154.84,25.7c-5.23,0-8.97,4.15-8.97,9.8,0,6.47,4.6,9.76,9.31,9.76,2.84,0,5.75-1.25,7.65-3.7l-2.08-2.18c-1.56,1.77-3.6,2.63-5.54,2.63-2.63,0-5.09-1.66-5.64-4.99h13.54c.03-1.32.03-1.8.03-2.46,0-4.71-3.08-8.86-8.31-8.86ZM149.58,34.12c.48-3.53,2.77-5.16,5.05-5.16,2.42,0,4.81,1.87,4.88,5.16h-9.94Z" fill="#fff"/>
  <path d="M176.69,25.7c-2.94,0-5.64,1.8-6.3,4.09h-.24v-3.57h-3.46v18.52h3.77v-9.31c0-4.05,2.08-6.47,4.88-6.47,2.35,0,3.77,1.63,3.77,5.33v10.46h3.77v-11.67c0-4.57-2.11-7.37-6.2-7.37Z" fill="#fff"/>
  <path d="M200.58,29.68h-.24c-.83-2.11-2.8-3.98-5.85-3.98-4.81,0-8.24,4.09-8.24,9.76s3.57,9.8,8.38,9.8c3.15,0,5.23-1.8,6.27-4.09h.21v3.57h3.15v-25.45h-3.67v10.39ZM195.25,41.77c-3.15,0-5.16-2.6-5.16-6.34s2.18-6.23,5.19-6.23c3.36,0,5.19,2.87,5.19,6.23s-1.97,6.34-5.23,6.34Z" fill="#fff"/>
  <path d="M223.53,41.77c-.31,0-.48-.24-.48-.66v-8.41c0-4.43-2.84-6.99-7.13-6.99-3.84,0-6.72,2.15-7.93,5.82l3.12,1.32c1.11-2.7,2.42-3.88,4.81-3.88,1.94,0,3.6,1.45,3.6,4.16v1.14h-4.36c-4.02,0-7.65,2.01-7.65,5.78,0,3.19,2.56,5.16,5.82,5.16s5.61-1.87,6.72-4.33h.31l-.03,1.18c0,1.77.83,2.7,2.49,2.7h2.15v-2.98h-1.42ZM214.05,41.94c-1.45,0-2.94-.76-2.94-2.22,0-1.83,2.35-2.74,5.33-2.74h3.08c-.28,2.42-2.84,4.95-5.47,4.95Z" fill="#fff"/>
</svg>