<svg width="24" height="24" xmlns="http://www.w3.org/2000/svg"><g fill="none" fill-rule="evenodd"><path d="M17.72 11.96v8.969897c0 1.11443-.125189 1.534605-.694286 1.907772-.569098.373167-1.341161.0238-1.918104-.256269l-.09362-.04954-1.058353-.560052-2.711587-1.546316-2.639687 1.546316-1.058354.560051-.09362.049541c-.576942.280069-1.349005.629436-1.918103.25627C4.96519 22.464501 4.84 22.044326 4.84 20.929896V11.96c2.200512 1.251978 4.335196 1.877967 6.40405 1.877967 2.068855 0 4.227505-.62599 6.47595-1.877967z" fill="#9867D0"/><circle fill="#E042CE" cx="11.28" cy="8.28" r="8.28"/><circle stroke-opacity=".75" stroke="#FFF" stroke-width="1.84" cx="11.28" cy="8.28" r="4.6"/></g></svg>