<svg width="24" height="24" xmlns="http://www.w3.org/2000/svg"><g fill="none" fill-rule="nonzero"><path d="M6.6943 2.5093h10.12c.575 0 1.15.46 1.15 1.15v2.3c0 .575-.46 1.15-1.15 1.15h-10.12v-4.6z" fill="#08A5AA"/><path d="M6.6943 15.9643h10.12c.575 0 1.15.46 1.15 1.15v2.3c0 .575-.46 1.15-1.15 1.15h-10.12v-4.6z" fill="#049AA0"/><path d="M6.6943 9.2943h14.72c.575 0 1.15.46 1.15 1.15v2.3c0 .575-.46 1.15-1.15 1.15h-14.72v-4.6z" fill="#08A5AA"/><path d="M3.3593.2093c.575 0 1.15.46 1.15 1.15v20.355c0 .575-.46 1.15-1.15 1.15-.575 0-1.15-.46-1.15-1.15V1.3593c0-.69.46-1.15 1.15-1.15z" fill="#038C91"/></g></svg>