<?xml version="1.0" encoding="utf-8"?>
<!-- Generator: Adobe Illustrator 27.3.1, SVG Export Plug-In . SVG Version: 6.00 Build 0)  -->
<svg version="1.1" id="Layer_1" xmlns="http://www.w3.org/2000/svg" xmlns:xlink="http://www.w3.org/1999/xlink" x="0px" y="0px"
	 viewBox="0 0 451.3 277.2" style="enable-background:new 0 0 451.3 277.2;" xml:space="preserve">
<style type="text/css">
	.st0{fill:#00DCA9;}
	.st1{fill:#F5F5F5;}
	.st2{fill:#161B32;}
	.st3{opacity:0.1;}
	.st4{clip-path:url(#SVGID_00000173162062088189463920000016333631910818994350_);}
	.st5{fill:#DE0CE1;}
	.st6{clip-path:url(#SVGID_00000054229846982667708300000014664980215647729308_);}
	.st7{clip-path:url(#SVGID_00000148649932360773741230000011048805530261989775_);}
	.st8{clip-path:url(#SVGID_00000144337863543795411670000001472414850481399184_);}
</style>
<g>
	<path class="st0" d="M231.2,139.1c0,10.9-8.9,19.7-19.7,19.7c-10.9,0-19.7-8.9-19.7-19.7c0-10.9,8.9-19.7,19.7-19.7
		C222.4,119.4,231.2,128.3,231.2,139.1 M211.5,106.5c-18,0-32.7,14.7-32.7,32.7c0,18,14.7,32.7,32.7,32.7c18,0,32.7-14.7,32.7-32.7
		C244.2,121.1,229.5,106.5,211.5,106.5"/>
</g>
<g>
	<path class="st0" d="M119.9,88.9c-2.5,2.4-3.9,5.9-3.9,10.1v10.5h-7.3v11.1h7.3v49.6h13.4v-49.6h13.3v-11.1h-13.3V99
		c0-1.8,0.7-2.7,2.3-2.7h14v-11h-15.6C125.9,85.4,122.4,86.6,119.9,88.9"/>
</g>
<g>
	<path class="st0" d="M165.4,157.7c-0.2-0.3-0.4-0.9-0.4-2V85.5h-13.5v70.9c0,4.6,0.9,8.1,2.8,10.4c1.9,2.3,4.6,3.5,8.2,3.5h13
		v-12.1h-8.7C165.9,158.1,165.6,157.9,165.4,157.7"/>
</g>
<g>
	<polygon class="st0" points="330.3,108.2 316.8,159 316.5,159 301.6,108.6 301.5,108.2 287.8,108.2 273.5,159 273.4,159 
		259.2,108.2 245,108.2 263.2,169.9 263.3,170.2 281.9,170.2 294.6,126.6 306.6,170.2 325.3,170.2 343.3,108.2 	"/>
</g>
<g>
	<g>
		<path class="st0" d="M220.5,138.1L220.5,138.1l-13.7-7.9c-0.4-0.2-0.8-0.2-1.2,0c0,0,0,0,0,0c-0.4,0.2-0.6,0.6-0.6,1V147
			c0,0.4,0.2,0.8,0.6,1c0.2,0.1,0.4,0.2,0.6,0.2c0.2,0,0.4-0.1,0.6-0.2l13.7-7.9c0.4-0.2,0.6-0.6,0.6-1
			C221.1,138.7,220.9,138.3,220.5,138.1"/>
	</g>
	<g>
		<path class="st1" d="M245.8,202.9c0,10.9-8.9,19.7-19.7,19.7c-10.9,0-19.7-8.9-19.7-19.7c0-10.9,8.9-19.7,19.7-19.7
			C236.9,183.2,245.8,192.1,245.8,202.9 M226,170.3c-18,0-32.7,14.7-32.7,32.7c0,18,14.7,32.7,32.7,32.7c18,0,32.7-14.7,32.7-32.7
			C258.7,184.9,244,170.3,226,170.3"/>
	</g>
	<g>
		<path class="st1" d="M95.8,139.1c0,10.9-8.9,19.7-19.7,19.7c-10.9,0-19.7-8.9-19.7-19.7c0-10.9,8.9-19.7,19.7-19.7
			C87,119.4,95.8,128.3,95.8,139.1 M76.1,106.5c-18,0-32.7,14.7-32.7,32.7c0,18,14.7,32.7,32.7,32.7c18,0,32.7-14.7,32.7-32.7
			C108.8,121.1,94.1,106.5,76.1,106.5"/>
	</g>
	<g>
		<path class="st1" d="M395.7,139.1c0,10.9-8.9,19.7-19.7,19.7c-10.9,0-19.7-8.9-19.7-19.7c0-10.9,8.9-19.7,19.7-19.7
			C386.8,119.4,395.7,128.3,395.7,139.1 M376,106.5c-18,0-32.7,14.7-32.7,32.7c0,18,14.7,32.7,32.7,32.7c18,0,32.7-14.7,32.7-32.7
			C408.6,121.1,394,106.5,376,106.5"/>
	</g>
	<g>
		<path class="st1" d="M245.8,75.1c0,10.9-8.9,19.7-19.7,19.7c-10.9,0-19.7-8.9-19.7-19.7s8.9-19.7,19.7-19.7
			C236.9,55.4,245.8,64.2,245.8,75.1 M226,42.4c-18,0-32.7,14.7-32.7,32.7c0,18,14.7,32.7,32.7,32.7c18,0,32.7-14.7,32.7-32.7
			C258.7,57.1,244,42.4,226,42.4"/>
	</g>
</g>
<g>
	<path class="st2" d="M108.2,34.1h-0.8V22.7h0.8V34.1z M108.2,11.4h-0.8V0h0.8V11.4z"/>
</g>
<g>
	<path class="st2" d="M343.6,34.1h-0.8V22.7h0.8V34.1z M343.6,11.4h-0.8V0h0.8V11.4z"/>
</g>
<g>
	<path class="st2" d="M108.3,278h-1v-11.4h1V278z M108.3,255.3h-1v-11.4h1V255.3z"/>
</g>
<g>
	<path class="st2" d="M343.7,278h-1v-11.4h1V278z M343.7,255.3h-1v-11.4h1V255.3z"/>
</g>
<g>
	<path class="st2" d="M451.3,108.4h-11.4v-0.8h11.4V108.4z M428.6,108.4h-11.4v-0.8h11.4V108.4z"/>
</g>
<g>
	<path class="st2" d="M451.3,170.4h-11.4v-0.8h11.4V170.4z M428.6,170.4h-11.4v-0.8h11.4V170.4z"/>
</g>
<g>
	<path class="st2" d="M34.8,108.4H23.5v-0.8h11.4V108.4z M12.1,108.4H0.7v-0.8h11.4V108.4z"/>
</g>
<g>
	<path class="st2" d="M34.8,170.4H23.5v-0.8h11.4V170.4z M12.1,170.4H0.7v-0.8h11.4V170.4z"/>
</g>
<g>
	<g class="st3">
		<g>
			<defs>
				<rect id="SVGID_1_" x="107.3" y="169.5" width="236.5" height="67.5"/>
			</defs>
			<clipPath id="SVGID_00000078730881406525676750000017094525350191997356_">
				<use xlink:href="#SVGID_1_"  style="overflow:visible;"/>
			</clipPath>
			<g style="clip-path:url(#SVGID_00000078730881406525676750000017094525350191997356_);">
				<rect x="108.3" y="170.5" class="st5" width="234.5" height="65.5"/>
			</g>
		</g>
	</g>
	<g class="st3">
		<g>
			<defs>
				<rect id="SVGID_00000083065099783487427230000003398365597564983737_" x="107.3" y="41.5" width="236.5" height="67.5"/>
			</defs>
			<clipPath id="SVGID_00000132798316244721226310000011210872679427353992_">
				<use xlink:href="#SVGID_00000083065099783487427230000003398365597564983737_"  style="overflow:visible;"/>
			</clipPath>
			<g style="clip-path:url(#SVGID_00000132798316244721226310000011210872679427353992_);">
				<rect x="108.3" y="42.5" class="st5" width="234.5" height="65.5"/>
			</g>
		</g>
	</g>
	<g class="st3">
		<g>
			<defs>
				<rect id="SVGID_00000123401025326040747190000013132828302973330864_" x="342.1" y="41.4" width="67.5" height="195.1"/>
			</defs>
			<clipPath id="SVGID_00000175312837932436012160000000973276129381635204_">
				<use xlink:href="#SVGID_00000123401025326040747190000013132828302973330864_"  style="overflow:visible;"/>
			</clipPath>
			<g style="clip-path:url(#SVGID_00000175312837932436012160000000973276129381635204_);">
				<rect x="343.1" y="42.4" class="st5" width="65.5" height="193.1"/>
			</g>
		</g>
	</g>
	<g class="st3">
		<g>
			<defs>
				<rect id="SVGID_00000145780113127038297990000004144657694543377821_" x="41.9" y="41.4" width="67.5" height="195.1"/>
			</defs>
			<clipPath id="SVGID_00000142890969222805047980000005500816195603306169_">
				<use xlink:href="#SVGID_00000145780113127038297990000004144657694543377821_"  style="overflow:visible;"/>
			</clipPath>
			<g style="clip-path:url(#SVGID_00000142890969222805047980000005500816195603306169_);">
				<rect x="42.9" y="42.4" class="st5" width="65.5" height="193.1"/>
			</g>
		</g>
	</g>
</g>
<g>
	<rect x="342.4" y="42.4" width="0.8" height="193.1"/>
</g>
<g>
	<rect x="408.2" y="42.4" width="0.8" height="193.6"/>
</g>
<g>
	<rect x="43.4" y="235.2" width="364.8" height="0.8"/>
</g>
<g>
	<rect x="43.4" y="170.1" width="364.8" height="0.8"/>
</g>
<g>
	<rect x="107.9" y="42.4" width="0.8" height="193.1"/>
</g>
<g>
	<rect x="42.6" y="42.4" width="0.8" height="193.6"/>
</g>
<g>
	<rect x="42.5" y="42.1" width="366.6" height="0.8"/>
</g>
<g>
	<rect x="42.9" y="107.6" width="365.3" height="0.8"/>
</g>
</svg>
