<?xml version="1.0" encoding="utf-8"?>
<!-- Generator: Adobe Illustrator 27.3.1, SVG Export Plug-In . SVG Version: 6.00 Build 0)  -->
<svg version="1.1" id="Layer_1" xmlns="http://www.w3.org/2000/svg" xmlns:xlink="http://www.w3.org/1999/xlink" x="0px" y="0px"
	 viewBox="0 0 315.6 125.6" style="enable-background:new 0 0 315.6 125.6;" xml:space="preserve">
<style type="text/css">
	.st0{fill:none;stroke:#00DCAA;stroke-linejoin:round;stroke-miterlimit:10;}
	.st1{fill:#FF0000;}
</style>
<g>
	<g>
		<path class="st0" d="M154.7,68.1L154.7,68.1l-7.6-4.4c-0.2-0.1-0.4-0.1-0.6,0c0,0,0,0,0,0c-0.2,0.1-0.3,0.3-0.3,0.6v8.8
			c0,0.2,0.1,0.5,0.3,0.6c0.1,0.1,0.2,0.1,0.3,0.1c0.1,0,0.2,0,0.3-0.1l7.6-4.4c0.2-0.1,0.3-0.3,0.3-0.6S154.9,68.2,154.7,68.1z
			 M216.1,51.4l-7.6,28.4h-0.1l-8.4-28.2l-0.1-0.2h-7.6l-8,28.4h-0.1l-8-28.4h-7.9l10.2,34.5l0.1,0.2H189l7.1-24.4l6.7,24.4h10.5
			l10.1-34.7H216.1z M123.9,79.1c-0.1-0.2-0.2-0.5-0.2-1.1V38.7h-7.5v39.6c0,2.6,0.5,4.5,1.6,5.8c1,1.3,2.6,2,4.6,2h7.2v-6.8h-4.9
			C124.2,79.3,124,79.2,123.9,79.1z M98.5,40.6c-1.4,1.3-2.2,3.3-2.2,5.6v5.9h-4.1v6.2h4.1v27.7h7.5V58.3h7.5v-6.2h-7.5v-5.9
			c0-1,0.4-1.5,1.3-1.5h7.8v-6.1h-8.7C101.8,38.6,99.8,39.3,98.5,40.6z M160.7,68.7c0,6.1-5,11-11,11c-6.1,0-11-5-11-11
			c0-6.1,5-11,11-11C155.8,57.7,160.7,62.6,160.7,68.7z M149.7,50.4c-10.1,0-18.3,8.2-18.3,18.3c0,10.1,8.2,18.3,18.3,18.3
			c10.1,0,18.3-8.2,18.3-18.3C167.9,58.6,159.7,50.4,149.7,50.4z"/>
	</g>
</g>
<g>
	<g>
		<path class="st1" d="M298,16.3l-281,91c-0.5,0.2-0.8,0.7-0.6,1.3c0.2,0.5,0.7,0.8,1.3,0.6l281-91c0.5-0.2,0.8-0.7,0.6-1.3
			C299.1,16.5,298.5,16.2,298,16.3"/>
	</g>
</g>
</svg>
