<?xml version="1.0" encoding="utf-8"?>
<!-- Generator: Adobe Illustrator 27.3.1, SVG Export Plug-In . SVG Version: 6.00 Build 0)  -->
<svg version="1.1" id="Layer_1" xmlns="http://www.w3.org/2000/svg" xmlns:xlink="http://www.w3.org/1999/xlink" x="0px" y="0px"
	 viewBox="0 0 200 200" style="enable-background:new 0 0 200 200;" xml:space="preserve">
<style type="text/css">
	.st0{fill:#FFFFFF;}
	.st1{fill:#FF0000;}
</style>
<g>
	<g>
		<path class="st0" d="M95.1,89.7c-5.7,0-10.3,4.6-10.3,10.2c0,5.7,4.6,10.2,10.3,10.2c5.7,0,10.3-4.6,10.3-10.2
			C105.4,94.3,100.8,89.7,95.1,89.7z M95.1,106.1c-3.4,0-6.2-2.8-6.2-6.2c0-3.4,2.8-6.2,6.2-6.2c3.4,0,6.2,2.8,6.2,6.2
			C101.3,103.3,98.5,106.1,95.1,106.1z"/>
		<path class="st0" d="M66.3,84.2c-0.8,0.7-1.2,1.8-1.2,3.2v3.3h-2.3v3.5h2.3v15.6h4.2V94.1h4.2v-3.5h-4.2v-3.3
			c0-0.6,0.2-0.8,0.7-0.8h4.4V83h-4.9C68.2,83,67.1,83.4,66.3,84.2z"/>
		<path class="st0" d="M80.6,105.7c-0.1-0.1-0.1-0.3-0.1-0.6v-22h-4.2v22.2c0,1.4,0.3,2.5,0.9,3.3c0.6,0.7,1.5,1.1,2.6,1.1h4.1v-3.8
			h-2.7C80.7,105.9,80.7,105.8,80.6,105.7z"/>
		<polygon class="st0" points="132.5,90.2 128.2,106.1 128.1,106.1 123.4,90.3 123.4,90.2 119.1,90.2 114.6,106.1 114.6,106.1 
			110.1,90.2 105.6,90.2 111.4,109.5 111.4,109.7 117.2,109.7 121.2,96 125,109.7 130.9,109.7 136.6,90.2 		"/>
		<path class="st0" d="M93.6,97.1c-0.1-0.1-0.3-0.1-0.4,0c0,0,0,0,0,0c-0.1,0.1-0.2,0.2-0.2,0.3v4.9c0,0.1,0.1,0.3,0.2,0.3
			c0.1,0,0.1,0,0.2,0s0.1,0,0.2,0l4.3-2.5c0.1-0.1,0.2-0.2,0.2-0.3c0-0.1-0.1-0.3-0.2-0.3L93.6,97.1z"/>
	</g>
</g>
<g>
	<path class="st1" d="M4.2,196.4c-0.2,0-0.4-0.1-0.5-0.2c-0.3-0.3-0.3-0.7,0-1l192-192c0.3-0.3,0.7-0.3,1,0c0.3,0.3,0.3,0.7,0,1
		l-192,192C4.6,196.3,4.4,196.4,4.2,196.4z"/>
</g>
</svg>
