<?xml version="1.0" encoding="utf-8"?>
<!-- Generator: Adobe Illustrator 27.3.1, SVG Export Plug-In . SVG Version: 6.00 Build 0)  -->
<svg version="1.1" id="Layer_1" xmlns="http://www.w3.org/2000/svg" xmlns:xlink="http://www.w3.org/1999/xlink" x="0px" y="0px"
	 viewBox="0 0 315.6 125.6" style="enable-background:new 0 0 315.6 125.6;" xml:space="preserve">
<style type="text/css">
	.st0{fill:#00DCAA;}
	.st1{fill:#FF0000;}
</style>
<g>
	<g>
		<path class="st0" d="M160.8,71.6c0,9.3-5.1,17.1-11.3,16.9c-6.2-0.3-11.2-8.1-11.2-17.1c0-9,5-16.6,11.2-16.7
			C155.7,54.5,160.8,62.2,160.8,71.6 M149.5,43.5C139.2,43.9,131,56.7,131,71c0,14.4,8.3,27.8,18.6,28.5c10.3,0.5,18.6-12.7,18.6-28
			C168.1,56.2,159.8,43.3,149.5,43.5"/>
		<path class="st0" d="M98.3,38.1c-1.4,1.9-2.1,4.2-2.1,6.7v6.3c-1.3,0.2-2.6,0.5-3.9,0.7V58c1.3-0.1,2.6-0.2,3.9-0.3v29.5
			c2.4,0.9,4.8,1.7,7.3,2.5V57.3c2.4-0.2,4.9-0.3,7.3-0.4V49c-2.5,0.3-4.9,0.6-7.3,1v-6.9c0-1.2,0.4-1.9,1.3-2.1
			c2.6-0.6,5.1-1.2,7.7-1.7v-7.9c-2.9,0.8-5.7,1.7-8.6,2.6C101.5,34.8,99.6,36.2,98.3,38.1"/>
		<path class="st0" d="M123.4,85.2c-0.1-0.3-0.2-0.8-0.2-1.6V28.9c-2.5,0.5-5,1.1-7.5,1.7V83c0,3.4,0.5,6.1,1.6,8
			c1,2,2.6,3.2,4.6,3.6c2.4,0.5,4.9,0.9,7.3,1.3v-9.8c-1.6-0.2-3.3-0.4-4.9-0.6C123.7,85.6,123.5,85.4,123.4,85.2"/>
		<path class="st0" d="M216.4,49.8c-2.5,10.1-4.9,21.3-7.4,33.4c0,0-0.1,0-0.1,0c-2.7-10.9-5.5-22.8-8.3-35.5c0-0.1,0-0.2-0.1-0.3
			c-2.5-0.3-5.1-0.6-7.6-0.8c-2.7,12.9-5.3,26.5-8,40.6c0,0,0,0-0.1,0c-2.7-13.5-5.4-27.5-8.1-41.8c-2.7-0.1-5.4-0.3-8.1-0.3
			c3.5,17.6,6.9,35,10.4,51.7c0,0.1,0,0.2,0.1,0.3c3.5-0.4,7-0.9,10.5-1.6c2.4-12,4.8-23.5,7.1-34.5c2.2,11,4.5,21.6,6.7,31.4
			c3.5-0.9,6.9-1.9,10.3-3.1c3.3-14.4,6.5-27.3,9.7-38.3C221.1,50.6,218.7,50.2,216.4,49.8"/>
		<path class="st0" d="M154.7,70.7L154.7,70.7c-2.6-2.3-5.2-4.5-7.8-6.8c-0.2-0.2-0.5-0.2-0.7,0c0,0,0,0,0,0
			c-0.2,0.2-0.3,0.5-0.3,0.9v13.4c0,0.4,0.1,0.7,0.3,0.9c0.1,0.1,0.2,0.1,0.3,0.1c0.1,0,0.2,0,0.3-0.1c2.6-2.2,5.2-4.4,7.8-6.6
			c0.2-0.2,0.3-0.5,0.3-0.9C155,71.2,154.9,70.9,154.7,70.7"/>
	</g>
</g>
<g>
	<g>
		<path class="st1" d="M298,16.3l-281,91c-0.5,0.2-0.8,0.7-0.6,1.3c0.2,0.5,0.7,0.8,1.3,0.6l281-91c0.5-0.2,0.8-0.7,0.6-1.3
			C299.1,16.5,298.5,16.2,298,16.3"/>
	</g>
</g>
</svg>
