<?xml version="1.0" encoding="utf-8"?>
<!-- Generator: Adobe Illustrator 27.3.1, SVG Export Plug-In . SVG Version: 6.00 Build 0)  -->
<svg version="1.1" id="Layer_1" xmlns="http://www.w3.org/2000/svg" xmlns:xlink="http://www.w3.org/1999/xlink" x="0px" y="0px"
	 viewBox="0 0 315.6 125.6" style="enable-background:new 0 0 315.6 125.6;" xml:space="preserve">
<style type="text/css">
	.st0{fill:url(#SVGID_1_);}
	.st1{fill:url(#SVGID_00000034806294590092308420000004418129935570971525_);}
	.st2{fill:url(#SVGID_00000174565188984119684270000013407984115357008043_);}
	.st3{fill:url(#SVGID_00000053514483652763368580000001418370621083364260_);}
	.st4{fill:url(#SVGID_00000038415215949246103590000014566756145753187734_);}
	.st5{fill:#FF0000;}
</style>
<g>
	<linearGradient id="SVGID_1_" gradientUnits="userSpaceOnUse" x1="104.4246" y1="68.6977" x2="215.7036" y2="68.6977">
		<stop  offset="2.587384e-04" style="stop-color:#A64796"/>
		<stop  offset="0.9989" style="stop-color:#4453A0"/>
	</linearGradient>
	<path class="st0" d="M149.7,50.4c-10.1,0-18.3,8.2-18.3,18.3c0,10.1,8.2,18.3,18.3,18.3s18.3-8.2,18.3-18.3
		C167.9,58.6,159.7,50.4,149.7,50.4z M149.7,79.7c-6.1,0-11-5-11-11c0-6.1,5-11,11-11c6.1,0,11,5,11,11
		C160.7,74.8,155.8,79.7,149.7,79.7z"/>
	
		<linearGradient id="SVGID_00000091016424866845599290000003277543142241519549_" gradientUnits="userSpaceOnUse" x1="104.4246" y1="62.3537" x2="215.7036" y2="62.3537">
		<stop  offset="2.587384e-04" style="stop-color:#A64796"/>
		<stop  offset="0.9989" style="stop-color:#4453A0"/>
	</linearGradient>
	<path style="fill:url(#SVGID_00000091016424866845599290000003277543142241519549_);" d="M98.5,40.6c-1.4,1.3-2.2,3.3-2.2,5.6v5.9
		h-4.1v6.2h4.1v27.7h7.5V58.3h7.5v-6.2h-7.5v-5.9c0-1,0.4-1.5,1.3-1.5h7.8v-6.1h-8.7C101.8,38.6,99.8,39.3,98.5,40.6z"/>
	
		<linearGradient id="SVGID_00000167375143826984503730000011546620151365972626_" gradientUnits="userSpaceOnUse" x1="104.4246" y1="62.3857" x2="215.7036" y2="62.3857">
		<stop  offset="2.587384e-04" style="stop-color:#A64796"/>
		<stop  offset="0.9989" style="stop-color:#4453A0"/>
	</linearGradient>
	<path style="fill:url(#SVGID_00000167375143826984503730000011546620151365972626_);" d="M123.9,79.1c-0.1-0.2-0.2-0.5-0.2-1.1
		V38.7h-7.5v39.6c0,2.6,0.5,4.5,1.6,5.8c1,1.3,2.6,2,4.6,2h7.2v-6.8h-4.9C124.2,79.3,124,79.2,123.9,79.1z"/>
	
		<linearGradient id="SVGID_00000117669278893342245390000001262059083530265524_" gradientUnits="userSpaceOnUse" x1="104.4246" y1="68.7297" x2="215.7036" y2="68.7297">
		<stop  offset="2.587384e-04" style="stop-color:#A64796"/>
		<stop  offset="0.9989" style="stop-color:#4453A0"/>
	</linearGradient>
	<polygon style="fill:url(#SVGID_00000117669278893342245390000001262059083530265524_);" points="216.1,51.4 208.5,79.8 
		208.4,79.8 200.1,51.6 200,51.4 192.3,51.4 184.4,79.8 184.3,79.8 176.3,51.4 168.4,51.4 178.6,85.9 178.6,86.1 189,86.1 
		196.1,61.7 202.9,86.1 213.3,86.1 223.4,51.4 	"/>
	
		<linearGradient id="SVGID_00000088107379600064554440000008853941038702059443_" gradientUnits="userSpaceOnUse" x1="104.4246" y1="68.6987" x2="215.7036" y2="68.6987">
		<stop  offset="2.587384e-04" style="stop-color:#A64796"/>
		<stop  offset="0.9989" style="stop-color:#4453A0"/>
	</linearGradient>
	<path style="fill:url(#SVGID_00000088107379600064554440000008853941038702059443_);" d="M147.1,63.7c-0.1-0.1-0.2-0.1-0.3-0.1
		c-0.1,0-0.2,0-0.3,0.1c0,0,0,0,0,0c-0.2,0.1-0.3,0.3-0.3,0.6v8.8c0,0.2,0.1,0.5,0.3,0.6c0.1,0.1,0.2,0.1,0.3,0.1
		c0.1,0,0.2,0,0.3-0.1l7.6-4.4c0.2-0.1,0.3-0.3,0.3-0.6s-0.1-0.5-0.3-0.6L147.1,63.7z"/>
</g>
<g>
	<g>
		<path class="st5" d="M298,16.3l-281,91c-0.5,0.2-0.8,0.7-0.6,1.3c0.2,0.5,0.7,0.8,1.3,0.6l281-91c0.5-0.2,0.8-0.7,0.6-1.3
			C299.1,16.5,298.5,16.2,298,16.3"/>
	</g>
</g>
</svg>
