<?xml version="1.0" encoding="utf-8"?>
<!-- Generator: Adobe Illustrator 27.3.1, SVG Export Plug-In . SVG Version: 6.00 Build 0)  -->
<svg version="1.1" id="Layer_1" xmlns="http://www.w3.org/2000/svg" xmlns:xlink="http://www.w3.org/1999/xlink" x="0px" y="0px"
	 viewBox="0 0 679 284.5" style="enable-background:new 0 0 679 284.5;" xml:space="preserve">
<style type="text/css">
	.st0{fill:#FFFFFF;}
</style>
<polygon class="st0" points="412.2,203.7 412.2,222.7 266.8,222.7 266.8,203.7 266,203.7 266,242.5 266.8,242.5 266.8,223.5 
	412.2,223.5 412.2,242.5 413,242.5 413,203.7 "/>
<g>
	<g>
		<path class="st0" d="M297.6,132.7c-2.6,0-5.1,1-6.9,2.9s-2.8,4.5-2.8,7.4s0.9,5.5,2.7,7.3c1.8,1.9,4.4,2.9,7.4,2.9
			c1.6,0,3.1-0.3,4.6-1c1.4-0.7,2.7-1.6,3.7-2.9l0.1-0.1l-2.4-2.5l-0.1,0.2c-1.3,1.5-3.3,2.4-5.3,2.4c-3.6,0-5.5-1.5-6-4.6h13.9
			v-0.2c0-1.4,0-1.8,0-2.6c0-2.5-0.8-4.8-2.4-6.5C302.5,133.6,300.3,132.7,297.6,132.7z M292.3,141.3c0.4-3.1,2.2-4.6,5.3-4.6
			c2.7,0,4.6,1.8,4.7,4.6H292.3z"/>
		<path class="st0" d="M350.3,132.7c-5.7,0-10.3,4.6-10.3,10.3s4.6,10.3,10.3,10.3c5.7,0,10.3-4.6,10.3-10.3
			C360.5,137.2,355.9,132.7,350.3,132.7z M350.3,149.1c-3.4,0-6.2-2.8-6.2-6.2s2.8-6.2,6.2-6.2c3.4,0,6.2,2.8,6.2,6.2
			S353.7,149.1,350.3,149.1z"/>
		<path class="st0" d="M276.6,132.6c-3,0-5.1,1.4-6.5,4.2h-0.2l-0.1-3.7h-3.4v26.5h4.1v-10.5h0.1c0.5,1.2,1.2,2.1,2.1,2.8
			c1.1,0.9,2.5,1.3,4,1.3c2.4,0,4.5-1,6.1-2.9s2.5-4.5,2.5-7.5c0-2.9-0.9-5.5-2.5-7.4C281.3,133.6,279,132.6,276.6,132.6z
			 M275.8,149.3c-1.6,0-2.9-0.6-3.8-1.9c-0.9-1.1-1.4-2.7-1.4-4.4c0-1.8,0.5-3.4,1.4-4.5c1-1.2,2.3-1.9,3.9-1.9
			c1.5,0,2.8,0.6,3.7,1.8s1.4,2.8,1.4,4.6C281,146.7,278.9,149.3,275.8,149.3z"/>
		<path class="st0" d="M313.7,136.7h-0.1l-0.2-3.5h-3.5v19.5h4.2v-11.3c0-2.6,1-3.7,3.4-3.7h2.7v-4.6h-1.4
			C316.1,133.1,314.4,134.3,313.7,136.7z"/>
		<path class="st0" d="M329.7,135.9c2.3,0,4.1,1.2,4.9,3.4l0.1,0.2l3.3-1.2l-0.1-0.2c-0.7-1.7-1.8-3.1-3.1-4c-1.4-1-3.1-1.4-5-1.4
			c-1.8,0-3.5,0.6-4.8,1.6c-1.4,1.1-2.2,2.7-2.2,4.4s0.6,3,1.8,4.1c1,0.9,2.4,1.6,4.3,2.1l0,0c0.2,0,0.3,0.1,0.4,0.1
			c1.2,0.2,2.3,0.5,3.1,0.9c0.8,0.4,1.2,1,1.2,1.7c0,1.5-1.8,2.2-3.6,2.2c-2.4,0-4.6-1.3-5.7-3.3l-0.1-0.2l-3,1.7l0.1,0.2
			c0.7,1.5,1.9,2.8,3.4,3.7s3.4,1.4,5.4,1.4c2.1,0,4-0.5,5.5-1.5s2.4-2.5,2.4-4.3c0-1.7-0.7-3-2.1-4c-1.3-0.9-3.1-1.5-4.5-1.8
			c-2.2-0.6-4.6-1.3-4.6-3.2C326.6,137.1,327.7,135.9,329.7,135.9z"/>
		<path class="st0" d="M373.8,132.7c-1.5,0-2.9,0.4-4,1.3c-1,0.7-1.9,1.8-2.4,3h-0.2v-3.7h-3.9v19.5h4.2v-10.9
			c0-0.8,0.3-2.2,1.1-3.4c0.6-1,1.8-2.1,3.8-2.1c1.3,0,2.2,0.4,2.9,1.2c0.6,0.8,0.9,1.9,0.9,3.5v11.7h4.2v-12.3
			c0-2.4-0.6-4.3-1.7-5.7C377.6,133.4,375.9,132.7,373.8,132.7z"/>
		<path class="st0" d="M400.2,148.8V140c0-2.2-0.7-4-2-5.3c-1.4-1.4-3.3-2.1-5.7-2.1c-4.2,0-7.1,1.9-8.9,5.9l-0.1,0.2l3.7,1.7
			l0.1-0.2c1-2.2,3-3.6,4.9-3.6c2.2,0,3.8,1.4,3.8,3.4v1.4h-4.5c-5,0-8.1,2.4-8.1,6.3c0,1.7,0.6,3.1,1.8,4.1c1.1,1,2.6,1.5,4.4,1.5
			c1.6,0,3.1-0.5,4.3-1.3c1.1-0.8,2-1.9,2.6-3.2h0.2v1c0,1.9,1,3,2.7,3h2.7v-3.5h-1.6C400.3,149.3,400.2,149.1,400.2,148.8z
			 M394,148c-1,0.8-2.3,1.3-3.2,1.3c-0.8,0-1.6-0.2-2.2-0.6c-0.6-0.4-0.9-0.9-0.9-1.5c0-0.8,0.5-1.4,1.5-1.9
			c0.9-0.4,2.2-0.6,3.6-0.6h3.1C395.8,146,395.1,147.1,394,148z"/>
		<path class="st0" d="M409.8,148.9c-0.3,0-0.4-0.1-0.4-0.1c-0.1-0.1-0.1-0.3-0.1-0.6v-22h-4.2v22.1c0,1.4,0.3,2.5,0.9,3.3
			c0.6,0.7,1.4,1.1,2.6,1.1h4.1v-3.8H409.8L409.8,148.9z"/>
	</g>
</g>
</svg>
