<?xml version="1.0" encoding="utf-8"?>
<!-- Generator: Adobe Illustrator 27.3.1, SVG Export Plug-In . SVG Version: 6.00 Build 0)  -->
<svg version="1.1" id="Layer_1" xmlns="http://www.w3.org/2000/svg" xmlns:xlink="http://www.w3.org/1999/xlink" x="0px" y="0px"
	 viewBox="0 0 315.6 125.6" style="enable-background:new 0 0 315.6 125.6;" xml:space="preserve">
<style type="text/css">
	.st0{fill:#00B8ED;}
	.st1{fill:#FF0000;}
</style>
<g>
	<path class="st0" d="M46,46.6c-5.7,0-10,2.3-12.7,6.2h-0.1l-0.4-5.4h-7.6c0.2,3.2,0.3,6.8,0.3,11v35.2h8.7V76.3h0.1
		c1.9,3,5.9,4.7,10.4,4.7C52.8,81,61,75.1,61,63.2C61,52.8,53.8,46.6,46,46.6z M42.7,74.4c-4.3,0-7.6-3-8.5-6.4
		c-0.1-0.7-0.2-1.4-0.2-2.1V62c0-0.6,0.1-1.3,0.3-2c1-4.1,4.7-6.8,8.6-6.8c6,0,9.2,4.8,9.2,10.4C52.2,70.3,48.5,74.4,42.7,74.4z"/>
	<path class="st0" d="M83.4,46.6c-11.7,0-17.3,9.2-17.3,17.6c0,10,6.8,16.7,18.2,16.7c5.3,0,9.5-1,12.5-2.3l-1.3-5.9
		c-2.9,1-5.8,1.6-10.1,1.6c-5.8,0-10.8-2.8-11-8.3h24.1c0.2-0.7,0.3-1.9,0.3-3.4C98.8,56.2,95.3,46.6,83.4,46.6z M74.4,60.2
		c0.4-3.2,2.8-7.8,8.6-7.8c6.5,0,7.7,5.6,7.7,7.8H74.4z"/>
	<path class="st0" d="M113.6,54.1h-0.2l-0.3-6.6h-7.5c0.2,3,0.3,6.1,0.3,11v21.8h8.7V63.3c0-0.8,0.1-1.6,0.2-2.3
		c0.7-3.8,3.5-6.5,8-6.5c1.1,0,1.9,0.1,2.7,0.3v-8c-0.7-0.2-1.2-0.2-2.1-0.2C119.5,46.6,115.4,49,113.6,54.1z"/>
	<path class="st0" d="M145.3,60.6c-4.5-1.3-6.3-2.3-6.3-4.5c0-2.1,1.8-3.5,4.9-3.5c3.3,0,6.3,1.3,7.7,2l1.7-6
		c-2-1.1-5.6-2.1-9.5-2.1c-8.2,0-13.2,4.6-13.2,10.4c0,4.1,2.9,7.7,9.9,9.6c4.4,1.3,5.8,2.3,5.8,4.6c0,2.1-1.6,3.7-5.6,3.7
		c-3.2,0-7.2-1.4-9.3-2.6l-1.7,6.3c2.7,1.4,6.5,2.4,11,2.4c9.5,0,14.1-4.6,14.1-10.4C154.7,65.5,151.8,62.6,145.3,60.6z"/>
	<path class="st0" d="M178.5,46.6c-11.1,0-18.6,7.1-18.6,17.5c0,10.3,8,16.9,17.9,16.9c9.5,0,18.5-5.9,18.5-17.6
		C196.3,53.7,189.2,46.6,178.5,46.6z M178.1,74.8c-5.4,0-9.3-4.4-9.3-10.9c0-5.7,2.9-11.1,9.4-11.1c6.4,0,9.1,5.6,9.1,10.9
		C187.4,70.8,183.2,74.8,178.1,74.8z"/>
	<path class="st0" d="M222.9,46.6c-6.1,0-9.9,3.6-11.3,6.1h-0.2l-0.4-5.3h-7.6c0.2,2.8,0.3,6.1,0.3,9.9v22.8h8.7V61.2
		c0-0.9,0.1-1.8,0.4-2.5c0.9-2.5,3.4-5.1,7.2-5.1c5,0,7.1,3.7,7.1,8.9v17.7h8.7V61.4C235.6,50.1,228.7,46.6,222.9,46.6z"/>
	<path class="st0" d="M272.3,60.8c0-7.3-3.3-14.2-14.5-14.2c-5.5,0-10,1.4-12.8,3.1l1.7,5.5c2.4-1.5,6.2-2.7,9.7-2.7
		c6.5,0,7.2,3.9,7.2,5.7v0.4c-13.6-0.1-21.1,4.3-21.1,12.5c0,4.7,3.7,9.8,11,9.8c4.7,0,8.5-2,10.6-4.6h0.2l0.6,3.8h7.8
		c-0.4-2-0.5-4.9-0.5-8V60.8z M264,68.2c0,0.6-0.1,1.2-0.2,1.8c-0.9,2.4-3.5,4.8-7.3,4.8c-3,0-5.1-1.6-5.1-4.6c0-4.7,5.8-6.1,12.6-6
		V68.2z"/>
	<rect x="281.8" y="32" class="st0" width="8.7" height="48.1"/>
</g>
<g>
	<g>
		<path class="st1" d="M298,16.3l-281,91c-0.5,0.2-0.8,0.7-0.6,1.3c0.2,0.5,0.7,0.8,1.3,0.6l281-91c0.5-0.2,0.8-0.7,0.6-1.3
			C299.1,16.5,298.5,16.2,298,16.3"/>
	</g>
</g>
</svg>
