<?xml version="1.0" encoding="utf-8"?>
<!-- Generator: Adobe Illustrator 27.3.1, SVG Export Plug-In . SVG Version: 6.00 Build 0)  -->
<svg version="1.1" id="Layer_1" xmlns="http://www.w3.org/2000/svg" xmlns:xlink="http://www.w3.org/1999/xlink" x="0px" y="0px"
	 viewBox="0 0 315.6 125.6" style="enable-background:new 0 0 315.6 125.6;" xml:space="preserve">
<style type="text/css">
	.st0{fill:#00B8ED;}
	.st1{fill:#FF0000;}
</style>
<g>
	<polygon points="23.8,67.7 32,67.7 32,70.8 20,70.8 20,52.1 23.8,52.1 	"/>
	<g>
		<path d="M37.1,64c0,1.3,0.2,2.3,0.7,3c0.5,0.7,1.2,1,2.1,1c0.9,0,1.6-0.3,2.1-1c0.5-0.7,0.8-1.8,0.8-3.3c0-1.3-0.3-2.3-0.8-3
			c-0.5-0.7-1.2-1.1-2.1-1.1c-0.9,0-1.6,0.4-2.1,1.1C37.3,61.4,37.1,62.5,37.1,64 M33.4,63.7c0-1.4,0.3-2.6,0.8-3.7
			c0.5-1.1,1.3-1.9,2.3-2.5c1-0.6,2.2-0.9,3.5-0.9c1.9,0,3.4,0.6,4.6,1.7c1.2,1.1,1.8,2.7,2,4.7l0,0.9c0,2.1-0.6,3.8-1.8,5.1
			C43.5,70.4,42,71,40,71c-2,0-3.6-0.6-4.8-1.9c-1.2-1.3-1.8-3-1.8-5.2V63.7z"/>
		<path d="M56.6,60.4c-0.5-0.1-0.9-0.1-1.3-0.1c-1.4,0-2.3,0.5-2.8,1.4v9.1h-3.7V56.9h3.5l0.1,1.7c0.7-1.3,1.8-1.9,3.1-1.9
			c0.4,0,0.8,0.1,1.2,0.2L56.6,60.4z"/>
		<path d="M64.1,59.6c-0.7,0-1.3,0.2-1.8,0.7c-0.5,0.5-0.7,1.2-0.9,2.1h5.2v-0.3c0-0.8-0.2-1.5-0.7-1.9
			C65.5,59.8,64.9,59.6,64.1,59.6 M64.5,71c-2,0-3.7-0.6-5-1.9c-1.3-1.2-1.9-2.9-1.9-5v-0.4c0-1.4,0.3-2.6,0.8-3.7
			c0.5-1.1,1.3-1.9,2.3-2.5c1-0.6,2.1-0.9,3.4-0.9c1.9,0,3.4,0.6,4.5,1.8c1.1,1.2,1.6,2.9,1.6,5.1V65h-8.8c0.1,0.9,0.5,1.6,1.1,2.2
			c0.6,0.5,1.4,0.8,2.3,0.8c1.4,0,2.5-0.5,3.3-1.6l1.8,2c-0.6,0.8-1.3,1.4-2.3,1.8C66.7,70.8,65.7,71,64.5,71"/>
		<path d="M75.8,56.9l0.1,1.6c1-1.2,2.3-1.8,4-1.8c1.8,0,3,0.7,3.7,2.1c1-1.4,2.4-2.1,4.2-2.1c1.5,0,2.6,0.4,3.4,1.3
			c0.7,0.9,1.1,2.2,1.1,4v8.9h-3.7v-8.8c0-0.8-0.2-1.4-0.5-1.7c-0.3-0.4-0.9-0.5-1.6-0.5c-1.1,0-1.9,0.5-2.3,1.6l0,9.5h-3.7v-8.8
			c0-0.8-0.2-1.4-0.5-1.7c-0.3-0.4-0.9-0.5-1.6-0.5c-1.1,0-1.8,0.4-2.3,1.3v9.8h-3.7V56.9H75.8z"/>
		<path d="M105.5,70.8h-3.7V56.9h3.7V70.8z M101.5,53.3c0-0.6,0.2-1,0.6-1.4c0.4-0.4,0.9-0.5,1.5-0.5c0.6,0,1.1,0.2,1.5,0.5
			c0.4,0.4,0.6,0.8,0.6,1.4c0,0.6-0.2,1-0.6,1.4c-0.4,0.4-0.9,0.5-1.5,0.5c-0.6,0-1.1-0.2-1.5-0.5C101.7,54.3,101.5,53.9,101.5,53.3
			"/>
		<path d="M117.3,63.7c0-1.3-0.2-2.3-0.7-3c-0.5-0.7-1.1-1.1-2-1.1c-1.2,0-2,0.4-2.4,1.3v5.7c0.5,0.9,1.3,1.4,2.4,1.4
			C116.4,68,117.3,66.6,117.3,63.7 M121,63.9c0,2.1-0.5,3.8-1.5,5.1c-1,1.3-2.3,1.9-3.9,1.9c-1.4,0-2.5-0.5-3.4-1.5v6.5h-3.7V56.9
			h3.4l0.1,1.4c0.9-1.1,2.1-1.6,3.5-1.6c1.7,0,3,0.6,4,1.9c0.9,1.3,1.4,3,1.4,5.2V63.9z"/>
		<path d="M130.8,66.9c0-0.5-0.2-0.8-0.7-1.1c-0.4-0.3-1.2-0.5-2.2-0.7c-3.3-0.7-4.9-2.1-4.9-4.2c0-1.2,0.5-2.3,1.5-3.1
			c1-0.8,2.4-1.2,4-1.2c1.8,0,3.2,0.4,4.2,1.2c1.1,0.8,1.6,1.9,1.6,3.2h-3.7c0-0.5-0.2-1-0.5-1.3c-0.3-0.3-0.9-0.5-1.6-0.5
			c-0.6,0-1.1,0.1-1.4,0.4c-0.3,0.3-0.5,0.6-0.5,1.1c0,0.4,0.2,0.7,0.6,1c0.4,0.3,1,0.5,2,0.7c0.9,0.2,1.7,0.4,2.3,0.6
			c2,0.7,2.9,2,2.9,3.7c0,1.3-0.5,2.3-1.6,3.1c-1.1,0.8-2.5,1.2-4.2,1.2c-1.2,0-2.2-0.2-3.1-0.6c-0.9-0.4-1.6-1-2.1-1.7
			c-0.5-0.7-0.8-1.5-0.8-2.3h3.5c0,0.7,0.3,1.2,0.7,1.5c0.5,0.4,1.1,0.5,1.8,0.5c0.7,0,1.2-0.1,1.6-0.4
			C130.6,67.7,130.8,67.4,130.8,66.9"/>
		<path d="M145.1,69.3c-0.9,1.1-2.2,1.7-3.8,1.7c-1.5,0-2.6-0.4-3.4-1.3c-0.8-0.9-1.2-2.1-1.2-3.8v-9.1h3.7v9c0,1.4,0.7,2.2,2,2.2
			c1.3,0,2.1-0.4,2.6-1.3v-9.8h3.7v13.9h-3.5L145.1,69.3z"/>
		<path d="M154.9,56.9l0.1,1.6c1-1.2,2.3-1.8,4-1.8c1.8,0,3,0.7,3.7,2.1c1-1.4,2.4-2.1,4.2-2.1c1.5,0,2.6,0.4,3.4,1.3
			c0.7,0.9,1.1,2.2,1.1,4v8.9h-3.7v-8.8c0-0.8-0.2-1.4-0.5-1.7c-0.3-0.4-0.9-0.5-1.6-0.5c-1.1,0-1.9,0.5-2.3,1.6l0,9.5h-3.7v-8.8
			c0-0.8-0.2-1.4-0.5-1.7c-0.3-0.4-0.9-0.5-1.6-0.5c-1.1,0-1.8,0.4-2.3,1.3v9.8h-3.7V56.9H154.9z"/>
		<path class="st0" d="M208.5,61.6h-7.9c0.3-2.5,1.7-3.6,4.2-3.6C206.9,58,208.3,59.4,208.5,61.6 M204.7,54.7c-2.1,0-4,0.8-5.4,2.3
			c-1.4,1.5-2.2,3.6-2.2,5.8c0,2.3,0.7,4.3,2.1,5.8c1.4,1.5,3.5,2.3,5.8,2.3c1.2,0,2.5-0.3,3.6-0.8c1.2-0.5,2.1-1.3,2.9-2.3l0.1-0.1
			l-1.9-1.9l-0.1,0.1c-1,1.2-2.6,1.9-4.2,1.9c-2.8,0-4.4-1.2-4.7-3.6h11.2l0-0.1c0-1.1,0-1.5,0-2c0-2-0.7-3.8-1.9-5.2
			C208.6,55.5,206.8,54.7,204.7,54.7"/>
		<path class="st0" d="M251.2,62.8c0,2.7-2.2,4.9-4.9,4.9c-2.7,0-4.9-2.2-4.9-4.9c0-2.7,2.2-4.9,4.9-4.9
			C249,57.9,251.2,60.1,251.2,62.8 M246.3,54.7c-4.5,0-8.1,3.6-8.1,8.1c0,4.5,3.6,8.1,8.1,8.1c4.5,0,8.1-3.6,8.1-8.1
			C254.5,58.4,250.8,54.7,246.3,54.7"/>
		<path class="st0" d="M191.6,62.9c0,3-1.7,5-4.1,5c-1.3,0-2.3-0.5-3.1-1.5c-0.7-0.9-1.1-2.1-1.1-3.5c0-1.4,0.4-2.7,1.1-3.6
			c0.8-1,1.8-1.5,3.1-1.5c1.2,0,2.2,0.5,2.9,1.4C191.2,60.2,191.6,61.4,191.6,62.9 M188.1,54.7c-2.3,0-4.1,1.1-5.1,3.3h-0.1
			l-0.1-2.9H180v20.9h3.3v-8.4h0.1c0.4,0.9,1,1.7,1.7,2.2c0.9,0.7,1.9,1,3.2,1c1.9,0,3.6-0.8,4.8-2.3c1.3-1.5,2-3.6,2-5.9
			c0-2.3-0.7-4.4-2-5.8C191.8,55.5,190,54.7,188.1,54.7"/>
		<path class="st0" d="M217.5,57.9L217.5,57.9l-0.3-2.8h-2.8v15.4h3.3v-8.9c0-2,0.8-2.9,2.7-2.9h2.1v-3.6h-1.1
			C219.4,55.1,218,56,217.5,57.9"/>
		<path class="st0" d="M230.1,57.3c1.8,0,3.2,1,3.9,2.7l0,0.1l2.6-1l0-0.1c-0.6-1.4-1.4-2.4-2.5-3.2c-1.1-0.7-2.4-1.1-3.9-1.1
			c-1.4,0-2.8,0.5-3.8,1.3c-1.1,0.9-1.7,2.1-1.7,3.5c0,1.3,0.5,2.4,1.4,3.2c0.8,0.7,1.9,1.2,3.4,1.6l0,0c0.1,0,0.2,0,0.3,0.1
			c0.9,0.2,1.8,0.4,2.4,0.7c0.7,0.3,1,0.8,1,1.4c0,1.2-1.4,1.7-2.8,1.7c-1.9,0-3.6-1-4.5-2.6l-0.1-0.1l-2.4,1.3l0.1,0.1
			c0.6,1.2,1.5,2.2,2.7,2.9c1.2,0.7,2.7,1.1,4.2,1.1c1.7,0,3.2-0.4,4.3-1.2c1.2-0.8,1.9-2,1.9-3.4c0-1.3-0.5-2.4-1.7-3.2
			c-1.1-0.7-2.5-1.2-3.6-1.5c-1.7-0.5-3.7-1-3.7-2.5C227.6,58.3,228.5,57.3,230.1,57.3"/>
		<path class="st0" d="M264.9,54.7c-1.2,0-2.3,0.3-3.2,1c-0.8,0.6-1.5,1.4-1.9,2.3h-0.1v-2.9h-3.1v15.4h3.3V62
			c0-0.7,0.3-1.7,0.9-2.6c0.5-0.8,1.4-1.7,3-1.7c1,0,1.8,0.3,2.3,0.9c0.5,0.6,0.7,1.5,0.7,2.7v9.3h3.3v-9.7c0-1.9-0.4-3.4-1.3-4.5
			C267.9,55.3,266.6,54.7,264.9,54.7"/>
		<path class="st0" d="M282.5,64.4c-0.1,0.9-0.7,1.8-1.6,2.5c-0.8,0.6-1.8,1.1-2.5,1.1c-0.7,0-1.3-0.2-1.7-0.4
			c-0.5-0.3-0.7-0.7-0.7-1.2c0-0.6,0.4-1.1,1.2-1.5c0.7-0.3,1.7-0.5,2.9-0.5H282.5z M285.9,67.5v-6.9c0-1.7-0.5-3.2-1.6-4.2
			c-1.1-1.1-2.6-1.6-4.5-1.6c-3.3,0-5.6,1.5-7.1,4.6l-0.1,0.1l2.9,1.4l0.1-0.1c0.8-1.7,2.4-2.9,3.9-2.9c1.7,0,3,1.1,3,2.6v1.1H279
			c-3.9,0-6.4,1.9-6.4,4.9c0,1.3,0.5,2.4,1.4,3.2c0.9,0.7,2.1,1.2,3.5,1.2c1.2,0,2.4-0.4,3.4-1c0.9-0.6,1.6-1.5,2.1-2.5h0.1l0,0.8
			c0,1.5,0.8,2.3,2.2,2.3h2.2v-2.6h-1.3C285.9,67.9,285.9,67.7,285.9,67.5"/>
		<path class="st0" d="M293.4,67.6c-0.2,0-0.3-0.1-0.3-0.1c-0.1-0.1-0.1-0.2-0.1-0.5V49.5h-3.3v17.6c0,1.1,0.2,2,0.7,2.6
			c0.5,0.6,1.1,0.9,2,0.9h3.2v-3H293.4z"/>
	</g>
</g>
<g>
	<g>
		<path class="st1" d="M298,16.3l-281,91c-0.5,0.2-0.8,0.7-0.6,1.3c0.2,0.5,0.7,0.8,1.3,0.6l281-91c0.5-0.2,0.8-0.7,0.6-1.3
			C299.1,16.5,298.5,16.2,298,16.3"/>
	</g>
</g>
</svg>
