<?xml version="1.0" encoding="utf-8"?>
<!-- Generator: Adobe Illustrator 27.3.1, SVG Export Plug-In . SVG Version: 6.00 Build 0)  -->
<svg version="1.1" id="Layer_1" xmlns="http://www.w3.org/2000/svg" xmlns:xlink="http://www.w3.org/1999/xlink" x="0px" y="0px"
	 viewBox="0 0 315.6 125.6" style="enable-background:new 0 0 315.6 125.6;" xml:space="preserve">
<style type="text/css">
	.st0{fill:url(#SVGID_1_);}
	.st1{fill:url(#SVGID_00000136382544486817835720000008382201095784011949_);}
	.st2{fill:url(#SVGID_00000091695250797469909780000017865969251823243426_);}
	.st3{fill:url(#SVGID_00000038411340386903915200000000269475237877283516_);}
	.st4{fill:url(#SVGID_00000015354814774546149980000006690225094641220747_);}
	.st5{fill:url(#SVGID_00000032622334640547342200000000332275499456364693_);}
	.st6{fill:url(#SVGID_00000162351843924760052140000011277898198222828211_);}
	.st7{fill:url(#SVGID_00000003792943270595792690000007275380523044416685_);}
	.st8{fill:#FF0000;}
</style>
<g>
	<linearGradient id="SVGID_1_" gradientUnits="userSpaceOnUse" x1="53.9465" y1="62.9163" x2="265.0029" y2="62.9163">
		<stop  offset="0" style="stop-color:#AE4797"/>
		<stop  offset="0.9994" style="stop-color:#385CA7"/>
	</linearGradient>
	<path class="st0" d="M90.1,46.3c-4.2,0-8.2,1.7-11.1,4.7c-2.9,3.1-4.5,7.3-4.5,11.9c0,4.7,1.5,8.8,4.4,11.8
		c2.9,3.1,7.1,4.7,11.9,4.7c2.5,0,5.1-0.6,7.3-1.6c2.4-1.1,4.3-2.7,5.9-4.6l0.1-0.2l-3.9-4l-0.2,0.2c-2.1,2.5-5.3,3.9-8.6,3.9
		c-5.8,0-8.9-2.4-9.7-7.5h22.8l0-0.3c0.1-2.2,0.1-3,0.1-4.1c0-4-1.4-7.8-3.8-10.5C98.1,47.9,94.4,46.3,90.1,46.3z M81.7,60.4
		c0.7-5,3.5-7.5,8.6-7.5c4.3,0,7.4,3,7.6,7.5H81.7z"/>
	
		<linearGradient id="SVGID_00000157303758859275767060000000364208697431277216_" gradientUnits="userSpaceOnUse" x1="53.9465" y1="62.9163" x2="265.0029" y2="62.9163">
		<stop  offset="0" style="stop-color:#AE4797"/>
		<stop  offset="0.9994" style="stop-color:#385CA7"/>
	</linearGradient>
	<path style="fill:url(#SVGID_00000157303758859275767060000000364208697431277216_);" d="M175.2,46.3c-9.1,0-16.6,7.4-16.6,16.6
		c0,9.1,7.4,16.6,16.6,16.6c9.1,0,16.6-7.4,16.6-16.6C191.8,53.8,184.4,46.3,175.2,46.3z M175.2,72.9c-5.5,0-10-4.5-10-10
		c0-5.5,4.5-10,10-10c5.5,0,10,4.5,10,10C185.2,68.4,180.7,72.9,175.2,72.9z"/>
	
		<linearGradient id="SVGID_00000121270999357884258530000012920678588335848616_" gradientUnits="userSpaceOnUse" x1="53.9465" y1="68.0938" x2="265.0029" y2="68.0938">
		<stop  offset="0" style="stop-color:#AE4797"/>
		<stop  offset="0.9994" style="stop-color:#385CA7"/>
	</linearGradient>
	<path style="fill:url(#SVGID_00000121270999357884258530000012920678588335848616_);" d="M56.1,46.3c-4.8,0-8.3,2.3-10.5,6.8h-0.2
		l-0.2-6h-5.6v42.8h6.7V72.8h0.2c0.8,1.9,2,3.4,3.4,4.6c1.8,1.4,4,2.1,6.5,2.1c3.8,0,7.3-1.6,9.9-4.6c2.6-3,4-7.3,4-12
		c0-4.7-1.4-8.9-4-11.9C63.8,47.9,60.2,46.3,56.1,46.3z M55,73.2c-2.6,0-4.7-1-6.2-3c-1.4-1.8-2.2-4.4-2.2-7.2
		c0-2.8,0.8-5.4,2.3-7.3c1.6-2,3.7-3,6.3-3c2.4,0,4.5,1,6,2.9c1.5,1.9,2.3,4.5,2.3,7.5C63.4,69.1,60,73.2,55,73.2z"/>
	
		<linearGradient id="SVGID_00000149384346140519721630000017701354043437211834_" gradientUnits="userSpaceOnUse" x1="53.9465" y1="62.9163" x2="265.0029" y2="62.9163">
		<stop  offset="0" style="stop-color:#AE4797"/>
		<stop  offset="0.9994" style="stop-color:#385CA7"/>
	</linearGradient>
	<path style="fill:url(#SVGID_00000149384346140519721630000017701354043437211834_);" d="M116.2,52.9H116l-0.4-5.7h-5.7v31.5h6.8
		V60.5c0-4.2,1.7-5.9,5.6-5.9h4.4v-7.4h-2.2C120.1,47.1,117.4,49,116.2,52.9z"/>
	
		<linearGradient id="SVGID_00000010290885889448937730000002937874661456551587_" gradientUnits="userSpaceOnUse" x1="53.9465" y1="62.8288" x2="265.0029" y2="62.8288">
		<stop  offset="0" style="stop-color:#AE4797"/>
		<stop  offset="0.9994" style="stop-color:#385CA7"/>
	</linearGradient>
	<path style="fill:url(#SVGID_00000010290885889448937730000002937874661456551587_);" d="M141.9,51.6c3.7,0,6.6,2,7.9,5.4l0.1,0.2
		l5.3-2l-0.1-0.3c-1.1-2.8-2.8-5-5-6.5c-2.2-1.5-5-2.3-8.1-2.3c-2.8,0-5.7,0.9-7.8,2.6c-2.3,1.8-3.6,4.4-3.6,7.2
		c0,2.7,1,4.9,2.9,6.6c1.6,1.4,3.9,2.5,7,3.4l0,0c0.2,0.1,0.5,0.1,0.7,0.1c1.9,0.4,3.7,0.8,5,1.5c1.4,0.7,2,1.6,2,2.8
		c0,2.5-2.9,3.6-5.8,3.6c-3.8,0-7.4-2-9.3-5.3l-0.1-0.2l-4.9,2.7l0.1,0.2c1.2,2.5,3.1,4.6,5.5,6c2.5,1.4,5.5,2.2,8.6,2.2
		c3.4,0,6.5-0.8,8.8-2.4c2.5-1.7,3.8-4.1,3.8-6.9c0-2.7-1.1-4.8-3.4-6.4c-2.1-1.5-5-2.4-7.3-3c-3.5-1-7.5-2.1-7.5-5.2
		C136.9,53.6,138.8,51.6,141.9,51.6z"/>
	
		<linearGradient id="SVGID_00000051351308210821758620000002117984188485124487_" gradientUnits="userSpaceOnUse" x1="53.9465" y1="62.5113" x2="265.0029" y2="62.5113">
		<stop  offset="0" style="stop-color:#AE4797"/>
		<stop  offset="0.9994" style="stop-color:#385CA7"/>
	</linearGradient>
	<path style="fill:url(#SVGID_00000051351308210821758620000002117984188485124487_);" d="M213.2,46.3c-2.4,0-4.6,0.7-6.5,2
		c-1.7,1.2-3,2.8-3.9,4.8h-0.3v-6h-6.3v31.5h6.8V61.1c0-1.3,0.6-3.5,1.8-5.4c1.1-1.6,3-3.4,6.1-3.4c2.1,0,3.7,0.6,4.6,1.9
		c0.9,1.2,1.4,3.1,1.4,5.6v18.9h6.8V58.9c0-3.9-0.9-7-2.7-9.2C219.3,47.5,216.7,46.3,213.2,46.3z"/>
	
		<linearGradient id="SVGID_00000042714574667518654750000002972536523022627986_" gradientUnits="userSpaceOnUse" x1="53.9465" y1="62.8868" x2="265.0029" y2="62.8868">
		<stop  offset="0" style="stop-color:#AE4797"/>
		<stop  offset="0.9994" style="stop-color:#385CA7"/>
	</linearGradient>
	<path style="fill:url(#SVGID_00000042714574667518654750000002972536523022627986_);" d="M256,72.5V58.3c0-3.5-1.1-6.5-3.2-8.6
		c-2.2-2.2-5.3-3.4-9.1-3.4c-6.8,0-11.5,3.1-14.4,9.5l-0.1,0.2l5.9,2.8l0.1-0.2c1.6-3.5,4.8-5.9,7.9-5.9c3.5,0,6.1,2.3,6.1,5.4v2.2
		h-7.2c-8.1,0-13.1,3.9-13.1,10.1c0,2.7,1,5,2.9,6.6c1.8,1.5,4.3,2.4,7.1,2.4c2.5,0,5-0.7,7-2.1c1.8-1.3,3.3-3,4.3-5.1h0.2l-0.1,1.7
		c0,3.1,1.5,4.8,4.4,4.8h4.4v-5.4h-2.6C256.1,73.3,256,72.8,256,72.5z M245.8,71.2c-1.6,1.3-3.7,2.2-5.1,2.2c-1.4,0-2.6-0.3-3.5-0.9
		c-0.9-0.6-1.4-1.4-1.4-2.4c0-1.3,0.8-2.3,2.4-3c1.4-0.6,3.5-1,5.9-1h5C248.8,67.9,247.7,69.7,245.8,71.2z"/>
	
		<linearGradient id="SVGID_00000069383568718999111150000018398887254675934889_" gradientUnits="userSpaceOnUse" x1="53.9465" y1="57.1883" x2="265.0029" y2="57.1883">
		<stop  offset="0" style="stop-color:#AE4797"/>
		<stop  offset="0.9994" style="stop-color:#385CA7"/>
	</linearGradient>
	<path style="fill:url(#SVGID_00000069383568718999111150000018398887254675934889_);" d="M271.4,72.5c-0.5,0-0.6-0.1-0.7-0.2
		c-0.1-0.2-0.2-0.5-0.2-1V35.7h-6.8v36c0,2.3,0.5,4.1,1.4,5.3c0.9,1.2,2.3,1.8,4.2,1.8h6.6v-6.1H271.4z"/>
</g>
<g>
	<g>
		<path class="st8" d="M298,16.3l-281,91c-0.5,0.2-0.8,0.7-0.6,1.3c0.2,0.5,0.7,0.8,1.3,0.6l281-91c0.5-0.2,0.8-0.7,0.6-1.3
			C299.1,16.5,298.5,16.2,298,16.3"/>
	</g>
</g>
</svg>
