<?xml version="1.0" encoding="utf-8"?>
<!-- Generator: Adobe Illustrator 27.3.1, SVG Export Plug-In . SVG Version: 6.00 Build 0)  -->
<svg version="1.1" id="Layer_1" xmlns="http://www.w3.org/2000/svg" xmlns:xlink="http://www.w3.org/1999/xlink" x="0px" y="0px"
	 viewBox="0 0 200 200" style="enable-background:new 0 0 200 200;" xml:space="preserve">
<style type="text/css">
	.st0{fill:#00B8ED;}
	.st1{fill:#FF0000;}
</style>
<g>
	<g>
		<path class="st0" d="M58.2,90.3c-2.6,0-5,1-6.8,2.9c-1.8,1.9-2.8,4.5-2.8,7.3c0,2.9,0.9,5.4,2.7,7.3c1.8,1.9,4.3,2.9,7.3,2.9
			c1.6,0,3.1-0.3,4.5-1c1.4-0.7,2.7-1.6,3.6-2.8l0.1-0.1l-2.4-2.4l-0.1,0.1c-1.3,1.5-3.2,2.4-5.3,2.4c-3.5,0-5.5-1.5-6-4.6h14l0-0.2
			c0-1.4,0-1.8,0-2.5c0-2.5-0.8-4.8-2.3-6.5C63.1,91.2,60.8,90.3,58.2,90.3z M53,98.9c0.4-3.1,2.2-4.6,5.3-4.6
			c2.7,0,4.5,1.8,4.7,4.6H53z"/>
		<path class="st0" d="M110.4,90.3c-5.6,0-10.2,4.6-10.2,10.2c0,5.6,4.6,10.2,10.2,10.2c5.6,0,10.2-4.6,10.2-10.2
			C120.6,94.8,116,90.3,110.4,90.3z M110.4,106.6c-3.4,0-6.1-2.8-6.1-6.1c0-3.4,2.8-6.1,6.1-6.1c3.4,0,6.1,2.8,6.1,6.1
			C116.5,103.8,113.8,106.6,110.4,106.6z"/>
		<path class="st0" d="M37.3,90.2c-2.9,0-5.1,1.4-6.4,4.2h-0.1l-0.1-3.7h-3.4V117h4.1v-10.5h0.1c0.5,1.2,1.2,2.1,2.1,2.8
			c1.1,0.9,2.4,1.3,4,1.3c2.3,0,4.5-1,6.1-2.8c1.6-1.9,2.5-4.5,2.5-7.4c0-2.9-0.9-5.5-2.5-7.3C42,91.2,39.8,90.2,37.3,90.2z
			 M36.6,106.7c-1.6,0-2.9-0.6-3.8-1.9c-0.9-1.1-1.3-2.7-1.3-4.4c0-1.7,0.5-3.3,1.4-4.5c1-1.2,2.3-1.9,3.9-1.9
			c1.5,0,2.7,0.6,3.7,1.8c0.9,1.2,1.4,2.7,1.4,4.6C41.8,104.2,39.7,106.7,36.6,106.7z"/>
		<path class="st0" d="M74.2,94.3h-0.1l-0.2-3.5h-3.5v19.3h4.2V98.9c0-2.5,1-3.6,3.4-3.6h2.7v-4.6h-1.4
			C76.6,90.7,74.9,91.9,74.2,94.3z"/>
		<path class="st0" d="M90,93.5c2.3,0,4.1,1.2,4.9,3.3l0.1,0.2l3.3-1.2l-0.1-0.2c-0.7-1.7-1.7-3.1-3.1-4c-1.4-0.9-3-1.4-5-1.4
			c-1.7,0-3.5,0.6-4.8,1.6c-1.4,1.1-2.2,2.7-2.2,4.4c0,1.7,0.6,3,1.8,4.1c1,0.9,2.4,1.6,4.3,2.1l0,0c0.1,0,0.3,0.1,0.4,0.1
			c1.2,0.3,2.3,0.5,3.1,0.9c0.8,0.4,1.2,1,1.2,1.7c0,1.5-1.8,2.2-3.6,2.2c-2.4,0-4.5-1.2-5.7-3.3l-0.1-0.1l-3,1.6l0.1,0.1
			c0.7,1.5,1.9,2.8,3.4,3.7c1.5,0.9,3.3,1.3,5.3,1.3c2.1,0,4-0.5,5.4-1.5c1.5-1,2.4-2.5,2.4-4.2c0-1.7-0.7-2.9-2.1-4
			c-1.3-0.9-3.1-1.5-4.5-1.8c-2.2-0.6-4.6-1.3-4.6-3.2C86.9,94.7,88,93.5,90,93.5z"/>
		<path class="st0" d="M133.7,90.3c-1.5,0-2.8,0.4-4,1.2c-1,0.7-1.9,1.7-2.4,2.9h-0.2v-3.7h-3.9v19.3h4.2V99.3
			c0-0.8,0.3-2.2,1.1-3.3c0.6-1,1.8-2.1,3.7-2.1c1.3,0,2.2,0.4,2.8,1.2c0.6,0.8,0.9,1.9,0.9,3.4v11.6h4.2V98c0-2.4-0.6-4.3-1.6-5.6
			C137.4,91,135.8,90.3,133.7,90.3z"/>
		<path class="st0" d="M159.9,106.3v-8.7c0-2.1-0.7-4-2-5.3c-1.3-1.4-3.3-2.1-5.6-2.1c-4.2,0-7.1,1.9-8.8,5.8l-0.1,0.1l3.6,1.7
			l0.1-0.1c1-2.2,3-3.6,4.9-3.6c2.1,0,3.7,1.4,3.7,3.3v1.4h-4.4c-4.9,0-8,2.4-8,6.2c0,1.7,0.6,3.1,1.8,4.1c1.1,0.9,2.6,1.5,4.3,1.5
			c1.6,0,3-0.5,4.3-1.3c1.1-0.8,2-1.9,2.6-3.1h0.1l0,1c0,1.9,0.9,2.9,2.7,2.9h2.7v-3.3h-1.6C160,106.8,159.9,106.5,159.9,106.3z
			 M153.7,105.5c-1,0.8-2.2,1.3-3.1,1.3c-0.8,0-1.6-0.2-2.1-0.5c-0.6-0.4-0.9-0.9-0.9-1.5c0-0.8,0.5-1.4,1.5-1.9
			c0.9-0.4,2.1-0.6,3.6-0.6h3.1C155.5,103.5,154.8,104.6,153.7,105.5z"/>
		<path class="st0" d="M169.4,106.3c-0.3,0-0.4-0.1-0.4-0.1c-0.1-0.1-0.1-0.3-0.1-0.6V83.7h-4.2v22.1c0,1.4,0.3,2.5,0.9,3.2
			s1.4,1.1,2.6,1.1h4v-3.8H169.4z"/>
	</g>
</g>
<g>
	<path class="st1" d="M4.2,196.4c-0.2,0-0.4-0.1-0.5-0.2c-0.3-0.3-0.3-0.7,0-1l192-192c0.3-0.3,0.7-0.3,1,0c0.3,0.3,0.3,0.7,0,1
		l-192,192C4.6,196.3,4.4,196.4,4.2,196.4z"/>
</g>
</svg>
