<?xml version="1.0" encoding="utf-8"?>
<!-- Generator: Adobe Illustrator 27.3.1, SVG Export Plug-In . SVG Version: 6.00 Build 0)  -->
<svg version="1.1" id="Layer_1" xmlns="http://www.w3.org/2000/svg" xmlns:xlink="http://www.w3.org/1999/xlink" x="0px" y="0px"
	 viewBox="0 0 315.6 125.6" style="enable-background:new 0 0 315.6 125.6;" xml:space="preserve">
<style type="text/css">
	.st0{fill:#00B8ED;}
	.st1{fill:#FF0000;}
</style>
<g>
	<g>
		<path class="st0" d="M99.2,49.7l-15.9-2.9c1.6-4.8,4.8-6.7,9.8-5.8C97.3,41.8,99.8,45.3,99.2,49.7 M94.1,34.5
			c-4.2-0.8-8.3,0.2-11.7,2.7c-3.4,2.5-5.8,6.4-6.6,10.9c-0.8,4.7-0.1,9,2.2,12.4c2.3,3.5,6.1,5.9,10.9,6.7c2.5,0.5,5.1,0.4,7.5-0.3
			c2.5-0.7,4.7-1.8,6.6-3.5l0.2-0.2l-3.2-4.6l-0.2,0.2c-2.5,2.1-5.9,2.9-9.2,2.3c-5.7-1-8.4-4-8.2-9.1l22.5,4.1l0.1-0.3
			c0.5-2.2,0.6-2.9,0.8-4c0.7-4,0.1-7.9-1.9-11C101.7,37.5,98.4,35.3,94.1,34.5"/>
		<path class="st0" d="M184.8,67.8c-1,5.4-6.2,9.1-11.6,8.1c-5.4-1-9.1-6.2-8.1-11.6c1-5.4,6.2-9.1,11.6-8.1S185.8,62.4,184.8,67.8
			 M177.9,49.7c-9-1.6-17.6,4.4-19.3,13.4c-1.6,9,4.4,17.6,13.4,19.3c9,1.6,17.6-4.4,19.3-13.4C192.9,60,186.9,51.3,177.9,49.7"/>
		<path class="st0" d="M64.9,46.2c-1.1,6-5.1,9.4-10.1,8.5c-2.5-0.5-4.5-1.9-5.6-4.1c-1.1-2.1-1.4-4.7-0.9-7.5
			c0.5-2.8,1.8-5.2,3.6-6.8c1.9-1.7,4.2-2.3,6.7-1.9c2.4,0.4,4.2,1.8,5.3,3.9C65.1,40.5,65.4,43.2,64.9,46.2 M60.7,28.4
			c-4.7-0.9-8.6,0.8-11.5,4.9l-0.2,0l0.9-5.9l-5.5-1l-7.6,42.1l6.6,1.2l3-16.8l0.2,0c0.5,2,1.3,3.7,2.5,5.1c1.5,1.7,3.5,2.8,6,3.2
			c3.8,0.7,7.5-0.3,10.5-2.8c3.1-2.5,5.2-6.5,6.1-11.1c0.8-4.6,0.2-9-1.8-12.5C67.9,31.4,64.7,29.1,60.7,28.4"/>
		<path class="st0" d="M118.7,45.6l-0.2,0l0.6-5.7l-5.6-1l-5.6,31l6.7,1.2l3.2-17.9c0.7-4.1,2.7-5.5,6.5-4.8l4.3,0.8l1.3-7.3
			l-2.2-0.4C123.5,40.7,120.5,42,118.7,45.6"/>
		<path class="st0" d="M144.2,48.9c3.7,0.7,6.2,3.1,6.8,6.8l0,0.3l5.6-1l-0.1-0.3c-0.6-3-1.9-5.4-3.8-7.3c-1.9-1.9-4.5-3.1-7.5-3.7
			c-2.8-0.5-5.7-0.1-8.1,1.1c-2.6,1.4-4.3,3.7-4.8,6.4c-0.5,2.6,0.1,5,1.7,7c1.3,1.7,3.4,3.2,6.3,4.6l0,0c0.2,0.1,0.4,0.2,0.6,0.3
			c1.8,0.8,3.5,1.5,4.7,2.3c1.2,0.9,1.7,1.9,1.5,3.1c-0.4,2.4-3.5,3-6.3,2.5c-3.8-0.7-6.9-3.3-8.2-6.9l-0.1-0.2l-5.3,1.8l0.1,0.2
			c0.7,2.7,2.2,5.1,4.4,6.9c2.2,1.9,5,3.1,8.1,3.7c3.4,0.6,6.6,0.3,9.1-0.8c2.8-1.2,4.5-3.3,5-6.1c0.5-2.7-0.2-4.9-2.2-6.9
			c-1.8-1.9-4.5-3.2-6.7-4.2c-3.3-1.6-7-3.4-6.5-6.4C138.9,50,141.1,48.3,144.2,48.9"/>
		<path class="st0" d="M215.3,56.5c-2.3-0.4-4.7-0.1-6.7,0.8c-1.9,0.9-3.5,2.3-4.7,4l-0.3,0l1.1-5.9l-6.2-1.1l-5.6,31l6.7,1.2
			l3.1-17.3c0.2-1.3,1.2-3.4,2.8-5c1.3-1.3,3.5-2.8,6.6-2.3c2.1,0.4,3.5,1.3,4.2,2.7c0.7,1.4,0.8,3.3,0.4,5.8L213.2,89l6.7,1.2
			l3.5-19.4c0.7-3.9,0.4-7.1-1-9.5C221.1,58.7,218.6,57.1,215.3,56.5"/>
		<path class="st0" d="M247.1,82.2c-0.6,1.8-2,3.4-4.1,4.5c-1.9,1-4,1.5-5.4,1.2c-1.3-0.2-2.5-0.8-3.3-1.5c-0.8-0.8-1.1-1.7-1-2.7
			c0.2-1.3,1.2-2.2,2.9-2.6c1.5-0.4,3.6-0.3,5.9,0.1L247.1,82.2z M252.7,89.8l2.5-13.9c0.6-3.4,0.1-6.6-1.6-9
			c-1.8-2.6-4.7-4.3-8.4-4.9c-6.7-1.2-11.9,1-15.9,6.8l-0.1,0.2l5.3,3.8l0.2-0.2c2.2-3.2,5.8-4.9,8.8-4.4c3.4,0.6,5.6,3.4,5,6.4
			l-0.4,2.2l-7.1-1.3c-7.9-1.4-13.5,1.5-14.6,7.6c-0.5,2.7,0.1,5.1,1.7,7c1.5,1.8,3.8,3.1,6.5,3.6c2.5,0.5,5,0.2,7.2-0.8
			c2-0.9,3.8-2.4,5.1-4.3l0.2,0l-0.4,1.7c-0.6,3.1,0.7,5,3.5,5.5l4.4,0.8l1-5.3l-2.6-0.5C252.6,90.6,252.6,90.2,252.7,89.8"/>
		<path class="st0" d="M267.9,92.6c-0.5-0.1-0.6-0.2-0.7-0.3c-0.1-0.2-0.1-0.5,0-1l6.3-35l-6.7-1.2l-6.4,35.4
			c-0.4,2.3-0.3,4.1,0.5,5.4c0.7,1.3,2,2.2,3.8,2.5l6.5,1.2l1.1-6L267.9,92.6z"/>
	</g>
</g>
<g>
	<g>
		<path class="st1" d="M298,16.3l-281,91c-0.5,0.2-0.8,0.7-0.6,1.3c0.2,0.5,0.7,0.8,1.3,0.6l281-91c0.5-0.2,0.8-0.7,0.6-1.3
			C299.1,16.5,298.5,16.2,298,16.3"/>
	</g>
</g>
</svg>
