<?xml version="1.0" encoding="utf-8"?>
<!-- Generator: Adobe Illustrator 27.3.1, SVG Export Plug-In . SVG Version: 6.00 Build 0)  -->
<svg version="1.1" id="Layer_1" xmlns="http://www.w3.org/2000/svg" xmlns:xlink="http://www.w3.org/1999/xlink" x="0px" y="0px"
	 viewBox="0 0 315.6 125.6" style="enable-background:new 0 0 315.6 125.6;" xml:space="preserve">
<style type="text/css">
	.st0{fill:#00B8ED;}
	.st1{fill:#FF0000;}
</style>
<g>
	<path class="st0" d="M88.8,34.8c-4.2,0.7-8.2,4.3-11,9.5c-2.9,5.3-4.5,11.8-4.5,18.8c0,7.2,1.5,13.5,4.3,18.7
		c2.9,5.3,7,8.8,11.9,9.6c2.6,0.4,5.1-0.1,7.4-1.7c2.4-1.6,4.4-4.2,6-7.7c0-0.1,0.1-0.2,0.1-0.3c-1.3-2.5-2.6-5-4-7.5
		c-0.1,0.1-0.1,0.3-0.2,0.4c-2.2,4.3-5.3,6.5-8.7,6.2c-5.8-0.6-8.9-5-9.7-13.1c7.6,0.3,15.2,0.5,22.9,0.7c0-0.2,0-0.3,0-0.5
		c0.1-4,0.1-5.5,0.1-7.5c0-7.4-1.4-14.2-3.9-18.9C96.8,36.2,93.1,34,88.8,34.8z M80.4,58.9c0.7-8.1,3.5-12.4,8.6-12.9
		c4.3-0.5,7.4,4.5,7.6,12.5C91.1,58.6,85.7,58.8,80.4,58.9z"/>
	<path class="st0" d="M175.7,29.5c-9.4-0.4-17.1,14.8-17,33.5c0,18.7,7.7,34,17,33.5c9.4-0.5,17-15.8,17-33.5
		C192.7,45.3,185.1,30,175.7,29.5z M175.7,83.3c-5.7,0.2-10.3-9-10.3-20.3c0-11.3,4.6-20.4,10.3-20.3C181.4,43,186,52.1,186,63
		C186,74,181.4,83.1,175.7,83.3z"/>
	<path class="st0" d="M55.4,41.8c-4.6,1.2-8,5-10,10.3c-0.1,0-0.1,0-0.2,0c0-2.2-0.1-4.3-0.1-6.5c-1.8,0.5-3.5,1-5.3,1.5
		c0,14.3,0,28.5,0,42.8c2.1,1.1,4.2,2.1,6.3,3.1V74c0.1,0,0.1,0,0.2,0c0.8,2.3,1.9,4.3,3.3,5.9c1.7,2.1,3.8,3.5,6.2,4.2
		c3.7,1,7.1-0.3,9.6-4.2c2.5-3.9,3.9-10.1,3.9-17.1c0-6.9-1.4-13.1-3.9-16.9C62.8,42.1,59.3,40.8,55.4,41.8z M54.3,75.8
		c-2.5-0.4-4.5-2.1-6-4.5C47,69,46.2,66.1,46.2,63c0-3.2,0.8-6.1,2.2-8.4c1.5-2.5,3.6-4.1,6-4.5c2.3-0.4,4.3,0.6,5.8,3
		c1.5,2.4,2.2,5.9,2.2,10.1C62.4,71.6,59.1,76.7,54.3,75.8z"/>
	<path class="st0" d="M115.2,43.8c-0.1,0-0.1,0-0.2,0c-0.1-3.6-0.3-7.2-0.4-10.8c-1.9,0.2-3.9,0.4-5.8,0.6v59c2.3,0.3,4.6,0.5,7,0.7
		V58.4c0-8,1.7-11.4,5.7-11.6c1.5-0.1,3-0.1,4.5-0.2V31.9c-0.8,0.1-1.5,0.1-2.3,0.2C119.1,32.4,116.4,36.3,115.2,43.8z"/>
	<path class="st0" d="M141.5,40c3.8-0.1,6.8,3.9,8.1,10.9c0,0.2,0.1,0.3,0.1,0.5c1.8-1.4,3.6-2.7,5.5-4.1c0-0.2-0.1-0.3-0.1-0.5
		c-1.2-5.7-2.9-10.2-5.2-13.2c-2.3-3.1-5.1-4.6-8.3-4.5c-2.9,0.1-5.8,2.2-8,5.5c-2.4,3.7-3.7,8.9-3.7,14.5c0,5.4,1,9.8,3,13.2
		c1.7,2.9,4,5.1,7.2,6.8c0,0,0,0,0,0c0.2,0.1,0.5,0.2,0.7,0.3c2,0.9,3.8,1.7,5.1,3c1.4,1.4,2,3.2,2,5.7c0,5-3,7.2-6,7.1
		c-3.9-0.1-7.6-4.3-9.5-10.9c0-0.2-0.1-0.3-0.1-0.5c-1.7,1.7-3.3,3.5-5,5.2c0,0.1,0.1,0.3,0.1,0.5c1.2,5,3.2,9.2,5.7,12.2
		c2.5,3,5.6,4.7,8.9,4.8c3.5,0.1,6.7-1.5,9.1-4.6c2.6-3.4,3.9-8.3,3.9-14.1c0-5.5-1.1-9.8-3.5-13.2c-2.2-3.1-5.2-4.9-7.5-6
		c-3.6-2-7.7-4.2-7.7-10.4C136.4,44.3,138.3,40.1,141.5,40z"/>
	<path class="st0" d="M214.5,32.9c-2.4-0.3-4.7,0.7-6.6,3c-1.7,2-3.1,5-4,8.7c-0.1,0-0.2,0-0.3,0V33.2c-2.1-0.2-4.3-0.4-6.4-0.6
		v60.9c2.3-0.2,4.6-0.4,7-0.7V59.6c0-2.5,0.6-6.7,1.9-10.1c1.1-2.9,3-6.2,6.1-5.9c2.2,0.2,3.7,1.4,4.7,3.8c1,2.3,1.4,5.6,1.4,10.1
		v33.7c2.3-0.3,4.6-0.7,6.9-1v-34c0-6.7-0.9-12.1-2.7-16.1C220.6,35.8,217.9,33.4,214.5,32.9z"/>
	<path class="st0" d="M256.8,75.6V56.8c0-4.6-1.1-8.7-3.1-12c-2.1-3.4-5.2-5.8-8.9-6.6c-6.7-1.5-11.4,2.5-14.3,13
		c0,0.1-0.1,0.3-0.1,0.4c2,1.7,3.9,3.3,5.9,4.9c0-0.1,0.1-0.3,0.1-0.4c1.6-5.6,4.8-8.8,7.8-8.4c3.4,0.5,6,4.2,6,8.5v3.2
		c-2.3-0.1-4.7-0.2-7.1-0.2c-7.9-0.4-12.9,6-12.9,16.5c0,4.5,1,8.2,2.9,10.6c1.8,2.2,4.3,3.1,7,2.5c2.5-0.5,4.9-2.2,6.9-4.6
		c1.8-2.2,3.2-5,4.2-8c0.1,0,0.2,0,0.2,0c0,0.8,0,1.6,0,2.4c0,4.4,1.5,6.4,4.3,5.7c1.4-0.3,2.9-0.7,4.3-1v-6.9
		c-0.8,0.1-1.7,0.3-2.6,0.4C256.9,76.7,256.8,76.1,256.8,75.6z M247,75.1c-1.6,2.1-3.6,3.7-5,3.9c-1.3,0.2-2.6-0.1-3.4-0.9
		c-0.9-0.8-1.4-2.1-1.4-3.7c0-2.1,0.8-3.8,2.4-5c1.4-1.1,3.4-1.6,5.8-1.7c1.6-0.1,3.3-0.1,4.9-0.2C249.9,70,248.8,72.7,247,75.1z"/>
	<path class="st0" d="M271.7,73.3c-0.5,0.1-0.6,0-0.7-0.1c-0.1-0.2-0.2-0.5-0.2-1.1c0-13,0-25.9,0-38.9c-2.2-1-4.3-2.1-6.5-3v43.3
		c0,2.8,0.5,4.8,1.4,6c0.9,1.2,2.2,1.5,4,1c2.1-0.6,4.2-1.2,6.2-1.8v-6.1C274.5,72.8,273.1,73,271.7,73.3z"/>
</g>
<g>
	<g>
		<path class="st1" d="M298,16.3l-281,91c-0.5,0.2-0.8,0.7-0.6,1.3c0.2,0.5,0.7,0.8,1.3,0.6l281-91c0.5-0.2,0.8-0.7,0.6-1.3
			C299.1,16.5,298.5,16.2,298,16.3"/>
	</g>
</g>
</svg>
