<?xml version="1.0" encoding="UTF-8"?>
<svg id="Layer_1" data-name="Layer 1" xmlns="http://www.w3.org/2000/svg" width="105.83mm" height="24.69mm" viewBox="0 0 300 70">
  <path d="M97.44,20.16l5.67,6.05c2.29-2.36,5.5-3.83,9.06-3.83s6.76,1.47,9.06,3.83l5.68-6.06s0,0,0,0h0c-3.78-3.76-8.99-6.08-14.74-6.08s-10.95,2.33-14.73,6.08h0s0,0,0,0Z" fill="#fff"/>
  <path d="M109.93,35c0,.15.02.31.05.45.21,1.02,1.11,1.79,2.19,1.79s1.98-.77,2.19-1.79c.03-.15.05-.3.05-.45,0-1.23-1-2.23-2.23-2.23s-2.23,1.01-2.23,2.23Z" fill="#fff"/>
  <path d="M124.44,32.04s0,0,0,0h0c.23.95.35,1.94.35,2.96,0,2.83-.93,5.45-2.51,7.55-2.3,3.08-5.98,5.07-10.12,5.07s-7.82-1.99-10.12-5.07c-1.58-2.11-2.51-4.72-2.51-7.55,0-1.02.12-2.01.35-2.96h0s0,0,0,0l-6.27-6.69c-1.51,2.89-2.37,6.18-2.37,9.65,0,11.56,9.43,20.93,20.93,20.93.04,0,.08,0,.12,0,11.51-.07,20.81-9.46,20.81-20.92,0-3.49-.86-6.77-2.36-9.66l-6.28,6.7Z" fill="#fff"/>
  <path d="M112.16,25.07c-2.84,0-5.39,1.2-7.2,3.11h0s0,0,0,0l2.69,2.87s0,0,0,0l.38.4c1-1.16,2.47-1.9,4.13-1.9s3.13.74,4.13,1.9l.38-.4s0,0,0,0l2.7-2.88s0,0,0,0h0c-1.81-1.91-4.36-3.11-7.2-3.11Z" fill="#fff"/>
  <path d="M141.86,24.19v2.86h-2.15v2.96h2.15v15.04h3.63v-15.04h3.94v-2.96h-3.94v-2.86c0-.64.3-.94.84-.94h3.97v-2.93h-4.44c-2.42,0-4,1.38-4,3.87Z" fill="#fff"/>
  <rect x="151.89" y="27.02" width="3.63" height="18.04" fill="#fff"/>
  <path d="M153.7,19.68c-1.35,0-2.42,1.01-2.42,2.29,0,1.35,1.11,2.36,2.46,2.36s2.39-1.01,2.39-2.36-1.11-2.29-2.42-2.29Z" fill="#fff"/>
  <path d="M170.09,26.55c-3.23,0-5.15,1.82-6.23,3.87h-.2v-10.1h-3.57v24.74h3.06v-3.47h.2c.94,2.32,3.13,3.97,6.23,3.97,4.31,0,8.01-3.7,8.01-9.73,0-5.25-3.03-9.29-7.51-9.29ZM169.02,42.16c-3.4,0-5.25-2.79-5.25-6.13s1.99-6.09,5.28-6.09c2.89,0,4.81,2.29,4.81,5.99s-2.09,6.23-4.85,6.23Z" fill="#fff"/>
  <path d="M184.53,30.35h-.24v-3.3h-3.26v18.01h3.67v-10.43c0-2.32.87-3.6,3.4-3.6h2.39v-4h-1.14c-2.09,0-4.07.71-4.81,3.33Z" fill="#fff"/>
  <path d="M207.39,42.16c-.3,0-.47-.24-.47-.64v-8.18c0-4.31-2.76-6.8-6.93-6.8-3.74,0-6.53,2.09-7.71,5.65l3.03,1.28c1.08-2.62,2.36-3.77,4.68-3.77,1.88,0,3.5,1.41,3.5,4.04v1.11h-4.24c-3.9,0-7.44,1.95-7.44,5.62,0,3.1,2.49,5.01,5.65,5.01s5.45-1.82,6.53-4.21h.3l-.03,1.14c0,1.72.81,2.63,2.42,2.63h2.09v-2.89h-1.38ZM198.16,42.33c-1.41,0-2.86-.74-2.86-2.15,0-1.78,2.29-2.66,5.18-2.66h3c-.27,2.36-2.76,4.81-5.32,4.81Z" fill="#fff"/>
</svg>