<?xml version="1.0" encoding="UTF-8"?>
<svg id="Layer_1" data-name="Layer 1" xmlns="http://www.w3.org/2000/svg" width="300" height="300" viewBox="0 0 300 300">
  <path d="M25.73,224.9c-3.7-1.23-6.62-2.1-6.62-4.57,0-1.8,1.54-3.18,4.26-3.18,2.41,0,5.39,1.39,6.78,4.31l4.31-2.21c-1.59-3.9-5.6-6.98-11.09-6.98-4.83,0-9.55,3.44-9.55,8.06,0,5.95,5.54,7.6,9.7,8.93,3.29,1.08,6.11,2.16,6.11,4.05,0,1.75-1.85,3.08-5.18,3.08-3.13,0-6.31-1.33-8.26-4.77l-3.95,2.62c2.31,4.93,7.29,6.88,12.01,6.93,5.44.05,10.47-2.72,10.47-7.7,0-5.65-5.39-7.39-8.98-8.57Z" fill="#102d4f"/>
  <path d="M73.22,212.28c-4.77,0-8.01,2.82-9.39,6.72h-.36c-1.03-4-3.75-6.72-8.32-6.72s-7.96,2.67-9.09,6.06h-.36v-5.29h-5.13v27.46h5.59v-14.32c0-3.9,2.16-9.19,6.83-9.19,3.49,0,5.7,2.1,5.7,6.98v16.53h5.59v-14.78c0-3.7,2.31-8.73,7.19-8.73,3.95,0,5.34,2.98,5.34,6.98v16.53h5.59v-17.3c0-6.78-3.29-10.93-9.19-10.93Z" fill="#102d4f"/>
  <path d="M110.23,235.12v-12.47c0-6.57-4.21-10.37-10.57-10.37-5.7,0-9.96,3.18-11.75,8.62l4.62,1.95c1.64-4,3.59-5.75,7.13-5.75,2.87,0,5.34,2.16,5.34,6.16v1.69h-6.47c-5.95,0-11.34,2.98-11.34,8.57,0,4.72,3.8,7.65,8.62,7.65s8.32-2.77,9.96-6.42h.46l-.05,1.75c0,2.62,1.23,4,3.7,4h3.18v-4.42h-2.1c-.46,0-.72-.36-.72-.97ZM96.89,236.35c-2.16,0-4.36-1.13-4.36-3.29,0-2.72,3.49-4.06,7.9-4.06h4.57c-.41,3.59-4.21,7.34-8.11,7.34Z" fill="#102d4f"/>
  <path d="M122.97,218.07h-.36v-5.03h-4.98v27.46h5.59v-15.91c0-3.54,1.33-5.49,5.18-5.49h3.64v-6.11h-1.75c-3.18,0-6.21,1.08-7.34,5.08Z" fill="#102d4f"/>
  <path d="M142.53,206.88h-5.18l-.36,6.16h-4.26v4.47h4.26l.05,16.99c0,4.06,1.59,6.01,4.67,6.01h7.65v-4.98h-5.7c-.82,0-1.08-.31-1.08-1.33v-16.68h6.78v-4.47h-6.83v-6.16Z" fill="#102d4f"/>
  <path d="M170.04,212.22c-4.77,0-7.6,2.67-9.24,6.06h-.36v-15.5h-5.24v37.73h5.59v-14.17c0-4.05,2.26-9.34,7.34-9.34,3.08,0,5.49,1.9,5.49,7.13v16.37h5.59v-17.35c0-6.42-2.93-10.93-9.19-10.93Z" fill="#102d4f"/>
  <path d="M197.61,212.28c-7.91,0-13.4,6.01-13.4,14.47s5.34,14.48,13.19,14.48,13.29-6.37,13.29-14.53-5.18-14.42-13.09-14.42ZM197.46,236.4c-5.13,0-7.9-4.36-7.9-9.65s2.82-9.65,8.01-9.65,7.8,4.36,7.8,9.65-2.87,9.65-7.91,9.65Z" fill="#102d4f"/>
  <path d="M248.58,212.28c-4.77,0-8.01,2.82-9.39,6.72h-.36c-1.03-4-3.75-6.72-8.32-6.72s-7.96,2.67-9.09,6.06h-.36v-5.29h-5.13v27.46h5.59v-14.32c0-3.9,2.16-9.19,6.83-9.19,3.49,0,5.7,2.1,5.7,6.98v16.53h5.59v-14.78c0-3.7,2.31-8.73,7.19-8.73,3.95,0,5.34,2.98,5.34,6.98v16.53h5.59v-17.3c0-6.78-3.29-10.93-9.19-10.93Z" fill="#102d4f"/>
  <path d="M288.37,225.42c0-6.98-4.57-13.14-12.32-13.14s-13.29,6.16-13.29,14.53c0,9.6,6.83,14.48,13.81,14.48,4.21,0,8.52-1.85,11.34-5.49l-3.08-3.23c-2.31,2.62-5.34,3.9-8.21,3.9-3.9,0-7.55-2.46-8.37-7.39h20.07c.05-1.95.05-2.67.05-3.64ZM268.25,224.75c.72-5.24,4.11-7.65,7.49-7.65,3.59,0,7.13,2.77,7.24,7.65h-14.73Z" fill="#102d4f"/>
  <path d="M150,59.86c-35.05,0-63.42,28.57-63.42,63.43s28.57,63.42,63.42,63.42,63.43-28.57,63.43-63.42-28.38-63.43-63.43-63.43ZM150,161.57c-21.14,0-38.28-17.14-38.28-38.28s17.14-38.28,38.28-38.28,38.28,17.14,38.28,38.28-17.14,38.28-38.28,38.28Z" fill="#102d4f"/>
  <polygon points="126.94 126.72 137.8 137.57 150 125.38 162.2 137.57 173.06 126.72 150 103.66 126.94 126.72" fill="#102d4f"/>
</svg>