<?xml version="1.0" encoding="UTF-8"?>
<svg id="Layer_1" data-name="Layer 1" xmlns="http://www.w3.org/2000/svg" width="300" height="100" viewBox="0 0 300 100">
  <path d="M44.22,26.51c-12.98,0-23.49,10.58-23.49,23.49s10.58,23.49,23.49,23.49,23.49-10.58,23.49-23.49-10.51-23.49-23.49-23.49ZM44.22,64.18c-7.83,0-14.18-6.35-14.18-14.18s6.35-14.18,14.18-14.18,14.18,6.35,14.18,14.18-6.35,14.18-14.18,14.18Z" fill="#fff"/>
  <polygon points="35.68 51.27 39.7 55.29 44.22 50.78 48.74 55.29 52.76 51.27 44.22 42.73 35.68 51.27" fill="#fff"/>
  <path d="M85.99,49.8c-2.72-.91-4.87-1.55-4.87-3.36,0-1.32,1.13-2.34,3.14-2.34,1.78,0,3.97,1.02,4.99,3.17l3.17-1.62c-1.17-2.87-4.12-5.14-8.16-5.14-3.55,0-7.03,2.53-7.03,5.93,0,4.38,4.08,5.59,7.14,6.57,2.42.79,4.5,1.59,4.5,2.98,0,1.28-1.36,2.27-3.82,2.27-2.3,0-4.65-.98-6.08-3.51l-2.91,1.93c1.7,3.63,5.36,5.06,8.84,5.1,4,.04,7.71-2,7.71-5.67,0-4.16-3.97-5.44-6.61-6.31Z" fill="#fff"/>
  <path d="M120.94,40.51c-3.51,0-5.89,2.08-6.91,4.95h-.26c-.76-2.95-2.76-4.95-6.12-4.95s-5.86,1.96-6.69,4.46h-.26v-3.89h-3.78v20.21h4.12v-10.54c0-2.87,1.59-6.76,5.02-6.76,2.57,0,4.19,1.55,4.19,5.14v12.16h4.12v-10.88c0-2.72,1.7-6.42,5.29-6.42,2.91,0,3.93,2.19,3.93,5.14v12.16h4.12v-12.73c0-4.99-2.42-8.05-6.76-8.05Z" fill="#fff"/>
  <path d="M148.18,57.32v-9.18c0-4.84-3.1-7.63-7.78-7.63-4.19,0-7.33,2.34-8.65,6.35l3.4,1.44c1.21-2.95,2.64-4.23,5.25-4.23,2.12,0,3.93,1.59,3.93,4.53v1.25h-4.76c-4.38,0-8.35,2.19-8.35,6.31,0,3.48,2.8,5.63,6.35,5.63s6.12-2.04,7.33-4.72h.34l-.04,1.28c0,1.93.91,2.95,2.72,2.95h2.34v-3.25h-1.55c-.34,0-.53-.26-.53-.72ZM138.36,58.23c-1.59,0-3.21-.83-3.21-2.42,0-2,2.57-2.98,5.82-2.98h3.36c-.3,2.64-3.1,5.4-5.97,5.4Z" fill="#fff"/>
  <path d="M157.55,44.78h-.26v-3.7h-3.66v20.21h4.12v-11.71c0-2.61.98-4.04,3.82-4.04h2.68v-4.5h-1.28c-2.34,0-4.57.79-5.4,3.74Z" fill="#fff"/>
  <path d="M171.94,36.55h-3.82l-.26,4.53h-3.14v3.29h3.14l.04,12.5c0,2.98,1.17,4.42,3.44,4.42h5.63v-3.66h-4.19c-.6,0-.79-.23-.79-.98v-12.28h4.99v-3.29h-5.02v-4.53Z" fill="#fff"/>
  <path d="M192.19,40.47c-3.51,0-5.59,1.96-6.8,4.46h-.26v-11.41h-3.85v27.77h4.12v-10.43c0-2.98,1.66-6.88,5.4-6.88,2.27,0,4.04,1.4,4.04,5.25v12.05h4.12v-12.77c0-4.72-2.15-8.05-6.76-8.05Z" fill="#fff"/>
  <path d="M212.48,40.51c-5.82,0-9.86,4.42-9.86,10.65s3.93,10.65,9.71,10.65,9.78-4.68,9.78-10.69-3.82-10.62-9.63-10.62ZM212.36,58.27c-3.78,0-5.82-3.21-5.82-7.1s2.08-7.1,5.89-7.1,5.74,3.21,5.74,7.1-2.12,7.1-5.82,7.1Z" fill="#fff"/>
  <path d="M249.99,40.51c-3.51,0-5.89,2.08-6.91,4.95h-.26c-.76-2.95-2.76-4.95-6.12-4.95s-5.86,1.96-6.69,4.46h-.26v-3.89h-3.78v20.21h4.12v-10.54c0-2.87,1.59-6.76,5.02-6.76,2.57,0,4.19,1.55,4.19,5.14v12.16h4.12v-10.88c0-2.72,1.7-6.42,5.29-6.42,2.91,0,3.93,2.19,3.93,5.14v12.16h4.12v-12.73c0-4.99-2.42-8.05-6.76-8.05Z" fill="#fff"/>
  <path d="M279.27,50.18c0-5.14-3.36-9.67-9.07-9.67s-9.78,4.53-9.78,10.69c0,7.06,5.02,10.65,10.16,10.65,3.1,0,6.27-1.36,8.35-4.04l-2.27-2.38c-1.7,1.93-3.93,2.87-6.04,2.87-2.87,0-5.55-1.81-6.16-5.44h14.77c.04-1.44.04-1.96.04-2.68ZM264.46,49.69c.53-3.85,3.02-5.63,5.52-5.63,2.64,0,5.25,2.04,5.33,5.63h-10.84Z" fill="#fff"/>
</svg>