<?xml version="1.0" encoding="UTF-8"?>
<svg id="Layer_1" data-name="Layer 1" xmlns="http://www.w3.org/2000/svg" viewBox="0 0 450 450">
  <rect x="34.5" y="34.5" width="381" height="381" rx="62.5" ry="62.5" fill="#1a1d24"/>
  <path d="M353,39.5c31.71,0,57.5,25.79,57.5,57.5v256c0,31.71-25.79,57.5-57.5,57.5H97c-31.71,0-57.5-25.79-57.5-57.5V97c0-31.71,25.79-57.5,57.5-57.5h256M353,29.5H97c-37.22,0-67.5,30.28-67.5,67.5v256c0,37.22,30.28,67.5,67.5,67.5h256c37.22,0,67.5-30.28,67.5-67.5V97c0-37.22-30.28-67.5-67.5-67.5h0Z" fill="#c5c7ce"/>
</svg>