<?xml version="1.0" encoding="UTF-8"?>
<svg id="Layer_1" data-name="Layer 1" xmlns="http://www.w3.org/2000/svg" viewBox="0 0 670 670">
  <path d="M302.99,564.03c-9.1,0-17.84-3.34-24.63-9.4l-133.47-118.63h-65.9c-38.05,0-69-30.95-69-69v-64c0-38.05,30.95-69,69-69h65.9l133.48-118.64c6.74-6.02,15.48-9.34,24.6-9.34,5.25,0,10.35,1.08,15.15,3.21,13.3,6.01,21.87,19.26,21.87,33.77v384c0,14.51-8.57,27.76-21.84,33.76-4.8,2.17-9.9,3.27-15.17,3.27ZM423.01,435.85c-7.75,0-15.02-3.03-20.47-8.53-11.28-11.41-11.27-29.79.04-40.97l51.45-51.45-51.46-51.46c-5.51-5.51-8.54-12.83-8.51-20.6.02-7.72,3.05-14.97,8.53-20.39,5.51-5.45,12.81-8.46,20.55-8.46s15,3.02,20.42,8.5l51.45,51.45,51.46-51.46c5.49-5.49,12.78-8.51,20.52-8.51s15.02,3.03,20.47,8.53c11.29,11.41,11.27,29.79-.04,40.97l-51.45,51.45,51.46,51.47c5.51,5.51,8.54,12.83,8.51,20.6-.02,7.72-3.05,14.97-8.53,20.39-5.51,5.45-12.81,8.46-20.55,8.46-7.75,0-15-3.02-20.42-8.5l-51.45-51.45-51.46,51.46c-5.49,5.49-12.78,8.52-20.52,8.52Z" fill="#1a1d24"/>
  <path d="M302.98,111.02c4.44,0,8.92.92,13.12,2.78,11.5,5.2,18.9,16.6,18.9,29.2v384c0,12.6-7.4,24-18.9,29.2-4.2,1.9-8.67,2.82-13.11,2.82-7.71,0-15.33-2.79-21.29-8.13l-134.9-119.9h-67.8c-35.3,0-64-28.7-64-64v-64c0-35.3,28.7-64,64-64h67.8l134.9-119.9c5.96-5.33,13.57-8.08,21.28-8.08M566.99,238.95c6.14,0,12.26,2.35,16.91,7.05,9.3,9.4,9.4,24.6,0,33.9l-55,55,55,55c9.4,9.4,9.4,24.6,0,33.9-4.71,4.66-10.88,7.01-17.04,7.01s-12.23-2.32-16.86-7.01l-55-55-55,55c-4.7,4.7-10.85,7.05-16.99,7.05s-12.26-2.35-16.91-7.05c-9.3-9.4-9.4-24.6,0-33.9l55-55-55-55c-9.4-9.4-9.4-24.6,0-33.9,4.71-4.66,10.88-7.01,17.04-7.01,6.12,0,12.23,2.32,16.86,7.01l55,55,55-55c4.7-4.7,10.85-7.05,16.99-7.05M302.98,101.02h0c-10.35,0-20.27,3.77-27.94,10.62l-132.04,117.36h-64c-40.8,0-74,33.2-74,74v64c0,40.8,33.2,74,74,74h64l132.06,117.37c7.68,6.86,17.61,10.65,27.94,10.65,5.98,0,11.78-1.25,17.23-3.71,15.05-6.81,24.78-21.84,24.78-38.31V143c0-16.47-9.73-31.51-24.78-38.31h-.03s-.03-.03-.03-.03c-5.45-2.42-11.22-3.64-17.18-3.64h0ZM566.99,228.95c-9.08,0-17.62,3.54-24.06,9.98l-47.93,47.93-47.92-47.92c-6.36-6.41-14.86-9.95-23.94-9.95-9.07,0-17.62,3.52-24.07,9.9-6.44,6.37-9.99,14.87-10.02,23.93-.02,9.11,3.52,17.69,9.98,24.15l47.93,47.93-47.91,47.91c-13.24,13.13-13.27,34.66-.05,48.02,6.39,6.46,14.92,10.02,24.02,10.02s17.62-3.54,24.06-9.98l47.93-47.93,47.92,47.92c6.36,6.41,14.86,9.95,23.94,9.95s17.61-3.52,24.07-9.9c6.44-6.37,9.99-14.87,10.02-23.93.02-9.11-3.52-17.69-9.98-24.15l-47.93-47.93,47.91-47.91c6.44-6.38,9.98-14.91,9.96-24.02-.02-9.04-3.54-17.56-9.9-24-6.39-6.46-14.92-10.02-24.02-10.02h0Z" fill="#c5c7ce"/>
</svg>