<?xml version="1.0" encoding="UTF-8"?>
<svg xmlns="http://www.w3.org/2000/svg" version="1.1" viewBox="0 0 50 40">
  <defs>
    <style>
      .cls-1 {
        fill: #fff;
      }
    </style>
  </defs>
  <!-- Generator: Adobe Illustrator 28.6.0, SVG Export Plug-In . SVG Version: 1.2.0 Build 709)  -->
  <g>
    <g id="Layer_1">
      <g id="Layer_1-2" data-name="Layer_1">
        <g>
          <path class="cls-1" d="M13.3,3.5h5.2l8.6,24h-3.8l-2.3-6.4h-10.5l-2.3,6.4h-3.7L13.3,3.5ZM20.1,18.1l-4-11.3h-.3l-4,11.3h8.3Z"/>
          <path class="cls-1" d="M35.8,21.8v2.4h.7c3.4,0,8.8,1,8.8,5s-3.1,4.9-8.9,4.9-8.5-1.8-8.5-4.9,2.4-4,5-4.6v-3.3c-2.5-.9-4-2.9-4-5.3,0-3.5,3.1-6.1,7.6-6.1h8.3v2.5h-3.8v.3c1.2.7,2.5,1.8,2.5,4s-3.1,5.2-7.4,5.2h-.3ZM36.5,30.9c3.2,0,5.4-.6,5.4-1.8s-2.3-2-5.3-2-5.3.6-5.3,2,2.2,1.8,5.2,1.8ZM36.3,19c2.3,0,3.8-1.3,3.8-2.9s-1.3-3.1-3.7-3.1-3.9,1.5-3.9,3.1,1.4,2.9,3.9,2.9h0Z"/>
        </g>
      </g>
    </g>
  </g>
</svg>