<?xml version="1.0" encoding="UTF-8"?>
<svg id="Capa_1" data-name="Capa 1" xmlns="http://www.w3.org/2000/svg" width="1773.99" height="896.72" viewBox="0 0 1773.99 896.72">
  <g>
    <path d="M185.11,372.93h24.06l.48,24.3h.96c8.66-16.36,24.54-27.43,43.55-27.43,35.61,0,56.06,30.32,56.06,67.37s-20.93,68.1-56.3,68.1c-22.38,0-33.93-12.03-40.18-24.78h-.96v65.69h-27.67v-173.25ZM247.43,478.8c20.69,0,34.65-16.6,34.65-40.66,0-22.14-11.55-43.07-33.69-43.07s-34.65,19.49-34.65,42.11,11.55,41.63,33.69,41.63M390.6,369.8c35.61,0,57.99,26.95,57.99,63.77v15.4h-95.53c2.17,18.29,19.25,30.8,40.67,30.8,16.12,0,27.67-8.18,36.09-16.84l16.36,16.36c-13.96,17.57-33.69,25.75-54.38,25.75-33.69,0-65.93-24.06-65.93-66.65,0-38.26,28.88-68.58,64.73-68.58M421.64,427.31c-.48-18.05-11.31-32.24-32.24-32.24-18.05,0-34.17,12.99-36.33,32.24h68.58ZM470.48,372.93h25.26v23.58h.72c6.26-16.6,15.4-23.58,33.69-23.58h8.42v27.67h-17.81c-15.88,0-22.62,9.38-22.62,26.71v74.35h-27.67v-128.73ZM561.44,459.79c10.59,12.99,23.58,22.62,40.42,22.62,11.79,0,21.66-4.57,21.66-14.44,0-10.35-12.27-15.4-26.71-19.73-19.73-6.26-44.03-15.16-44.03-39.7,0-21.17,21.18-39.22,47.88-39.22s43.79,15.88,51.25,32.72l-20.21,10.35c-6.26-13.96-19.73-20.21-31.04-20.21s-20.21,6.02-20.21,14.92c0,10.83,10.59,14.44,25.27,19.01,20.21,6.26,45.48,13.96,45.48,39.46s-24.3,39.7-50.29,39.7c-23.34,0-44.76-12.03-56.79-30.8l17.33-14.68ZM732.52,369.32c38.74,0,67.13,30.8,67.13,67.85s-30.56,68.1-67.61,68.1-67.62-30.8-67.62-68.1,31.04-67.85,68.1-67.85M732.04,480c23.1,0,41.15-19.01,41.15-42.83s-18.05-42.59-41.15-42.59-41.15,18.77-41.15,42.59,17.81,42.83,41.15,42.83M817.7,372.93h25.27v24.3h.48c8.66-15.4,20.93-27.91,42.59-27.91,28.15,0,43.55,21.17,43.55,51.01v81.33h-27.67v-77c0-17.56-6.5-30.8-23.82-30.8-21.66,0-32.73,21.17-32.73,41.15v66.65h-27.67v-128.73ZM1007.79,426.58h25.27v-8.18c0-13.23-7.94-23.34-23.58-23.34s-28.39,10.35-35.13,25.03l-23.34-11.31c10.83-24.78,32.72-38.98,58.71-38.98,29.6,0,51.01,17.33,51.01,48.61v56.31c0,2.89.48,4.09,3.61,4.09h9.63v22.86h-17.57c-11.07,0-18.53-6.5-18.53-20.45v-6.26h-1.2c-8.66,18.77-26.23,29.6-45.72,29.6-20.69,0-40.18-12.03-40.18-37.3s24.54-40.66,57.03-40.66M996.48,481.69c17.32,0,34.41-14.44,36.58-35.85h-23.82c-18.05,0-30.8,6.5-30.8,19.73,0,10.11,7.46,16.12,18.05,16.12M1093.21,324.8h27.67v149.18c0,3.37.24,4.81,4.33,4.81h17.33v22.86h-26.71c-17.56,0-22.62-11.31-22.62-27.43v-149.43Z" fill="#fff"/>
    <g>
      <path d="M177.31,251.81c0-38.82,24.23-66.81,56.93-66.81,24.47,0,40.46,14.12,47.76,34.35l-11.76,4c-6.59-18.35-20-26.58-36.46-26.58-21.88,0-43.52,17.88-43.52,55.05,0,30.82,18.11,54.11,44.7,54.11,17.88,0,33.64-9.65,42.11-25.64l10.12,5.65c-11.06,20.7-30.11,31.76-52.7,31.76-34.58,0-57.17-28.23-57.17-65.87Z" fill="#fff"/>
      <path d="M302.22,281.92c0-23.29,22.35-37.41,54.11-37.41h31.99v-16c0-18.58-11.53-31.29-31.99-31.29-16.7,0-34.82,10.12-42.82,31.05l-11.29-5.41c9.41-23.76,30.82-37.88,54.58-37.88,29.17,0,44.23,19.53,44.23,43.52v70.1c0,2.35,1.41,4,2.82,4h11.29v11.76h-12.47c-10.35,0-13.88-6.35-13.88-17.64l.24-12.47h-1.88c-7.76,19.05-24,32.93-45.64,32.93s-39.29-12-39.29-35.29ZM343.39,304.98c22.11,0,42.11-20.23,44.93-49.87h-31.52c-22.58,0-41.64,9.17-41.64,26.82,0,16.47,12.7,23.05,28.23,23.05Z" fill="#fff"/>
      <path d="M431.61,251.1c0-40.46,24.47-66.1,56.22-66.1,24,0,38.58,15.06,44.46,31.76h1.18v-75.28h11.76v172.91h-11.76v-27.76h-.94c-6.35,16.23-20.7,31.29-44.93,31.29-32.94,0-55.99-27.52-55.99-66.81ZM487.83,306.15c28.7,0,44.7-25.88,44.7-55.28s-14.82-54.11-44.23-54.11c-25.41,0-43.76,19.53-43.76,54.11s16.7,55.28,43.29,55.28Z" fill="#fff"/>
      <path d="M573.46,281.92c0-23.29,22.35-37.41,54.11-37.41h31.99v-16c0-18.58-11.53-31.29-31.99-31.29-16.7,0-34.82,10.12-42.82,31.05l-11.29-5.41c9.41-23.76,30.82-37.88,54.58-37.88,29.17,0,44.23,19.53,44.23,43.52v70.1c0,2.35,1.41,4,2.82,4h11.29v11.76h-12.47c-10.35,0-13.88-6.35-13.88-17.64l.24-12.47h-1.88c-7.76,19.05-24,32.93-45.64,32.93s-39.29-12-39.29-35.29ZM614.62,304.98c22.11,0,42.11-20.23,44.93-49.87h-31.52c-22.58,0-41.64,9.17-41.64,26.82,0,16.47,12.7,23.05,28.23,23.05Z" fill="#fff"/>
      <path d="M735.77,188.53h13.17l42.34,115.27h1.65l42.82-115.27h13.17l-48.46,125.86h-18.58l-46.11-125.86Z" fill="#fff"/>
      <path d="M855.98,251.81c0-38.82,24.7-66.81,58.11-66.81s52.7,26.82,52.7,60.69v9.41h-97.86c1.41,34.82,22.82,51.05,44.7,51.05,16.47,0,33.17-8.94,42.11-25.88l10.12,5.65c-11.29,21.17-32.23,32.23-52.7,32.23-28.94,0-57.17-21.64-57.17-66.34ZM953.84,243.58c-.71-29.17-16.94-46.81-40.23-46.81-20.94,0-41.4,15.29-44.23,46.81h84.45Z" fill="#fff"/>
      <path d="M980.89,302.62l77.16-100.92-.47-1.65h-74.34v-11.76h88.22l2.35,11.76-77.4,100.92.23,1.65h76.22v11.76h-89.63l-2.35-11.76Z" fill="#fff"/>
      <path d="M1144.38,188.53h10.82v27.99h1.18c5.88-16.94,20.94-31.52,44.23-31.52,21.64,0,34.82,12.7,39.52,33.17h1.18c6.35-17.88,20.23-33.17,44.7-33.17,26.82,0,42.34,18.35,42.34,50.81v78.57h-12.7v-78.34c0-27.76-11.76-39.29-30.82-39.29-31.76,0-42.11,31.76-42.11,46.58v71.04h-12.7v-78.34c0-27.52-11.76-39.29-31.05-39.29-32.7,0-41.87,33.17-41.87,46.58v71.04h-12.7v-125.86Z" fill="#fff"/>
      <path d="M1355.16,281.92c0-23.29,22.35-37.41,54.11-37.41h31.99v-16c0-18.58-11.53-31.29-31.99-31.29-16.7,0-34.82,10.12-42.82,31.05l-11.29-5.41c9.41-23.76,30.82-37.88,54.58-37.88,29.17,0,44.23,19.53,44.23,43.52v70.1c0,2.35,1.41,4,2.82,4h11.29v11.76h-12.47c-10.35,0-13.88-6.35-13.88-17.64l.24-12.47h-1.88c-7.76,19.05-24,32.93-45.64,32.93s-39.29-12-39.29-35.29ZM1396.33,304.98c22.11,0,42.11-20.23,44.93-49.87h-31.52c-22.58,0-41.64,9.17-41.64,26.82,0,16.47,12.7,23.05,28.23,23.05ZM1425.73,137.95h15.29v2.35l-28.23,28.93h-12.94l25.88-31.29Z" fill="#fff"/>
      <path d="M1486.89,285.45l11.76-5.88c8.94,17.64,25.17,26.58,43.52,26.58s31.76-8,31.76-21.88c0-15.06-16.47-19.76-34.11-24.94-21.17-6.12-43.99-12.47-43.99-37.17s24-37.17,44.46-37.17c23.76,0,39.76,14.12,46.81,31.99l-11.76,4c-6.35-15.76-19.05-24.23-35.76-24.23s-31.05,9.65-31.05,24.7c0,16.7,17.64,21.17,35.99,26.58,20.94,6.12,43.99,12.94,42.34,37.64-1.41,22.58-23.53,32.23-45.64,32.23-25.88,0-44.46-12.47-54.34-32.46Z" fill="#fff"/>
    </g>
  </g>
  <g>
    <path d="M1538.11,649.06h-86.4c-17.66,0-32.02,14.37-32.02,32.02s14.37,32.02,32.02,32.02h86.4c17.66,0,32.02-14.37,32.02-32.02s-14.37-32.02-32.02-32.02ZM1538.11,711.72h-86.4c-16.89,0-30.63-13.74-30.63-30.63s13.74-30.63,30.63-30.63h86.4c16.89,0,30.63,13.74,30.63,30.63s-13.74,30.63-30.63,30.63Z" fill="#fff"/>
    <path d="M1455.69,659.36v9c5.42,1.69,9.35,6.75,9.35,12.73s-3.93,11.04-9.35,12.73v9c10.3-1.89,18.11-10.94,18.11-21.73s-7.81-19.86-18.11-21.73Z" fill="#fff"/>
    <path d="M1429.62,681.09c0,10.84,7.85,19.85,18.11,21.73v-9c-5.42-1.69-9.35-6.75-9.35-12.73s3.93-11.04,9.35-12.73v-9c-10.3,1.89-18.11,10.94-18.11,21.73Z" fill="#fff"/>
    <path d="M1486.92,668.43h-3.59l-.25,4.26h-2.95v3.09h2.95l.04,11.76c0,2.81,1.1,4.16,3.23,4.16h5.29v-3.45h-3.94c-.57,0-.75-.21-.75-.92v-11.55h4.69v-3.09h-4.73v-4.26Z" fill="#fff"/>
    <path d="M1502.91,672.16c-5.37,0-9.2,4.26-9.2,10.06,0,6.64,4.73,10.02,9.56,10.02,2.91,0,5.9-1.28,7.85-3.8l-2.13-2.24c-1.6,1.81-3.7,2.7-5.69,2.7-2.7,0-5.22-1.71-5.79-5.12h13.89c.04-1.35.04-1.85.04-2.52,0-4.83-3.16-9.1-8.53-9.1ZM1497.51,680.8c.5-3.62,2.84-5.29,5.19-5.29,2.49,0,4.94,1.92,5.01,5.29h-10.2Z" fill="#fff"/>
    <path d="M1523.41,688.86c-3.41,0-5.76-2.81-5.76-6.57,0-4.48,2.74-6.79,5.4-6.79,2.42,0,3.7,1.39,4.73,3.98l3.16-1.35c-1.14-3.62-3.87-5.97-7.82-5.97-5.12,0-9.17,4.26-9.17,10.13s3.98,9.91,9.17,9.91c3.62,0,6.47-1.6,8.35-4.87l-2.66-1.88c-1.14,1.95-2.95,3.41-5.4,3.41Z" fill="#fff"/>
    <path d="M1545.09,672.13c-3.3,0-5.26,1.85-6.4,4.19h-.25v-10.73h-3.62v26.12h3.87v-9.81c0-2.81,1.56-6.47,5.08-6.47,2.13,0,3.8,1.31,3.8,4.94v11.33h3.87v-12.01c0-4.44-2.03-7.57-6.36-7.57Z" fill="#fff"/>
  </g>
  <g>
    <path d="M1359.18,649.06h-207.71c-17.66,0-32.02,14.37-32.02,32.02s14.37,32.02,32.02,32.02h207.71c17.66,0,32.02-14.37,32.02-32.02s-14.37-32.02-32.02-32.02ZM1359.18,711.72h-207.71c-16.89,0-30.63-13.74-30.63-30.63s13.74-30.63,30.63-30.63h207.71c16.89,0,30.63,13.74,30.63,30.63s-13.74,30.63-30.63,30.63Z" fill="#fff"/>
    <path d="M1151.47,658.99c-12.21,0-22.09,9.95-22.09,22.09s9.95,22.09,22.09,22.09,22.09-9.95,22.09-22.09-9.89-22.09-22.09-22.09ZM1151.47,694.42c-7.36,0-13.34-5.97-13.34-13.34s5.97-13.34,13.34-13.34,13.34,5.97,13.34,13.34-5.97,13.34-13.34,13.34Z" fill="#fff"/>
    <polygon points="1143.44 682.28 1147.22 686.07 1151.47 681.82 1155.72 686.07 1159.5 682.28 1151.47 674.25 1143.44 682.28" fill="#fff"/>
    <path d="M1190.76,680.9c-2.56-.85-4.58-1.46-4.58-3.16,0-1.24,1.07-2.2,2.95-2.2,1.67,0,3.73.96,4.69,2.98l2.98-1.53c-1.1-2.7-3.87-4.83-7.67-4.83-3.34,0-6.61,2.38-6.61,5.58,0,4.12,3.84,5.26,6.72,6.18,2.27.75,4.23,1.49,4.23,2.81,0,1.21-1.28,2.13-3.59,2.13-2.17,0-4.37-.92-5.72-3.3l-2.74,1.81c1.6,3.41,5.05,4.76,8.31,4.8,3.77.04,7.25-1.88,7.25-5.33,0-3.91-3.73-5.12-6.22-5.93Z" fill="#fff"/>
    <path d="M1223.63,672.16c-3.3,0-5.54,1.95-6.5,4.65h-.25c-.71-2.77-2.59-4.65-5.76-4.65s-5.51,1.85-6.29,4.19h-.25v-3.66h-3.55v19.01h3.87v-9.91c0-2.7,1.49-6.36,4.73-6.36,2.42,0,3.94,1.46,3.94,4.83v11.44h3.87v-10.23c0-2.56,1.6-6.04,4.97-6.04,2.74,0,3.7,2.06,3.7,4.83v11.44h3.87v-11.97c0-4.69-2.27-7.57-6.36-7.57Z" fill="#fff"/>
    <path d="M1249.25,687.98v-8.63c0-4.55-2.91-7.18-7.32-7.18-3.94,0-6.89,2.2-8.14,5.97l3.2,1.35c1.14-2.77,2.49-3.98,4.94-3.98,1.99,0,3.7,1.49,3.7,4.26v1.17h-4.48c-4.12,0-7.85,2.06-7.85,5.93,0,3.27,2.63,5.29,5.97,5.29s5.76-1.92,6.89-4.44h.32l-.04,1.21c0,1.81.85,2.77,2.56,2.77h2.2v-3.06h-1.46c-.32,0-.5-.25-.5-.68ZM1240.01,688.83c-1.49,0-3.02-.78-3.02-2.27,0-1.88,2.42-2.81,5.47-2.81h3.16c-.28,2.49-2.91,5.08-5.61,5.08Z" fill="#fff"/>
    <path d="M1258.06,676.18h-.25v-3.48h-3.45v19.01h3.87v-11.01c0-2.45.92-3.8,3.59-3.8h2.52v-4.23h-1.21c-2.2,0-4.3.75-5.08,3.52Z" fill="#fff"/>
    <path d="M1271.6,668.43h-3.59l-.25,4.26h-2.95v3.09h2.95l.04,11.76c0,2.81,1.1,4.16,3.23,4.16h5.29v-3.45h-3.94c-.57,0-.75-.21-.75-.92v-11.55h4.69v-3.09h-4.73v-4.26Z" fill="#fff"/>
    <path d="M1290.65,672.13c-3.3,0-5.26,1.85-6.4,4.19h-.25v-10.73h-3.62v26.12h3.87v-9.81c0-2.81,1.56-6.47,5.08-6.47,2.13,0,3.8,1.31,3.8,4.94v11.33h3.87v-12.01c0-4.44-2.03-7.57-6.36-7.57Z" fill="#fff"/>
    <path d="M1309.73,672.16c-5.47,0-9.27,4.16-9.27,10.02s3.7,10.02,9.13,10.02,9.2-4.41,9.2-10.06-3.59-9.98-9.06-9.98ZM1309.62,688.86c-3.55,0-5.47-3.02-5.47-6.68s1.95-6.68,5.54-6.68,5.4,3.02,5.4,6.68-1.99,6.68-5.47,6.68Z" fill="#fff"/>
    <path d="M1345.01,672.16c-3.3,0-5.54,1.95-6.5,4.65h-.25c-.71-2.77-2.59-4.65-5.76-4.65s-5.51,1.85-6.29,4.19h-.25v-3.66h-3.55v19.01h3.87v-9.91c0-2.7,1.49-6.36,4.73-6.36,2.42,0,3.94,1.46,3.94,4.83v11.44h3.87v-10.23c0-2.56,1.6-6.04,4.97-6.04,2.74,0,3.7,2.06,3.7,4.83v11.44h3.87v-11.97c0-4.69-2.27-7.57-6.36-7.57Z" fill="#fff"/>
    <path d="M1364.02,672.16c-5.37,0-9.2,4.26-9.2,10.06,0,6.64,4.73,10.02,9.56,10.02,2.91,0,5.9-1.28,7.85-3.8l-2.13-2.24c-1.6,1.81-3.7,2.7-5.69,2.7-2.7,0-5.22-1.71-5.79-5.12h13.89c.04-1.35.04-1.85.04-2.52,0-4.83-3.16-9.1-8.53-9.1ZM1358.62,680.8c.5-3.62,2.84-5.29,5.19-5.29,2.49,0,4.94,1.92,5.01,5.29h-10.2Z" fill="#fff"/>
  </g>
  <g>
    <path d="M848,649.06h-74.85c-17.66,0-32.02,14.37-32.02,32.02s14.37,32.02,32.02,32.02h74.85c17.66,0,32.02-14.37,32.02-32.02s-14.37-32.02-32.02-32.02ZM848,711.72h-74.85c-16.89,0-30.63-13.74-30.63-30.63s13.74-30.63,30.63-30.63h74.85c16.89,0,30.63,13.74,30.63,30.63s-13.74,30.63-30.63,30.63Z" fill="#fff"/>
    <path d="M768.18,675.9l-4.02,4.08,8.58,8.7,19.1-19.37c-1.03-1.63-2.27-3.12-3.68-4.43l-15.43,15.64-4.56-4.63Z" fill="#fff"/>
    <path d="M786.38,679.4c.07.55.11,1.11.11,1.69,0,7.36-5.97,13.34-13.34,13.34s-13.34-5.97-13.34-13.34,5.97-13.34,13.34-13.34c2.24,0,4.35.55,6.2,1.53l6.32-6.4c-3.56-2.45-7.87-3.88-12.51-3.88-12.21,0-22.09,9.95-22.09,22.09s9.95,22.09,22.09,22.09,22.09-9.95,22.09-22.09c0-3.14-.66-6.12-1.83-8.82l-7.03,7.13Z" fill="#fff"/>
    <path d="M814.42,672.13c-3.3,0-5.37,1.81-6.47,4.19h-.21v-3.66h-3.23v25.94h3.77v-10.48h.25c.89,2.1,2.84,4.09,6.11,4.09,4.69,0,8.35-4.05,8.35-10.06s-3.59-10.02-8.56-10.02ZM813.71,688.65c-3.45,0-5.33-2.98-5.33-6.43s2.03-6.5,5.44-6.5c3.13,0,5.22,2.7,5.22,6.54s-2.24,6.4-5.33,6.4Z" fill="#fff"/>
    <path d="M841.14,687.98v-8.63c0-4.55-2.91-7.18-7.32-7.18-3.94,0-6.89,2.2-8.14,5.97l3.2,1.35c1.14-2.77,2.49-3.98,4.94-3.98,1.99,0,3.7,1.49,3.7,4.26v1.17h-4.48c-4.12,0-7.85,2.06-7.85,5.93,0,3.27,2.63,5.29,5.97,5.29s5.76-1.92,6.89-4.44h.32l-.04,1.21c0,1.81.85,2.77,2.56,2.77h2.2v-3.06h-1.46c-.32,0-.5-.25-.5-.68ZM831.9,688.83c-1.49,0-3.02-.78-3.02-2.27,0-1.88,2.42-2.81,5.47-2.81h3.16c-.28,2.49-2.91,5.08-5.61,5.08Z" fill="#fff"/>
    <path d="M853.01,688.54h-.28l-5.12-15.85h-3.8l6.25,19.01h2.03l-.5,1.35c-.6,1.63-1.1,2.31-2.38,2.31h-3.59v3.13h4.34c2.66,0,3.73-1.42,4.8-4.65l6.93-21.14h-3.7l-4.97,15.85Z" fill="#fff"/>
  </g>
  <g>
    <path d="M326.33,649.06h-105.49c-17.66,0-32.02,14.37-32.02,32.02s14.37,32.02,32.02,32.02h105.49c17.66,0,32.02-14.37,32.02-32.02s-14.37-32.02-32.02-32.02ZM326.33,711.72h-105.49c-16.89,0-30.63-13.74-30.63-30.63s13.74-30.63,30.63-30.63h105.49c16.89,0,30.63,13.74,30.63,30.63s-13.74,30.63-30.63,30.63Z" fill="#fff"/>
    <path d="M220.83,658.99c-12.21,0-22.09,9.95-22.09,22.09s9.95,22.09,22.09,22.09,22.09-9.95,22.09-22.09-9.89-22.09-22.09-22.09ZM220.83,694.42c-7.36,0-13.34-5.97-13.34-13.34s5.97-13.34,13.34-13.34,13.34,5.97,13.34,13.34-5.97,13.34-13.34,13.34Z" fill="#fff"/>
    <rect x="212.48" y="679.99" width="4.02" height="5.55" fill="#fff"/>
    <rect x="218.88" y="677.07" width="4.02" height="8.47" fill="#fff"/>
    <rect x="225.17" y="674.43" width="4.02" height="11.1" fill="#fff"/>
    <path d="M274.78,672.16c-3.3,0-5.54,1.95-6.5,4.65h-.25c-.71-2.77-2.59-4.65-5.76-4.65s-5.51,1.85-6.29,4.19h-.25v-3.66h-3.55v19.01h3.87v-9.91c0-2.7,1.49-6.36,4.73-6.36,2.42,0,3.94,1.46,3.94,4.83v11.44h3.87v-10.23c0-2.56,1.6-6.04,4.97-6.04,2.74,0,3.7,2.06,3.7,4.83v11.44h3.87v-11.97c0-4.69-2.27-7.57-6.36-7.57Z" fill="#fff"/>
    <path d="M293.86,672.16c-5.47,0-9.27,4.16-9.27,10.02s3.7,10.02,9.13,10.02,9.2-4.41,9.2-10.06-3.59-9.98-9.06-9.98ZM293.76,688.86c-3.55,0-5.47-3.02-5.47-6.68s1.95-6.68,5.54-6.68,5.4,3.02,5.4,6.68-1.99,6.68-5.47,6.68Z" fill="#fff"/>
    <polygon points="299.87 665.27 299.87 664.77 295.82 664.77 292.37 670.03 295.5 670.03 299.87 665.27" fill="#fff"/>
    <polygon points="312.8 688.44 312.52 688.44 307.44 672.7 303.6 672.7 309.85 691.71 315.18 691.71 321.47 672.7 317.78 672.7 312.8 688.44" fill="#fff"/>
    <path d="M325.77,664.92c-1.42,0-2.56,1.07-2.56,2.42,0,1.42,1.17,2.49,2.59,2.49s2.52-1.07,2.52-2.49-1.17-2.42-2.56-2.42Z" fill="#fff"/>
    <rect x="323.85" y="672.66" width="3.84" height="19.05" fill="#fff"/>
    <path d="M336.39,687.34v-21.71h-3.87v21.92c0,2.81,1.14,4.16,3.27,4.16h3.87v-3.45h-2.56c-.57,0-.71-.21-.71-.92Z" fill="#fff"/>
  </g>
  <g>
    <path d="M680.62,649.06h-87.58c-17.66,0-32.02,14.37-32.02,32.02s14.37,32.02,32.02,32.02h87.58c17.66,0,32.02-14.37,32.02-32.02s-14.37-32.02-32.02-32.02ZM680.62,711.72h-87.58c-16.89,0-30.63-13.74-30.63-30.63s13.74-30.63,30.63-30.63h87.58c16.89,0,30.63,13.74,30.63,30.63s-13.74,30.63-30.63,30.63Z" fill="#fff"/>
    <path d="M593.04,658.99c-12.21,0-22.09,9.95-22.09,22.09s9.95,22.09,22.09,22.09,22.09-9.95,22.09-22.09-9.89-22.09-22.09-22.09ZM593.04,694.42c-7.36,0-13.34-5.97-13.34-13.34s5.97-13.34,13.34-13.34,13.34,5.97,13.34,13.34-5.97,13.34-13.34,13.34Z" fill="#fff"/>
    <polygon points="589.21 687.4 600.87 680.92 589.21 674.57 589.21 687.4" fill="#fff"/>
    <path d="M624.39,669.68v3.02h-2.27v3.13h2.27v15.88h3.84v-15.88h4.16v-3.13h-4.16v-3.02c0-.68.32-.99.89-.99h4.19v-3.09h-4.69c-2.56,0-4.23,1.46-4.23,4.09Z" fill="#fff"/>
    <path d="M639.99,687.34v-21.71h-3.87v21.92c0,2.81,1.14,4.16,3.27,4.16h3.87v-3.45h-2.56c-.57,0-.71-.21-.71-.92Z" fill="#fff"/>
    <path d="M654.7,672.16c-5.47,0-9.27,4.16-9.27,10.02s3.7,10.02,9.13,10.02,9.2-4.41,9.2-10.06-3.59-9.98-9.06-9.98ZM654.59,688.86c-3.55,0-5.47-3.02-5.47-6.68s1.95-6.68,5.54-6.68,5.4,3.02,5.4,6.68-1.99,6.68-5.47,6.68Z" fill="#fff"/>
    <polygon points="686.36 688.54 686.04 688.54 681.35 672.7 677.33 672.7 672.89 688.54 672.61 688.54 668.27 672.7 664.43 672.7 669.69 691.71 675.24 691.71 679.32 677.67 683.19 691.71 688.77 691.71 694.28 672.7 690.59 672.7 686.36 688.54" fill="#fff"/>
  </g>
  <g>
    <path d="M500.51,649.06h-88.65c-17.66,0-32.02,14.37-32.02,32.02s14.37,32.02,32.02,32.02h88.65c17.66,0,32.02-14.37,32.02-32.02s-14.37-32.02-32.02-32.02ZM500.51,711.72h-88.65c-16.89,0-30.63-13.74-30.63-30.63s13.74-30.63,30.63-30.63h88.65c16.89,0,30.63,13.74,30.63,30.63s-13.74,30.63-30.63,30.63Z" fill="#fff"/>
    <path d="M409.5,681.09c0,.16.02.32.05.48.22,1.08,1.17,1.89,2.31,1.89s2.09-.82,2.31-1.89c.03-.15.05-.31.05-.47,0-1.3-1.06-2.36-2.36-2.36s-2.36,1.06-2.36,2.36Z" fill="#fff"/>
    <path d="M411.86,670.61c-3,0-5.69,1.27-7.6,3.29h0s0,0,0,0l2.84,3.03s0,0,0,0l.4.42c1.05-1.23,2.61-2.01,4.36-2.01s3.3.78,4.36,2.01l.4-.42s0,0,0,0l2.85-3.04s0,0,0,0h0c-1.91-2.02-4.61-3.29-7.6-3.29Z" fill="#fff"/>
    <path d="M443.21,669.68v3.02h-2.27v3.13h2.27v15.88h3.84v-15.88h4.16v-3.13h-4.16v-3.02c0-.68.32-.99.89-.99h4.19v-3.09h-4.69c-2.56,0-4.23,1.46-4.23,4.09Z" fill="#fff"/>
    <rect x="453.8" y="672.66" width="3.84" height="19.05" fill="#fff"/>
    <path d="M455.72,664.92c-1.42,0-2.56,1.07-2.56,2.42,0,1.42,1.17,2.49,2.59,2.49s2.52-1.07,2.52-2.49-1.17-2.42-2.56-2.42Z" fill="#fff"/>
    <path d="M473.03,672.16c-3.41,0-5.44,1.92-6.57,4.09h-.21v-10.66h-3.77v26.12h3.23v-3.66h.21c.99,2.45,3.3,4.19,6.57,4.19,4.55,0,8.46-3.91,8.46-10.27,0-5.54-3.2-9.81-7.92-9.81ZM471.89,688.65c-3.59,0-5.54-2.95-5.54-6.47s2.1-6.43,5.58-6.43c3.06,0,5.08,2.42,5.08,6.32s-2.2,6.57-5.12,6.57Z" fill="#fff"/>
    <path d="M488.27,676.18h-.25v-3.48h-3.45v19.01h3.87v-11.01c0-2.45.92-3.8,3.59-3.8h2.52v-4.23h-1.21c-2.2,0-4.3.75-5.08,3.52Z" fill="#fff"/>
    <path d="M511.9,687.98v-8.63c0-4.55-2.91-7.18-7.32-7.18-3.94,0-6.89,2.2-8.14,5.97l3.2,1.35c1.14-2.77,2.49-3.98,4.94-3.98,1.99,0,3.7,1.49,3.7,4.26v1.17h-4.48c-4.12,0-7.85,2.06-7.85,5.93,0,3.27,2.63,5.29,5.97,5.29s5.76-1.92,6.89-4.44h.32l-.04,1.21c0,1.81.85,2.77,2.56,2.77h2.2v-3.06h-1.46c-.32,0-.5-.25-.5-.68ZM502.66,688.83c-1.49,0-3.02-.78-3.02-2.27,0-1.88,2.42-2.81,5.47-2.81h3.16c-.28,2.49-2.91,5.08-5.61,5.08Z" fill="#fff"/>
    <path d="M396.32,665.42l5.98,6.38c2.42-2.49,5.81-4.05,9.56-4.05s7.14,1.55,9.56,4.05l6-6.4s0,0,0,0h0c-3.99-3.97-9.49-6.41-15.56-6.41s-11.56,2.46-15.55,6.42h0s0,0,0,0Z" fill="#fff"/>
    <path d="M424.83,677.96s0,0,0,0h0c.24,1.01.37,2.05.37,3.13,0,2.99-.99,5.75-2.65,7.98-2.43,3.25-6.31,5.35-10.68,5.35s-8.25-2.1-10.68-5.35c-1.66-2.22-2.65-4.99-2.65-7.98,0-1.08.13-2.12.37-3.12h0s0,0,0,0l-6.62-7.07c-1.6,3.06-2.51,6.52-2.51,10.19,0,12.21,9.95,22.09,22.09,22.09.04,0,.08,0,.13,0,12.15-.07,21.97-9.99,21.97-22.09,0-3.68-.9-7.15-2.5-10.2l-6.63,7.08Z" fill="#fff"/>
  </g>
  <g>
    <path d="M1058.94,649.06h-118.42c-17.66,0-32.02,14.37-32.02,32.02s14.37,32.02,32.02,32.02h118.42c17.66,0,32.02-14.37,32.02-32.02s-14.37-32.02-32.02-32.02ZM1058.94,711.72h-118.42c-16.89,0-30.63-13.74-30.63-30.63s13.74-30.63,30.63-30.63h118.42c16.89,0,30.63,13.74,30.63,30.63s-13.74,30.63-30.63,30.63Z" fill="#fff"/>
    <path d="M940.53,694.42c-7.36,0-13.34-5.97-13.34-13.34h-8.76c0,12.21,9.95,22.09,22.09,22.09s22.09-9.95,22.09-22.09h-8.76c0,7.36-5.97,13.34-13.34,13.34Z" fill="#fff"/>
    <rect x="935.78" y="676.34" width="9.49" height="9.49" fill="#fff"/>
    <path d="M975.74,668.43h-3.59l-.25,4.26h-2.95v3.09h2.95l.04,11.76c0,2.81,1.1,4.16,3.23,4.16h5.29v-3.45h-3.94c-.57,0-.75-.21-.75-.92v-11.55h4.69v-3.09h-4.73v-4.26Z" fill="#fff"/>
    <rect x="983.73" y="672.66" width="3.84" height="19.05" fill="#fff"/>
    <path d="M985.65,664.91c-1.42,0-2.56,1.07-2.56,2.42,0,1.42,1.17,2.49,2.59,2.49s2.52-1.07,2.52-2.49-1.17-2.42-2.56-2.42Z" fill="#fff"/>
    <path d="M1000.32,672.16c-5.37,0-9.2,4.26-9.2,10.06,0,6.64,4.73,10.02,9.56,10.02,2.91,0,5.9-1.28,7.85-3.8l-2.13-2.24c-1.6,1.81-3.7,2.7-5.69,2.7-2.7,0-5.22-1.71-5.79-5.12h13.89c.04-1.35.04-1.85.04-2.52,0-4.83-3.16-9.1-8.53-9.1ZM994.92,680.8c.5-3.62,2.84-5.29,5.19-5.29,2.49,0,4.94,1.92,5.01,5.29h-10.2Z" fill="#fff"/>
    <path d="M1022.75,672.16c-3.02,0-5.79,1.85-6.47,4.19h-.25v-3.66h-3.55v19.01h3.87v-9.56c0-4.16,2.13-6.64,5.01-6.64,2.42,0,3.87,1.67,3.87,5.47v10.73h3.87v-11.97c0-4.69-2.17-7.57-6.36-7.57Z" fill="#fff"/>
    <path d="M1047.26,676.25h-.25c-.85-2.17-2.88-4.09-6.01-4.09-4.94,0-8.46,4.19-8.46,10.02s3.66,10.06,8.6,10.06c3.23,0,5.37-1.85,6.43-4.19h.21v3.66h3.23v-26.12h-3.77v10.66ZM1041.79,688.65c-3.23,0-5.29-2.66-5.29-6.5s2.24-6.4,5.33-6.4c3.45,0,5.33,2.95,5.33,6.4s-2.03,6.5-5.37,6.5Z" fill="#fff"/>
    <path d="M1070.33,687.97v-8.63c0-4.55-2.91-7.18-7.32-7.18-3.94,0-6.89,2.2-8.14,5.97l3.2,1.35c1.14-2.77,2.49-3.98,4.94-3.98,1.99,0,3.7,1.49,3.7,4.26v1.17h-4.48c-4.12,0-7.85,2.06-7.85,5.93,0,3.27,2.63,5.29,5.97,5.29s5.76-1.92,6.89-4.44h.32l-.04,1.21c0,1.81.85,2.77,2.56,2.77h2.2v-3.06h-1.46c-.32,0-.5-.25-.5-.68ZM1061.09,688.83c-1.49,0-3.02-.78-3.02-2.27,0-1.88,2.42-2.81,5.47-2.81h3.16c-.28,2.49-2.91,5.08-5.61,5.08Z" fill="#fff"/>
  </g>
</svg>