<?xml version="1.0" encoding="UTF-8"?>
<svg id="Capa_1" data-name="Capa 1" xmlns="http://www.w3.org/2000/svg" width="1340.56" height="1088.17" viewBox="0 0 1340.56 1088.17">
  <g>
    <g>
      <path d="M387.54,830.71l11.48,12.25c4.65-4.79,11.15-7.77,18.35-7.77s13.7,2.98,18.35,7.77l11.51-12.27s0,0,0,0h.01c-7.66-7.61-18.21-12.31-29.86-12.31s-22.18,4.72-29.84,12.32h.01s0,.02,0,.02Z" fill="#fff"/>
      <path d="M412.85,860.77c0,.31.03.62.09.91.42,2.07,2.25,3.62,4.43,3.62s4.02-1.57,4.43-3.63c.06-.29.09-.6.09-.91,0-2.5-2.03-4.53-4.53-4.53s-4.53,2.04-4.53,4.53Z" fill="#fff"/>
      <path d="M459.78,860.77c0-7.07-1.74-13.72-4.79-19.58l-12.73,13.58s0,0,0,0h0c.46,1.93.71,3.94.71,6,0,5.74-1.89,11.04-5.08,15.31-4.67,6.24-12.11,10.28-20.5,10.28s-15.84-4.04-20.5-10.28c-3.19-4.27-5.08-9.57-5.08-15.31,0-2.07.25-4.07.71-6h0s0-.01,0-.01l-12.71-13.56c-3.07,5.86-4.81,12.52-4.81,19.56,0,23.43,19.1,42.4,42.4,42.4h0c.08,0,.16,0,.24,0,23.32-.13,42.16-19.17,42.16-42.39Z" fill="#fff"/>
      <path d="M417.38,840.66c-5.75,0-10.92,2.44-14.58,6.31h0s0,.01,0,.01l5.45,5.82s0,0,0,0l.76.81c2.02-2.36,5.01-3.85,8.36-3.85s6.34,1.5,8.36,3.85l.76-.81s0,0,0,0l5.46-5.83s0,0,0,0h0c-3.66-3.88-8.84-6.3-14.59-6.3Z" fill="#fff"/>
    </g>
    <g>
      <path d="M541.72,818.37c-23.43,0-42.4,19.1-42.4,42.4s19.1,42.4,42.4,42.4,42.4-19.1,42.4-42.4-18.97-42.4-42.4-42.4ZM541.72,886.36c-14.13,0-25.59-11.46-25.59-25.59s11.46-25.59,25.59-25.59,25.59,11.46,25.59,25.59-11.46,25.59-25.59,25.59Z" fill="#fff"/>
      <polygon points="534.38 872.88 556.75 860.44 534.38 848.26 534.38 872.88" fill="#fff"/>
    </g>
    <g>
      <path d="M293.03,818.37c-23.43,0-42.4,19.1-42.4,42.4s19.1,42.4,42.4,42.4,42.4-19.1,42.4-42.4-18.97-42.4-42.4-42.4ZM293.03,886.36c-14.13,0-25.59-11.46-25.59-25.59s11.46-25.59,25.59-25.59,25.59,11.46,25.59,25.59-11.46,25.59-25.59,25.59Z" fill="#fff"/>
      <rect x="276.99" y="858.65" width="7.71" height="10.65" fill="#fff"/>
      <rect x="289.28" y="853.05" width="7.71" height="16.26" fill="#fff"/>
      <rect x="301.36" y="848" width="7.71" height="21.31" fill="#fff"/>
    </g>
    <g>
      <path d="M656.53,850.81l-7.72,7.82,16.47,16.7,36.66-37.17c-1.98-3.13-4.35-5.99-7.05-8.5l-29.61,30.02-8.76-8.88Z" fill="#fff"/>
      <path d="M704.95,843.84l-13.5,13.69c.13,1.06.21,2.14.21,3.23,0,14.13-11.46,25.59-25.59,25.59s-25.59-11.46-25.59-25.59,11.46-25.59,25.59-25.59c4.3,0,8.34,1.06,11.9,2.93l12.12-12.29c-6.83-4.7-15.1-7.45-24.01-7.45-23.43,0-42.4,19.1-42.4,42.4s19.1,42.4,42.4,42.4,42.4-19.1,42.4-42.4c0-6.02-1.26-11.74-3.52-16.92Z" fill="#fff"/>
    </g>
    <g>
      <path d="M914.76,818.37c-23.43,0-42.4,19.1-42.4,42.4s19.1,42.4,42.4,42.4,42.4-19.1,42.4-42.4-18.97-42.4-42.4-42.4ZM914.76,886.36c-14.13,0-25.59-11.46-25.59-25.59s11.46-25.59,25.59-25.59,25.59,11.46,25.59,25.59-11.46,25.59-25.59,25.59Z" fill="#fff"/>
      <polygon points="899.35 863.06 906.61 870.32 914.76 862.17 922.92 870.32 930.18 863.06 914.76 847.65 899.35 863.06" fill="#fff"/>
    </g>
    <g>
      <path d="M1046.75,819.07v17.27c10.4,3.25,17.95,12.96,17.95,24.43s-7.55,21.18-17.95,24.43v17.27c19.77-3.62,34.76-20.99,34.76-41.7s-14.98-38.1-34.76-41.7Z" fill="#fff"/>
      <path d="M1031.47,885.2c-10.4-3.25-17.95-12.96-17.95-24.43s7.55-21.18,17.95-24.43v-17.27c-19.77,3.62-34.76,20.99-34.76,41.7s15.07,38.08,34.76,41.69v-17.26Z" fill="#fff"/>
    </g>
    <g>
      <path d="M816.01,860.77c0,14.13-11.46,25.59-25.59,25.59s-25.59-11.46-25.59-25.59h-16.81c0,23.43,19.1,42.4,42.4,42.4s42.4-19.1,42.4-42.4h-16.81Z" fill="#fff"/>
      <rect x="781.31" y="851.66" width="18.21" height="18.21" fill="#fff"/>
    </g>
  </g>
  <g>
    <path d="M199.64,552.64h24.05l.48,24.29h.96c8.66-16.35,24.53-27.42,43.53-27.42,35.59,0,56.04,30.3,56.04,67.34s-20.92,68.06-56.28,68.06c-22.37,0-33.91-12.03-40.16-24.77h-.96v65.66h-27.66v-173.16ZM261.93,658.46c20.68,0,34.63-16.6,34.63-40.64,0-22.13-11.54-43.05-33.67-43.05s-34.63,19.48-34.63,42.09,11.54,41.61,33.67,41.61M405.03,549.51c35.59,0,57.96,26.94,57.96,63.73v15.39h-95.48c2.16,18.28,19.24,30.78,40.64,30.78,16.11,0,27.66-8.18,36.07-16.83l16.36,16.35c-13.95,17.56-33.67,25.73-54.35,25.73-33.67,0-65.9-24.05-65.9-66.62,0-38.24,28.86-68.54,64.7-68.54M436.05,606.99c-.48-18.04-11.3-32.23-32.23-32.23-18.04,0-34.15,12.99-36.32,32.23h68.54ZM484.87,552.64h25.25v23.57h.72c6.25-16.59,15.39-23.57,33.67-23.57h8.42v27.66h-17.8c-15.87,0-22.61,9.38-22.61,26.7v74.32h-27.66v-128.67ZM575.78,639.46c10.58,12.99,23.57,22.61,40.4,22.61,11.78,0,21.65-4.57,21.65-14.43,0-10.34-12.27-15.39-26.7-19.72-19.72-6.25-44.01-15.15-44.01-39.68,0-21.16,21.16-39.2,47.86-39.2s43.77,15.87,51.23,32.71l-20.2,10.34c-6.25-13.95-19.72-20.2-31.02-20.2s-20.2,6.01-20.2,14.91c0,10.82,10.58,14.43,25.25,19,20.2,6.25,45.45,13.95,45.45,39.44s-24.29,39.68-50.27,39.68c-23.33,0-44.73-12.03-56.76-30.78l17.32-14.67ZM746.78,549.03c38.72,0,67.1,30.78,67.1,67.82s-30.54,68.06-67.58,68.06-67.58-30.78-67.58-68.06,31.03-67.82,68.06-67.82M746.3,659.66c23.09,0,41.13-19,41.13-42.81s-18.04-42.57-41.13-42.57-41.13,18.76-41.13,42.57,17.8,42.81,41.13,42.81M831.92,552.64h25.25v24.29h.48c8.66-15.39,20.92-27.9,42.57-27.9,28.14,0,43.53,21.16,43.53,50.99v81.29h-27.66v-76.96c0-17.56-6.49-30.78-23.81-30.78-21.65,0-32.71,21.16-32.71,41.13v66.62h-27.66v-128.67ZM1021.92,606.27h25.25v-8.18c0-13.23-7.94-23.33-23.57-23.33s-28.38,10.34-35.11,25.01l-23.33-11.3c10.82-24.77,32.71-38.96,58.68-38.96,29.58,0,50.99,17.32,50.99,48.58v56.28c0,2.89.48,4.09,3.61,4.09h9.62v22.85h-17.56c-11.06,0-18.52-6.49-18.52-20.44v-6.25h-1.2c-8.66,18.76-26.21,29.58-45.7,29.58-20.68,0-40.16-12.02-40.16-37.28s24.53-40.64,57-40.64M1010.61,661.34c17.32,0,34.39-14.43,36.56-35.84h-23.81c-18.04,0-30.78,6.49-30.78,19.72,0,10.1,7.46,16.11,18.04,16.11M1107.3,504.54h27.66v149.11c0,3.37.24,4.81,4.33,4.81h17.32v22.85h-26.7c-17.56,0-22.61-11.3-22.61-27.42v-149.35Z" fill="#fff"/>
    <g>
      <path d="M185,251.77c0-38.8,24.22-66.77,56.9-66.77,24.45,0,40.44,14.11,47.73,34.33l-11.76,4c-6.58-18.34-19.99-26.57-36.44-26.57-21.87,0-43.5,17.87-43.5,55.02,0,30.8,18.11,54.08,44.67,54.08,17.87,0,33.62-9.64,42.09-25.63l10.11,5.64c-11.05,20.69-30.1,31.74-52.67,31.74-34.56,0-57.14-28.21-57.14-65.83Z" fill="#fff"/>
      <path d="M309.85,281.87c0-23.28,22.34-37.38,54.08-37.38h31.98v-15.99c0-18.57-11.52-31.27-31.98-31.27-16.69,0-34.8,10.11-42.79,31.04l-11.29-5.41c9.41-23.75,30.8-37.85,54.55-37.85,29.15,0,44.2,19.52,44.2,43.5v70.07c0,2.35,1.41,4,2.82,4h11.29v11.76h-12.46c-10.35,0-13.87-6.35-13.87-17.63l.23-12.46h-1.88c-7.76,19.05-23.98,32.92-45.61,32.92s-39.27-11.99-39.27-35.27ZM351,304.91c22.1,0,42.09-20.22,44.91-49.85h-31.51c-22.57,0-41.62,9.17-41.62,26.8,0,16.46,12.7,23.04,28.22,23.04Z" fill="#fff"/>
      <path d="M439.17,251.07c0-40.44,24.45-66.07,56.2-66.07,23.98,0,38.56,15.05,44.44,31.74h1.18v-75.24h11.76v172.82h-11.76v-27.74h-.94c-6.35,16.22-20.69,31.27-44.91,31.27-32.92,0-55.96-27.51-55.96-66.77ZM495.36,306.09c28.68,0,44.67-25.86,44.67-55.25s-14.81-54.08-44.2-54.08c-25.39,0-43.73,19.52-43.73,54.08s16.69,55.25,43.26,55.25Z" fill="#fff"/>
      <path d="M580.95,281.87c0-23.28,22.34-37.38,54.08-37.38h31.98v-15.99c0-18.57-11.52-31.27-31.98-31.27-16.69,0-34.8,10.11-42.79,31.04l-11.29-5.41c9.41-23.75,30.8-37.85,54.55-37.85,29.15,0,44.2,19.52,44.2,43.5v70.07c0,2.35,1.41,4,2.82,4h11.29v11.76h-12.46c-10.35,0-13.87-6.35-13.87-17.63l.23-12.46h-1.88c-7.76,19.05-23.98,32.92-45.61,32.92s-39.27-11.99-39.27-35.27ZM622.1,304.91c22.1,0,42.09-20.22,44.91-49.85h-31.51c-22.57,0-41.62,9.17-41.62,26.8,0,16.46,12.7,23.04,28.22,23.04Z" fill="#fff"/>
      <path d="M180.3,367.24h13.17l42.32,115.21h1.65l42.79-115.21h13.17l-48.44,125.79h-18.58l-46.08-125.79Z" fill="#fff"/>
      <path d="M300.45,430.49c0-38.8,24.69-66.77,58.08-66.77s52.67,26.8,52.67,60.66v9.41h-97.81c1.41,34.8,22.81,51.02,44.67,51.02,16.46,0,33.15-8.93,42.09-25.86l10.11,5.64c-11.29,21.16-32.21,32.21-52.67,32.21-28.92,0-57.14-21.63-57.14-66.3ZM398.26,422.26c-.7-29.16-16.93-46.79-40.21-46.79-20.93,0-41.38,15.28-44.2,46.79h84.41Z" fill="#fff"/>
      <path d="M425.3,481.27l77.12-100.87-.47-1.65h-74.3v-11.76h88.17l2.35,11.76-77.36,100.87.24,1.65h76.18v11.76h-89.58l-2.35-11.76Z" fill="#fff"/>
      <path d="M588.71,367.24h10.82v27.98h1.17c5.88-16.93,20.93-31.51,44.2-31.51,21.63,0,34.8,12.7,39.5,33.15h1.18c6.35-17.87,20.22-33.15,44.67-33.15,26.8,0,42.32,18.34,42.32,50.79v78.53h-12.7v-78.3c0-27.74-11.76-39.27-30.8-39.27-31.74,0-42.09,31.74-42.09,46.55v71.01h-12.7v-78.3c0-27.51-11.76-39.27-31.04-39.27-32.68,0-41.85,33.15-41.85,46.55v71.01h-12.7v-125.79Z" fill="#fff"/>
      <path d="M799.38,460.58c0-23.28,22.34-37.38,54.08-37.38h31.98v-15.99c0-18.57-11.52-31.27-31.98-31.27-16.69,0-34.8,10.11-42.79,31.04l-11.29-5.41c9.41-23.75,30.8-37.85,54.55-37.85,29.15,0,44.2,19.52,44.2,43.5v70.07c0,2.35,1.41,4,2.82,4h11.29v11.76h-12.46c-10.35,0-13.87-6.35-13.87-17.63l.23-12.46h-1.88c-7.76,19.05-23.98,32.92-45.61,32.92s-39.27-11.99-39.27-35.27ZM840.53,483.62c22.1,0,42.09-20.22,44.91-49.85h-31.51c-22.57,0-41.62,9.17-41.62,26.8,0,16.46,12.7,23.04,28.22,23.04ZM869.92,316.69h15.28v2.35l-28.21,28.92h-12.93l25.86-31.27Z" fill="#fff"/>
      <path d="M931.05,464.11l11.76-5.88c8.93,17.63,25.16,26.57,43.5,26.57s31.74-7.99,31.74-21.87c0-15.05-16.46-19.75-34.09-24.92-21.16-6.11-43.97-12.46-43.97-37.15s23.98-37.15,44.44-37.15c23.75,0,39.74,14.11,46.79,31.98l-11.76,4c-6.35-15.75-19.05-24.22-35.74-24.22s-31.04,9.64-31.04,24.69c0,16.69,17.63,21.16,35.97,26.57,20.93,6.11,43.97,12.93,42.32,37.62-1.41,22.57-23.51,32.21-45.61,32.21-25.86,0-44.44-12.46-54.31-32.45Z" fill="#fff"/>
    </g>
  </g>
</svg>