<?xml version="1.0" encoding="utf-8"?>
<!-- Generator: Adobe Illustrator 27.3.1, SVG Export Plug-In . SVG Version: 6.00 Build 0)  -->
<svg version="1.1" id="Layer_1" xmlns="http://www.w3.org/2000/svg" xmlns:xlink="http://www.w3.org/1999/xlink" x="0px" y="0px"
	 viewBox="0 0 608 200" style="enable-background:new 0 0 608 200;" xml:space="preserve">
<style type="text/css">
	.st0{fill:#FFFFFF;}
</style>
<g>
	<path class="st0" d="M167.9,66.7c-8.5,0-16.4,3.4-22.3,9.5c-5.9,6.2-9.1,14.7-9.1,23.9c0,9.5,3,17.8,8.8,23.8
		c5.9,6.2,14.2,9.4,23.9,9.4c5.1,0,10.2-1.1,14.8-3.2c4.7-2.2,8.7-5.3,11.9-9.3l0.3-0.4l-7.9-8l-0.4,0.5c-4.3,5-10.6,7.8-17.3,7.8
		c-11.6,0-18-4.9-19.5-15H197v-0.5c0.1-4.4,0.1-6,0.1-8.3c0-8.1-2.7-15.6-7.7-21.2C184,69.8,176.6,66.7,167.9,66.7z M150.9,94.9
		c1.4-10.1,7.1-15,17.2-15c8.7,0,14.8,6,15.3,15H150.9z"/>
	<path class="st0" d="M339,66.7c-18.4,0-33.3,15-33.3,33.3c0,18.4,15,33.3,33.3,33.3c18.4,0,33.3-15,33.3-33.3
		C372.3,81.6,357.4,66.7,339,66.7z M339,120.1c-11.1,0-20.1-9-20.1-20.1s9-20.1,20.1-20.1c11.1,0,20.1,9,20.1,20.1
		S350.1,120.1,339,120.1z"/>
	<path class="st0" d="M99.7,66.5c-9.6,0-16.7,4.6-21,13.7h-0.5l-0.3-12H66.7v86h13.4V120h0.4c1.7,3.8,4,6.9,6.8,9.1
		c3.6,2.8,8,4.2,13,4.2c7.7,0,14.7-3.3,19.8-9.3c5.2-6.1,8-14.7,8-24.2c0-9.4-2.9-18-8-24C115,69.9,107.7,66.5,99.7,66.5z
		 M97.3,120.6c-5.1,0-9.5-2.1-12.5-6.1c-2.8-3.7-4.4-8.8-4.4-14.4c0-5.7,1.6-10.9,4.6-14.7c3.1-4,7.5-6.1,12.7-6.1c4.8,0,9,2,12,5.8
		c3,3.8,4.6,9,4.6,15.1C114.2,112.4,107.4,120.6,97.3,120.6z"/>
	<path class="st0" d="M220.4,79.8H220l-0.8-11.4h-11.5v63.3h13.7V95.1c0-8.3,3.4-11.9,11.2-11.9h8.8V68.3H237
		C228.2,68.3,222.7,72.1,220.4,79.8z"/>
	<path class="st0" d="M272.1,77.2c7.5,0,13.3,4,15.9,10.9l0.2,0.5l10.7-4l-0.2-0.5c-2.3-5.6-5.7-10-10.1-13.1
		c-4.5-3.1-10-4.6-16.2-4.6c-5.7,0-11.4,1.9-15.6,5.2c-4.6,3.6-7.2,8.8-7.2,14.4c0,5.4,2,9.9,5.8,13.3c3.3,2.9,7.9,5.1,14.1,6.7
		c0.5,0.1,0.9,0.2,1.4,0.3c3.8,0.8,7.4,1.6,10,2.9c2.7,1.4,4,3.1,4,5.6c0,4.9-5.9,7.1-11.7,7.1c-7.7,0-14.8-4.1-18.6-10.7l-0.3-0.5
		l-9.9,5.4l0.2,0.5c2.3,5,6.2,9.2,11.1,12.1c5,2.9,11,4.4,17.4,4.4c6.9,0,13.1-1.7,17.7-4.8c5-3.4,7.7-8.2,7.7-13.9
		c0.1-5.4-2.2-9.7-6.8-12.9c-4.3-3-10.1-4.8-14.7-5.9c-7.1-2-15.1-4.2-15.1-10.4C262.1,81.3,265.8,77.2,272.1,77.2z"/>
	<path class="st0" d="M415.4,66.7c-4.8,0-9.3,1.4-13,4.1c-3.4,2.4-6.1,5.7-7.9,9.6h-0.6v-12h-12.7v63.3H395V96.4
		c0-2.7,1.1-7.1,3.7-10.9c2.1-3.1,5.9-6.8,12.2-6.8c4.3,0,7.3,1.2,9.3,3.8c1.9,2.5,2.8,6.1,2.8,11.3v38h13.7V92
		c0-7.9-1.8-14.1-5.4-18.5C427.7,69,422.3,66.7,415.4,66.7z"/>
	<path class="st0" d="M501.3,119.2V90.7c0-7-2.2-13-6.5-17.3c-4.4-4.4-10.7-6.8-18.4-6.8c-13.7,0-23.2,6.2-29,19l-0.2,0.5l11.9,5.6
		l0.2-0.5c3.3-7,9.7-11.8,15.9-11.8c7,0,12.3,4.7,12.3,10.9v4.5H473c-16.2,0-26.2,7.8-26.2,20.3c0,5.4,2,10.1,5.9,13.3
		c3.6,3.1,8.6,4.8,14.2,4.8c5.1,0,10-1.5,14-4.3c3.7-2.5,6.6-6.1,8.6-10.3h0.5l-0.1,3.4c0,6.3,3.1,9.6,8.9,9.6h8.9v-10.8h-5.3
		C501.5,120.9,501.3,120,501.3,119.2z M481,116.6c-3.3,2.6-7.4,4.3-10.3,4.3c-2.7,0-5.2-0.6-7-1.8c-1.9-1.2-2.8-2.9-2.8-4.9
		c0-2.7,1.6-4.7,4.8-6.1c2.9-1.3,7-1.9,11.8-1.9h10.1C487,110,484.7,113.7,481,116.6z"/>
	<path class="st0" d="M532.4,119.4c-1,0-1.3-0.2-1.4-0.4c-0.2-0.3-0.4-1-0.4-2.1V45.3h-13.7v72.3c0,4.7,1,8.2,2.9,10.6
		s4.7,3.6,8.4,3.6h13.2v-12.4H532.4z"/>
</g>
</svg>
