<?xml version="1.0" encoding="UTF-8"?>
<svg id="Layer_1" data-name="Layer 1" xmlns="http://www.w3.org/2000/svg" width="520" height="126" viewBox="0 0 520 126">
  <g>
    <path d="M116.57,39.67h.95c.6,0,1.07-.17,1.41-.47s.51-.72.51-1.24c0-1.17-.58-1.75-1.74-1.75-.55,0-.98.16-1.31.47s-.49.73-.49,1.24h-1.27c0-.79.29-1.44.86-1.96.58-.52,1.31-.78,2.2-.78.94,0,1.67.25,2.21.75s.8,1.19.8,2.07c0,.43-.14.85-.42,1.26s-.66.71-1.15.91c.55.17.97.46,1.27.86.3.4.45.89.45,1.47,0,.89-.29,1.6-.88,2.13s-1.34.79-2.28.79-1.69-.25-2.28-.76-.88-1.17-.88-2h1.27c0,.52.17.94.51,1.26.34.31.8.47,1.37.47.61,0,1.08-.16,1.4-.48s.49-.78.49-1.37-.18-1.02-.53-1.33-.87-.47-1.54-.48h-.93v-1.06h0Z"/>
    <path d="M128.83,41.01c0,1.48-.25,2.58-.76,3.3s-1.3,1.08-2.37,1.08-1.85-.35-2.36-1.06c-.51-.7-.77-1.75-.79-3.15v-1.69c0-1.46.25-2.55.76-3.26s1.3-1.07,2.38-1.07,1.86.34,2.37,1.03.77,1.74.78,3.17v1.65s0,0,0,0ZM127.56,39.28c0-1.07-.15-1.85-.45-2.34-.3-.49-.78-.73-1.43-.73s-1.12.24-1.42.73-.45,1.24-.46,2.25v2.02c0,1.08.16,1.87.47,2.38.31.51.79.77,1.42.77s1.09-.24,1.39-.72.46-1.24.48-2.28c0,0,0-2.08,0-2.08Z"/>
    <path d="M121.1,52.64c0,1.13-.26,2.03-.77,2.72s-1.21,1.03-2.09,1.03-1.6-.29-2.12-.85v3.56h-1.26v-10.24h1.16l.06.82c.52-.64,1.23-.96,2.15-.96s1.59.33,2.11,1,.78,1.6.78,2.8v.12h-.02ZM119.84,52.5c0-.83-.18-1.49-.53-1.98s-.84-.72-1.46-.72c-.77,0-1.34.34-1.72,1.02v3.53c.38.67.96,1.01,1.74,1.01.61,0,1.09-.24,1.45-.72.34-.48.52-1.19.52-2.14Z"/>
    <path d="M125.09,51.56l1.64-2.7h1.48l-2.42,3.66,2.5,3.74h-1.46l-1.71-2.77-1.71,2.77h-1.48l2.5-3.74-2.42-3.66h1.46l1.62,2.7Z"/>
  </g>
  <g>
    <path d="M151.28,87.51h-6.52v-.91l3.45-3.83c.51-.58.86-1.05,1.06-1.41.19-.36.29-.74.29-1.12,0-.52-.16-.95-.47-1.28s-.73-.5-1.26-.5c-.63,0-1.12.18-1.47.54s-.52.86-.52,1.49h-1.26c0-.92.29-1.66.89-2.22s1.38-.85,2.37-.85c.93,0,1.66.24,2.19.73.54.48.81,1.13.81,1.94,0,.98-.62,2.15-1.87,3.5l-2.67,2.89h5v1.03h-.02,0Z"/>
    <path d="M158.86,83.26c0,1.48-.25,2.58-.76,3.3s-1.29,1.08-2.37,1.08-1.85-.35-2.36-1.06c-.51-.7-.77-1.75-.79-3.15v-1.69c0-1.46.25-2.55.76-3.26s1.3-1.07,2.38-1.07,1.86.34,2.37,1.03.77,1.74.78,3.17v1.65h-.01ZM157.6,81.53c0-1.07-.15-1.85-.45-2.34s-.78-.73-1.43-.73-1.12.24-1.42.73-.45,1.24-.46,2.25v2.02c0,1.08.16,1.87.47,2.38.31.51.79.77,1.42.77s1.09-.24,1.39-.72.46-1.24.48-2.28c0,0,0-2.08,0-2.08Z"/>
    <path d="M151.14,94.9c0,1.13-.26,2.03-.77,2.72s-1.22,1.03-2.1,1.03-1.6-.29-2.12-.85v3.56h-1.26v-10.24h1.16l.06.82c.52-.64,1.23-.96,2.15-.96s1.59.33,2.11,1,.78,1.6.78,2.8v.12s0,0,0,0ZM149.87,94.74c0-.83-.18-1.49-.53-1.98s-.84-.72-1.46-.72c-.77,0-1.34.34-1.72,1.02v3.53c.38.67.96,1.01,1.74,1.01.61,0,1.09-.24,1.45-.72.35-.48.52-1.19.52-2.14Z"/>
    <path d="M155.12,93.81l1.64-2.7h1.48l-2.42,3.66,2.5,3.74h-1.46l-1.71-2.77-1.71,2.77h-1.47l2.5-3.74-2.42-3.66h1.46l1.61,2.7h0Z"/>
  </g>
  <g>
    <rect x="141.3" y="30.34" width="110.27" height="30" fill="#052c50"/>
    <g>
      <path d="M162.18,39.76h3.41c1.09,0,1.96.28,2.63.85s1,1.32,1,2.27c0,.62-.19,1.16-.57,1.63s-.84.81-1.38,1.02v.06c.73.18,1.33.51,1.8.98s.71,1.09.71,1.85c0,.95-.36,1.7-1.06,2.26-.71.55-1.64.83-2.79.83h-3.74v-11.75h-.01ZM165.6,45.25c.54,0,1.02-.11,1.44-.32s.74-.5.96-.86.34-.77.34-1.22c0-.78-.26-1.35-.77-1.71-.51-.36-1.2-.54-2.06-.54h-2.46v4.66h2.55ZM165.84,50.69c.94,0,1.68-.19,2.23-.57s.82-.94.82-1.69-.28-1.32-.84-1.74c-.56-.43-1.29-.64-2.18-.64h-2.83v4.64h2.8,0Z" fill="#fff"/>
      <path d="M171.47,41.08c-.16-.15-.23-.34-.23-.55s.08-.39.23-.54.34-.22.55-.22.39.07.54.22.22.33.22.54-.07.4-.22.55-.33.23-.54.23-.4-.08-.55-.23ZM171.59,42.95h.86v8.56h-.86v-8.56Z" fill="#fff"/>
      <path d="M176.62,51.26c-.59-.34-1.07-.85-1.43-1.53s-.54-1.5-.54-2.47c0-.86.17-1.64.51-2.34.34-.69.81-1.23,1.42-1.62.6-.39,1.28-.58,2.02-.58s1.37.18,1.91.54.95.86,1.24,1.48.43,1.33.43,2.1v.64h-6.66c.03.76.19,1.4.48,1.92s.66.91,1.11,1.17.94.38,1.45.38c.58,0,1.12-.15,1.64-.46.52-.3.92-.74,1.22-1.3l.69.38c-.37.7-.88,1.25-1.53,1.62s-1.33.57-2.06.57c-.67,0-1.31-.16-1.9-.5h0ZM181.3,46.69c-.02-.98-.28-1.76-.78-2.33s-1.15-.86-1.95-.86c-.49,0-.95.12-1.39.36s-.8.6-1.09,1.08-.46,1.06-.53,1.74h5.74,0Z" fill="#fff"/>
      <path d="M184.44,42.95h.74v1.9h.08c.23-.6.64-1.1,1.21-1.52s1.21-.62,1.91-.62c.95,0,1.67.3,2.17.9s.74,1.45.74,2.56v5.34h-.86v-5.33c0-.93-.18-1.6-.55-2.02s-.92-.62-1.64-.62c-.59,0-1.1.19-1.54.56-.44.37-.78.81-1.02,1.31s-.36.92-.36,1.26v4.83h-.86v-8.55h-.02Z" fill="#fff"/>
      <path d="M195.42,51.26c-.59-.34-1.07-.85-1.43-1.53s-.54-1.5-.54-2.47c0-.86.17-1.64.51-2.34.34-.69.81-1.23,1.42-1.62.6-.39,1.28-.58,2.02-.58s1.37.18,1.91.54.95.86,1.24,1.48.43,1.33.43,2.1v.64h-6.66c.03.76.19,1.4.48,1.92s.66.91,1.11,1.17.94.38,1.45.38c.58,0,1.12-.15,1.64-.46.52-.3.92-.74,1.22-1.3l.69.38c-.37.7-.88,1.25-1.53,1.62s-1.33.57-2.06.57c-.67,0-1.31-.16-1.9-.5h0ZM200.1,46.69c-.02-.98-.28-1.76-.78-2.33s-1.15-.86-1.95-.86c-.49,0-.95.12-1.39.36s-.8.6-1.09,1.08-.46,1.06-.53,1.74h5.74,0Z" fill="#fff"/>
      <path d="M204.21,51.17c-.63-.39-1.11-.93-1.46-1.62l.8-.4c.3.59.71,1.04,1.22,1.34.52.31,1.1.46,1.74.46s1.13-.13,1.54-.4.62-.63.62-1.09c0-.32-.1-.58-.3-.79s-.46-.37-.76-.49c-.3-.12-.72-.26-1.26-.42-.66-.19-1.19-.37-1.58-.54s-.72-.41-1-.73-.42-.74-.42-1.26.15-1.01.45-1.39.68-.67,1.14-.86.94-.28,1.43-.28c.77,0,1.43.2,1.98.6s.95.93,1.21,1.58l-.8.27c-.21-.53-.53-.94-.95-1.22-.42-.28-.92-.42-1.48-.42-.59,0-1.08.15-1.5.46-.4.32-.6.73-.6,1.23,0,.35.11.64.33.86s.48.39.78.51.75.27,1.34.44c.62.18,1.12.35,1.5.52s.71.4.98.7c.27.3.4.7.4,1.18,0,.77-.3,1.35-.9,1.75s-1.34.6-2.2.6-1.62-.2-2.25-.59h0Z" fill="#fff"/>
      <path d="M212.81,51.1c-.21-.27-.31-.66-.31-1.16v-6.19h-1.47v-.8h1.46v-1.92h.86v1.92h2.34v.8h-2.32v6.5c0,.16.02.27.06.33s.12.09.25.09h2.02v.85h-2.02c-.38,0-.66-.15-.87-.42Z" fill="#fff"/>
      <path d="M218.09,51.08c-.51-.42-.76-1.01-.76-1.77s.34-1.4,1.02-1.86c.68-.46,1.57-.69,2.66-.69h2.18v-1.09c0-.64-.19-1.15-.58-1.54-.38-.39-.92-.58-1.6-.58-.61,0-1.18.18-1.72.54s-.94.89-1.19,1.57l-.77-.37c.32-.8.81-1.43,1.48-1.89s1.41-.69,2.23-.69c.95,0,1.69.28,2.22.84s.79,1.27.79,2.12v4.77c0,.07.02.14.06.19s.08.08.14.08h.77v.8h-.85c-.34,0-.58-.1-.73-.3-.14-.2-.22-.5-.22-.9l.02-.85h-.13c-.28.67-.69,1.21-1.22,1.62-.54.41-1.17.62-1.88.62-.78,0-1.41-.2-1.92-.62h0ZM218.75,50.49c.36.26.82.38,1.38.38.5,0,.97-.14,1.42-.43.44-.29.81-.69,1.1-1.2s.47-1.1.54-1.76h-2.14c-.81,0-1.49.16-2.02.48-.54.32-.81.77-.81,1.34,0,.54.17.94.53,1.19Z" fill="#fff"/>
      <path d="M227.11,42.95h.7v1.36h.06c.33-.92,1.1-1.38,2.3-1.38h.67v.85h-1.17c-.57,0-.99.17-1.28.5s-.43.78-.43,1.34v5.89h-.86v-8.56s0,0,0,0Z" fill="#fff"/>
    </g>
  </g>
  <g>
    <path d="M306.14,47.83v3.69h-1.73v-9.95h3.81c1.11,0,2,.29,2.65.87s.98,1.35.98,2.3-.32,1.74-.96,2.28-1.54.81-2.69.81c0,0-2.06,0-2.06,0ZM306.14,46.43h2.08c.62,0,1.08-.14,1.41-.43s.49-.71.49-1.25-.16-.97-.49-1.29-.78-.49-1.35-.5h-2.13v3.47h0Z"/>
    <path d="M317.67,50.78c-.49.57-1.18.86-2.08.86-.8,0-1.41-.23-1.82-.7s-.62-1.15-.62-2.04v-4.79h1.66v4.77c0,.94.39,1.41,1.17,1.41s1.35-.29,1.63-.87v-5.31h1.66v7.4h-1.57l-.03-.73h0Z"/>
    <path d="M322.74,51.52h-1.66v-10.5h1.66v10.5Z"/>
    <path d="M328.7,49.51c0-.3-.12-.52-.37-.68-.24-.15-.65-.29-1.21-.41s-1.04-.27-1.42-.45c-.83-.4-1.24-.98-1.24-1.74,0-.64.27-1.17.81-1.6s1.22-.64,2.05-.64c.88,0,1.6.22,2.14.66s.82,1,.82,1.7h-1.66c0-.32-.12-.58-.36-.8s-.55-.32-.94-.32c-.36,0-.66.08-.89.25s-.35.39-.35.68c0,.26.11.45.32.59s.65.28,1.3.43,1.16.31,1.53.51.65.44.83.71c.18.28.27.62.27,1.01,0,.67-.28,1.2-.83,1.62s-1.26.62-2.16.62c-.61,0-1.15-.11-1.62-.33s-.84-.52-1.11-.9-.4-.8-.4-1.24h1.61c.02.39.17.69.44.91s.64.32,1.09.32.77-.08,1-.25.35-.38.35-.65h0Z"/>
    <path d="M331.46,47.75c0-.72.14-1.38.43-1.96s.69-1.03,1.21-1.34,1.12-.47,1.79-.47c1,0,1.81.32,2.43.96s.96,1.49,1.01,2.56v.39c0,.73-.13,1.38-.41,1.96-.28.57-.68,1.02-1.2,1.33s-1.12.47-1.81.47c-1.04,0-1.88-.35-2.5-1.04-.63-.69-.94-1.62-.94-2.78v-.08h0ZM333.12,47.89c0,.76.16,1.36.47,1.79s.75.65,1.31.65,1-.22,1.31-.66.47-1.08.47-1.92c0-.75-.16-1.34-.48-1.78s-.76-.66-1.31-.66-.97.22-1.29.65-.48,1.08-.48,1.93h0Z"/>
    <path d="M345.12,50.14h4.52v1.38h-6.25v-9.95h1.73v8.57Z"/>
    <path d="M350.81,42.19c0-.26.08-.47.24-.64s.39-.25.69-.25.53.08.7.25.25.38.25.64-.08.46-.25.63-.4.25-.7.25-.53-.08-.69-.25-.24-.38-.24-.63ZM352.57,51.52h-1.66v-7.4h1.66v7.4Z"/>
    <path d="M354.09,47.76c0-1.15.27-2.07.81-2.75.54-.69,1.26-1.03,2.15-1.03.84,0,1.51.29,1.99.88l.08-.75h1.5v7.17c0,.97-.3,1.74-.91,2.3-.6.56-1.42.84-2.44.84-.54,0-1.07-.11-1.59-.34s-.91-.52-1.18-.89l.79-1c.51.61,1.14.91,1.89.91.55,0,.99-.15,1.31-.45s.48-.74.48-1.32v-.5c-.48.53-1.12.8-1.91.8-.87,0-1.57-.34-2.12-1.03-.58-.67-.85-1.62-.85-2.84ZM355.74,47.91c0,.74.15,1.33.46,1.75.3.43.72.64,1.26.64.67,0,1.17-.29,1.49-.86v-3.25c-.31-.56-.81-.84-1.48-.84-.55,0-.97.22-1.27.65-.31.43-.46,1.07-.46,1.91Z"/>
    <path d="M363.95,44.93c.54-.63,1.23-.94,2.06-.94,1.58,0,2.38.9,2.4,2.7v4.83h-1.66v-4.77c0-.51-.11-.87-.33-1.08s-.55-.32-.97-.32c-.67,0-1.16.3-1.49.89v5.28h-1.66v-10.5h1.66v3.91h-.01Z"/>
    <path d="M372.17,42.32v1.8h1.31v1.23h-1.31v4.13c0,.28.06.49.17.61.11.13.31.19.6.19.19,0,.38-.02.58-.07v1.29c-.38.1-.74.16-1.09.16-1.28,0-1.91-.7-1.91-2.11v-4.2h-1.22v-1.23h1.22v-1.8h1.65Z"/>
    <path d="M382.63,51.52h-1.65v-8l-2.44.83v-1.39l3.88-1.43h.21s0,9.99,0,9.99Z"/>
    <path d="M391.25,41.52v1.37h-.21c-.93,0-1.67.27-2.23.77s-.89,1.2-.99,2.11c.53-.56,1.21-.84,2.04-.84.88,0,1.57.31,2.08.93.51.62.76,1.42.76,2.4s-.3,1.83-.89,2.46c-.6.63-1.38.94-2.34.94s-1.8-.37-2.42-1.1c-.62-.73-.93-1.7-.93-2.88v-.57c0-1.75.42-3.11,1.27-4.1.85-.99,2.07-1.48,3.67-1.48h.19ZM389.47,46.27c-.36,0-.7.1-1,.31s-.52.48-.67.82v.51c0,.74.16,1.33.46,1.76s.71.65,1.2.65.88-.18,1.17-.55.43-.85.43-1.46-.15-1.09-.44-1.47-.67-.57-1.15-.57Z"/>
    <path d="M400.63,47.89c0,1.14-.26,2.06-.78,2.74s-1.21,1.02-2.09,1.02c-.81,0-1.46-.27-1.95-.8v3.51h-1.66v-10.24h1.53l.07.75c.49-.59,1.15-.89,1.99-.89.9,0,1.61.34,2.12,1.01s.77,1.61.77,2.8v.1h0ZM398.97,47.75c0-.74-.15-1.32-.44-1.76-.29-.43-.71-.65-1.26-.65-.68,0-1.17.28-1.46.84v3.28c.3.57.79.86,1.48.86.53,0,.94-.21,1.24-.64.29-.42.44-1.06.44-1.93Z"/>
    <path d="M404.11,42.32v1.8h1.31v1.23h-1.31v4.13c0,.28.06.49.17.61.11.13.31.19.6.19.19,0,.38-.02.58-.07v1.29c-.38.1-.74.16-1.09.16-1.28,0-1.91-.7-1.91-2.11v-4.2h-1.23v-1.23h1.22v-1.8h1.66Z"/>
  </g>
  <line x1="261.59" y1="46.45" x2="291.9" y2="46.45" fill="none" stroke="#009fe3" stroke-miterlimit="10" stroke-width=".5"/>
  <g>
    <path d="M241.37,87.51h-6.52v-.91l3.45-3.83c.51-.58.86-1.05,1.06-1.41.19-.36.29-.74.29-1.12,0-.52-.16-.95-.47-1.28s-.73-.5-1.26-.5c-.63,0-1.12.18-1.47.54s-.52.86-.52,1.49h-1.26c0-.92.29-1.66.89-2.22s1.38-.85,2.37-.85c.93,0,1.66.24,2.19.73.54.48.81,1.13.81,1.94,0,.98-.62,2.15-1.87,3.5l-2.67,2.89h5v1.03h-.02,0Z"/>
    <path d="M248.95,83.26c0,1.48-.25,2.58-.76,3.3s-1.3,1.08-2.37,1.08-1.85-.35-2.36-1.06c-.51-.7-.77-1.75-.79-3.15v-1.69c0-1.46.25-2.55.76-3.26s1.3-1.07,2.38-1.07,1.86.34,2.37,1.03.77,1.74.78,3.17v1.65h-.01ZM247.7,81.53c0-1.07-.15-1.85-.45-2.34s-.78-.73-1.43-.73-1.12.24-1.42.73-.45,1.24-.46,2.25v2.02c0,1.08.16,1.87.47,2.38.31.51.79.77,1.42.77s1.09-.24,1.39-.72.46-1.24.48-2.28c0,0,0-2.08,0-2.08Z"/>
    <path d="M241.23,94.9c0,1.13-.26,2.03-.77,2.72s-1.22,1.03-2.09,1.03-1.6-.29-2.12-.85v3.56h-1.26v-10.24h1.16l.06.82c.52-.64,1.23-.96,2.15-.96s1.59.33,2.11,1,.78,1.6.78,2.8v.12s-.02,0-.02,0ZM239.97,94.74c0-.83-.18-1.49-.53-1.98s-.84-.72-1.46-.72c-.77,0-1.34.34-1.72,1.02v3.53c.38.67.96,1.01,1.74,1.01.61,0,1.09-.24,1.45-.72.34-.48.52-1.19.52-2.14Z"/>
    <path d="M245.22,93.81l1.64-2.7h1.48l-2.42,3.66,2.5,3.74h-1.46l-1.71-2.77-1.71,2.77h-1.47l2.5-3.74-2.42-3.66h1.46l1.61,2.7h0Z"/>
  </g>
  <line x1="251.57" y1="24.65" x2="251.57" y2="65.83" fill="none" stroke="#ff06ff" stroke-miterlimit="10" stroke-width=".5"/>
  <line x1="231.69" y1="24.65" x2="231.69" y2="65.83" fill="none" stroke="#ff06ff" stroke-miterlimit="10" stroke-width=".5"/>
  <line x1="161.48" y1="24.65" x2="161.48" y2="65.83" fill="none" stroke="#ff06ff" stroke-miterlimit="10" stroke-width=".5"/>
  <line x1="141.6" y1="24.65" x2="141.6" y2="65.83" fill="none" stroke="#ff06ff" stroke-miterlimit="10" stroke-width=".5"/>
  <g>
    <line x1="142.19" y1="46.45" x2="143.19" y2="46.45" fill="none" stroke="#ff06ff" stroke-miterlimit="10" stroke-width=".5"/>
    <line x1="145.22" y1="46.45" x2="249.56" y2="46.45" fill="none" stroke="#ff06ff" stroke-dasharray="2.03 2.03" stroke-miterlimit="10" stroke-width=".5"/>
    <line x1="250.57" y1="46.45" x2="251.57" y2="46.45" fill="none" stroke="#ff06ff" stroke-miterlimit="10" stroke-width=".5"/>
  </g>
</svg>