<?xml version="1.0" encoding="utf-8"?>
<!-- Generator: Adobe Illustrator 27.3.1, SVG Export Plug-In . SVG Version: 6.00 Build 0)  -->
<svg version="1.1" id="Layer_1" xmlns="http://www.w3.org/2000/svg" xmlns:xlink="http://www.w3.org/1999/xlink" x="0px" y="0px"
	 viewBox="0 0 451.3 277.2" style="enable-background:new 0 0 451.3 277.2;" xml:space="preserve">
<style type="text/css">
	.st0{fill:#FFFFFF;}
	.st1{fill:#00DCA9;}
</style>
<polygon class="st0" points="262.1,200 262.1,219 189.3,219 189.3,200 188.5,200 188.5,238.8 189.3,238.8 189.3,219.8 262.1,219.8 
	262.1,238.8 262.9,238.8 262.9,200 "/>
<g>
	<g>
		<path class="st1" d="M221.1,129c-5.7,0-10.3,4.6-10.3,10.3s4.6,10.3,10.3,10.3s10.3-4.6,10.3-10.3
			C231.4,133.5,226.8,129,221.1,129z M221.1,145.4c-3.4,0-6.2-2.8-6.2-6.2s2.8-6.2,6.2-6.2s6.2,2.8,6.2,6.2S224.5,145.4,221.1,145.4
			z"/>
		<path class="st1" d="M192.4,123.4c-0.8,0.7-1.2,1.8-1.2,3.2v3.3h-2.3v3.5h2.3V149h4.2v-15.6h4.2v-3.5h-4.2v-3.3
			c0-0.6,0.2-0.8,0.7-0.8h4.4v-3.4h-4.9C194.2,122.3,193.1,122.7,192.4,123.4z"/>
		<path class="st1" d="M206.7,145c-0.1-0.1-0.1-0.3-0.1-0.6v-22h-4.2v22.2c0,1.4,0.3,2.5,0.9,3.3c0.6,0.7,1.4,1.1,2.6,1.1h4.1v-3.8
			h-2.7C206.8,145.2,206.7,145.1,206.7,145z"/>
		<polygon class="st1" points="258.4,129.5 254.2,145.5 254.1,145.5 249.4,129.6 249.4,129.5 245.1,129.5 240.6,145.5 240.6,145.5 
			236.1,129.5 231.6,129.5 237.4,148.8 237.4,149 243.2,149 247.2,135.3 251,149 256.9,149 262.5,129.5 		"/>
		<path class="st1" d="M224,138.9l-4.3-2.5c-0.1-0.1-0.2-0.1-0.4,0l0,0c-0.1,0.1-0.2,0.2-0.2,0.3v4.9c0,0.1,0.1,0.2,0.2,0.3
			c0.1,0,0.1,0.1,0.2,0.1s0.1,0,0.2-0.1l4.3-2.5c0.1-0.1,0.2-0.2,0.2-0.3C224.1,139.1,224.1,139,224,138.9z"/>
	</g>
</g>
</svg>
