<?xml version="1.0" encoding="utf-8"?>
<!-- Generator: Adobe Illustrator 27.3.1, SVG Export Plug-In . SVG Version: 6.00 Build 0)  -->
<svg version="1.1" id="Layer_1" xmlns="http://www.w3.org/2000/svg" xmlns:xlink="http://www.w3.org/1999/xlink" x="0px" y="0px"
	 viewBox="0 0 315.6 125.6" style="enable-background:new 0 0 315.6 125.6;" xml:space="preserve">
<style type="text/css">
	.st0{fill:#00DCAA;}
	.st1{fill:#FF0000;}
</style>
<g>
	<path class="st0" d="M93.2,52.4h4.9v-2.5c0-2.8,0.3-4.9,0.9-6.3c0.6-1.4,1.7-2.5,3.3-3.4c1.6-0.9,3.7-1.3,6.1-1.3
		c2.5,0,5,0.4,7.5,1.1l-1.2,6.2c-1.4-0.3-2.8-0.5-4.1-0.5c-1.3,0-2.2,0.3-2.8,0.9c-0.6,0.6-0.8,1.8-0.8,3.5v2.4h6.7v7h-6.7v26.7
		h-8.9V59.4h-4.9V52.4z"/>
	<rect x="118.8" y="39.6" class="st0" width="8.9" height="46.5"/>
	<g>
		<path class="st0" d="M143.9,69.2c0,3.3,0.8,5.9,2.4,7.7c1.6,1.8,3.5,2.7,5.9,2.7c2.3,0,4.3-0.9,5.9-2.7c1.6-1.8,2.4-4.4,2.4-7.7
			c0-3.3-0.8-5.8-2.4-7.6c-1.6-1.8-3.5-2.7-5.9-2.7c-2.3,0-4.3,0.9-5.9,2.7C144.7,63.3,143.9,65.9,143.9,69.2 M134.8,68.7
			c0-3,0.7-5.8,2.2-8.6c1.5-2.8,3.5-4.9,6.2-6.3c2.7-1.5,5.7-2.2,9-2.2c5.1,0,9.3,1.7,12.5,5c3.3,3.3,4.9,7.5,4.9,12.5
			c0,5.1-1.6,9.3-4.9,12.7c-3.3,3.4-7.4,5-12.4,5c-3.1,0-6-0.7-8.8-2.1c-2.8-1.4-4.9-3.4-6.4-6.1C135.5,75.9,134.8,72.6,134.8,68.7"
			/>
	</g>
	<polygon class="st0" points="182.8,86.1 172.1,52.4 180.8,52.4 187.1,74.5 192.9,52.4 201.5,52.4 207.1,74.5 213.6,52.4 
		222.4,52.4 211.5,86.1 203,86.1 197.2,64.4 191.5,86.1 	"/>
</g>
<g>
	<g>
		<path class="st1" d="M298,16.3l-281,91c-0.5,0.2-0.8,0.7-0.6,1.3c0.2,0.5,0.7,0.8,1.3,0.6l281-91c0.5-0.2,0.8-0.7,0.6-1.3
			C299.1,16.5,298.5,16.2,298,16.3"/>
	</g>
</g>
</svg>
