<?xml version="1.0" encoding="utf-8"?>
<!-- Generator: Adobe Illustrator 27.3.1, SVG Export Plug-In . SVG Version: 6.00 Build 0)  -->
<svg version="1.1" id="Layer_1" xmlns="http://www.w3.org/2000/svg" xmlns:xlink="http://www.w3.org/1999/xlink" x="0px" y="0px"
	 viewBox="0 0 315.6 125.6" style="enable-background:new 0 0 315.6 125.6;" xml:space="preserve">
<style type="text/css">
	.st0{fill:#212121;}
	.st1{fill:#00DCAA;}
	.st2{fill:#FF0000;}
</style>
<g>
	<polygon class="st0" points="53.4,67.7 61.5,67.7 61.5,70.8 49.5,70.8 49.5,52.1 53.4,52.1 	"/>
	<g>
		<path class="st0" d="M66.6,64c0,1.3,0.2,2.3,0.7,3c0.5,0.7,1.2,1,2.1,1c0.9,0,1.6-0.3,2.1-1c0.5-0.7,0.8-1.8,0.8-3.3
			c0-1.3-0.3-2.3-0.8-3c-0.5-0.7-1.2-1.1-2.1-1.1c-0.9,0-1.6,0.4-2.1,1.1C66.9,61.4,66.6,62.5,66.6,64 M62.9,63.7
			c0-1.4,0.3-2.6,0.8-3.7c0.5-1.1,1.3-1.9,2.3-2.5c1-0.6,2.2-0.9,3.5-0.9c1.9,0,3.4,0.6,4.6,1.7c1.2,1.1,1.8,2.7,2,4.7l0,0.9
			c0,2.1-0.6,3.8-1.8,5.1c-1.2,1.3-2.8,1.9-4.8,1.9c-2,0-3.6-0.6-4.8-1.9c-1.2-1.3-1.8-3-1.8-5.2V63.7z"/>
		<path class="st0" d="M86.1,60.4c-0.5-0.1-0.9-0.1-1.3-0.1c-1.4,0-2.3,0.5-2.8,1.4v9.1h-3.7V56.9h3.5l0.1,1.7
			c0.7-1.3,1.8-1.9,3.1-1.9c0.4,0,0.8,0.1,1.2,0.2L86.1,60.4z"/>
		<path class="st0" d="M93.6,59.6c-0.7,0-1.3,0.2-1.8,0.7c-0.5,0.5-0.7,1.2-0.9,2.1h5.2v-0.3c0-0.8-0.2-1.5-0.7-1.9
			C95,59.9,94.4,59.6,93.6,59.6 M94,71c-2,0-3.7-0.6-5-1.9c-1.3-1.2-1.9-2.9-1.9-5v-0.4c0-1.4,0.3-2.6,0.8-3.7
			c0.5-1.1,1.3-1.9,2.3-2.5c1-0.6,2.1-0.9,3.4-0.9c1.9,0,3.4,0.6,4.5,1.8c1.1,1.2,1.6,2.9,1.6,5.1V65h-8.8c0.1,0.9,0.5,1.6,1.1,2.2
			c0.6,0.5,1.4,0.8,2.3,0.8c1.4,0,2.5-0.5,3.3-1.6l1.8,2c-0.6,0.8-1.3,1.4-2.3,1.8C96.2,70.8,95.2,71,94,71"/>
		<path class="st0" d="M105.3,56.9l0.1,1.6c1-1.2,2.3-1.8,4-1.8c1.8,0,3,0.7,3.7,2.1c1-1.4,2.4-2.1,4.2-2.1c1.5,0,2.6,0.4,3.4,1.3
			c0.7,0.9,1.1,2.2,1.1,4v8.9H118v-8.8c0-0.8-0.2-1.4-0.5-1.7c-0.3-0.4-0.9-0.5-1.6-0.5c-1.1,0-1.9,0.5-2.3,1.6l0,9.5h-3.7v-8.8
			c0-0.8-0.2-1.4-0.5-1.7c-0.3-0.4-0.9-0.5-1.6-0.5c-1.1,0-1.8,0.4-2.3,1.3v9.8h-3.7V56.9H105.3z"/>
		<path class="st0" d="M135,70.8h-3.7V56.9h3.7V70.8z M131.1,53.3c0-0.6,0.2-1,0.6-1.4c0.4-0.4,0.9-0.5,1.5-0.5
			c0.6,0,1.1,0.2,1.5,0.5c0.4,0.4,0.6,0.8,0.6,1.4c0,0.6-0.2,1-0.6,1.4c-0.4,0.4-0.9,0.5-1.5,0.5c-0.6,0-1.1-0.2-1.5-0.5
			C131.3,54.3,131.1,53.9,131.1,53.3"/>
		<path class="st0" d="M146.8,63.7c0-1.3-0.2-2.3-0.7-3c-0.5-0.7-1.1-1.1-2-1.1c-1.2,0-2,0.4-2.4,1.3v5.7c0.5,0.9,1.3,1.4,2.4,1.4
			C145.9,68,146.8,66.6,146.8,63.7 M150.5,64c0,2.1-0.5,3.8-1.5,5.1c-1,1.3-2.3,1.9-3.9,1.9c-1.4,0-2.5-0.5-3.4-1.5v6.5H138V56.9
			h3.4l0.1,1.4c0.9-1.1,2.1-1.6,3.5-1.6c1.7,0,3,0.6,4,1.9c0.9,1.3,1.4,3,1.4,5.2V64z"/>
		<path class="st0" d="M160.3,66.9c0-0.5-0.2-0.8-0.7-1.1c-0.4-0.3-1.2-0.5-2.2-0.7c-3.3-0.7-4.9-2.1-4.9-4.2c0-1.2,0.5-2.3,1.5-3.1
			c1-0.8,2.4-1.2,4-1.2c1.8,0,3.2,0.4,4.2,1.2c1.1,0.8,1.6,1.9,1.6,3.2h-3.7c0-0.5-0.2-1-0.5-1.3c-0.3-0.3-0.9-0.5-1.6-0.5
			c-0.6,0-1.1,0.1-1.4,0.4c-0.3,0.3-0.5,0.6-0.5,1.1c0,0.4,0.2,0.7,0.6,1c0.4,0.3,1,0.5,2,0.7c0.9,0.2,1.7,0.4,2.3,0.6
			c2,0.7,2.9,2,2.9,3.7c0,1.3-0.5,2.3-1.6,3.1c-1.1,0.8-2.5,1.2-4.2,1.2c-1.2,0-2.2-0.2-3.1-0.6c-0.9-0.4-1.6-1-2.1-1.7
			c-0.5-0.7-0.8-1.5-0.8-2.3h3.5c0,0.7,0.3,1.2,0.7,1.5c0.5,0.4,1.1,0.5,1.8,0.5c0.7,0,1.2-0.1,1.6-0.4
			C160.1,67.7,160.3,67.4,160.3,66.9"/>
		<path class="st0" d="M174.6,69.4c-0.9,1.1-2.2,1.7-3.8,1.7c-1.5,0-2.6-0.4-3.4-1.3c-0.8-0.9-1.2-2.1-1.2-3.8v-9.1h3.7v9
			c0,1.4,0.7,2.2,2,2.2c1.3,0,2.1-0.4,2.6-1.3v-9.8h3.7v13.9h-3.5L174.6,69.4z"/>
		<path class="st0" d="M184.5,56.9l0.1,1.6c1-1.2,2.3-1.8,4-1.8c1.8,0,3,0.7,3.7,2.1c1-1.4,2.4-2.1,4.2-2.1c1.5,0,2.6,0.4,3.4,1.3
			c0.7,0.9,1.1,2.2,1.1,4v8.9h-3.7v-8.8c0-0.8-0.2-1.4-0.5-1.7c-0.3-0.4-0.8-0.5-1.6-0.5c-1.1,0-1.9,0.5-2.3,1.6l0,9.5h-3.7v-8.8
			c0-0.8-0.2-1.4-0.5-1.7c-0.3-0.4-0.9-0.5-1.6-0.5c-1.1,0-1.8,0.4-2.3,1.3v9.8H181V56.9H184.5z"/>
		<path class="st1" d="M238.2,62.9c0,2.7-2.2,4.9-4.9,4.9c-2.7,0-4.9-2.2-4.9-4.9c0-2.7,2.2-4.9,4.9-4.9
			C236,58,238.2,60.2,238.2,62.9 M233.3,54.7c-4.5,0-8.1,3.6-8.1,8.1c0,4.5,3.6,8.1,8.1,8.1c4.5,0,8.1-3.6,8.1-8.1
			C241.4,58.4,237.8,54.7,233.3,54.7"/>
		<path class="st1" d="M210.5,50.4c-0.6,0.6-1,1.5-1,2.5v2.6h-1.8v2.8h1.8v12.3h3.3V58.3h3.3v-2.8h-3.3v-2.6c0-0.5,0.2-0.7,0.6-0.7
			h3.5v-2.7h-3.9C212,49.5,211.1,49.8,210.5,50.4"/>
		<path class="st1" d="M221.8,67.5c-0.1-0.1-0.1-0.2-0.1-0.5V49.5h-3.4v17.6c0,1.1,0.2,2,0.7,2.6c0.5,0.6,1.1,0.9,2,0.9h3.2v-3h-2.2
			C222,67.6,221.9,67.5,221.8,67.5"/>
	</g>
	<polygon class="st1" points="262.9,55.2 259.5,67.8 259.4,67.8 255.7,55.3 255.7,55.2 252.3,55.2 248.7,67.8 248.7,67.8 
		245.2,55.2 241.6,55.2 246.2,70.5 246.2,70.6 250.8,70.6 254,59.7 257,70.6 261.6,70.6 266.1,55.2 	"/>
	<g>
		<path class="st1" d="M235.5,62.6L235.5,62.6l-3.4-2c-0.1-0.1-0.2-0.1-0.3,0c0,0,0,0,0,0c-0.1,0.1-0.1,0.1-0.1,0.3v3.9
			c0,0.1,0.1,0.2,0.1,0.3c0,0,0.1,0,0.1,0c0.1,0,0.1,0,0.1,0l3.4-2c0.1-0.1,0.1-0.1,0.1-0.3S235.6,62.7,235.5,62.6"/>
	</g>
</g>
<g>
	<g>
		<path class="st2" d="M298,16.3l-281,91c-0.5,0.2-0.8,0.7-0.6,1.3c0.2,0.5,0.7,0.8,1.3,0.6l281-91c0.5-0.2,0.8-0.7,0.6-1.3
			C299.1,16.5,298.5,16.2,298,16.3"/>
	</g>
</g>
</svg>
