<?xml version="1.0" encoding="utf-8"?>
<!-- Generator: Adobe Illustrator 27.3.1, SVG Export Plug-In . SVG Version: 6.00 Build 0)  -->
<svg version="1.1" id="Layer_1" xmlns="http://www.w3.org/2000/svg" xmlns:xlink="http://www.w3.org/1999/xlink" x="0px" y="0px"
	 viewBox="0 0 315.6 125.6" style="enable-background:new 0 0 315.6 125.6;" xml:space="preserve">
<style type="text/css">
	.st0{fill:#00DCAA;}
	.st1{fill:#FF0000;}
</style>
<g>
	<g>
		<path class="st0" d="M159.4,69.5c-1,6-6.7,10.1-12.7,9.1c-6-1-10.1-6.7-9.1-12.7c1-6,6.7-10.1,12.7-9.1
			C156.3,57.8,160.3,63.4,159.4,69.5 M151.4,49.6c-9.9-1.6-19.4,5.1-21,15.1c-1.6,9.9,5.1,19.4,15.1,21c9.9,1.6,19.4-5.1,21-15.1
			C168.1,60.7,161.4,51.3,151.4,49.6"/>
		<path class="st0" d="M102.5,31.7c-1.6,1.1-2.7,2.9-3.1,5.2l-1,5.8l-4-0.7l-1,6.1l4,0.7L93,76.2l7.4,1.2l4.5-27.4l7.4,1.2l1-6.1
			l-7.4-1.2l1-5.8c0.2-1,0.6-1.4,1.5-1.3l7.7,1.3l1-6.1l-8.6-1.4C106.1,30.2,104.1,30.6,102.5,31.7"/>
		<path class="st0" d="M121.4,73.7c-0.1-0.2-0.1-0.6,0-1.1l6.4-38.7l-7.4-1.2l-6.4,39.1c-0.4,2.5-0.2,4.5,0.6,6
			c0.8,1.4,2.2,2.3,4.2,2.7l7.1,1.2l1.1-6.7l-4.8-0.8C121.6,74,121.4,73.9,121.4,73.7"/>
	</g>
	<polygon class="st0" points="216.9,61.3 204.8,88.2 204.6,88.1 201,58.9 200.9,58.7 193.4,57.5 180.9,84.3 180.9,84.2 177.6,54.9 
		169.8,53.6 174.2,89.3 174.2,89.5 184.5,91.2 195.5,68.3 198.2,93.4 208.5,95.1 224,62.5 	"/>
	<g>
		<path class="st0" d="M153.6,67.9L153.6,67.9l-6.8-5.6c-0.2-0.1-0.4-0.2-0.6-0.1c0,0,0,0,0,0c-0.2,0.1-0.4,0.3-0.4,0.5l-1.4,8.7
			c0,0.2,0.1,0.5,0.2,0.6c0.1,0.1,0.2,0.1,0.3,0.1c0.1,0,0.2,0,0.3,0l8.3-3.1c0.2-0.1,0.4-0.3,0.4-0.5
			C153.8,68.3,153.7,68.1,153.6,67.9"/>
	</g>
</g>
<g>
	<g>
		<path class="st1" d="M298,16.3l-281,91c-0.5,0.2-0.8,0.7-0.6,1.3c0.2,0.5,0.7,0.8,1.3,0.6l281-91c0.5-0.2,0.8-0.7,0.6-1.3
			C299.1,16.5,298.5,16.2,298,16.3"/>
	</g>
</g>
</svg>
