<?xml version="1.0" encoding="UTF-8"?>
<svg id="Layer_1" data-name="Layer 1" xmlns="http://www.w3.org/2000/svg" width="105.83mm" height="24.69mm" viewBox="0 0 300 70">
  <path d="M104.19,14.07c-11.56,0-20.93,9.43-20.93,20.93s9.43,20.93,20.93,20.93,20.93-9.43,20.93-20.93-9.36-20.93-20.93-20.93ZM104.19,47.63c-6.98,0-12.63-5.66-12.63-12.63s5.66-12.63,12.63-12.63,12.63,5.66,12.63,12.63-5.66,12.63-12.63,12.63Z" fill="#fff"/>
  <rect x="96.27" y="33.96" width="3.8" height="5.26" fill="#fff"/>
  <rect x="102.34" y="31.19" width="3.8" height="8.02" fill="#fff"/>
  <rect x="108.3" y="28.7" width="3.8" height="10.52" fill="#fff"/>
  <path d="M155.28,26.55c-3.13,0-5.25,1.85-6.16,4.41h-.24c-.67-2.62-2.46-4.41-5.45-4.41s-5.22,1.75-5.96,3.97h-.24v-3.47h-3.37v18.01h3.67v-9.39c0-2.56,1.41-6.02,4.48-6.02,2.29,0,3.74,1.38,3.74,4.58v10.84h3.67v-9.69c0-2.42,1.51-5.72,4.71-5.72,2.59,0,3.5,1.95,3.5,4.58v10.84h3.67v-11.34c0-4.44-2.15-7.17-6.02-7.17Z" fill="#fff"/>
  <path d="M173.36,26.55c-5.18,0-8.78,3.94-8.78,9.49s3.5,9.49,8.65,9.49,8.72-4.17,8.72-9.52-3.4-9.46-8.58-9.46ZM173.26,42.36c-3.37,0-5.18-2.86-5.18-6.33s1.85-6.33,5.25-6.33,5.12,2.86,5.12,6.33-1.88,6.33-5.18,6.33Z" fill="#fff"/>
  <polygon points="179.05 20.02 179.05 19.55 175.21 19.55 171.94 24.53 174.91 24.53 179.05 20.02" fill="#fff"/>
  <polygon points="191.3 41.96 191.03 41.96 186.21 27.05 182.58 27.05 188.5 45.06 193.55 45.06 199.51 27.05 196.01 27.05 191.3 41.96" fill="#fff"/>
  <path d="M203.58,19.68c-1.35,0-2.42,1.01-2.42,2.29,0,1.35,1.11,2.36,2.46,2.36s2.39-1.01,2.39-2.36-1.11-2.29-2.42-2.29Z" fill="#fff"/>
  <rect x="201.76" y="27.02" width="3.63" height="18.04" fill="#fff"/>
  <path d="M214.32,41.79c-.54,0-.67-.2-.67-.87v-20.56h-3.67v20.77c0,2.66,1.08,3.94,3.1,3.94h3.67v-3.26h-2.42Z" fill="#fff"/>
</svg>