<?xml version="1.0" encoding="UTF-8"?>
<svg id="Layer_1" data-name="Layer 1" xmlns="http://www.w3.org/2000/svg" width="120" height="24" viewBox="0 0 120 24">
  <circle cx="19.54" cy="1.82" r="1.42" fill="#d00086"/>
  <path d="M29.4,5.38h0c.69,0,1.24.56,1.24,1.24v1.32h.17c.55-1.64,2.17-2.94,4.4-2.94s3.53,1.32,4.03,3.26h.17c.67-1.89,2.24-3.26,4.55-3.26,2.86,0,4.45,2.02,4.45,5.3v7.03c0,.75-.61,1.36-1.36,1.36h0c-.75,0-1.36-.61-1.36-1.36v-6.66c0-1.94-.67-3.38-2.59-3.38-2.36,0-3.48,2.44-3.48,4.23v5.81c0,.75-.61,1.36-1.36,1.36h0c-.75,0-1.36-.61-1.36-1.36v-6.66c0-2.36-1.07-3.38-2.76-3.38-2.26,0-3.31,2.56-3.31,4.45v5.59c0,.75-.61,1.36-1.36,1.36h0c-.75,0-1.36-.61-1.36-1.36V6.62c0-.69.56-1.24,1.24-1.24Z" fill="#fff"/>
  <path d="M50.06,13.77v-7.03c0-.75.61-1.36,1.36-1.36h0c.75,0,1.36.61,1.36,1.36v6.61c0,2.44.95,3.43,2.69,3.43,2.49,0,3.38-2.46,3.38-4.45v-5.59c0-.75.61-1.36,1.36-1.36h0c.75,0,1.36.61,1.36,1.36v10.78c0,.65-.53,1.18-1.18,1.18h0c-.65,0-1.18-.53-1.18-1.18v-1.51h-.2c-.72,1.64-2.19,3.09-4.45,3.09-2.91,0-4.48-2.04-4.48-5.33Z" fill="#fff"/>
  <path d="M63.52,15.04l.07-.05c.49-.32,1.12-.21,1.51.23.93,1.05,2.18,1.48,3.42,1.48,1.62,0,2.51-.65,2.51-1.49,0-.92-1.37-1.44-2.96-1.97-2.02-.65-4.7-1.44-4.7-4.33,0-2.24,2.29-3.91,4.63-3.91,2.07,0,3.71.9,4.69,2.2.44.58.22,1.43-.43,1.76h0c-.5.26-1.12.14-1.49-.29-.75-.88-1.85-1.3-2.78-1.3-1.32,0-2.07.67-2.07,1.54,0,1.19,1.42,1.62,3.21,2.21,1.74.57,4.35,1.42,4.35,4.16,0,2.41-2.44,3.76-5.08,3.73-1.92-.02-3.93-.69-5.19-2.31-.41-.53-.26-1.29.29-1.66Z" fill="#d00086"/>
  <path d="M76.04,15.78l-.02-8.24h-.98c-.6,0-1.08-.48-1.08-1.08h0c0-.6.48-1.08,1.08-1.08h.98l.1-1.77c.04-.68.61-1.22,1.29-1.22h0c.71,0,1.29.58,1.29,1.29v1.69h2.23c.6,0,1.08.48,1.08,1.08h0c0,.6-.48,1.08-1.08,1.08h-2.2v8.09c0,.5.12.65.52.65h1.56c.67,0,1.21.54,1.21,1.21h0c0,.67-.54,1.21-1.21,1.21h-2.5c-1.49,0-2.26-.95-2.26-2.91Z" fill="#d00086"/>
  <path d="M82.06,12.02c0-4.11,2.66-7.02,6.49-7.02s6.35,3.01,6.35,6.99-2.64,7.04-6.45,7.04-6.4-2.94-6.4-7.02ZM88.48,16.7c2.44,0,3.83-2.09,3.83-4.68s-1.29-4.68-3.78-4.68-3.88,2.12-3.88,4.68,1.34,4.68,3.83,4.68Z" fill="#d00086"/>
  <path d="M96.42,12.1c0-4.11,2.84-7.09,6.42-7.09,2.28,0,3.99,1.12,4.96,2.94.34.64.06,1.43-.6,1.72h0c-.57.25-1.25.03-1.55-.52-.65-1.18-1.5-1.8-2.85-1.8-1.87,0-3.78,1.62-3.78,4.75,0,2.64,1.64,4.6,4.03,4.6,1.35,0,2.42-.63,3.2-1.56.38-.45,1.04-.51,1.52-.17h0c.54.38.67,1.14.25,1.66-1.29,1.61-3.03,2.41-5.17,2.41-3.63,0-6.42-2.86-6.42-6.94Z" fill="#d00086"/>
  <path d="M111.12,18.69h0c-.75,0-1.36-.61-1.36-1.36V1.76c0-.75.61-1.36,1.36-1.36h0c.75,0,1.36.61,1.36,1.36v9.82h.15l5.07-5.82c.21-.24.52-.38.84-.38h0c.95,0,1.46,1.11.85,1.83l-3.47,4.07,3.84,5.35c.62.86,0,2.07-1.06,2.07h0c-.42,0-.81-.2-1.06-.54l-3.54-4.91-1.62,1.59v2.5c0,.75-.61,1.36-1.36,1.36Z" fill="#d00086"/>
  <path d="M0,12.1C0,7.99,2.84,5.01,6.42,5.01c2.28,0,3.99,1.12,4.96,2.94.34.64.06,1.43-.6,1.72h0c-.58.25-1.25.03-1.56-.52-.65-1.18-1.5-1.8-2.85-1.8-1.87,0-3.78,1.62-3.78,4.75,0,2.64,1.64,4.6,4.03,4.6,1.34,0,2.41-.62,3.19-1.55.38-.45,1.05-.51,1.53-.17h0c.54.38.66,1.14.25,1.65-1.29,1.62-3.04,2.41-5.17,2.41C2.79,19.04,0,16.18,0,12.1Z" fill="#fff"/>
  <path d="M15.73,22.29c-.42,0-.76-.34-.76-.76s.34-.76.76-.76h7.63c.42,0,.76.34.76.76s-.34.76-.76.76h-7.63Z" fill="#d00086"/>
  <path d="M19.54,4.98c-3.88,0-7.02,3.14-7.02,7.02s3.14,7.02,7.02,7.02,7.02-3.14,7.02-7.02-3.14-7.02-7.02-7.02ZM23.14,12.54l-3.05,3.05h0c-.3.3-.78.3-1.08,0l-3.05-3.05c-.3-.3-.3-.78,0-1.08s.78-.3,1.08,0l1.75,1.75v-4.26c0-.42.34-.76.76-.76s.76.34.76.76v4.26l1.75-1.75c.3-.3.78-.3,1.08,0,.3.3.3.78,0,1.08Z" fill="#fff"/>
</svg>