<?xml version="1.0" encoding="UTF-8"?>
<svg xmlns="http://www.w3.org/2000/svg" version="1.1" viewBox="0 0 100 20">
  <defs>
    <style>
      .cls-1 {
        fill: #e10088;
      }

      .cls-2 {
        fill: #fff;
      }
    </style>
  </defs>
  <!-- Generator: Adobe Illustrator 28.6.0, SVG Export Plug-In . SVG Version: 1.2.0 Build 709)  -->
  <g>
    <g id="Layer_1">
      <g>
        <g>
          <circle class="cls-1" cx="16.1" cy="1.6" r="1.2"/>
          <path class="cls-2" d="M24.3,4.5h0c.6,0,1,.5,1,1v1.1c.5-1.4,1.9-2.4,3.8-2.4s2.9,1.1,3.3,2.7h0c.6-1.6,2-2.7,3.9-2.7s3.7,1.7,3.7,4.4v5.8c0,.6-.5,1.1-1.1,1.1h0c-.6,0-1.1-.5-1.1-1.1v-5.5c0-1.6-.6-2.8-2.1-2.8s-2.9,2-2.9,3.5v4.8c0,.6-.5,1.1-1.1,1.1h0c-.6,0-1.1-.5-1.1-1.1v-5.5c0-2-.9-2.8-2.3-2.8s-2.7,2.1-2.7,3.7v4.6c0,.6-.5,1.1-1.1,1.1h0c-.6,0-1.1-.5-1.1-1.1V5.6c0-.6.5-1,1-1Z"/>
          <path class="cls-2" d="M41.3,11.5v-5.8c0-1.5,2.2-1.5,2.2,0,0,0,0,5.5,0,5.5,0,2,.8,2.8,2.2,2.8,2.1,0,2.8-2,2.8-3.7v-4.6c0-1.5,2.2-1.5,2.2,0,0,0,0,8.9,0,8.9,0,.5-.4,1-1,1-.5,0-1-.4-1-1v-1.2c-1.7,4-7.8,3.3-7.5-1.8Z"/>
          <path class="cls-1" d="M52.4,12.5c.4-.3,1-.2,1.3.1,1,1.4,4.7,1.8,4.9,0,0-.8-1.1-1.2-2.4-1.6-1.7-.5-3.9-1.2-3.9-3.6.3-3.8,5.8-4.1,7.7-1.4.4.5.2,1.2-.4,1.5-.4.2-.9.1-1.2-.2-.6-.7-1.5-1.1-2.3-1.1-1.1,0-1.7.6-1.7,1.3s1.2,1.3,2.6,1.8c1.4.5,3.6,1.2,3.6,3.4s-2,3.1-4.2,3.1c-1.6,0-3.2-.6-4.3-1.9s-.2-1.1.2-1.4Z"/>
          <path class="cls-1" d="M62.7,13.1v-6.8h-.8c-.5,0-.9-.4-.9-.9,0-.5.4-.9.9-.9h.8v-1.5c.1-.6.6-1,1.2-1,.6,0,1.1.5,1.1,1.1,0,0,0,1.4,0,1.4h1.8c.5,0,.9.4.9.9,0,.5-.4.9-.9.9,0,0-1.8,0-1.8,0v6.7c0,.4.1.5.4.5h1.3c.5,0,1,.4,1,1,0,.5-.4,1-1,1h-2.1c-1.2,0-1.9-.8-1.9-2.4Z"/>
          <path class="cls-1" d="M80.5,10.1c0-3.4,2.3-5.9,5.3-5.9s3.3.9,4.1,2.4c.3.5,0,1.2-.5,1.4h0c-.5.2-1,0-1.3-.4-.5-1-1.2-1.5-2.4-1.5s-3.1,1.3-3.1,3.9,1.4,3.8,3.3,3.8,2-.5,2.6-1.3.9-.4,1.3-.1h0c.4.3.5.9.2,1.4-1.1,1.3-2.5,2-4.3,2-3,0-5.3-2.4-5.3-5.7Z"/>
          <path class="cls-1" d="M92.7,15.5h0c-.6,0-1.1-.5-1.1-1.1V1.6c0-.6.5-1.1,1.1-1.1h0c.6,0,1.1.5,1.1,1.1v8.1h.1l4.2-4.8c.2-.2.4-.3.7-.3h0c.8,0,1.2.9.7,1.5l-2.9,3.4,3.2,4.4c.5.7,0,1.7-.9,1.7h0c-.3,0-.7-.2-.9-.4l-2.9-4.1-1.3,1.3v2.1c0,.6-.5,1.1-1.1,1.1Z"/>
          <path class="cls-2" d="M0,10.1C0,6.7,2.3,4.2,5.3,4.2s3.3.9,4.1,2.4c.6,1.2-1.1,2.1-1.8,1-1.6-2.9-5.6-1.4-5.5,2.4-.1,3.5,3.8,5.1,6,2.5.8-.9,2.2.3,1.5,1.2C6.3,17.8-.1,15.6,0,10.1Z"/>
          <path class="cls-1" d="M13,18.5c-.3,0-.6-.3-.6-.6s.3-.6.6-.6h6.3c.3,0,.6.3.6.6s-.3.6-.6.6h-6.3Z"/>
          <path class="cls-2" d="M16.1,4.2c-3.2,0-5.8,2.6-5.8,5.8s2.6,5.8,5.8,5.8,5.8-2.6,5.8-5.8-2.6-5.8-5.8-5.8ZM19.1,10.4l-2.5,2.5h0c-.2.2-.6.2-.9,0l-2.5-2.5c-.2-.2-.2-.6,0-.9s.6-.2.9,0l1.4,1.4v-3.5c0-.3.3-.6.6-.6s.6.3.6.6v3.5l1.4-1.4c.2-.2.6-.2.9,0,.2.2.2.6,0,.9Z"/>
        </g>
        <path class="cls-1" d="M73.5,4.2c-3.2,0-5.8,2.6-5.8,5.8s2.6,5.8,5.8,5.8,5.8-2.6,5.8-5.8-2.6-5.8-5.8-5.8ZM73.5,13.8c-2.1,0-3.8-1.7-3.8-3.8s1.7-3.8,3.8-3.8,3.8,1.7,3.8,3.8-1.7,3.8-3.8,3.8Z"/>
      </g>
    </g>
  </g>
</svg>