<?xml version="1.0" encoding="UTF-8"?>
<svg id="Capa_1" data-name="Capa 1" xmlns="http://www.w3.org/2000/svg" width="2867.44" height="739.31" viewBox="0 0 2867.44 739.31">
  <g>
    <g>
      <path d="M185,248.43c0-38.77,24.2-66.72,56.86-66.72,24.43,0,40.41,14.1,47.69,34.3l-11.75,3.99c-6.58-18.33-19.97-26.55-36.42-26.55-21.85,0-43.47,17.86-43.47,54.98,0,30.78,18.09,54.04,44.64,54.04,17.86,0,33.6-9.63,42.05-25.61l10.1,5.64c-11.04,20.67-30.07,31.72-52.63,31.72-34.54,0-57.09-28.19-57.09-65.78Z" fill="#fff"/>
      <path d="M309.76,278.51c0-23.26,22.32-37.36,54.04-37.36h31.95v-15.98c0-18.56-11.51-31.25-31.95-31.25-16.68,0-34.77,10.1-42.76,31.01l-11.28-5.4c9.4-23.73,30.78-37.83,54.51-37.83,29.13,0,44.17,19.5,44.17,43.46v70.01c0,2.35,1.41,3.99,2.82,3.99h11.28v11.75h-12.45c-10.34,0-13.86-6.34-13.86-17.62l.24-12.45h-1.88c-7.75,19.03-23.97,32.89-45.58,32.89s-39.24-11.98-39.24-35.24ZM350.87,301.53c22.09,0,42.05-20.2,44.88-49.81h-31.48c-22.55,0-41.59,9.16-41.59,26.78,0,16.45,12.69,23.02,28.19,23.02Z" fill="#fff"/>
      <path d="M438.98,247.73c0-40.41,24.43-66.02,56.15-66.02,23.96,0,38.53,15.04,44.4,31.72h1.18v-75.18h11.75v172.68h-11.75v-27.72h-.94c-6.34,16.21-20.67,31.25-44.87,31.25-32.89,0-55.92-27.49-55.92-66.72ZM495.13,302.71c28.66,0,44.64-25.84,44.64-55.21s-14.8-54.04-44.17-54.04c-25.37,0-43.7,19.5-43.7,54.04s16.68,55.21,43.23,55.21Z" fill="#fff"/>
      <path d="M580.65,278.51c0-23.26,22.32-37.36,54.04-37.36h31.95v-15.98c0-18.56-11.51-31.25-31.95-31.25-16.68,0-34.77,10.1-42.76,31.01l-11.28-5.4c9.4-23.73,30.78-37.83,54.51-37.83,29.13,0,44.17,19.5,44.17,43.46v70.01c0,2.35,1.41,3.99,2.82,3.99h11.28v11.75h-12.45c-10.34,0-13.86-6.34-13.86-17.62l.24-12.45h-1.88c-7.75,19.03-23.96,32.89-45.58,32.89s-39.24-11.98-39.24-35.24ZM621.77,301.53c22.08,0,42.06-20.2,44.87-49.81h-31.48c-22.55,0-41.59,9.16-41.59,26.78,0,16.45,12.69,23.02,28.19,23.02Z" fill="#fff"/>
      <path d="M747.46,185.24h13.16l42.29,115.12h1.64l42.76-115.12h13.16l-48.4,125.69h-18.56l-46.05-125.69Z" fill="#fff"/>
      <path d="M867.52,248.43c0-38.77,24.67-66.72,58.03-66.72s52.63,26.78,52.63,60.62v9.4h-97.74c1.41,34.77,22.79,50.98,44.64,50.98,16.45,0,33.13-8.93,42.06-25.84l10.1,5.64c-11.28,21.15-32.19,32.19-52.63,32.19-28.9,0-57.09-21.62-57.09-66.25ZM965.26,240.21c-.7-29.13-16.92-46.75-40.18-46.75-20.91,0-41.35,15.27-44.17,46.75h84.34Z" fill="#fff"/>
      <path d="M992.28,299.18l77.06-100.79-.47-1.64h-74.24v-11.75h88.1l2.35,11.75-77.3,100.79.23,1.64h76.12v11.75h-89.51l-2.35-11.75Z" fill="#fff"/>
      <path d="M1155.57,185.24h10.81v27.96h1.18c5.87-16.92,20.91-31.48,44.17-31.48,21.61,0,34.77,12.69,39.47,33.13h1.17c6.34-17.86,20.21-33.13,44.64-33.13,26.78,0,42.29,18.33,42.29,50.75v78.47h-12.69v-78.24c0-27.72-11.75-39.24-30.78-39.24-31.72,0-42.06,31.72-42.06,46.52v70.95h-12.69v-78.24c0-27.49-11.75-39.24-31.01-39.24-32.66,0-41.82,33.13-41.82,46.52v70.95h-12.69v-125.69Z" fill="#fff"/>
      <path d="M1366.08,278.51c0-23.26,22.32-37.36,54.04-37.36h31.95v-15.98c0-18.56-11.51-31.25-31.95-31.25-16.68,0-34.77,10.1-42.76,31.01l-11.28-5.4c9.4-23.73,30.78-37.83,54.51-37.83,29.13,0,44.17,19.5,44.17,43.46v70.01c0,2.35,1.41,3.99,2.82,3.99h11.28v11.75h-12.45c-10.34,0-13.86-6.34-13.86-17.62l.24-12.45h-1.88c-7.75,19.03-23.97,32.89-45.58,32.89s-39.24-11.98-39.24-35.24ZM1407.2,301.53c22.09,0,42.06-20.2,44.87-49.81h-31.48c-22.55,0-41.59,9.16-41.59,26.78,0,16.45,12.69,23.02,28.19,23.02ZM1436.56,134.72h15.27v2.35l-28.19,28.9h-12.92l25.84-31.25Z" fill="#fff"/>
      <path d="M1497.65,282.03l11.75-5.87c8.93,17.62,25.14,26.55,43.46,26.55s31.72-7.99,31.72-21.85c0-15.04-16.45-19.73-34.07-24.9-21.14-6.11-43.93-12.45-43.93-37.12s23.96-37.12,44.4-37.12c23.73,0,39.7,14.1,46.75,31.95l-11.75,3.99c-6.34-15.74-19.03-24.2-35.71-24.2s-31.01,9.63-31.01,24.67c0,16.68,17.62,21.15,35.95,26.55,20.91,6.11,43.93,12.92,42.29,37.59-1.41,22.55-23.49,32.19-45.58,32.19-25.84,0-44.4-12.45-54.27-32.42Z" fill="#fff"/>
    </g>
    <g>
      <path d="M1697.78,177.82h24.75l.49,24.99h.99c8.91-16.83,25.24-28.21,44.79-28.21,36.62,0,57.66,31.18,57.66,69.29s-21.53,70.03-57.91,70.03c-23.01,0-34.89-12.37-41.33-25.49h-.99v67.56h-28.46v-178.17ZM1761.87,286.7c21.28,0,35.63-17.08,35.63-41.82,0-22.77-11.88-44.3-34.65-44.3s-35.63,20.05-35.63,43.31,11.88,42.81,34.65,42.81M1909.11,174.6c36.63,0,59.64,27.72,59.64,65.58v15.84h-98.24c2.23,18.81,19.8,31.68,41.82,31.68,16.58,0,28.46-8.41,37.12-17.32l16.83,16.83c-14.35,18.07-34.65,26.48-55.93,26.48-34.65,0-67.81-24.75-67.81-68.55,0-39.35,29.7-70.53,66.57-70.53M1941.04,233.74c-.49-18.56-11.63-33.16-33.16-33.16-18.56,0-35.14,13.36-37.37,33.16h70.53ZM1991.27,177.82h25.98v24.25h.74c6.43-17.07,15.84-24.25,34.64-24.25h8.66v28.46h-18.31c-16.33,0-23.26,9.65-23.26,27.47v76.47h-28.46v-132.39ZM2084.81,267.15c10.89,13.36,24.25,23.26,41.57,23.26,12.13,0,22.27-4.7,22.27-14.85,0-10.64-12.62-15.84-27.47-20.29-20.29-6.43-45.29-15.59-45.29-40.83,0-21.78,21.78-40.34,49.25-40.34s45.04,16.33,52.71,33.66l-20.79,10.64c-6.43-14.35-20.29-20.79-31.92-20.79s-20.79,6.19-20.79,15.34c0,11.14,10.89,14.85,25.98,19.55,20.79,6.43,46.77,14.35,46.77,40.58s-24.99,40.83-51.72,40.83c-24,0-46.03-12.37-58.4-31.68l17.82-15.1ZM2260.76,174.1c39.84,0,69.04,31.68,69.04,69.78s-31.43,70.03-69.54,70.03-69.54-31.68-69.54-70.03,31.92-69.78,70.03-69.78M2260.27,287.94c23.76,0,42.32-19.55,42.32-44.05s-18.56-43.8-42.32-43.8-42.32,19.3-42.32,43.8,18.31,44.05,42.32,44.05M2348.36,177.82h25.98v24.99h.49c8.91-15.84,21.53-28.71,43.8-28.71,28.95,0,44.79,21.78,44.79,52.46v83.64h-28.46v-79.19c0-18.06-6.68-31.68-24.5-31.68-22.27,0-33.66,21.78-33.66,42.32v68.55h-28.46v-132.39ZM2543.86,233h25.98v-8.41c0-13.61-8.17-24-24.25-24s-29.2,10.64-36.13,25.74l-24-11.63c11.14-25.49,33.66-40.09,60.38-40.09,30.44,0,52.46,17.82,52.46,49.99v57.91c0,2.97.5,4.21,3.71,4.21h9.9v23.51h-18.07c-11.38,0-19.05-6.68-19.05-21.03v-6.43h-1.24c-8.91,19.3-26.97,30.44-47.02,30.44-21.28,0-41.33-12.37-41.33-38.36s25.24-41.82,58.65-41.82M2532.23,289.67c17.82,0,35.39-14.85,37.62-36.87h-24.5c-18.56,0-31.68,6.68-31.68,20.29,0,10.39,7.67,16.58,18.56,16.58M2631.71,128.32h28.46v153.43c0,3.46.25,4.95,4.45,4.95h17.82v23.51h-27.47c-18.06,0-23.26-11.63-23.26-28.21v-153.68Z" fill="#fff"/>
      <path d="M2186.24,225.76h-.03s0,.01.01.02l.02-.02Z" fill="#fff" opacity=".56"/>
    </g>
  </g>
  <g>
    <g>
      <path d="M2518.75,448.9h-142.19c-29.06,0-52.7,23.64-52.7,52.7s23.64,52.7,52.7,52.7h142.19c29.06,0,52.7-23.64,52.7-52.7s-23.64-52.7-52.7-52.7ZM2518.75,552.02h-142.19c-27.8,0-50.41-22.62-50.41-50.41s22.61-50.41,50.41-50.41h142.19c27.8,0,50.41,22.61,50.41,50.41s-22.62,50.41-50.41,50.41Z" fill="#fff"/>
      <path d="M2383.11,465.85v14.81c8.92,2.79,15.39,11.11,15.39,20.95s-6.47,18.16-15.39,20.95v14.81c16.96-3.1,29.81-18,29.81-35.76s-12.85-32.68-29.81-35.76Z" fill="#fff"/>
      <path d="M2340.2,501.61c0,17.84,12.92,32.66,29.81,35.76v-14.8c-8.92-2.79-15.39-11.11-15.39-20.95s6.47-18.16,15.39-20.95v-14.81c-16.96,3.1-29.81,18-29.81,35.76Z" fill="#fff"/>
      <path d="M2434.51,480.78h-5.91l-.41,7.02h-4.85v5.09h4.85l.06,19.36c0,4.62,1.81,6.84,5.32,6.84h8.71v-5.67h-6.49c-.94,0-1.23-.35-1.23-1.52v-19h7.72v-5.09h-7.78v-7.02Z" fill="#fff"/>
      <path d="M2460.82,486.92c-8.83,0-15.15,7.02-15.15,16.55,0,10.94,7.78,16.49,15.73,16.49,4.79,0,9.71-2.11,12.92-6.26l-3.51-3.68c-2.63,2.98-6.08,4.44-9.36,4.44-4.44,0-8.6-2.81-9.53-8.42h22.86c.06-2.22.06-3.04.06-4.15,0-7.95-5.2-14.97-14.03-14.97ZM2451.93,501.13c.82-5.96,4.68-8.71,8.54-8.71,4.09,0,8.13,3.16,8.25,8.71h-16.78Z" fill="#fff"/>
      <path d="M2494.56,514.4c-5.61,0-9.47-4.62-9.47-10.82,0-7.37,4.5-11.17,8.89-11.17,3.98,0,6.08,2.28,7.78,6.55l5.2-2.22c-1.87-5.96-6.37-9.82-12.86-9.82-8.42,0-15.09,7.02-15.09,16.67s6.55,16.31,15.09,16.31c5.96,0,10.64-2.63,13.74-8.01l-4.39-3.1c-1.87,3.22-4.85,5.61-8.89,5.61Z" fill="#fff"/>
      <path d="M2530.23,486.86c-5.44,0-8.65,3.04-10.53,6.9h-.41v-17.66h-5.96v42.98h6.37v-16.14c0-4.62,2.57-10.64,8.36-10.64,3.51,0,6.26,2.16,6.26,8.13v18.65h6.37v-19.76c0-7.31-3.33-12.46-10.47-12.46Z" fill="#fff"/>
    </g>
    <g>
      <path d="M2224.28,448.9h-341.84c-29.06,0-52.7,23.64-52.7,52.7s23.64,52.7,52.7,52.7h341.84c29.06,0,52.7-23.64,52.7-52.7s-23.64-52.7-52.7-52.7ZM2224.28,552.02h-341.84c-27.8,0-50.41-22.61-50.41-50.41s22.61-50.41,50.41-50.41h341.84c27.8,0,50.41,22.61,50.41,50.41s-22.62,50.41-50.41,50.41Z" fill="#fff"/>
      <path d="M1882.45,465.25c-20.09,0-36.36,16.38-36.36,36.36s16.38,36.36,36.36,36.36,36.36-16.38,36.36-36.36-16.27-36.36-36.36-36.36ZM1882.45,523.55c-12.12,0-21.95-9.83-21.95-21.95s9.83-21.95,21.95-21.95,21.95,9.83,21.95,21.95-9.83,21.95-21.95,21.95Z" fill="#fff"/>
      <polygon points="1869.23 503.57 1875.46 509.8 1882.45 502.81 1889.44 509.8 1895.67 503.57 1882.45 490.36 1869.23 503.57" fill="#fff"/>
      <path d="M1947.11,501.3c-4.21-1.4-7.54-2.4-7.54-5.2,0-2.05,1.75-3.63,4.85-3.63,2.75,0,6.14,1.58,7.72,4.91l4.91-2.51c-1.81-4.44-6.37-7.95-12.63-7.95-5.5,0-10.88,3.92-10.88,9.18,0,6.78,6.32,8.65,11.05,10.17,3.74,1.23,6.96,2.46,6.96,4.62,0,1.99-2.1,3.51-5.91,3.51-3.57,0-7.19-1.52-9.41-5.44l-4.5,2.98c2.63,5.61,8.3,7.84,13.68,7.89,6.2.06,11.93-3.1,11.93-8.77,0-6.43-6.14-8.42-10.23-9.77Z" fill="#fff"/>
      <path d="M2001.2,486.92c-5.44,0-9.12,3.22-10.7,7.66h-.41c-1.17-4.56-4.27-7.66-9.47-7.66s-9.06,3.04-10.35,6.9h-.41v-6.02h-5.85v31.28h6.37v-16.31c0-4.44,2.46-10.47,7.78-10.47,3.98,0,6.49,2.4,6.49,7.95v18.83h6.37v-16.84c0-4.21,2.63-9.94,8.19-9.94,4.5,0,6.08,3.39,6.08,7.95v18.83h6.37v-19.71c0-7.72-3.74-12.46-10.47-12.46Z" fill="#fff"/>
      <path d="M2043.37,512.94v-14.21c0-7.48-4.79-11.81-12.05-11.81-6.49,0-11.34,3.63-13.39,9.82l5.26,2.22c1.87-4.56,4.09-6.55,8.13-6.55,3.27,0,6.08,2.46,6.08,7.02v1.93h-7.37c-6.78,0-12.92,3.39-12.92,9.77,0,5.38,4.33,8.71,9.82,8.71s9.47-3.16,11.34-7.31h.53l-.06,1.99c0,2.98,1.4,4.56,4.21,4.56h3.63v-5.03h-2.4c-.53,0-.82-.41-.82-1.11ZM2028.16,514.34c-2.46,0-4.97-1.29-4.97-3.74,0-3.1,3.98-4.62,9-4.62h5.2c-.47,4.09-4.79,8.36-9.24,8.36Z" fill="#fff"/>
      <path d="M2057.87,493.53h-.41v-5.73h-5.67v31.28h6.37v-18.13c0-4.03,1.52-6.26,5.91-6.26h4.15v-6.96h-1.99c-3.63,0-7.08,1.23-8.36,5.79Z" fill="#fff"/>
      <path d="M2080.15,480.78h-5.91l-.41,7.02h-4.85v5.09h4.85l.06,19.36c0,4.62,1.81,6.84,5.32,6.84h8.71v-5.67h-6.49c-.94,0-1.23-.35-1.23-1.52v-19h7.72v-5.09h-7.78v-7.02Z" fill="#fff"/>
      <path d="M2111.49,486.86c-5.44,0-8.65,3.04-10.53,6.9h-.41v-17.66h-5.96v42.98h6.37v-16.14c0-4.62,2.57-10.64,8.36-10.64,3.51,0,6.26,2.16,6.26,8.13v18.65h6.37v-19.76c0-7.31-3.33-12.46-10.47-12.46Z" fill="#fff"/>
      <path d="M2142.9,486.92c-9.01,0-15.26,6.84-15.26,16.49s6.08,16.49,15.03,16.49,15.15-7.25,15.15-16.55-5.91-16.43-14.91-16.43ZM2142.72,514.4c-5.85,0-9.01-4.97-9.01-10.99s3.22-10.99,9.12-10.99,8.89,4.97,8.89,10.99-3.27,10.99-9.01,10.99Z" fill="#fff"/>
      <path d="M2200.96,486.92c-5.44,0-9.12,3.22-10.7,7.66h-.41c-1.17-4.56-4.27-7.66-9.47-7.66s-9.06,3.04-10.35,6.9h-.41v-6.02h-5.85v31.28h6.37v-16.31c0-4.44,2.46-10.47,7.78-10.47,3.98,0,6.49,2.4,6.49,7.95v18.83h6.37v-16.84c0-4.21,2.63-9.94,8.19-9.94,4.5,0,6.08,3.39,6.08,7.95v18.83h6.37v-19.71c0-7.72-3.74-12.46-10.47-12.46Z" fill="#fff"/>
      <path d="M2232.25,486.92c-8.83,0-15.14,7.02-15.14,16.55,0,10.94,7.78,16.49,15.73,16.49,4.8,0,9.71-2.11,12.92-6.26l-3.51-3.68c-2.63,2.98-6.08,4.44-9.36,4.44-4.44,0-8.6-2.81-9.53-8.42h22.86c.06-2.22.06-3.04.06-4.15,0-7.95-5.2-14.97-14.03-14.97ZM2223.36,501.13c.82-5.96,4.68-8.71,8.54-8.71,4.09,0,8.13,3.16,8.25,8.71h-16.78Z" fill="#fff"/>
    </g>
    <g>
      <path d="M1383.02,448.9h-123.18c-29.06,0-52.7,23.64-52.7,52.7s23.64,52.7,52.7,52.7h123.18c29.06,0,52.7-23.64,52.7-52.7s-23.64-52.7-52.7-52.7ZM1383.02,552.02h-123.18c-27.8,0-50.41-22.62-50.41-50.41s22.61-50.41,50.41-50.41h123.18c27.8,0,50.41,22.61,50.41,50.41s-22.62,50.41-50.41,50.41Z" fill="#fff"/>
      <path d="M1251.66,493.07l-6.62,6.71,14.13,14.32,31.44-31.87c-1.7-2.69-3.73-5.14-6.05-7.29l-25.39,25.74-7.51-7.61Z" fill="#fff"/>
      <path d="M1281.61,498.83c.11.91.18,1.83.18,2.77,0,12.12-9.83,21.95-21.95,21.95s-21.95-9.83-21.95-21.95,9.83-21.95,21.95-21.95c3.68,0,7.15.91,10.2,2.52l10.39-10.54c-5.85-4.03-12.95-6.39-20.59-6.39-20.09,0-36.36,16.38-36.36,36.36s16.38,36.36,36.36,36.36,36.36-16.38,36.36-36.36c0-5.16-1.08-10.07-3.02-14.51l-11.58,11.74Z" fill="#fff"/>
      <path d="M1327.76,486.86c-5.44,0-8.83,2.98-10.64,6.9h-.35v-6.02h-5.32v42.69h6.2v-17.25h.41c1.46,3.45,4.68,6.73,10.06,6.73,7.72,0,13.74-6.67,13.74-16.55s-5.91-16.49-14.09-16.49ZM1326.59,514.05c-5.67,0-8.77-4.91-8.77-10.58s3.33-10.7,8.95-10.7c5.15,0,8.6,4.44,8.6,10.76s-3.68,10.53-8.77,10.53Z" fill="#fff"/>
      <path d="M1371.73,512.94v-14.21c0-7.48-4.79-11.81-12.05-11.81-6.49,0-11.34,3.63-13.39,9.82l5.26,2.22c1.87-4.56,4.09-6.55,8.13-6.55,3.27,0,6.08,2.46,6.08,7.02v1.93h-7.37c-6.78,0-12.92,3.39-12.92,9.77,0,5.38,4.33,8.71,9.82,8.71s9.47-3.16,11.34-7.31h.53l-.06,1.99c0,2.98,1.4,4.56,4.21,4.56h3.63v-5.03h-2.4c-.53,0-.82-.41-.82-1.11ZM1356.53,514.34c-2.46,0-4.97-1.29-4.97-3.74,0-3.1,3.98-4.62,9.01-4.62h5.2c-.47,4.09-4.8,8.36-9.24,8.36Z" fill="#fff"/>
      <path d="M1391.27,513.88h-.47l-8.42-26.08h-6.26l10.29,31.28h3.33l-.82,2.22c-.99,2.69-1.81,3.8-3.92,3.8h-5.91v5.15h7.13c4.39,0,6.14-2.34,7.89-7.66l11.4-34.79h-6.08l-8.19,26.08Z" fill="#fff"/>
    </g>
    <g>
      <path d="M512.98,448.9h-173.61c-29.06,0-52.7,23.64-52.7,52.7s23.64,52.7,52.7,52.7h173.61c29.06,0,52.7-23.64,52.7-52.7s-23.64-52.7-52.7-52.7ZM512.98,552.02h-173.61c-27.8,0-50.41-22.62-50.41-50.41s22.61-50.41,50.41-50.41h173.61c27.8,0,50.41,22.61,50.41,50.41s-22.62,50.41-50.41,50.41Z" fill="#fff"/>
      <path d="M339.37,465.25c-20.09,0-36.36,16.38-36.36,36.36s16.38,36.36,36.36,36.36,36.36-16.38,36.36-36.36-16.27-36.36-36.36-36.36ZM339.37,523.55c-12.12,0-21.95-9.83-21.95-21.95s9.83-21.95,21.95-21.95,21.95,9.83,21.95,21.95-9.83,21.95-21.95,21.95Z" fill="#fff"/>
      <rect x="325.62" y="499.79" width="6.61" height="9.14" fill="#fff"/>
      <rect x="336.16" y="494.99" width="6.61" height="13.94" fill="#fff"/>
      <rect x="346.52" y="490.66" width="6.61" height="18.27" fill="#fff"/>
      <path d="M428.15,486.92c-5.44,0-9.12,3.22-10.7,7.66h-.41c-1.17-4.56-4.27-7.66-9.47-7.66s-9.06,3.04-10.35,6.9h-.41v-6.02h-5.85v31.28h6.37v-16.31c0-4.44,2.46-10.47,7.78-10.47,3.98,0,6.49,2.4,6.49,7.95v18.83h6.37v-16.84c0-4.21,2.63-9.94,8.19-9.94,4.5,0,6.08,3.39,6.08,7.95v18.83h6.37v-19.71c0-7.72-3.74-12.46-10.47-12.46Z" fill="#fff"/>
      <path d="M459.56,486.92c-9.01,0-15.26,6.84-15.26,16.49s6.08,16.49,15.03,16.49,15.15-7.25,15.15-16.55-5.91-16.43-14.91-16.43ZM459.38,514.4c-5.85,0-9.01-4.97-9.01-10.99s3.22-10.99,9.12-10.99,8.89,4.97,8.89,10.99-3.27,10.99-9.01,10.99Z" fill="#fff"/>
      <polygon points="469.44 475.57 469.44 474.76 462.77 474.76 457.1 483.41 462.25 483.41 469.44 475.57" fill="#fff"/>
      <polygon points="490.73 513.7 490.26 513.7 481.9 487.8 475.58 487.8 485.87 519.08 494.64 519.08 504.99 487.8 498.91 487.8 490.73 513.7" fill="#fff"/>
      <path d="M512.07,474.99c-2.34,0-4.21,1.75-4.21,3.98,0,2.34,1.93,4.09,4.27,4.09s4.15-1.75,4.15-4.09-1.93-3.98-4.21-3.98Z" fill="#fff"/>
      <rect x="508.91" y="487.74" width="6.32" height="31.34" fill="#fff"/>
      <path d="M529.55,511.89v-35.73h-6.37v36.08c0,4.62,1.87,6.84,5.38,6.84h6.37v-5.67h-4.21c-.94,0-1.17-.35-1.17-1.52Z" fill="#fff"/>
    </g>
    <g>
      <path d="M1107.56,448.9h-144.14c-29.06,0-52.7,23.64-52.7,52.7s23.64,52.7,52.7,52.7h144.14c29.06,0,52.7-23.64,52.7-52.7s-23.64-52.7-52.7-52.7ZM1107.56,552.02h-144.14c-27.8,0-50.41-22.62-50.41-50.41s22.61-50.41,50.41-50.41h144.14c27.8,0,50.41,22.61,50.41,50.41s-22.62,50.41-50.41,50.41Z" fill="#fff"/>
      <path d="M963.42,465.25c-20.09,0-36.36,16.38-36.36,36.36s16.38,36.36,36.36,36.36,36.36-16.38,36.36-36.36-16.27-36.36-36.36-36.36ZM963.42,523.55c-12.12,0-21.95-9.83-21.95-21.95s9.83-21.95,21.95-21.95,21.95,9.83,21.95,21.95-9.83,21.95-21.95,21.95Z" fill="#fff"/>
      <polygon points="957.12 512 976.31 501.33 957.12 490.88 957.12 512" fill="#fff"/>
      <path d="M1015.02,482.83v4.97h-3.74v5.15h3.74v26.14h6.32v-26.14h6.84v-5.15h-6.84v-4.97c0-1.11.53-1.64,1.46-1.64h6.9v-5.09h-7.72c-4.21,0-6.96,2.4-6.96,6.72Z" fill="#fff"/>
      <path d="M1040.69,511.89v-35.73h-6.37v36.08c0,4.62,1.87,6.84,5.38,6.84h6.37v-5.67h-4.21c-.94,0-1.17-.35-1.17-1.52Z" fill="#fff"/>
      <path d="M1064.9,486.92c-9.01,0-15.26,6.84-15.26,16.49s6.08,16.49,15.03,16.49,15.15-7.25,15.15-16.55-5.91-16.43-14.91-16.43ZM1064.72,514.4c-5.85,0-9.01-4.97-9.01-10.99s3.22-10.99,9.12-10.99,8.89,4.97,8.89,10.99-3.27,10.99-9.01,10.99Z" fill="#fff"/>
      <polygon points="1117 513.88 1116.47 513.88 1108.76 487.8 1102.15 487.8 1094.84 513.88 1094.37 513.88 1087.24 487.8 1080.92 487.8 1089.58 519.08 1098.7 519.08 1105.42 495.98 1111.8 519.08 1120.98 519.08 1130.04 487.8 1123.96 487.8 1117 513.88" fill="#fff"/>
    </g>
    <g>
      <path d="M811.15,448.9h-145.89c-29.06,0-52.7,23.64-52.7,52.7s23.64,52.7,52.7,52.7h145.89c29.06,0,52.7-23.64,52.7-52.7s-23.64-52.7-52.7-52.7ZM811.15,552.02h-145.89c-27.8,0-50.41-22.62-50.41-50.41s22.61-50.41,50.41-50.41h145.89c27.8,0,50.41,22.61,50.41,50.41s-22.62,50.41-50.41,50.41Z" fill="#fff"/>
      <path d="M661.38,501.61c0,.27.03.53.08.78.36,1.77,1.93,3.11,3.8,3.11s3.44-1.34,3.8-3.11c.05-.25.08-.51.08-.78,0-2.15-1.74-3.88-3.88-3.88s-3.88,1.75-3.88,3.88Z" fill="#fff"/>
      <path d="M665.26,484.36c-4.93,0-9.36,2.09-12.5,5.41h0s0,0,0,.01l4.68,4.99s0,0,0,0l.65.7c1.73-2.02,4.3-3.3,7.17-3.3s5.44,1.28,7.17,3.3l.65-.7s0,0,0,0l4.69-5s0,0,0,0h0c-3.14-3.33-7.58-5.41-12.51-5.41Z" fill="#fff"/>
      <path d="M716.86,482.83v4.97h-3.74v5.15h3.74v26.14h6.32v-26.14h6.84v-5.15h-6.84v-4.97c0-1.11.53-1.64,1.46-1.64h6.9v-5.09h-7.72c-4.21,0-6.96,2.4-6.96,6.72Z" fill="#fff"/>
      <rect x="734.28" y="487.74" width="6.32" height="31.34" fill="#fff"/>
      <path d="M737.44,474.99c-2.34,0-4.21,1.75-4.21,3.98,0,2.34,1.93,4.09,4.27,4.09s4.15-1.75,4.15-4.09-1.93-3.98-4.21-3.98Z" fill="#fff"/>
      <path d="M765.92,486.92c-5.61,0-8.95,3.16-10.82,6.72h-.35v-17.54h-6.2v42.98h5.32v-6.02h.35c1.64,4.03,5.44,6.9,10.82,6.9,7.48,0,13.92-6.43,13.92-16.9,0-9.12-5.26-16.14-13.04-16.14ZM764.05,514.05c-5.91,0-9.12-4.85-9.12-10.64s3.45-10.58,9.18-10.58c5.03,0,8.36,3.98,8.36,10.41s-3.63,10.82-8.42,10.82Z" fill="#fff"/>
      <path d="M791.01,493.53h-.41v-5.73h-5.67v31.28h6.37v-18.13c0-4.03,1.52-6.26,5.91-6.26h4.15v-6.96h-1.99c-3.63,0-7.08,1.23-8.36,5.79Z" fill="#fff"/>
      <path d="M829.89,512.94v-14.21c0-7.48-4.79-11.81-12.05-11.81-6.49,0-11.34,3.63-13.39,9.82l5.26,2.22c1.87-4.56,4.09-6.55,8.13-6.55,3.27,0,6.08,2.46,6.08,7.02v1.93h-7.37c-6.78,0-12.92,3.39-12.92,9.77,0,5.38,4.33,8.71,9.82,8.71s9.47-3.16,11.34-7.31h.53l-.06,1.99c0,2.98,1.4,4.56,4.21,4.56h3.63v-5.03h-2.4c-.53,0-.82-.41-.82-1.11ZM814.69,514.34c-2.46,0-4.97-1.29-4.97-3.74,0-3.1,3.98-4.62,9.01-4.62h5.2c-.47,4.09-4.8,8.36-9.24,8.36Z" fill="#fff"/>
      <path d="M639.68,475.83l9.85,10.5c3.99-4.1,9.56-6.66,15.74-6.66s11.75,2.55,15.74,6.66l9.87-10.53s0,0,0,0h.01c-6.57-6.53-15.62-10.56-25.61-10.56s-19.02,4.05-25.59,10.57h.01s0,.01,0,.01Z" fill="#fff"/>
      <path d="M686.6,496.46s0,0,0,0h0c.4,1.66.61,3.38.61,5.15,0,4.92-1.62,9.47-4.36,13.13-4,5.35-10.39,8.81-17.58,8.81s-13.58-3.46-17.58-8.81c-2.74-3.66-4.36-8.2-4.36-13.13,0-1.77.22-3.49.61-5.14h0s0,0,0,0l-10.9-11.63c-2.63,5.03-4.12,10.73-4.12,16.77,0,20.09,16.38,36.36,36.36,36.36.07,0,.14,0,.21,0,19.99-.11,36.15-16.44,36.15-36.36,0-6.06-1.49-11.77-4.11-16.79l-10.92,11.65Z" fill="#fff"/>
    </g>
    <g>
      <path d="M1730.17,448.9h-194.88c-29.06,0-52.7,23.64-52.7,52.7s23.64,52.7,52.7,52.7h194.88c29.06,0,52.7-23.64,52.7-52.7s-23.64-52.7-52.7-52.7ZM1730.17,552.02h-194.88c-27.8,0-50.41-22.62-50.41-50.41s22.61-50.41,50.41-50.41h194.88c27.8,0,50.41,22.61,50.41,50.41s-22.62,50.41-50.41,50.41Z" fill="#fff"/>
      <path d="M1535.29,523.55c-12.12,0-21.95-9.83-21.95-21.95h-14.41c0,20.09,16.38,36.36,36.36,36.36s36.36-16.38,36.36-36.36h-14.41c0,12.12-9.83,21.95-21.95,21.95Z" fill="#fff"/>
      <rect x="1527.48" y="493.8" width="15.62" height="15.62" fill="#fff"/>
      <path d="M1593.24,480.78h-5.91l-.41,7.02h-4.85v5.09h4.85l.06,19.36c0,4.62,1.81,6.84,5.32,6.84h8.71v-5.67h-6.49c-.94,0-1.23-.35-1.23-1.52v-19h7.72v-5.09h-7.78v-7.02Z" fill="#fff"/>
      <rect x="1606.4" y="487.74" width="6.32" height="31.34" fill="#fff"/>
      <path d="M1609.55,474.99c-2.34,0-4.21,1.75-4.21,3.98,0,2.34,1.93,4.09,4.27,4.09s4.15-1.75,4.15-4.09-1.93-3.98-4.21-3.98Z" fill="#fff"/>
      <path d="M1633.7,486.92c-8.83,0-15.14,7.02-15.14,16.55,0,10.94,7.78,16.49,15.73,16.49,4.8,0,9.71-2.11,12.92-6.26l-3.51-3.68c-2.63,2.98-6.08,4.44-9.36,4.44-4.44,0-8.6-2.81-9.53-8.42h22.86c.06-2.22.06-3.04.06-4.15,0-7.95-5.2-14.97-14.03-14.97ZM1624.82,501.13c.82-5.97,4.68-8.71,8.54-8.71,4.09,0,8.13,3.16,8.25,8.71h-16.78Z" fill="#fff"/>
      <path d="M1670.6,486.92c-4.97,0-9.53,3.04-10.64,6.9h-.41v-6.02h-5.85v31.29h6.37v-15.73c0-6.84,3.51-10.94,8.25-10.94,3.98,0,6.37,2.75,6.37,9.01v17.66h6.37v-19.71c0-7.72-3.57-12.45-10.47-12.45Z" fill="#fff"/>
      <path d="M1710.95,493.64h-.41c-1.4-3.57-4.74-6.72-9.88-6.72-8.13,0-13.92,6.9-13.92,16.49s6.02,16.55,14.15,16.55c5.32,0,8.83-3.04,10.58-6.9h.35v6.02h5.32v-42.98h-6.2v17.54ZM1701.95,514.05c-5.32,0-8.71-4.39-8.71-10.7s3.68-10.53,8.77-10.53c5.67,0,8.77,4.85,8.77,10.53s-3.33,10.7-8.83,10.7Z" fill="#fff"/>
      <path d="M1748.91,512.94v-14.21c0-7.48-4.79-11.81-12.05-11.81-6.49,0-11.34,3.63-13.39,9.82l5.26,2.22c1.87-4.56,4.09-6.55,8.13-6.55,3.27,0,6.08,2.46,6.08,7.02v1.93h-7.37c-6.78,0-12.92,3.39-12.92,9.77,0,5.38,4.33,8.71,9.82,8.71s9.47-3.16,11.34-7.31h.53l-.06,1.99c0,2.98,1.4,4.56,4.21,4.56h3.63v-5.03h-2.4c-.53,0-.82-.41-.82-1.11ZM1733.7,514.34c-2.46,0-4.97-1.29-4.97-3.74,0-3.1,3.98-4.62,9.01-4.62h5.2c-.47,4.09-4.8,8.36-9.24,8.36Z" fill="#fff"/>
    </g>
  </g>
</svg>