<?xml version="1.0" encoding="UTF-8"?>
<svg id="Capa_1" data-name="Capa 1" xmlns="http://www.w3.org/2000/svg" width="1464.43" height="863.03" viewBox="0 0 1464.43 863.03">
  <path d="M322.47,548.62h24.05l.48,24.29h.96c8.66-16.35,24.53-27.42,43.53-27.42,35.59,0,56.04,30.3,56.04,67.34s-20.92,68.06-56.28,68.06c-22.37,0-33.91-12.03-40.16-24.77h-.96v65.66h-27.66v-173.16ZM384.76,654.44c20.68,0,34.63-16.6,34.63-40.64,0-22.13-11.54-43.05-33.67-43.05s-34.63,19.48-34.63,42.09,11.54,41.61,33.67,41.61M527.86,545.49c35.59,0,57.96,26.94,57.96,63.73v15.39h-95.48c2.16,18.28,19.24,30.78,40.64,30.78,16.11,0,27.66-8.18,36.07-16.83l16.36,16.35c-13.95,17.56-33.67,25.73-54.35,25.73-33.67,0-65.9-24.05-65.9-66.62,0-38.24,28.86-68.54,64.7-68.54M558.88,602.97c-.48-18.04-11.3-32.23-32.23-32.23-18.04,0-34.15,12.99-36.32,32.23h68.54ZM607.7,548.62h25.25v23.57h.72c6.25-16.59,15.39-23.57,33.67-23.57h8.42v27.66h-17.8c-15.87,0-22.61,9.38-22.61,26.7v74.32h-27.66v-128.67ZM698.61,635.44c10.58,12.99,23.57,22.61,40.4,22.61,11.78,0,21.65-4.57,21.65-14.43,0-10.34-12.27-15.39-26.7-19.72-19.72-6.25-44.01-15.15-44.01-39.68,0-21.16,21.16-39.2,47.86-39.2s43.77,15.87,51.23,32.71l-20.2,10.34c-6.25-13.95-19.72-20.2-31.02-20.2s-20.2,6.01-20.2,14.91c0,10.82,10.58,14.43,25.25,19,20.2,6.25,45.45,13.95,45.45,39.44s-24.29,39.68-50.27,39.68c-23.33,0-44.73-12.03-56.76-30.78l17.32-14.67ZM869.61,545.01c38.72,0,67.1,30.78,67.1,67.82s-30.54,68.06-67.58,68.06-67.58-30.78-67.58-68.06,31.03-67.82,68.06-67.82M869.13,655.64c23.09,0,41.13-19,41.13-42.81s-18.04-42.57-41.13-42.57-41.13,18.76-41.13,42.57,17.8,42.81,41.13,42.81M954.75,548.62h25.25v24.29h.48c8.66-15.39,20.92-27.9,42.57-27.9,28.14,0,43.53,21.16,43.53,50.99v81.29h-27.66v-76.96c0-17.56-6.49-30.78-23.81-30.78-21.65,0-32.71,21.16-32.71,41.13v66.62h-27.66v-128.67ZM1144.75,602.25h25.25v-8.18c0-13.23-7.94-23.33-23.57-23.33s-28.38,10.34-35.11,25.01l-23.33-11.3c10.82-24.77,32.71-38.96,58.68-38.96,29.58,0,50.99,17.32,50.99,48.58v56.28c0,2.89.48,4.09,3.61,4.09h9.62v22.85h-17.56c-11.06,0-18.52-6.49-18.52-20.44v-6.25h-1.2c-8.66,18.76-26.21,29.58-45.7,29.58-20.68,0-40.16-12.02-40.16-37.28s24.53-40.64,57-40.64M1133.44,657.33c17.32,0,34.39-14.43,36.56-35.84h-23.81c-18.04,0-30.78,6.49-30.78,19.72,0,10.1,7.46,16.11,18.04,16.11M1230.12,500.52h27.66v149.11c0,3.37.24,4.81,4.33,4.81h17.32v22.85h-26.7c-17.56,0-22.61-11.3-22.61-27.42v-149.35Z" fill="#fff"/>
  <g>
    <path d="M307.83,247.76c0-38.8,24.22-66.77,56.9-66.77,24.45,0,40.44,14.11,47.73,34.33l-11.76,4c-6.58-18.34-19.99-26.57-36.44-26.57-21.87,0-43.5,17.87-43.5,55.02,0,30.8,18.1,54.08,44.67,54.08,17.87,0,33.62-9.64,42.09-25.63l10.11,5.64c-11.05,20.69-30.1,31.74-52.67,31.74-34.56,0-57.13-28.21-57.13-65.83Z" fill="#fff"/>
    <path d="M432.68,277.85c0-23.28,22.34-37.38,54.08-37.38h31.98v-15.99c0-18.57-11.52-31.27-31.98-31.27-16.69,0-34.8,10.11-42.79,31.04l-11.29-5.41c9.41-23.75,30.8-37.85,54.55-37.85,29.15,0,44.2,19.52,44.2,43.5v70.07c0,2.35,1.41,4,2.82,4h11.29v11.76h-12.46c-10.34,0-13.87-6.35-13.87-17.63l.23-12.46h-1.88c-7.76,19.04-23.98,32.92-45.61,32.92s-39.27-11.99-39.27-35.27ZM473.83,300.89c22.1,0,42.09-20.22,44.91-49.85h-31.51c-22.57,0-41.62,9.17-41.62,26.8,0,16.46,12.7,23.04,28.21,23.04Z" fill="#fff"/>
    <path d="M562,247.05c0-40.44,24.45-66.07,56.2-66.07,23.98,0,38.56,15.05,44.44,31.74h1.18v-75.24h11.76v172.81h-11.76v-27.74h-.94c-6.35,16.22-20.69,31.27-44.91,31.27-32.92,0-55.96-27.51-55.96-66.77ZM618.19,302.07c28.68,0,44.67-25.86,44.67-55.25s-14.81-54.08-44.2-54.08c-25.39,0-43.73,19.52-43.73,54.08s16.69,55.25,43.26,55.25Z" fill="#fff"/>
    <path d="M703.78,277.85c0-23.28,22.34-37.38,54.08-37.38h31.98v-15.99c0-18.57-11.52-31.27-31.98-31.27-16.69,0-34.8,10.11-42.79,31.04l-11.29-5.41c9.41-23.75,30.8-37.85,54.55-37.85,29.16,0,44.2,19.52,44.2,43.5v70.07c0,2.35,1.41,4,2.82,4h11.29v11.76h-12.46c-10.35,0-13.87-6.35-13.87-17.63l.24-12.46h-1.88c-7.76,19.04-23.98,32.92-45.61,32.92s-39.27-11.99-39.27-35.27ZM744.92,300.89c22.1,0,42.09-20.22,44.91-49.85h-31.51c-22.57,0-41.62,9.17-41.62,26.8,0,16.46,12.7,23.04,28.21,23.04Z" fill="#fff"/>
    <path d="M303.13,363.22h13.17l42.32,115.21h1.65l42.79-115.21h13.17l-48.44,125.79h-18.57l-46.08-125.79Z" fill="#fff"/>
    <path d="M423.28,426.47c0-38.8,24.69-66.77,58.08-66.77s52.67,26.8,52.67,60.66v9.4h-97.81c1.41,34.8,22.81,51.02,44.67,51.02,16.46,0,33.15-8.93,42.09-25.86l10.11,5.64c-11.29,21.16-32.21,32.21-52.67,32.21-28.92,0-57.13-21.63-57.13-66.3ZM521.09,418.24c-.71-29.16-16.93-46.79-40.21-46.79-20.93,0-41.38,15.28-44.2,46.79h84.41Z" fill="#fff"/>
    <path d="M548.13,477.26l77.12-100.87-.47-1.65h-74.3v-11.76h88.17l2.35,11.76-77.36,100.87.24,1.65h76.18v11.76h-89.58l-2.35-11.76Z" fill="#fff"/>
    <path d="M711.54,363.22h10.82v27.98h1.18c5.88-16.93,20.93-31.51,44.2-31.51,21.63,0,34.8,12.7,39.5,33.15h1.17c6.35-17.87,20.22-33.15,44.67-33.15,26.8,0,42.32,18.34,42.32,50.79v78.53h-12.7v-78.3c0-27.74-11.76-39.27-30.8-39.27-31.74,0-42.09,31.74-42.09,46.55v71.01h-12.7v-78.3c0-27.51-11.76-39.27-31.04-39.27-32.68,0-41.85,33.15-41.85,46.55v71.01h-12.7v-125.79Z" fill="#fff"/>
    <path d="M922.21,456.56c0-23.28,22.34-37.38,54.08-37.38h31.98v-15.99c0-18.57-11.52-31.27-31.98-31.27-16.69,0-34.8,10.11-42.79,31.04l-11.29-5.41c9.4-23.75,30.8-37.85,54.55-37.85,29.16,0,44.2,19.52,44.2,43.5v70.07c0,2.35,1.41,4,2.82,4h11.29v11.76h-12.46c-10.34,0-13.87-6.35-13.87-17.63l.23-12.46h-1.88c-7.76,19.04-23.98,32.92-45.61,32.92s-39.27-11.99-39.27-35.27ZM963.36,479.61c22.1,0,42.09-20.22,44.91-49.85h-31.51c-22.57,0-41.62,9.17-41.62,26.8,0,16.46,12.7,23.04,28.21,23.04ZM992.75,312.67h15.28v2.35l-28.21,28.92h-12.93l25.86-31.27Z" fill="#fff"/>
    <path d="M1053.88,460.09l11.76-5.88c8.94,17.63,25.16,26.57,43.5,26.57s31.74-7.99,31.74-21.87c0-15.05-16.46-19.75-34.09-24.92-21.16-6.11-43.97-12.46-43.97-37.15s23.98-37.15,44.44-37.15c23.75,0,39.74,14.11,46.79,31.98l-11.76,4c-6.35-15.75-19.04-24.22-35.74-24.22s-31.04,9.64-31.04,24.69c0,16.69,17.63,21.16,35.97,26.57,20.93,6.11,43.97,12.93,42.32,37.62-1.41,22.57-23.51,32.21-45.61,32.21-25.86,0-44.44-12.46-54.31-32.45Z" fill="#fff"/>
  </g>
  <g>
    <g>
      <path d="M192.23,265.59l6.6,7.04c2.67-2.75,6.41-4.47,10.55-4.47s7.88,1.71,10.55,4.47l6.62-7.06s0,0,0,0h0c-4.41-4.38-10.47-7.08-17.18-7.08s-12.76,2.71-17.16,7.09h0s0,0,0,0Z" fill="#fff"/>
      <path d="M206.78,282.88c0,.18.02.36.05.53.24,1.19,1.3,2.08,2.55,2.08s2.31-.9,2.55-2.09c.03-.17.05-.34.05-.52,0-1.44-1.17-2.6-2.6-2.6s-2.6,1.17-2.6,2.6Z" fill="#fff"/>
      <path d="M233.77,282.88c0-4.06-1-7.89-2.75-11.26l-7.32,7.81s0,0,0,0h0c.27,1.11.41,2.26.41,3.45,0,3.3-1.09,6.35-2.92,8.8-2.68,3.59-6.97,5.91-11.79,5.91s-9.11-2.32-11.79-5.91c-1.84-2.46-2.92-5.5-2.92-8.8,0-1.19.14-2.34.41-3.45h0s0,0,0,0l-7.31-7.8c-1.76,3.37-2.77,7.2-2.77,11.25,0,13.48,10.99,24.39,24.39,24.39h0s.09,0,.14,0c13.41-.08,24.25-11.03,24.25-24.38Z" fill="#fff"/>
      <path d="M209.39,271.32c-3.31,0-6.28,1.4-8.39,3.63h0s0,0,0,0l3.14,3.35s0,0,0,0l.44.47c1.16-1.35,2.88-2.22,4.81-2.22s3.65.86,4.81,2.22l.44-.47s0,0,0,0l3.14-3.35s0,0,0,0h0c-2.11-2.23-5.08-3.63-8.39-3.63Z" fill="#fff"/>
    </g>
    <g>
      <path d="M209.39,331.99c-13.48,0-24.39,10.99-24.39,24.39s10.99,24.39,24.39,24.39,24.39-10.99,24.39-24.39-10.91-24.39-24.39-24.39ZM209.39,371.1c-8.13,0-14.72-6.59-14.72-14.72s6.59-14.72,14.72-14.72,14.72,6.59,14.72,14.72-6.59,14.72-14.72,14.72Z" fill="#fff"/>
      <polygon points="205.16 363.35 218.03 356.19 205.16 349.19 205.16 363.35" fill="#fff"/>
    </g>
    <g>
      <path d="M209.39,185c-13.48,0-24.39,10.99-24.39,24.39s10.99,24.39,24.39,24.39,24.39-10.99,24.39-24.39-10.91-24.39-24.39-24.39ZM209.39,224.11c-8.13,0-14.72-6.59-14.72-14.72s6.59-14.72,14.72-14.72,14.72,6.59,14.72,14.72-6.59,14.72-14.72,14.72Z" fill="#fff"/>
      <rect x="200.16" y="208.17" width="4.43" height="6.13" fill="#fff"/>
      <rect x="207.23" y="204.95" width="4.43" height="9.35" fill="#fff"/>
      <rect x="214.18" y="202.04" width="4.43" height="12.26" fill="#fff"/>
    </g>
    <g>
      <path d="M203.9,424.15l-4.44,4.5,9.47,9.61,21.09-21.38c-1.14-1.8-2.5-3.45-4.06-4.89l-17.03,17.27-5.04-5.11Z" fill="#fff"/>
      <path d="M231.75,420.14l-7.77,7.87c.08.61.12,1.23.12,1.86,0,8.13-6.59,14.72-14.72,14.72s-14.72-6.59-14.72-14.72,6.59-14.72,14.72-14.72c2.47,0,4.8.61,6.84,1.69l6.97-7.07c-3.93-2.7-8.68-4.29-13.81-4.29-13.48,0-24.39,10.99-24.39,24.39s10.99,24.39,24.39,24.39,24.39-10.99,24.39-24.39c0-3.46-.72-6.75-2.02-9.73Z" fill="#fff"/>
    </g>
    <g>
      <path d="M209.39,552.48c-13.48,0-24.39,10.99-24.39,24.39s10.99,24.39,24.39,24.39,24.39-10.99,24.39-24.39-10.91-24.39-24.39-24.39ZM209.39,591.59c-8.13,0-14.72-6.59-14.72-14.72s6.59-14.72,14.72-14.72,14.72,6.59,14.72,14.72-6.59,14.72-14.72,14.72Z" fill="#fff"/>
      <polygon points="200.52 578.19 204.7 582.36 209.39 577.67 214.08 582.36 218.25 578.19 209.39 569.33 200.52 578.19" fill="#fff"/>
    </g>
    <g>
      <path d="M213.78,626.38v9.93c5.98,1.87,10.32,7.45,10.32,14.05s-4.34,12.18-10.32,14.05v9.93c11.37-2.08,19.99-12.07,19.99-23.98s-8.62-21.92-19.99-23.99Z" fill="#fff"/>
      <path d="M204.99,664.42c-5.98-1.87-10.32-7.45-10.32-14.05s4.34-12.18,10.32-14.05v-9.93c-11.37,2.08-19.99,12.07-19.99,23.98s8.67,21.91,19.99,23.98v-9.93Z" fill="#fff"/>
    </g>
    <g>
      <path d="M224.11,503.37c0,8.13-6.59,14.72-14.72,14.72s-14.72-6.59-14.72-14.72h-9.67c0,13.48,10.99,24.39,24.39,24.39s24.39-10.99,24.39-24.39h-9.67Z" fill="#fff"/>
      <rect x="204.15" y="498.14" width="10.47" height="10.47" fill="#fff"/>
    </g>
  </g>
</svg>