<?xml version="1.0" encoding="UTF-8"?>
<svg id="Layer_1" data-name="Layer 1" xmlns="http://www.w3.org/2000/svg" width="30mm" height="30mm" viewBox="0 0 85.04 85.04">
  <path d="M34.22,26.12v22.48c-1.32-.87-2.9-1.38-4.6-1.38-4.6,0-8.3,3.7-8.3,8.3s3.7,8.3,8.3,8.3,8.24-3.65,8.29-8.2h0v-26.4l22.1-3.7v18.78c-1.32-.87-2.9-1.38-4.6-1.38-4.6,0-8.3,3.7-8.3,8.3s3.7,8.3,8.3,8.3,8.24-3.65,8.29-8.2h0v-30.1l-29.5,4.9ZM29.62,60.12c-2.5,0-4.6-2-4.6-4.6s2-4.6,4.6-4.6,4.6,2.1,4.6,4.6-2,4.6-4.6,4.6ZM55.42,55.82c-2.5,0-4.6-2-4.6-4.6s2-4.6,4.6-4.6,4.6,2.1,4.6,4.6h0c0,2.5-2.1,4.6-4.6,4.6Z"/>
</svg>