<?xml version="1.0" encoding="UTF-8"?>
<svg id="Layer_1" data-name="Layer 1" xmlns="http://www.w3.org/2000/svg" width="30mm" height="30mm" viewBox="0 0 85.04 85.04">
  <polygon points="18.97 23.17 18.97 34.67 22.57 34.67 22.57 26.77 62.47 26.77 62.47 58.27 47.37 58.27 47.37 61.87 66.07 61.87 66.07 23.17 18.97 23.17"/>
  <path d="M18.97,39.37v3.6c10.4,0,18.9,8.5,18.9,18.9h3.6c0-12.4-10.1-22.5-22.5-22.5Z"/>
  <path d="M18.97,46.67v3.6c6.4,0,11.6,5.2,11.6,11.6h3.6c0-8.4-6.8-15.2-15.2-15.2Z"/>
  <path d="M18.97,53.97v3.6c2.4,0,4.3,1.9,4.3,4.3h3.6c0-4.4-3.6-7.9-7.9-7.9Z"/>
</svg>