<?xml version="1.0" encoding="UTF-8"?>
<svg id="Layer_1" data-name="Layer 1" xmlns="http://www.w3.org/2000/svg" width="30mm" height="30mm" viewBox="0 0 85.04 85.04">
  <path d="M24.97,36.47v9.1c0,9.6,7.8,17.5,17.5,17.5s17.5-7.8,17.6-17.5v-9.1H24.97ZM56.37,45.57c0,7.7-6.2,13.9-13.9,13.9s-13.9-6.2-13.9-13.9v-5.4h27.8v5.4Z"/>
  <path d="M35.07,32.97c0-4.1,3.3-7.4,7.4-7.4s7.4,3.3,7.4,7.4v.5h3.6v-.5c0-6.1-4.9-11-11-11s-11,4.9-11,11v.5h3.6v-.5Z"/>
  <rect x="40.67" y="44.27" width="3.6" height="6.6"/>
</svg>