<?xml version="1.0" encoding="UTF-8"?>
<svg id="Layer_1" data-name="Layer 1" xmlns="http://www.w3.org/2000/svg" width="30mm" height="30mm" viewBox="0 0 85.04 85.04">
  <path d="M68.53,44.07c0-.2,0-.3-.1-.5,0-.3-.1-.5-.1-.8,0-.2-.1-.4-.1-.5-.1-.2-.1-.4-.2-.7-.1-.2-.1-.4-.2-.6-.1-.2-.1-.4-.2-.6-.1-.4-.3-.7-.5-1.1-.1-.2-.2-.3-.2-.5-.1-.2-.2-.4-.3-.6-.1-.2-.2-.3-.3-.5-.1-.2-.2-.4-.4-.5-.1-.2-.2-.3-.4-.5-.1-.2-.2-.3-.4-.5s-.4-.4-.5-.6c-.1-.1-.2-.2-.3-.3-.3-.3-.6-.6-.9-.8-.1-.1-.2-.1-.3-.2-.2-.2-.5-.4-.7-.6-.1-.1-.2-.1-.3-.2-.2-.2-.5-.3-.8-.5-.1-.1-.2-.1-.3-.2-.3-.2-.6-.3-.9-.4-.1,0-.2-.1-.3-.1-.4-.2-.8-.3-1.2-.4-.6-6.5-6-11.5-12.6-11.5-4.5,0-8.7,2.4-10.9,6.2-.8-.1-1.6-.2-2.4-.2-9,0-16.3,7.3-16.3,16.3s7.3,16.3,16.3,16.3v-3.6c-7,0-12.7-5.7-12.7-12.7s5.7-12.7,12.7-12.7c1,0,1.9.1,2.9.4l1.5.3.6-1.4c1.5-3.3,4.7-5.4,8.3-5.4,4.4,0,8.1,3.1,8.9,7.3h-.4c-5,0-9.6,2.7-12.1,7.1l3.2,1.8c1.8-3.2,5.3-5.2,8.9-5.2.7,0,1.4.1,2.1.2h.1c.3.1.6.1.8.2.1,0,.2.1.2.1.2.1.5.2.7.2.1,0,.2.1.3.1.2.1.4.2.6.3.1,0,.2.1.3.1.2.1.4.2.6.3.1.1.2.1.3.2.2.1.3.2.5.4.1.1.2.1.3.2.2.1.3.3.5.4.1.1.2.2.2.2.1.1.3.3.4.4.1.1.2.2.2.3.2.2.4.5.5.7.1.1.2.3.3.5.1.1.1.2.2.3.1.2.2.3.2.5.1.1.1.2.2.3.1.2.1.3.2.5.1.1.1.3.1.4.1.2.1.3.2.5,0,.2.1.3.1.5,0,.1.1.3.1.5s.1.4.1.6v.4c0,.3.1.6.1,1,0,5.7-4.6,10.3-10.3,10.3v3.6c7.7,0,13.9-6.2,13.9-13.9.1-.3.1-.7,0-1.1Z"/>
  <polygon points="35.23 51.37 37.83 53.97 40.83 50.97 40.83 64.67 44.43 64.67 44.43 50.97 47.43 53.97 50.03 51.37 42.63 43.97 35.23 51.37"/>
</svg>