<?xml version="1.0" encoding="UTF-8"?>
<svg id="Layer_1" data-name="Layer 1" xmlns="http://www.w3.org/2000/svg" width="30mm" height="30mm" viewBox="0 0 85.04 85.04">
  <path d="M56.62,33.82c0-7.8-6.3-14.1-14.1-14.1s-14.1,6.3-14.1,14.1c0,4.5,2.1,8.6,5.5,11.1l-3.8,20.4,4.1-3.8c2.2-2.1,5.1-3.1,8.4-3.1s6.3,1.1,8.4,3.1l4.1,3.8-4-20.3c3.4-2.6,5.5-6.7,5.5-11.2ZM42.52,54.82c-2.5,0-5,.5-7.1,1.5l1.8-9.4c1.6.7,3.4,1,5.3,1s3.7-.4,5.3-1l1.8,9.4c-2.1-1-4.6-1.5-7.1-1.5ZM42.52,44.32c-5.8,0-10.5-4.7-10.5-10.5s4.7-10.5,10.5-10.5,10.5,4.7,10.5,10.5-4.7,10.5-10.5,10.5Z"/>
</svg>