<?xml version="1.0" encoding="UTF-8"?>
<svg id="Layer_1" data-name="Layer 1" xmlns="http://www.w3.org/2000/svg" width="30mm" height="30mm" viewBox="0 0 85.04 85.04">
  <path d="M61.07,32.42l-2.6,2.6c2,2,3.1,4.7,3.1,7.5s-1.1,5.5-3.1,7.5l2.6,2.6c2.7-2.7,4.2-6.2,4.2-10s-1.5-7.5-4.2-10.2Z"/>
  <path d="M55.57,35.52l-2.6,2.6c1.2,1.2,1.8,2.7,1.8,4.4s-.6,3.2-1.8,4.4l2.6,2.6c1.9-1.9,2.9-4.3,2.9-7s-1-5.1-2.9-7Z"/>
  <path d="M28.87,33.42c-5,0-9.1,4.1-9.1,9.1s4.1,9.1,9.1,9.1h4.3l16.8,9.8V23.62l-16.8,9.8h-4.3ZM46.37,29.92v25.1l-12.2-7.1h-5.3c-3,0-5.4-2.4-5.4-5.4s2.4-5.4,5.4-5.4h5.3l12.2-7.2Z"/>
</svg>