<?xml version="1.0" encoding="UTF-8"?>
<svg id="Layer_1" data-name="Layer 1" xmlns="http://www.w3.org/2000/svg" width="30mm" height="30mm" viewBox="0 0 85.04 85.04">
  <polygon points="40.62 30.37 40.62 43.67 52.62 48.97 54.02 45.67 44.22 41.27 44.22 30.37 40.62 30.37"/>
  <path d="M42.42,24.97c7.6,0,14.3,4.8,16.7,12.1l3.4-1.1c-2.9-8.7-10.9-14.6-20.1-14.6s-17.2,5.8-20.1,14.6l3.4,1.1c2.4-7.3,9.1-12.1,16.7-12.1Z"/>
  <path d="M63.52,41.47v-.3l-3.6.2v1.1c0,9.7-7.9,17.5-17.5,17.5s-17.5-7.9-17.5-17.5v-1.1l-3.6-.2v1.3c0,11.7,9.5,21.2,21.2,21.2s21.2-9.5,21.2-21.2c-.1-.3-.2-.7-.2-1Z"/>
</svg>