<?xml version="1.0" encoding="UTF-8"?>
<svg id="Layer_1" data-name="Layer 1" xmlns="http://www.w3.org/2000/svg" width="30mm" height="30mm" viewBox="0 0 85.04 85.04">
  <path d="M68.52,47.92c0-6.26-4.17-11.53-9.82-13.34-.57-6.33-6.03-11.36-12.58-11.36-4.5,0-8.6,2.4-10.9,6.2-.8-.1-1.6-.2-2.4-.2-9,0-16.3,7.3-16.3,16.3s7.3,16.3,16.3,16.3h21.8c7.6,0,13.9-6.2,13.8-13.8,0-.03,0-.07,0-.1h.1ZM54.62,58.22h-21.8c-7,0-12.7-5.7-12.7-12.7s5.7-12.7,12.7-12.7c1,0,1.9.1,2.9.4l1.5.3.6-1.4c1.5-3.3,4.7-5.4,8.3-5.4,4.36,0,8.03,3.12,8.9,7.23-.13,0-.27-.02-.4-.03-5,0-9.6,2.7-12.1,7.1l3.2,1.8c1.8-3.2,5.2-5.2,8.9-5.2,1.39,0,2.71.28,3.92.77.14.06.28.13.42.19.12.05.23.11.35.17.21.11.42.22.62.35.03.02.06.04.09.06,1.95,1.22,3.46,3.06,4.27,5.23,0,.02.02.04.02.06.09.24.16.48.23.72.02.08.04.17.06.25.05.2.1.4.14.61.03.15.05.31.07.46.02.15.05.3.06.46.03.32.05.64.05.97,0,5.7-4.6,10.3-10.3,10.3Z"/>
</svg>