<?xml version="1.0" encoding="UTF-8"?>
<svg id="Layer_1" data-name="Layer 1" xmlns="http://www.w3.org/2000/svg" width="30mm" height="30mm" viewBox="0 0 85.04 85.04">
  <path d="M59.25,31.88l-1-2.6-6.2,6.2c-.7.7-1.9.7-2.6,0s-.7-1.9,0-2.6l6.2-6.2-2.6-1c-3.9-1.6-8.7-.5-11.8,2.6-2.8,2.8-3.8,6.8-2.8,10.5l-9.4,9.4,2.6,2.6,11-11-.4-1.1c-1.1-2.7-.4-5.8,1.6-7.8,1.3-1.3,3-2,4.8-2.2l-1.7,1.7c-2.1,2.1-2.1,5.6,0,7.7,2.1,2.1,5.6,2.1,7.7,0l1.7-1.7c-.1,1.8-.9,3.5-2.2,4.8-2.1,2-5.1,2.7-7.8,1.6l-1.1-.4-11,11,2.6,2.6,9.3-9.5c3.7,1,7.7,0,10.5-2.8,3.1-3.1,4.2-7.8,2.6-11.8Z"/>
  <path d="M29.25,56.08c-.3-.4-.5-.8-.5-1.3s.2-1,.5-1.3l-2.6-2.6c-1,1-1.6,2.3-1.6,3.8,0,1.4.6,2.8,1.6,3.8s2.3,1.6,3.8,1.6c1.4,0,2.8-.6,4-1.4l-2.6-2.6c-.7.7-1.9.7-2.6,0Z"/>
</svg>