<?xml version="1.0" encoding="UTF-8"?>
<svg id="Layer_1" data-name="Layer 1" xmlns="http://www.w3.org/2000/svg" width="30mm" height="30mm" viewBox="0 0 85.04 85.04">
  <path d="M62.32,41.82c-3.5-8-11.3-13.2-19.8-13.2s-16.3,5.2-19.8,13.2l-.3.7.3.7c3.5,8,11.3,13.2,19.8,13.2s16.3-5.2,19.8-13.2l.3-.7-.3-.7ZM42.42,52.82c-6.8,0-13.1-4-16.1-10.3,3.1-6.3,9.3-10.3,16.1-10.3s13.1,4,16.1,10.3c-3,6.3-9.2,10.3-16.1,10.3Z"/>
  <path d="M42.42,34.62c-4.3,0-7.9,3.5-7.9,7.9s3.5,7.9,7.9,7.9,7.9-3.5,7.9-7.9-3.5-7.9-7.9-7.9ZM42.42,46.72c-2.3,0-4.2-1.9-4.2-4.2s1.9-4.2,4.2-4.2,4.2,1.9,4.2,4.2c.1,2.3-1.8,4.2-4.2,4.2Z"/>
</svg>