<?xml version="1.0" encoding="UTF-8"?>
<svg id="Layer_1" data-name="Layer 1" xmlns="http://www.w3.org/2000/svg" width="30mm" height="30mm" viewBox="0 0 85.04 85.04">
  <path d="M42.52,21.12c-9.6,0-17.5,8-17.5,17.7,0,13.1,15.8,23.9,16.5,24.4l1,.7,1-.7c.7-.5,16.5-11.4,16.5-24.4,0-9.8-7.9-17.7-17.5-17.7ZM42.52,59.42c-3.4-2.5-13.9-11.2-13.9-20.6,0-7.7,6.2-14,13.9-14s13.9,6.3,13.9,14c0,9.4-10.5,18.1-13.9,20.6Z"/>
  <path d="M42.62,29.62c-4.4,0-7.9,3.6-7.9,7.9h3.6c0-2.3,1.9-4.2,4.2-4.2s4.2,1.9,4.2,4.2h3.7c0-4.3-3.6-7.9-7.8-7.9Z"/>
</svg>