<?xml version="1.0" encoding="UTF-8"?>
<svg id="Layer_1" data-name="Layer 1" xmlns="http://www.w3.org/2000/svg" width="30mm" height="30mm" viewBox="0 0 85.04 85.04">
  <path d="M47.62,48.97c2.6,1.3,5,3.1,7.1,5.2,3.3,1.5,6.3,4,8.4,7.3l3.1-2c-4.3-6.4-11.3-10.5-18.6-10.5Z"/>
  <path d="M48.92,27.37c3.7.6,6.6,3.8,6.6,7.8s-2.9,7.2-6.6,7.8c-.9,1.4-2.1,2.6-3.4,3.5.7.1,1.4.2,2.2.2,6.3,0,11.5-5.2,11.5-11.5s-5.2-11.5-11.5-11.5c-.7,0-1.4.1-2.1.2,1.2.9,2.4,2.1,3.3,3.5Z"/>
  <path d="M37.32,48.97c-7.3,0-14.3,4-18.5,10.5l3.1,2c3.5-5.5,9.4-8.8,15.4-8.8s11.9,3.3,15.4,8.8l3.1-2c-4.2-6.5-11.3-10.5-18.5-10.5Z"/>
  <path d="M37.32,46.57c6.4,0,11.5-5.1,11.5-11.5s-5.2-11.5-11.5-11.5-11.5,5.2-11.5,11.5,5.2,11.5,11.5,11.5ZM37.32,27.27c4.4,0,7.9,3.5,7.9,7.9s-3.6,7.9-7.9,7.9-7.9-3.6-7.9-7.9,3.6-7.9,7.9-7.9Z"/>
</svg>