<?xml version="1.0" encoding="UTF-8"?>
<svg id="Layer_1" data-name="Layer 1" xmlns="http://www.w3.org/2000/svg" width="30mm" height="30mm" viewBox="0 0 85.04 85.04">
  <path d="M55.57,24.92s-2,1-6.4,1c-2.3,0-4.2-.6-6.1-1.1-2.1-.6-4.4-1.3-7.2-1.3-5.4,0-7.9,1.3-8.1,1.4l-.9.5v36.1h3.6v-13.3c1-.3,2.8-.7,5.4-.7,2.3,0,4.2.6,6.1,1.1,2.1.6,4.4,1.3,7.2,1.3,5.4,0,7.9-1.3,8.1-1.4l.9-.5v-24.5l-2.6,1.4ZM54.57,45.72c-1,.3-2.8.6-5.4.6-2.3,0-4.2-.6-6.1-1.1-2.1-.6-4.4-1.3-7.2-1.3-2.3,0-4.1.2-5.4.5v-16.8c1-.3,2.8-.6,5.4-.6,2.3,0,4.2.6,6.1,1.1,2.1.6,4.4,1.3,7.2,1.3,2.3,0,4.1-.2,5.4-.5v16.8Z"/>
</svg>