<?xml version="1.0" encoding="UTF-8"?>
<svg id="Layer_1" data-name="Layer 1" xmlns="http://www.w3.org/2000/svg" width="30mm" height="30mm" viewBox="0 0 85.04 85.04">
  <path d="M57.57,35.88c0-4.1-1.7-8-4.7-10.9-3-2.9-6.9-4.4-11.1-4.2-7.9.3-14.4,7.3-14.4,15.4,0,10.2-3,15.5-4.7,17.7-.6.8-1,1.1-1,1.1l2.1,3c5.6-3.6,12.1-5.5,18.8-5.5s13.2,1.9,18.8,5.5l2-3c-.1,0-5.8-4.8-5.8-19.1ZM42.67,48.88c-5,0-9.9.9-14.4,2.8,1.5-3.4,2.9-8.4,2.9-15.4.1-6.2,5-11.5,11-11.8,3.2-.1,6.2,1,8.5,3.2,2.2,2.2,3.5,5.1,3.5,8.3,0,7.1,1.4,12.2,2.9,15.7-4.6-1.9-9.4-2.8-14.4-2.8Z"/>
  <path d="M42.77,60.68c-3,0-5.8-1.1-7.9-3.1l-2.5,2.6c2.9,2.6,6.5,4.1,10.4,4.1s7.5-1.4,10.4-4.1l-2.5-2.6c-2.2,2-4.9,3.1-7.9,3.1Z"/>
</svg>