<?xml version="1.0" encoding="UTF-8"?>
<svg id="Layer_1" data-name="Layer 1" xmlns="http://www.w3.org/2000/svg" width="30mm" height="30mm" viewBox="0 0 85.04 85.04">
  <path d="M42.52,43.57c-3,0-5.8-1.6-7.4-4.1l-2.8,1.8c2.3,3.5,6.1,5.6,10.2,5.6s7.9-2.1,10.2-5.6l-2.8-1.8c-1.6,2.6-4.4,4.1-7.4,4.1Z"/>
  <path d="M63.12,38.27h1.8v-13.3H20.12v13.4h1.8c2.5,0,4.2,1.7,4.2,4.2s-1.7,4.2-4.2,4.2h-1.8v13.3h44.8v-13.4h-1.8c-2.5,0-4.2-1.7-4.2-4.2s1.7-4.2,4.2-4.2ZM61.22,50.27v6.2H23.72v-6.2c3.5-.8,6-3.8,6-7.7s-2.5-6.9-6-7.7v-6.2h37.5v6.2c-3.5.8-6,3.8-6,7.7s2.5,6.9,6,7.7Z"/>
</svg>