<?xml version="1.0" encoding="UTF-8"?>
<svg id="Layer_1" data-name="Layer 1" xmlns="http://www.w3.org/2000/svg" width="30mm" height="30mm" viewBox="0 0 85.04 85.04">
  <path d="M42.62,24.82c-9.7,0-17.5,7.9-17.5,17.5,0,2.3.4,4.5,1.3,6.6l-1.6,11.3,11.3-1.6c2.1.9,4.3,1.3,6.6,1.3,9.7,0,17.5-7.9,17.5-17.5,0-9.7-7.9-17.6-17.6-17.6ZM42.62,56.22c-1.9,0-3.8-.4-5.6-1.2l-.5-.2-7.5,1.1,1.1-7.5-.2-.5c-.8-1.8-1.2-3.7-1.2-5.6,0-7.7,6.2-13.9,13.9-13.9s13.9,6.2,13.9,13.9c0,7.7-6.2,13.9-13.9,13.9Z"/>
  <rect x="40.82" y="38.72" width="3.6" height="12.1"/>
  <path d="M42.62,32.72c-1.3,0-2.4,1.1-2.4,2.4s1.1,2.4,2.4,2.4,2.4-1.1,2.4-2.4c0-1.4-1-2.4-2.4-2.4Z"/>
</svg>