<?xml version="1.0" encoding="UTF-8"?>
<svg id="Layer_1" data-name="Layer 1" xmlns="http://www.w3.org/2000/svg" width="30mm" height="30mm" viewBox="0 0 85.04 85.04">
  <path d="M56.87,46.67c-1.3,0-2.5.5-3.5,1.3l-5.5-3.2c.1-.4.1-.7.1-1,0-.8-.2-1.6-.5-2.3l3.5-3.5c.7.3,1.5.5,2.3.5,3,0,5.5-2.5,5.5-5.5s-2.5-5.5-5.5-5.5-5.5,2.5-5.5,5.5c0,.8.2,1.6.5,2.3l-3.5,3.5c-.7-.3-1.5-.5-2.3-.5-.6,0-1.2.1-1.8.3l-5.4-6.5c.4-.9.7-1.8.7-2.8,0-3-2.5-5.5-5.5-5.5s-5.5,2.5-5.5,5.5,2.5,5.5,5.5,5.5c.7,0,1.3-.1,1.9-.3l5.4,6.5c-.4.9-.7,1.8-.7,2.8,0,.6.1,1.2.3,1.8l-6.6,5.4c-.8-.5-1.7-.7-2.6-.7-3,0-5.5,2.5-5.5,5.5s2.5,5.5,5.5,5.5,5.5-2.5,5.4-5.5c0-.7-.2-1.4-.4-2l6.5-5.3c.8.5,1.8.8,2.8.8,1.3,0,2.5-.5,3.5-1.3l5.5,3.2c-.1.4-.1.7-.1,1,0,3,2.5,5.5,5.5,5.5s5.5-2.5,5.5-5.5-2.5-5.5-5.5-5.5ZM53.47,31.07c1,0,1.7.8,1.7,1.7,0,.9-.8,1.7-1.7,1.7s-1.7-.8-1.7-1.7.8-1.7,1.7-1.7ZM30.57,30.87c-.9,0-1.7-.8-1.7-1.7s.8-1.7,1.7-1.7c1,0,1.7.8,1.7,1.7s-.8,1.7-1.7,1.7ZM28.17,57.37c-.9,0-1.7-.8-1.7-1.7s.8-1.7,1.7-1.7c1,0,1.7.8,1.7,1.7s-.8,1.7-1.7,1.7ZM57.07,53.77c-.9,0-1.7-.8-1.7-1.7s.8-1.7,1.7-1.7c1,0,1.7.8,1.7,1.7s-.8,1.7-1.7,1.7Z"/>
</svg>