<?xml version="1.0" encoding="UTF-8"?>
<svg id="Layer_1" data-name="Layer 1" xmlns="http://www.w3.org/2000/svg" width="30mm" height="30mm" viewBox="0 0 85.04 85.04">
  <polygon points="51.32 55.92 24.62 55.92 24.62 40.12 31.32 40.12 31.32 36.52 20.92 36.52 20.92 59.52 55.02 59.52 55.02 36.52 51.32 36.52 51.32 55.92"/>
  <path d="M62.02,41.02l-3,2c2,3,2,7.1,0,10.1l3,2c2.8-4.3,2.8-9.9,0-14.1Z"/>
  <path d="M41.62,42.52c4.7,0,8.5-3.8,8.5-8.5s-3.8-8.5-8.5-8.5-8.5,3.8-8.5,8.5,3.8,8.5,8.5,8.5ZM41.62,29.22c2.7,0,4.9,2.1,4.9,4.9s-2.2,4.9-4.9,4.9-4.9-2.2-4.9-4.9,2.2-4.9,4.9-4.9Z"/>
</svg>