<?xml version="1.0" encoding="UTF-8"?>
<svg id="Layer_1" data-name="Layer 1" xmlns="http://www.w3.org/2000/svg" width="105.83mm" height="24.69mm" viewBox="0 0 299.99 69.99">
  <path d="M112.52,14.07c-11.56,0-20.93,9.43-20.93,20.93s9.43,20.93,20.93,20.93,20.93-9.43,20.93-20.93-9.36-20.93-20.93-20.93ZM112.52,47.62c-6.98,0-12.63-5.66-12.63-12.63s5.66-12.63,12.63-12.63,12.63,5.66,12.63,12.63-5.66,12.63-12.63,12.63Z" fill="#00e6c2"/>
  <polygon points="108.89 40.97 119.93 34.83 108.89 28.82 108.89 40.97" fill="#00e6c2"/>
  <path d="M142.21,24.19v2.86h-2.15v2.96h2.15v15.04h3.63v-15.04h3.94v-2.96h-3.94v-2.86c0-.64.3-.94.84-.94h3.97v-2.93h-4.44c-2.42,0-4,1.38-4,3.87Z" fill="#00e6c2"/>
  <path d="M156.98,40.91v-20.56h-3.67v20.77c0,2.66,1.08,3.94,3.1,3.94h3.67v-3.26h-2.42c-.54,0-.67-.2-.67-.87v-.02Z" fill="#00e6c2"/>
  <path d="M170.91,26.55c-5.18,0-8.78,3.94-8.78,9.49s3.5,9.49,8.65,9.49,8.72-4.17,8.72-9.52-3.4-9.46-8.58-9.46h0ZM170.81,42.35c-3.37,0-5.18-2.86-5.18-6.33s1.85-6.33,5.25-6.33,5.12,2.86,5.12,6.33-1.88,6.33-5.18,6.33h-.01Z" fill="#00e6c2"/>
  <polygon points="204.9 27.05 200.9 42.05 200.59 42.05 196.15 27.05 192.35 27.05 188.14 42.05 187.87 42.05 183.77 27.05 180.13 27.05 185.11 45.05 190.36 45.05 194.23 31.75 197.9 45.05 203.19 45.05 208.39 27.05 204.9 27.05" fill="#00e6c2"/>
</svg>