<?xml version="1.0" encoding="UTF-8"?>
<svg id="Layer_1" data-name="Layer 1" xmlns="http://www.w3.org/2000/svg" width="640" height="640" viewBox="0 0 640 640">
  <path d="M144,88c0-13.3-10.7-24-24-24s-24,10.7-24,24v464c0,13.3,10.7,24,24,24s24-10.7,24-24v-100l80.3-20.1c41.1-10.3,84.6-5.5,122.5,13.4,44.2,22.1,95.5,24.8,141.7,7.4l34.7-13c12.5-4.7,20.8-16.6,20.8-30V130c0-23-24.2-38-44.8-27.7l-9.6,4.8c-46.3,23.2-100.8,23.2-147.1,0-35.1-17.6-75.4-22-113.5-12.5l-85,21.4v-28ZM144,165.5l96.6-24.2c27-6.7,55.5-3.6,80.4,8.8,54.9,27.4,118.7,29.7,175,6.8v241.8l-24.4,9.1c-33.7,12.6-71.2,10.7-103.4-5.4-48.2-24.1-103.3-30.1-155.6-17.1l-68.6,17.2v-237Z" fill="#fff"/>
</svg>