<?xml version="1.0" encoding="UTF-8"?>
<svg id="Layer_1" data-name="Layer 1" xmlns="http://www.w3.org/2000/svg" width="640" height="640" viewBox="0 0 640 640">
  <path d="M75.9,112c-24.2,0-43.9,19.7-43.9,43.9v328.2c0,24.3,19.7,43.9,43.9,43.9,5.5,0,10.7-1,15.7-2.9,12.9-4.9,103.4-37.1,228.4-37.1s215.5,32.3,228.4,37.1c5,1.9,10.2,2.9,15.7,2.9,24.3,0,43.9-19.7,43.9-43.9V155.9c0-24.3-19.7-43.9-43.9-43.9-5.5,0-10.7,1-15.7,2.9-12.9,4.9-103.4,37.1-228.4,37.1s-215.5-32.3-228.4-37.1c-5-1.9-10.2-2.9-15.7-2.9ZM104,240c0-22.1,17.9-40,40-40s40,17.9,40,40-17.9,40-40,40-40-17.9-40-40ZM368.1,224c7.5,0,14.6,3.6,19.1,9.6l124.5,166.6c5.9,7.9,6.4,18.5,1.3,26.9-5.1,8.4-14.8,12.8-24.5,11.1-45.8-7.8-103.3-14.2-168.4-14.2s-123.4,6.5-169.3,14.4c-9.8,1.7-19.7-2.9-24.7-11.5-5-8.6-4.3-19.4,1.9-27.2l69.3-86.7c4.6-5.7,11.5-9,18.7-9s14.2,3.3,18.7,9l27.5,34.4,86.7-113.9c4.6-6,11.7-9.5,19.2-9.5Z" fill="#fff"/>
</svg>