<?xml version="1.0" encoding="UTF-8"?>
<svg id="Layer_1" data-name="Layer 1" xmlns="http://www.w3.org/2000/svg" width="300" height="100" viewBox="0 0 300 100">
  <path d="M91.49,64.14c-7.86,0-14.23-6.37-14.23-14.23h-9.35c0,13.03,10.62,23.58,23.58,23.58s23.58-10.62,23.58-23.58h-9.35c0,7.86-6.37,14.23-14.23,14.23Z" fill="#00b9c0"/>
  <rect x="86.43" y="44.85" width="10.13" height="10.13" fill="#00b9c0"/>
  <path d="M129.06,36.41h-3.83l-.27,4.55h-3.15v3.3h3.15l.04,12.55c0,3,1.18,4.44,3.45,4.44h5.65v-3.68h-4.21c-.61,0-.8-.23-.8-.99v-12.32h5.01v-3.3h-5.04v-4.55Z" fill="#00b9c0"/>
  <rect x="137.59" y="40.92" width="4.1" height="20.32" fill="#00b9c0"/>
  <path d="M139.64,32.65c-1.52,0-2.73,1.14-2.73,2.58,0,1.52,1.25,2.65,2.77,2.65s2.69-1.14,2.69-2.65-1.25-2.58-2.73-2.58Z" fill="#00b9c0"/>
  <path d="M155.3,40.39c-5.73,0-9.82,4.55-9.82,10.73,0,7.09,5.04,10.69,10.2,10.69,3.11,0,6.29-1.37,8.38-4.06l-2.28-2.39c-1.71,1.93-3.94,2.88-6.07,2.88-2.88,0-5.57-1.82-6.18-5.46h14.83c.04-1.44.04-1.97.04-2.69,0-5.16-3.37-9.71-9.1-9.71ZM149.54,49.6c.53-3.87,3.03-5.65,5.54-5.65,2.65,0,5.27,2.05,5.35,5.65h-10.88Z" fill="#00b9c0"/>
  <path d="M179.23,40.39c-3.22,0-6.18,1.97-6.9,4.47h-.27v-3.91h-3.79v20.29h4.13v-10.2c0-4.44,2.27-7.09,5.35-7.09,2.58,0,4.13,1.78,4.13,5.84v11.45h4.13v-12.78c0-5.01-2.31-8.08-6.79-8.08Z" fill="#00b9c0"/>
  <path d="M205.39,44.75h-.27c-.91-2.31-3.07-4.36-6.41-4.36-5.27,0-9.02,4.47-9.02,10.69s3.91,10.73,9.18,10.73c3.45,0,5.73-1.97,6.86-4.47h.23v3.91h3.45v-27.87h-4.02v11.38ZM199.55,57.98c-3.45,0-5.65-2.84-5.65-6.94s2.39-6.83,5.69-6.83c3.68,0,5.69,3.15,5.69,6.83s-2.16,6.94-5.73,6.94Z" fill="#00b9c0"/>
  <path d="M230.53,57.98c-.34,0-.53-.27-.53-.72v-9.21c0-4.85-3.11-7.66-7.81-7.66-4.21,0-7.36,2.35-8.68,6.37l3.41,1.44c1.21-2.96,2.65-4.25,5.27-4.25,2.12,0,3.94,1.59,3.94,4.55v1.25h-4.78c-4.4,0-8.38,2.2-8.38,6.33,0,3.49,2.81,5.65,6.37,5.65s6.14-2.05,7.36-4.74h.34l-.04,1.29c0,1.93.91,2.96,2.73,2.96h2.35v-3.26h-1.55ZM220.14,58.17c-1.59,0-3.22-.83-3.22-2.43,0-2.01,2.58-3,5.84-3h3.37c-.3,2.65-3.11,5.42-5.99,5.42Z" fill="#00b9c0"/>
</svg>