<?xml version="1.0" encoding="UTF-8"?>
<svg id="Layer_1" data-name="Layer 1" xmlns="http://www.w3.org/2000/svg" width="300" height="100" viewBox="0 0 300 100">
  <path d="M135.02,25.87c-2.55,0-4.67,1.48-5.84,3.68h-.13l-.06-3.26h-3.22v23.21h3.71v-8.8h.13c.84,1.71,2.39,3.32,5.38,3.32,4.74,0,7.54-4.22,7.54-9.12s-2.74-9.03-7.51-9.03ZM134.12,40.47c-2.97,0-4.51-2.55-4.51-5.58s1.74-5.64,4.64-5.64,4.51,2.8,4.51,5.77c0,3.22-1.87,5.45-4.64,5.45Z" fill="#fff"/>
  <path d="M158.56,38.34c-1.13,1.16-2.68,2.26-4.84,2.26-2.87,0-5.16-1.68-5.45-4.13h12.8v-2.06c0-4.93-3-8.54-7.77-8.54s-8.67,4.06-8.67,9.19c0,5.71,4.32,8.93,8.83,8.93,2.77,0,5.42-1.1,7.29-3.45l-2.19-2.19ZM153.14,29.25c2.8,0,4.26,1.9,4.32,4.32h-9.19c.29-2.58,2.45-4.32,4.87-4.32Z" fill="#fff"/>
  <path d="M243.09,39.92v-7.54c0-4.19-2.87-6.51-6.84-6.51-3.48,0-6.42,1.9-7.87,5.22l3.13,1.52c.9-1.97,2.71-3.35,4.71-3.35s3.16,1.35,3.16,3.13v1.1h-3.39c-4.35,0-7.64,2.06-7.64,5.45s2.61,5,5.38,5c2.61,0,4.97-1.45,6.13-3.97h.16v.84c0,1.87,1,2.74,2.48,2.74h2.35v-3.06h-1.29c-.42,0-.48-.16-.48-.55ZM234.48,40.86c-1.42,0-2.42-.81-2.42-2.16,0-1.77,1.71-2.64,4.13-2.64h3.19c-.29,2.87-2.58,4.8-4.9,4.8Z" fill="#fff"/>
  <path d="M219.69,25.8c-2.9,0-4.55,1.68-5.71,3.74h-.06v-3.26h-3.39v17.25h3.71v-8.93c0-2.68,1.48-5.51,4.38-5.51,2.32,0,3.19,1.77,3.19,4.13v10.32h3.71v-10.9c0-4-2.06-6.84-5.84-6.84Z" fill="#fff"/>
  <path d="M251.73,40.47c-.55,0-.58-.19-.58-.64v-19.99h-3.71v20.02c0,2.16.68,3.68,3.03,3.68h3.58v-3.06h-2.32Z" fill="#fff"/>
  <path d="M181.45,28.87c1.52,0,3.32.84,4.16,2.71l2.71-1.39c-1-2.26-3.16-4.38-6.87-4.38s-6.42,2.42-6.42,5.26c0,3.29,3.26,4.48,5.9,5.32,1.93.58,3.58,1.26,3.58,2.64s-1.32,1.93-2.9,1.93c-2.26,0-4-1.29-5.42-3.03l-2.32,1.97c1.61,2.51,4.48,4.13,7.61,4.13,3.48,0,6.74-1.9,6.74-5.32s-3.39-4.45-6.09-5.29c-1.97-.61-3.39-1.1-3.39-2.55,0-1.19,1.16-2,2.71-2Z" fill="#fff"/>
  <path d="M167.71,33.57c0-2.32.9-3.58,3.03-3.58h2.39v-3.71h-1.13c-2.45,0-3.68.93-4.51,3.16h-.1v-3.16h-3.39v17.25h3.71v-9.96Z" fill="#fff"/>
  <path d="M199.12,25.8c-4.97,0-9.12,4.13-9.12,9.09s4.09,9.12,9.06,9.12,9.06-4.13,9.06-9.12-3.8-9.09-9-9.09ZM199.05,40.63c-3.13,0-5.51-2.58-5.51-5.74s2.39-5.71,5.51-5.71,5.51,2.55,5.51,5.71-2.42,5.74-5.51,5.74Z" fill="#fff"/>
  <path d="M133.83,55.17c-3.41,0-5.39,2.05-6.27,4.25h-.13v-3.77h-1.62v23.51h1.62v-10.24h.16c.81,2.27,2.83,4.32,6.14,4.32,4.38,0,7.76-3.49,7.76-8.99s-3.18-9.08-7.66-9.08ZM133.66,71.65c-4.06,0-6.11-3.49-6.11-7.36s2.21-7.52,6.24-7.52c3.6,0,5.91,3.01,5.91,7.52s-2.53,7.36-6.04,7.36Z" fill="#fff"/>
  <path d="M157.73,70.66v-9.53c0-3.26-2.08-5.92-6.11-5.92-3.28,0-6.24,1.92-7.53,5.15l1.56.74c1.1-2.85,3.6-4.22,5.91-4.22,2.83,0,4.42,1.73,4.42,4.25v2.18h-4.42c-4.38,0-7.47,1.92-7.47,5.09s2.44,4.8,5.42,4.8,5.23-1.89,6.3-4.48h.26l-.03,1.7c0,1.54.49,2.4,1.92,2.4h1.72v-1.6h-1.56c-.19,0-.39-.22-.39-.54ZM149.77,71.52c-2.14,0-3.9-.9-3.9-3.13,0-2.4,2.63-3.65,5.75-3.65h4.35c-.39,4.03-3.15,6.78-6.2,6.78Z" fill="#fff"/>
  <path d="M168.54,71.36h-.23l-5.85-15.67h-1.82l6.37,17.11h.97l-1.01,2.56c-.42,1.06-.94,1.76-1.82,1.76h-2.89v1.6h3.12c1.46,0,2.27-.96,3.02-2.85l7.86-20.18h-1.82l-5.91,15.67Z" fill="#fff"/>
  <path d="M71.13,42.37l-5.91,6,12.63,12.8,28.1-28.49c-1.52-2.4-3.33-4.59-5.41-6.51l-22.69,23.01-6.71-6.8Z" fill="#fff"/>
  <path d="M97.9,47.52c.1.81.16,1.64.16,2.48,0,10.83-8.78,19.62-19.62,19.62s-19.62-8.78-19.62-19.62,8.78-19.62,19.62-19.62c3.29,0,6.39.82,9.12,2.25l9.29-9.42c-5.23-3.6-11.57-5.71-18.41-5.71-17.96,0-32.5,14.64-32.5,32.5s14.64,32.5,32.5,32.5,32.5-14.64,32.5-32.5c0-4.61-.97-9-2.7-12.97l-10.35,10.49Z" fill="#fff"/>
</svg>