<?xml version="1.0" encoding="UTF-8"?>
<svg id="Layer_1" data-name="Layer 1" xmlns="http://www.w3.org/2000/svg" width="300" height="300" viewBox="0 0 300 300">
  <path d="M100.69,208.68v4.36h-3.29v4.52h3.29v22.94h5.54v-22.94h6.01v-4.52h-6.01v-4.36c0-.98.46-1.44,1.28-1.44h6.06v-4.47h-6.78c-3.7,0-6.11,2.1-6.11,5.9Z" fill="#fff"/>
  <rect x="115.98" y="212.99" width="5.54" height="27.51" fill="#fff"/>
  <path d="M118.76,201.8c-2.05,0-3.7,1.54-3.7,3.49,0,2.05,1.69,3.59,3.75,3.59s3.64-1.54,3.64-3.59-1.69-3.49-3.7-3.49Z" fill="#fff"/>
  <path d="M143.76,212.27c-4.93,0-7.85,2.77-9.5,5.9h-.31v-15.4h-5.44v37.73h4.67v-5.29h.31c1.44,3.54,4.77,6.06,9.5,6.06,6.57,0,12.22-5.65,12.22-14.83,0-8.01-4.62-14.17-11.45-14.17ZM142.11,236.09c-5.18,0-8.01-4.26-8.01-9.34s3.03-9.29,8.06-9.29c4.41,0,7.34,3.49,7.34,9.14s-3.18,9.5-7.39,9.5Z" fill="#fff"/>
  <path d="M165.78,218.07h-.36v-5.03h-4.98v27.46h5.59v-15.91c0-3.54,1.33-5.49,5.18-5.49h3.64v-6.11h-1.75c-3.18,0-6.21,1.08-7.34,5.08Z" fill="#fff"/>
  <path d="M199.92,235.12v-12.47c0-6.57-4.21-10.37-10.57-10.37-5.7,0-9.96,3.18-11.75,8.62l4.62,1.95c1.64-4,3.59-5.75,7.13-5.75,2.87,0,5.34,2.16,5.34,6.16v1.69h-6.47c-5.95,0-11.34,2.98-11.34,8.57,0,4.72,3.8,7.65,8.62,7.65s8.32-2.77,9.96-6.42h.46l-.05,1.75c0,2.62,1.23,4,3.7,4h3.18v-4.41h-2.1c-.46,0-.72-.36-.72-.98ZM186.57,236.35c-2.16,0-4.36-1.13-4.36-3.29,0-2.72,3.49-4.06,7.9-4.06h4.57c-.41,3.59-4.21,7.34-8.11,7.34Z" fill="#fff"/>
  <path d="M105.37,78.32l17.18,18.32c6.96-7.16,16.68-11.62,27.45-11.62s20.49,4.46,27.45,11.62l17.21-18.36s0,0,0,0l.02-.02c-11.46-11.37-27.24-18.4-44.67-18.4s-33.18,7.06-44.64,18.43l.02.02s0,0,0,0Z" fill="#fff"/>
  <path d="M143.23,123.28c0,.47.05.92.14,1.37.63,3.09,3.37,5.42,6.63,5.42s6.01-2.34,6.63-5.43c.09-.44.14-.89.14-1.36,0-3.74-3.03-6.77-6.77-6.77s-6.77,3.05-6.77,6.77Z" fill="#fff"/>
  <path d="M150,186.71h0c.12,0,.24,0,.36,0,34.88-.2,63.06-28.68,63.06-63.42,0-10.57-2.6-20.53-7.16-29.29l-19.05,20.31s0,0,0,0h-.01c.69,2.89,1.07,5.89,1.07,8.98,0,8.59-2.83,16.51-7.6,22.9-6.98,9.33-18.12,15.37-30.67,15.37s-23.69-6.04-30.67-15.37c-4.77-6.39-7.6-14.31-7.6-22.9,0-3.09.38-6.09,1.07-8.97h-.01s0-.01,0-.02l-19.02-20.29c-4.59,8.77-7.19,18.72-7.19,29.26,0,35.05,28.57,63.43,63.42,63.43Z" fill="#fff"/>
  <path d="M150,93.2c-8.6,0-16.33,3.65-21.81,9.44h.01s0,.02,0,.02l8.16,8.7s0,0,0,0l1.14,1.21c3.02-3.52,7.5-5.76,12.5-5.76s9.48,2.24,12.5,5.76l1.14-1.21s0,0,0,0l8.17-8.72s0,0,0,0h.01c-5.48-5.8-13.22-9.43-21.83-9.43Z" fill="#fff"/>
</svg>