<?xml version="1.0" encoding="UTF-8"?>
<svg id="Layer_1" data-name="Layer 1" xmlns="http://www.w3.org/2000/svg" width="300" height="100" viewBox="0 0 300 100">
  <path d="M91,33.35l6.36,6.79c2.58-2.65,6.18-4.3,10.17-4.3s7.59,1.65,10.17,4.3l6.37-6.8s0,0,0,0h0c-4.24-4.22-10.09-6.82-16.54-6.82s-12.29,2.61-16.53,6.83h0s0,0,0,0Z" fill="#fff"/>
  <path d="M105.02,50c0,.17.02.34.05.51.23,1.15,1.25,2.01,2.46,2.01s2.23-.87,2.46-2.01c.03-.16.05-.33.05-.5,0-1.39-1.12-2.51-2.51-2.51s-2.51,1.13-2.51,2.51Z" fill="#fff"/>
  <path d="M121.31,46.68s0,0,0,0h0c.26,1.07.4,2.18.4,3.33,0,3.18-1.05,6.11-2.82,8.48-2.59,3.46-6.71,5.69-11.36,5.69s-8.77-2.24-11.36-5.69c-1.77-2.36-2.82-5.3-2.82-8.48,0-1.14.14-2.26.4-3.32h0s0,0,0,0l-7.04-7.51c-1.7,3.25-2.66,6.93-2.66,10.84,0,12.98,10.58,23.49,23.49,23.49.05,0,.09,0,.13,0,12.92-.07,23.36-10.62,23.36-23.49,0-3.91-.96-7.6-2.65-10.85l-7.05,7.52Z" fill="#fff"/>
  <path d="M107.53,38.86c-3.18,0-6.05,1.35-8.08,3.49h0s0,0,0,0l3.02,3.22s0,0,0,0l.42.45c1.12-1.31,2.78-2.13,4.63-2.13s3.51.83,4.63,2.13l.42-.45s0,0,0,0l3.03-3.23s0,0,0,0h0c-2.03-2.15-4.9-3.49-8.08-3.49Z" fill="#fff"/>
  <path d="M140.86,37.87v3.21h-2.42v3.32h2.42v16.89h4.08v-16.89h4.42v-3.32h-4.42v-3.21c0-.72.34-1.06.94-1.06h4.46v-3.29h-4.99c-2.72,0-4.5,1.55-4.5,4.34Z" fill="#fff"/>
  <rect x="152.12" y="41.04" width="4.08" height="20.25" fill="#fff"/>
  <path d="M154.16,32.81c-1.51,0-2.72,1.13-2.72,2.57,0,1.51,1.25,2.64,2.76,2.64s2.68-1.13,2.68-2.64-1.25-2.57-2.72-2.57Z" fill="#fff"/>
  <path d="M172.56,40.51c-3.63,0-5.78,2.04-6.99,4.34h-.23v-11.33h-4v27.77h3.44v-3.89h.23c1.06,2.61,3.51,4.46,6.99,4.46,4.84,0,8.99-4.16,8.99-10.92,0-5.89-3.4-10.43-8.42-10.43ZM171.35,58.04c-3.82,0-5.89-3.14-5.89-6.88s2.23-6.84,5.93-6.84c3.25,0,5.4,2.57,5.4,6.72s-2.34,6.99-5.44,6.99Z" fill="#fff"/>
  <path d="M188.76,44.78h-.26v-3.7h-3.66v20.21h4.12v-11.71c0-2.61.98-4.04,3.82-4.04h2.68v-4.5h-1.28c-2.34,0-4.57.79-5.4,3.74Z" fill="#fff"/>
  <path d="M214.41,58.04c-.34,0-.53-.26-.53-.72v-9.18c0-4.84-3.1-7.63-7.78-7.63-4.19,0-7.33,2.34-8.65,6.35l3.4,1.44c1.21-2.95,2.64-4.23,5.25-4.23,2.12,0,3.93,1.59,3.93,4.53v1.25h-4.76c-4.38,0-8.35,2.19-8.35,6.31,0,3.48,2.8,5.63,6.35,5.63s6.12-2.04,7.33-4.72h.34l-.04,1.28c0,1.93.91,2.95,2.72,2.95h2.34v-3.25h-1.55ZM204.06,58.23c-1.59,0-3.21-.83-3.21-2.42,0-2,2.57-2.98,5.82-2.98h3.36c-.3,2.64-3.1,5.4-5.97,5.4Z" fill="#fff"/>
</svg>