<?xml version="1.0" encoding="UTF-8"?>
<svg id="Layer_1" data-name="Layer 1" xmlns="http://www.w3.org/2000/svg" width="60mm" height="60mm" viewBox="0 0 170.08 170.08">
  <path d="M65.09,64.94l7.68,8.19c3.11-3.2,7.45-5.19,12.27-5.19s9.16,1.99,12.27,5.19l7.69-8.21s0,0,0,0h0c-5.12-5.09-12.17-8.23-19.97-8.23s-14.83,3.15-19.95,8.24h0s0,.01,0,.01Z"/>
  <path d="M82.01,85.04c0,.21.02.41.06.61.28,1.38,1.51,2.42,2.96,2.42s2.69-1.05,2.97-2.42c.04-.2.06-.4.06-.61,0-1.67-1.35-3.03-3.03-3.03s-3.03,1.36-3.03,3.03Z"/>
  <path d="M113.39,85.04c0-4.72-1.16-9.17-3.2-13.09l-8.51,9.08s0,0,0,0h0c.31,1.29.48,2.63.48,4.01,0,3.84-1.26,7.38-3.4,10.23-3.12,4.17-8.1,6.87-13.71,6.87s-10.59-2.7-13.71-6.87c-2.13-2.85-3.4-6.4-3.4-10.23,0-1.38.17-2.72.48-4.01h0s0,0,0,0l-8.5-9.07c-2.05,3.92-3.21,8.37-3.21,13.08,0,15.66,12.77,28.35,28.35,28.35h0c.05,0,.11,0,.16,0,15.59-.09,28.18-12.82,28.18-28.34Z"/>
  <path d="M85.04,71.6c-3.84,0-7.3,1.63-9.75,4.22h0s0,0,0,0l3.65,3.89s0,0,0,0l.51.54c1.35-1.57,3.35-2.58,5.59-2.58s4.24,1,5.59,2.58l.51-.54s0,0,0,0l3.65-3.9s0,0,0,0h0c-2.45-2.59-5.91-4.22-9.76-4.22Z"/>
</svg>