<?xml version="1.0" encoding="UTF-8"?>
<svg id="Layer_1" data-name="Layer 1" xmlns="http://www.w3.org/2000/svg" viewBox="0 0 670 670">
  <path d="M533.49,568.89c-8.78,0-17-3.91-22.56-10.73-10.1-12.38-8.21-30.7,4.21-40.83,55.2-44.81,86.86-111.27,86.86-182.33s-31.66-137.51-86.86-182.42c-12.36-10.08-14.25-28.39-4.24-40.82,5.49-6.81,13.69-10.71,22.51-10.71,6.64,0,13.15,2.29,18.32,6.46l1.86,1.5v.12c67.65,55.84,106.4,138.02,106.4,225.87s-39.45,171.41-108.25,227.38c-5.15,4.2-11.64,6.51-18.27,6.51ZM302.99,564.03c-9.1,0-17.84-3.34-24.63-9.4l-133.47-118.63h-65.9c-38.05,0-69-30.95-69-69v-64c0-38.05,30.95-69,69-69h65.9l133.48-118.64c6.74-6.02,15.48-9.34,24.6-9.34,5.25,0,10.35,1.08,15.15,3.21,13.3,6.01,21.87,19.26,21.87,33.77v384c0,14.51-8.57,27.76-21.84,33.76-4.8,2.17-9.9,3.27-15.17,3.27ZM472.99,494.39c-8.78,0-17-3.91-22.56-10.73-10.1-12.38-8.21-30.7,4.21-40.83,32.64-26.52,51.36-65.81,51.36-107.83s-18.72-81.31-51.36-107.92c-12.35-10.07-14.25-28.38-4.23-40.81,5.49-6.81,13.69-10.71,22.51-10.71,6.64,0,13.15,2.29,18.32,6.46l1.86,1.5v.13c45.09,37.64,70.9,92.67,70.9,151.36s-26.51,115.21-72.74,152.88c-5.15,4.2-11.64,6.52-18.27,6.52ZM412.49,419.89c-8.78,0-17-3.91-22.56-10.73-4.91-6.02-7.17-13.58-6.36-21.29.8-7.7,4.56-14.64,10.58-19.54,10.08-8.21,15.86-20.36,15.86-33.33s-5.79-25.12-15.88-33.44c-12.33-10.06-14.23-28.37-4.21-40.8,5.49-6.81,13.69-10.71,22.51-10.71,6.64,0,13.15,2.29,18.32,6.46l1.86,1.5v.16c22.53,19.33,35.4,47.19,35.4,76.83s-13.57,59-37.23,78.37c-5.16,4.21-11.65,6.52-18.28,6.52Z" fill="#1a1d24"/>
  <path d="M533.42,106.05c5.34,0,10.72,1.76,15.18,5.35v.1c64.9,52.7,106.4,133.3,106.4,223.5s-41.5,170.7-106.4,223.5c-4.45,3.63-9.8,5.39-15.11,5.39-6.99,0-13.92-3.04-18.69-8.89-8.4-10.3-6.8-25.4,3.5-33.8,54.2-44,88.7-111,88.7-186.2s-34.5-142.2-88.7-186.3c-10.3-8.4-11.8-23.5-3.5-33.8,4.71-5.84,11.63-8.85,18.62-8.85M302.98,111.02c4.44,0,8.92.92,13.12,2.78,11.5,5.2,18.9,16.6,18.9,29.2v384c0,12.6-7.4,24-18.9,29.2-4.2,1.9-8.67,2.83-13.11,2.83-7.71,0-15.33-2.79-21.29-8.12l-134.9-119.9h-67.8c-35.3,0-64-28.7-64-64v-64c0-35.3,28.7-64,64-64h67.8l134.9-119.9c5.96-5.33,13.57-8.08,21.28-8.08M472.92,180.55c5.34,0,10.72,1.76,15.18,5.35v.1c43.2,35.2,70.9,88.9,70.9,149s-27.7,113.8-70.9,149c-4.45,3.63-9.8,5.39-15.11,5.39-6.99,0-13.92-3.04-18.69-8.89-8.4-10.3-6.8-25.4,3.5-33.8,32.5-26.4,53.2-66.6,53.2-111.7s-20.7-85.3-53.2-111.8c-10.3-8.4-11.8-23.5-3.5-33.8,4.71-5.84,11.63-8.85,18.62-8.85M412.42,255.05c5.34,0,10.72,1.76,15.18,5.35v.1c21.5,17.6,35.4,44.4,35.4,74.5s-13.9,56.9-35.4,74.5c-4.45,3.63-9.8,5.39-15.11,5.39-6.99,0-13.92-3.04-18.69-8.89-8.4-10.3-6.8-25.4,3.5-33.8,10.8-8.8,17.7-22.2,17.7-37.2s-6.9-28.4-17.7-37.3c-10.3-8.4-11.8-23.5-3.5-33.8,4.71-5.84,11.63-8.85,18.62-8.85M533.42,96.05c-10.34,0-19.97,4.58-26.41,12.58-11.74,14.57-9.51,36.02,4.97,47.82,54.03,43.97,85.02,109.04,85.02,178.55s-30.98,134.58-85,178.44c-14.58,11.89-16.79,33.36-4.95,47.88,6.52,7.99,16.15,12.57,26.44,12.57,7.78,0,15.39-2.71,21.43-7.64,33.59-27.33,61.33-62.29,80.21-101.1,19.82-40.74,29.87-84.53,29.87-130.15s-10.05-89.43-29.87-130.19c-18.2-37.41-44.6-71.21-76.53-98.02v-.17l-3.73-3c-6.05-4.88-13.67-7.56-21.45-7.56h0ZM302.98,101.02h0c-10.35,0-20.27,3.77-27.94,10.62l-132.04,117.36h-64c-40.8,0-74,33.2-74,74v64c0,40.8,33.2,74,74,74h64l132.06,117.37c7.68,6.86,17.61,10.65,27.94,10.65,5.98,0,11.78-1.25,17.23-3.71,15.05-6.81,24.78-21.84,24.78-38.31V143c0-16.47-9.73-31.51-24.78-38.31l-.03-.02h-.03c-5.45-2.43-11.22-3.65-17.18-3.65h0ZM472.92,170.55c-10.34,0-19.97,4.58-26.41,12.58-11.74,14.57-9.51,36.02,4.97,47.82,31.47,25.66,49.52,63.59,49.52,104.05s-18.04,78.38-49.51,103.94c-14.58,11.89-16.79,33.36-4.94,47.88,6.52,7.99,16.15,12.57,26.44,12.57,7.78,0,15.39-2.71,21.43-7.64,47.4-38.62,74.58-95.75,74.58-156.75s-25.78-115.14-70.9-153.68v-.21l-3.73-3c-6.05-4.88-13.67-7.56-21.45-7.56h0ZM412.42,245.05c-10.34,0-19.97,4.58-26.41,12.58-11.73,14.56-9.51,36.01,4.95,47.81,8.92,7.36,14.03,18.13,14.03,29.56s-5.11,22.19-14.02,29.45c-14.56,11.88-16.78,33.35-4.93,47.87,6.52,7.99,16.15,12.57,26.44,12.57,7.78,0,15.39-2.71,21.43-7.64,24.84-20.33,39.08-50.31,39.08-82.25s-12.84-58.89-35.4-79.1v-.29l-3.73-3c-6.05-4.88-13.67-7.56-21.45-7.56h0Z" fill="#c5c7ce"/>
</svg>