<?xml version="1.0" encoding="UTF-8"?>
<svg id="Layer_1" data-name="Layer 1" xmlns="http://www.w3.org/2000/svg" viewBox="0 0 460 460">
  <path d="M85.93,452.52c-7.96,0-15.8-2.05-22.69-5.93-14.64-8.24-23.74-23.79-23.74-40.59V54c0-16.8,9.1-32.35,23.74-40.59,6.93-3.9,14.8-5.96,22.77-5.96,8.58,0,16.95,2.37,24.21,6.84l288,176c13.96,8.59,22.28,23.44,22.28,39.72s-8.33,31.23-22.28,39.72L110.22,445.72c-7.32,4.45-15.72,6.8-24.29,6.8Z" fill="#1a1d24"/>
  <path d="M86.01,12.45c7.65,0,15.12,2.11,21.59,6.1l288.02,176.01c12.45,7.66,19.89,20.92,19.89,35.45s-7.43,27.87-19.88,35.45L107.61,441.45c-6.52,3.97-14.03,6.07-21.68,6.07-7.1,0-14.1-1.83-20.24-5.29-13.07-7.36-21.19-21.24-21.19-36.23V54c0-14.99,8.12-28.88,21.19-36.23,6.18-3.48,13.21-5.32,20.32-5.32M86.01,2.45c-8.83,0-17.55,2.28-25.22,6.6-16.22,9.13-26.29,26.35-26.29,44.95v352c0,18.6,10.07,35.82,26.29,44.95,7.63,4.3,16.33,6.57,25.14,6.57,9.49,0,18.78-2.6,26.88-7.52l288.03-176.01c15.44-9.4,24.67-25.84,24.67-43.98s-9.21-34.47-24.64-43.97L112.81,10.01c-8.02-4.94-17.3-7.56-26.8-7.56h0Z" fill="#c5c7ce"/>
</svg>