<?xml version="1.0" encoding="UTF-8"?>
<svg id="Layer_1" data-name="Layer 1" xmlns="http://www.w3.org/2000/svg" width="300" height="100" viewBox="0 0 300 100">
  <path d="M192.02,19.27h-84.05c-16.95,0-30.73,13.79-30.73,30.73s13.79,30.73,30.73,30.73h84.05c16.95,0,30.73-13.79,30.73-30.73s-13.79-30.73-30.73-30.73ZM192.02,79.4h-84.05c-16.21,0-29.4-13.19-29.4-29.4s13.19-29.4,29.4-29.4h84.05c16.21,0,29.4,13.19,29.4,29.4s-13.19,29.4-29.4,29.4Z" fill="#fff"/>
  <path d="M107.98,28.8c-11.72,0-21.2,9.55-21.2,21.2s9.55,21.2,21.2,21.2,21.2-9.55,21.2-21.2-9.49-21.2-21.2-21.2ZM107.98,62.8c-7.07,0-12.8-5.73-12.8-12.8s5.73-12.8,12.8-12.8,12.8,5.73,12.8,12.8-5.73,12.8-12.8,12.8Z" fill="#fff"/>
  <polygon points="104.3 56.06 115.49 49.84 104.3 43.75 104.3 56.06" fill="#fff"/>
  <path d="M138.06,39.05v2.9h-2.18v3h2.18v15.24h3.68v-15.24h3.99v-3h-3.99v-2.9c0-.65.31-.95.85-.95h4.02v-2.97h-4.5c-2.45,0-4.06,1.4-4.06,3.92Z" fill="#fff"/>
  <path d="M153.03,56v-20.83h-3.72v21.04c0,2.69,1.09,3.99,3.14,3.99h3.72v-3.31h-2.45c-.55,0-.68-.2-.68-.89Z" fill="#fff"/>
  <path d="M167.15,41.44c-5.25,0-8.9,3.99-8.9,9.62s3.55,9.62,8.76,9.62,8.83-4.23,8.83-9.65-3.44-9.58-8.69-9.58ZM167.04,57.46c-3.41,0-5.25-2.9-5.25-6.41s1.88-6.41,5.32-6.41,5.18,2.9,5.18,6.41-1.91,6.41-5.25,6.41Z" fill="#fff"/>
  <polygon points="197.53 57.15 197.22 57.15 192.72 41.95 188.87 41.95 184.61 57.15 184.33 57.15 180.17 41.95 176.49 41.95 181.54 60.19 186.86 60.19 190.78 46.72 194.49 60.19 199.85 60.19 205.13 41.95 201.59 41.95 197.53 57.15" fill="#fff"/>
</svg>