<?xml version="1.0" encoding="UTF-8"?>
<svg id="Layer_1" data-name="Layer 1" xmlns="http://www.w3.org/2000/svg" width="300" height="300" viewBox="0 0 300 300">
  <path d="M101.74,208.43v4.36h-3.29v4.52h3.29v22.94h5.54v-22.94h6.01v-4.52h-6.01v-4.36c0-.98.46-1.44,1.28-1.44h6.06v-4.47h-6.78c-3.7,0-6.11,2.1-6.11,5.9Z" fill="#fff"/>
  <path d="M124.27,233.94v-31.36h-5.59v31.67c0,4.06,1.64,6.01,4.72,6.01h5.6v-4.98h-3.7c-.82,0-1.03-.31-1.03-1.33Z" fill="#fff"/>
  <path d="M145.53,212.02c-7.91,0-13.4,6.01-13.4,14.48s5.34,14.48,13.19,14.48,13.29-6.37,13.29-14.53-5.18-14.42-13.09-14.42ZM145.37,236.15c-5.13,0-7.9-4.36-7.9-9.65s2.82-9.65,8.01-9.65,7.8,4.36,7.8,9.65-2.87,9.65-7.91,9.65Z" fill="#fff"/>
  <polygon points="191.27 235.68 190.8 235.68 184.03 212.79 178.23 212.79 171.81 235.68 171.4 235.68 165.14 212.79 159.6 212.79 167.19 240.25 175.2 240.25 181.1 219.98 186.7 240.25 194.76 240.25 202.71 212.79 197.37 212.79 191.27 235.68" fill="#fff"/>
  <path d="M150,186.45c35.05,0,63.42-28.57,63.42-63.42s-28.38-63.43-63.42-63.43-63.42,28.57-63.42,63.43,28.57,63.42,63.42,63.42ZM150,84.75c21.14,0,38.28,17.14,38.28,38.28s-17.14,38.28-38.28,38.28-38.28-17.14-38.28-38.28,17.14-38.28,38.28-38.28Z" fill="#fff"/>
  <polygon points="139.01 104.32 139.01 141.15 172.48 122.54 139.01 104.32" fill="#fff"/>
</svg>