<?xml version="1.0" encoding="UTF-8"?>
<svg xmlns="http://www.w3.org/2000/svg" version="1.1" viewBox="0 0 50 50">
  <!-- Generator: Adobe Illustrator 28.6.0, SVG Export Plug-In . SVG Version: 1.2.0 Build 709)  -->
  <g>
    <g id="Layer_1">
      <path d="M17.1,30.8h3.5v3.9c0,3.2,2.6,5.8,5.9,5.8h1.1l5.1-12.8h7V9.5h-17.6c-5.1,0-9.6,3.5-10.8,8.6l-1,4.3c-.4,2,0,4.1,1.3,5.8,1.3,1.6,3.3,2.6,5.4,2.6ZM33.6,12.8h3.2v11.7h-3.2v-11.7ZM13.7,23.2l1-4.3c.9-3.6,4-6.1,7.7-6.1h0c0,0,8,0,8,0v13.1l-4.8,11.3c-1-.4-1.7-1.3-1.7-2.5v-7.1h-6.7c-1.1,0-2.1-.5-2.8-1.4-.7-.9-1-2-.7-3.1Z"/>
    </g>
  </g>
</svg>