<?xml version="1.0" encoding="UTF-8"?>
<svg xmlns="http://www.w3.org/2000/svg" version="1.1" viewBox="0 0 50 50">
  <!-- Generator: Adobe Illustrator 28.6.0, SVG Export Plug-In . SVG Version: 1.2.0 Build 709)  -->
  <g>
    <g id="Layer_1">
      <g>
        <polygon points="4.2 7.9 4.2 18.1 7.4 18.1 7.4 11.1 42.6 11.1 42.6 38.9 29.3 38.9 29.3 42.1 45.8 42.1 45.8 7.9 4.2 7.9"/>
        <path d="M4.2,22.2v3.2c9.2,0,16.7,7.5,16.7,16.7h3.2c0-10.9-8.9-19.9-19.9-19.9Z"/>
        <path d="M4.2,28.7v3.2c5.6,0,10.2,4.6,10.2,10.2h3.2c0-7.4-6-13.4-13.4-13.4Z"/>
        <path d="M4.2,35.1v3.2c2.1,0,3.8,1.7,3.8,3.8h3.2c0-3.9-3.2-7-7-7Z"/>
      </g>
    </g>
  </g>
</svg>