<?xml version="1.0" encoding="UTF-8"?>
<svg xmlns="http://www.w3.org/2000/svg" version="1.1" viewBox="0 0 50 50">
  <!-- Generator: Adobe Illustrator 28.6.0, SVG Export Plug-In . SVG Version: 1.2.0 Build 709)  -->
  <g>
    <g id="Layer_1">
      <g>
        <polygon points="32.8 36.8 9.2 36.8 9.2 22.9 15.1 22.9 15.1 19.7 5.9 19.7 5.9 40 36 40 36 19.7 32.8 19.7 32.8 36.8"/>
        <path d="M42.2,23.7l-2.6,1.8c1.8,2.6,1.8,6.3,0,8.9l2.6,1.8c2.5-3.8,2.5-8.7,0-12.4Z"/>
        <path d="M24.2,25c4.1,0,7.5-3.4,7.5-7.5s-3.4-7.5-7.5-7.5-7.5,3.4-7.5,7.5,3.4,7.5,7.5,7.5ZM24.2,13.3c2.4,0,4.3,1.9,4.3,4.3s-1.9,4.3-4.3,4.3-4.3-1.9-4.3-4.3,1.9-4.3,4.3-4.3Z"/>
      </g>
    </g>
  </g>
</svg>