<?xml version="1.0" encoding="UTF-8"?>
<svg xmlns="http://www.w3.org/2000/svg" version="1.1" viewBox="0 0 50 50">
  <!-- Generator: Adobe Illustrator 28.6.0, SVG Export Plug-In . SVG Version: 1.2.0 Build 709)  -->
  <g>
    <g id="Layer_1">
      <g>
        <path d="M38.3,19.1c0-3.6-1.5-7.1-4.1-9.6-2.6-2.6-6.1-3.9-9.8-3.7-7,.3-12.7,6.4-12.7,13.6s-2.6,13.7-4.1,15.6c-.5.7-.9,1-.9,1l1.9,2.6c4.9-3.2,10.7-4.9,16.6-4.9s11.6,1.7,16.6,4.9l1.8-2.6c0,0-5.1-4.2-5.1-16.9ZM25.1,30.6c-4.4,0-8.7.8-12.7,2.5,1.3-3,2.6-7.4,2.6-13.6,0-5.5,4.4-10.1,9.7-10.4,2.8,0,5.5.9,7.5,2.8,1.9,1.9,3.1,4.5,3.1,7.3,0,6.3,1.2,10.8,2.6,13.9-4.1-1.7-8.3-2.5-12.7-2.5Z"/>
        <path d="M25.2,41c-2.6,0-5.1-1-7-2.7l-2.2,2.3c2.6,2.3,5.7,3.6,9.2,3.6s6.6-1.2,9.2-3.6l-2.2-2.3c-1.9,1.8-4.3,2.7-7,2.7Z"/>
      </g>
    </g>
  </g>
</svg>