<?xml version="1.0" encoding="UTF-8"?>
<svg xmlns="http://www.w3.org/2000/svg" version="1.1" viewBox="0 0 50 50">
  <!-- Generator: Adobe Illustrator 28.6.0, SVG Export Plug-In . SVG Version: 1.2.0 Build 709)  -->
  <g>
    <g id="Layer_1">
      <g>
        <path d="M41.4,16.1l-2.3,2.3c1.8,1.8,2.7,4.1,2.7,6.6s-1,4.9-2.7,6.6l2.3,2.3c2.4-2.4,3.7-5.5,3.7-8.8s-1.3-6.6-3.7-9Z"/>
        <path d="M36.5,18.8l-2.3,2.3c1.1,1.1,1.6,2.4,1.6,3.9s-.5,2.8-1.6,3.9l2.3,2.3c1.7-1.7,2.6-3.8,2.6-6.2s-.9-4.5-2.6-6.2Z"/>
        <path d="M13,17c-4.4,0-8,3.6-8,8s3.6,8,8,8h3.8l14.8,8.6V8.3l-14.8,8.6h-3.8ZM28.4,13.9v22.1l-10.8-6.3h-4.7c-2.6,0-4.8-2.1-4.8-4.8s2.1-4.8,4.8-4.8h4.7l10.8-6.4Z"/>
      </g>
    </g>
  </g>
</svg>