<?xml version="1.0" encoding="UTF-8"?>
<svg xmlns="http://www.w3.org/2000/svg" version="1.1" viewBox="0 0 50 50">
  <!-- Generator: Adobe Illustrator 28.6.0, SVG Export Plug-In . SVG Version: 1.2.0 Build 709)  -->
  <g>
    <g id="Layer_1">
      <g>
        <path d="M29.5,30.7c2.3,1.1,4.4,2.7,6.3,4.6,2.9,1.3,5.6,3.5,7.4,6.4l2.7-1.8c-3.8-5.6-10-9.3-16.4-9.3Z"/>
        <path d="M30.6,11.6c3.3.5,5.8,3.4,5.8,6.9s-2.6,6.4-5.8,6.9c-.8,1.2-1.9,2.3-3,3.1.6,0,1.2.2,1.9.2,5.6,0,10.1-4.6,10.1-10.1s-4.6-10.1-10.1-10.1-1.2,0-1.9.2c1.1.8,2.1,1.9,2.9,3.1Z"/>
        <path d="M20.4,30.7c-6.4,0-12.6,3.5-16.3,9.3l2.7,1.8c3.1-4.9,8.3-7.8,13.6-7.8s10.5,2.9,13.6,7.8l2.7-1.8c-3.7-5.7-10-9.3-16.3-9.3Z"/>
        <path d="M20.4,28.6c5.6,0,10.1-4.5,10.1-10.1s-4.6-10.1-10.1-10.1-10.1,4.6-10.1,10.1,4.6,10.1,10.1,10.1ZM20.4,11.5c3.9,0,7,3.1,7,7s-3.2,7-7,7-7-3.2-7-7,3.2-7,7-7Z"/>
      </g>
    </g>
  </g>
</svg>