<?xml version="1.0" encoding="UTF-8"?>
<svg xmlns="http://www.w3.org/2000/svg" version="1.1" viewBox="0 0 50 50">
  <!-- Generator: Adobe Illustrator 28.6.0, SVG Export Plug-In . SVG Version: 1.2.0 Build 709)  -->
  <g>
    <g id="Layer_1">
      <g>
        <path d="M35.7,33.4c2.2-2.7,3.5-6.2,3.5-10,0-8.7-7.1-15.8-15.8-15.8s-15.8,7.1-15.8,15.8,7.1,15.8,15.8,15.8,7.2-1.3,10-3.5l6.6,6.6,2.3-2.3-6.6-6.6ZM23.4,36.1c-6.9,0-12.6-5.6-12.6-12.6s5.6-12.6,12.6-12.6,12.6,5.6,12.6,12.6-5.6,12.6-12.6,12.6Z"/>
        <polygon points="25 18.1 21.8 18.1 21.8 21.9 18.1 21.9 18.1 25 21.8 25 21.8 28.8 25 28.8 25 25 28.8 25 28.8 21.9 25 21.9 25 18.1"/>
      </g>
    </g>
  </g>
</svg>