<?xml version="1.0" encoding="UTF-8"?>
<svg xmlns="http://www.w3.org/2000/svg" version="1.1" viewBox="0 0 50 50">
  <!-- Generator: Adobe Illustrator 28.6.0, SVG Export Plug-In . SVG Version: 1.2.0 Build 709)  -->
  <g>
    <g id="Layer_1">
      <g>
        <path d="M25.3,28.6c1.1,0,2-.4,2.7-1.1,1.5-1.5,1.5-3.9,0-5.4s-1.7-1.1-2.7-1.1-2,.4-2.7,1.1c-1.1,1.1-1.4,2.5-1,3.8l-3.1,2.8-8.1-8.1-1.1,1.8c-4.1,6.2-1.7,13.1,2.3,16.8,2.5,2.3,5.6,3.6,8.8,3.6s4.9-.8,6.9-2.6l1.6-1.1-7.9-7.9,3-2.7c.4.2,1,.3,1.4.3ZM23.6,38.8c-1.1.4-2.2.7-3.4.7-2.2,0-4.6-1-6.4-2.7-2.4-2.3-4.4-6.4-2.7-10.6l12.5,12.6Z"/>
        <path d="M25.2,7.3h-.6v3.4h.6c8.7,0,14.3,5.6,14.3,14.3v.6h3.4v-.6c0-10.6-7.1-17.6-17.6-17.6Z"/>
        <path d="M25.3,13.7h-.6v3.4h.6c4.3,0,7.9,3.5,7.9,7.9v.6h3.4v-.6c0-6.2-5-11.2-11.2-11.2Z"/>
      </g>
    </g>
  </g>
</svg>