<?xml version="1.0" encoding="UTF-8"?>
<svg xmlns="http://www.w3.org/2000/svg" version="1.1" viewBox="0 0 50 50">
  <!-- Generator: Adobe Illustrator 28.6.0, SVG Export Plug-In . SVG Version: 1.2.0 Build 709)  -->
  <g>
    <g id="Layer_1">
      <g>
        <path d="M9.5,19.7v8c0,8.5,6.9,15.4,15.4,15.4s15.4-6.9,15.5-15.4v-8H9.5ZM37.2,27.7c0,6.8-5.5,12.3-12.3,12.3s-12.3-5.5-12.3-12.3v-4.8h24.5v4.8Z"/>
        <path d="M18.4,16.6c0-3.6,2.9-6.5,6.5-6.5s6.5,2.9,6.5,6.5v.4h3.2v-.4c0-5.4-4.3-9.7-9.7-9.7s-9.7,4.3-9.7,9.7v.4h3.2v-.4Z"/>
        <rect x="23.4" y="26.5" width="3.2" height="5.8"/>
      </g>
    </g>
  </g>
</svg>