<?xml version="1.0" encoding="UTF-8"?>
<svg xmlns="http://www.w3.org/2000/svg" version="1.1" viewBox="0 0 50 50">
  <!-- Generator: Adobe Illustrator 28.6.0, SVG Export Plug-In . SVG Version: 1.2.0 Build 709)  -->
  <g>
    <g id="Layer_1">
      <path d="M37.7,28.7c-1.1,0-2.2.4-3.1,1.1l-4.9-2.8c0-.4,0-.6,0-.9,0-.7-.2-1.4-.4-2l3.1-3.1c.6.3,1.3.4,2,.4,2.6,0,4.9-2.2,4.9-4.9s-2.2-4.9-4.9-4.9-4.9,2.2-4.9,4.9.2,1.4.4,2l-3.1,3.1c-.6-.3-1.3-.4-2-.4s-1.1,0-1.6.3l-4.8-5.7c.4-.8.6-1.6.6-2.5,0-2.6-2.2-4.9-4.9-4.9s-4.9,2.2-4.9,4.9,2.2,4.9,4.9,4.9,1.1,0,1.7-.3l4.8,5.7c-.4.8-.6,1.6-.6,2.5s0,1.1.3,1.6l-5.8,4.8c-.7-.4-1.5-.6-2.3-.6-2.6,0-4.9,2.2-4.9,4.9s2.2,4.9,4.9,4.9,4.9-2.2,4.8-4.9c0-.6-.2-1.2-.4-1.8l5.7-4.7c.7.4,1.6.7,2.5.7s2.2-.4,3.1-1.1l4.9,2.8c0,.4,0,.6,0,.9,0,2.6,2.2,4.9,4.9,4.9s4.9-2.2,4.9-4.9-2.2-4.9-4.9-4.9ZM34.7,14.9c.9,0,1.5.7,1.5,1.5,0,.8-.7,1.5-1.5,1.5s-1.5-.7-1.5-1.5.7-1.5,1.5-1.5ZM14.5,14.7c-.8,0-1.5-.7-1.5-1.5s.7-1.5,1.5-1.5,1.5.7,1.5,1.5-.7,1.5-1.5,1.5ZM12.3,38.1c-.8,0-1.5-.7-1.5-1.5s.7-1.5,1.5-1.5,1.5.7,1.5,1.5-.7,1.5-1.5,1.5ZM37.8,34.9c-.8,0-1.5-.7-1.5-1.5s.7-1.5,1.5-1.5,1.5.7,1.5,1.5-.7,1.5-1.5,1.5Z"/>
    </g>
  </g>
</svg>