<?xml version="1.0" encoding="UTF-8"?>
<svg xmlns="http://www.w3.org/2000/svg" version="1.1" viewBox="0 0 50 50">
  <!-- Generator: Adobe Illustrator 28.6.0, SVG Export Plug-In . SVG Version: 1.2.0 Build 709)  -->
  <g>
    <g id="Layer_1">
      <path d="M43.7,14.6h-4.2c0-4.4-3.6-8-8-8s-4.9,1.2-6.4,3.3c-1.5-1.9-3.8-3.3-6.4-3.3-4.4,0-8,3.6-8,8h-4.2v11.7h3.4v17.1h30.5v-17.1h3.4v-11.7ZM18.6,9.7c2.6,0,4.8,2.1,4.8,4.8h-9.6c0-2.6,2.2-4.8,4.9-4.8ZM9.6,23.1v-5.3h13.9v5.3h-13.9ZM23.5,40.2h-10.5v-13.9h10.5v13.9ZM31.4,9.7c2.6,0,4.8,2.1,4.8,4.8h-9.6c0-2.6,2.2-4.8,4.9-4.8ZM37.1,40.2h-10.5v-13.9h10.5v13.9ZM40.5,23.1h-13.9v-5.3h13.9v5.3Z"/>
    </g>
  </g>
</svg>