<?xml version="1.0" encoding="UTF-8"?>
<svg xmlns="http://www.w3.org/2000/svg" version="1.1" viewBox="0 0 50 50">
  <!-- Generator: Adobe Illustrator 28.6.0, SVG Export Plug-In . SVG Version: 1.2.0 Build 709)  -->
  <g>
    <g id="Layer_1">
      <g>
        <path d="M38.9,13.7v-1.7h-6.1c-1.9-3.5-5.8-5.7-10.3-5.7s-8.4,2.2-10.3,5.7h-6.1v31.8h31.8v-5.5h6v-3.3c-4.9,0-4.9-11.8-4.9-21.4ZM22.5,9.5c2,0,4.5.7,6.3,2.5h-12.5c1.8-1.8,4.1-2.5,6.3-2.5ZM9.3,40.5v-6.4c1.7,2.6,4.3,4.1,8.2,4.1h16.9v2.2H9.3ZM17.6,35c-7.3,0-8.1-8.1-8.2-19.7h26.3c0,7.5.2,15.4,2.7,19.7h-20.8Z"/>
        <polygon points="20.9 22.9 22.5 22.9 22.5 31.1 25.8 31.1 25.8 19.7 20.9 19.7 20.9 22.9"/>
      </g>
    </g>
  </g>
</svg>