<?xml version="1.0" encoding="UTF-8"?>
<svg id="Layer_1" data-name="Layer 1" xmlns="http://www.w3.org/2000/svg" width="105.83mm" height="24.69mm" viewBox="0 0 300 70">
  <path d="M55.76,14.07c-11.56,0-20.93,9.43-20.93,20.93s9.43,20.93,20.93,20.93,20.93-9.43,20.93-20.93-9.36-20.93-20.93-20.93ZM55.76,47.63c-6.98,0-12.63-5.66-12.63-12.63s5.66-12.63,12.63-12.63,12.63,5.66,12.63,12.63-5.66,12.63-12.63,12.63Z" fill="#fff"/>
  <polygon points="48.15 36.13 51.74 39.72 55.76 35.69 59.79 39.72 63.37 36.13 55.76 28.53 48.15 36.13" fill="#fff"/>
  <path d="M92.98,34.83c-2.42-.81-4.34-1.38-4.34-3,0-1.18,1.01-2.09,2.79-2.09,1.58,0,3.53.91,4.44,2.83l2.83-1.45c-1.04-2.56-3.67-4.58-7.27-4.58-3.16,0-6.26,2.25-6.26,5.28,0,3.9,3.63,4.98,6.36,5.86,2.15.71,4.01,1.41,4.01,2.66,0,1.14-1.21,2.02-3.4,2.02-2.05,0-4.14-.88-5.42-3.13l-2.59,1.72c1.51,3.23,4.78,4.51,7.88,4.54,3.57.03,6.87-1.78,6.87-5.05,0-3.7-3.53-4.85-5.89-5.62Z" fill="#fff"/>
  <path d="M124.11,26.55c-3.13,0-5.25,1.85-6.16,4.41h-.24c-.67-2.62-2.46-4.41-5.45-4.41s-5.22,1.75-5.96,3.97h-.24v-3.47h-3.37v18.01h3.67v-9.39c0-2.56,1.41-6.02,4.48-6.02,2.29,0,3.74,1.38,3.74,4.58v10.84h3.67v-9.69c0-2.42,1.51-5.72,4.71-5.72,2.59,0,3.5,1.95,3.5,4.58v10.84h3.67v-11.34c0-4.44-2.15-7.17-6.02-7.17Z" fill="#fff"/>
  <path d="M148.38,41.52v-8.18c0-4.31-2.76-6.8-6.93-6.8-3.74,0-6.53,2.09-7.71,5.65l3.03,1.28c1.08-2.62,2.36-3.77,4.68-3.77,1.88,0,3.5,1.41,3.5,4.04v1.11h-4.24c-3.9,0-7.44,1.95-7.44,5.62,0,3.1,2.49,5.01,5.65,5.01s5.45-1.82,6.53-4.21h.3l-.03,1.14c0,1.72.81,2.63,2.42,2.63h2.09v-2.89h-1.38c-.3,0-.47-.24-.47-.64ZM139.63,42.33c-1.41,0-2.86-.74-2.86-2.15,0-1.78,2.29-2.66,5.18-2.66h3c-.27,2.36-2.76,4.81-5.32,4.81Z" fill="#fff"/>
  <path d="M156.72,30.35h-.24v-3.3h-3.26v18.01h3.67v-10.43c0-2.32.88-3.6,3.4-3.6h2.39v-4.01h-1.14c-2.09,0-4.07.71-4.81,3.33Z" fill="#fff"/>
  <path d="M169.55,23.01h-3.4l-.24,4.04h-2.79v2.93h2.79l.03,11.14c0,2.66,1.04,3.94,3.06,3.94h5.01v-3.26h-3.74c-.54,0-.71-.2-.71-.87v-10.94h4.44v-2.93h-4.48v-4.04Z" fill="#fff"/>
  <path d="M187.59,26.51c-3.13,0-4.98,1.75-6.06,3.97h-.24v-10.16h-3.43v24.74h3.67v-9.29c0-2.66,1.48-6.13,4.81-6.13,2.02,0,3.6,1.25,3.6,4.68v10.74h3.67v-11.38c0-4.21-1.92-7.17-6.02-7.17Z" fill="#fff"/>
  <path d="M205.66,26.55c-5.18,0-8.78,3.94-8.78,9.49s3.5,9.49,8.65,9.49,8.72-4.17,8.72-9.52-3.4-9.46-8.58-9.46ZM205.56,42.36c-3.37,0-5.18-2.86-5.18-6.33s1.85-6.33,5.25-6.33,5.12,2.86,5.12,6.33-1.88,6.33-5.18,6.33Z" fill="#fff"/>
  <path d="M239.08,26.55c-3.13,0-5.25,1.85-6.16,4.41h-.24c-.67-2.62-2.46-4.41-5.45-4.41s-5.22,1.75-5.96,3.97h-.24v-3.47h-3.37v18.01h3.67v-9.39c0-2.56,1.41-6.02,4.48-6.02,2.29,0,3.74,1.38,3.74,4.58v10.84h3.67v-9.69c0-2.42,1.51-5.72,4.71-5.72,2.59,0,3.5,1.95,3.5,4.58v10.84h3.67v-11.34c0-4.44-2.15-7.17-6.02-7.17Z" fill="#fff"/>
  <path d="M265.17,35.16c0-4.58-3-8.62-8.08-8.62s-8.72,4.04-8.72,9.52c0,6.29,4.48,9.49,9.05,9.49,2.76,0,5.59-1.21,7.44-3.6l-2.02-2.12c-1.51,1.72-3.5,2.56-5.38,2.56-2.56,0-4.95-1.62-5.49-4.85h13.16c.03-1.28.03-1.75.03-2.39ZM251.97,34.73c.47-3.43,2.69-5.01,4.91-5.01,2.36,0,4.68,1.82,4.75,5.01h-9.66Z" fill="#fff"/>
</svg>