<?xml version="1.0" encoding="UTF-8"?>
<svg id="Layer_1" data-name="Layer 1" xmlns="http://www.w3.org/2000/svg" width="30mm" height="30mm" viewBox="0 0 85.04 85.04">
  <path d="M58.74,32.06l-.7-1.7-5.6,5.6c-.9.9-2.5.9-3.4,0-.9-.9-.9-2.5,0-3.4l5.6-5.6-1.7-.7c-3.7-1.5-8.2-.5-11.2,2.5-2.7,2.7-3.7,6.6-2.6,10.3l-10.5,10.5,1.7,1.7,11.6-11.6-.3-.7c-1.1-2.9-.5-6.2,1.8-8.4,1.8-1.8,4.3-2.6,6.7-2.4l-2.8,2.8c-1.9,1.9-1.9,5,0,6.8,1.9,1.9,5,1.9,6.8,0l2.8-2.8c.2,2.4-.6,4.9-2.4,6.7-2.2,2.2-5.5,2.9-8.4,1.8l-.7-.3-11.6,11.6,1.7,1.7,10.5-10.5c3.6,1.1,7.6.1,10.3-2.6,2.9-3,3.9-7.5,2.4-11.3Z"/>
  <path d="M28.74,56.36c-.9-.9-.9-2.5,0-3.4l-1.7-1.7c-1.9,1.9-1.9,5,0,6.8.9.9,2.2,1.4,3.4,1.4s2.5-.5,3.4-1.4l-1.7-1.7c-1,.9-2.5.9-3.4,0Z"/>
</svg>