<?xml version="1.0" encoding="UTF-8"?>
<svg id="Layer_1" data-name="Layer 1" xmlns="http://www.w3.org/2000/svg" width="30mm" height="30mm" viewBox="0 0 85.04 85.04">
  <path d="M43.77,43.92v-17.9h-2.5v17.9c-2.2.6-3.8,2.5-3.8,4.9s1.6,4.3,3.8,4.9v5.2h2.5v-5.2c2.2-.6,3.8-2.5,3.8-4.9,0-2.4-1.6-4.3-3.8-4.9ZM43.77,51.02c-.4.2-.8.4-1.3.4s-.9-.1-1.3-.4c-.8-.4-1.3-1.2-1.3-2.2,0-.9.5-1.7,1.3-2.2.4-.2.8-.4,1.3-.4s.9.1,1.3.4c.8.4,1.3,1.2,1.3,2.2,0,.9-.5,1.7-1.3,2.2Z"/>
  <path d="M58.97,37.62v-11.6h-2.5v11.6c-2.2.6-3.8,2.5-3.8,4.9s1.6,4.3,3.8,4.9v11.6h2.5v-11.6c2.2-.6,3.8-2.5,3.8-4.9s-1.6-4.4-3.8-4.9ZM58.97,44.72c-.4.2-.8.4-1.3.4s-.9-.1-1.3-.4c-.8-.4-1.3-1.2-1.3-2.2,0-.9.5-1.7,1.3-2.2.4-.2.8-.4,1.3-.4s.9.1,1.3.4c.8.4,1.3,1.2,1.3,2.2,0,.9-.5,1.7-1.3,2.2Z"/>
  <path d="M28.57,30.02v-4h-2.5v4c-2.2.6-3.8,2.5-3.8,4.9s1.6,4.3,3.8,4.9v19.2h2.5v-19.2c2.2-.6,3.8-2.5,3.8-4.9s-1.6-4.4-3.8-4.9ZM28.57,37.02c-.4.2-.8.4-1.3.4s-.9-.1-1.3-.4c-.8-.4-1.3-1.2-1.3-2.2,0-.9.5-1.7,1.3-2.2.4-.2.8-.4,1.3-.4s.9.1,1.3.4c.8.4,1.3,1.2,1.3,2.2s-.5,1.8-1.3,2.2Z"/>
</svg>