<?xml version="1.0" encoding="UTF-8"?>
<svg id="Layer_1" data-name="Layer 1" xmlns="http://www.w3.org/2000/svg" width="30mm" height="30mm" viewBox="0 0 85.04 85.04">
  <path d="M39.31,25.57c-5.5,0-10.3,3.8-11.6,9.2l-1.1,4.9c-.5,2.2,0,4.4,1.4,6.1,1.4,1.7,3.4,2.7,5.6,2.7h4.6v5c0,3.3,2.8,6,6.1,6h.8l5.8-14.5h7.7v-19.4h-19.3ZM49.21,43.47l-5.6,13.5c-1.7-.3-2.9-1.8-2.9-3.5v-7.4h-7c-1.4,0-2.8-.7-3.7-1.8-.9-1.1-1.2-2.6-.9-4l1.1-4.9c1-4.3,4.9-7.3,9.3-7.3h9.7v15.4ZM56.41,42.57h-4.8v-14.5h4.8v14.5Z"/>
</svg>