<?xml version="1.0" encoding="UTF-8"?>
<svg id="Layer_1" data-name="Layer 1" xmlns="http://www.w3.org/2000/svg" width="30mm" height="30mm" viewBox="0 0 85.04 85.04">
  <path d="M53.72,52.12c2.6-3,4.3-7,4.3-11.4,0-9.6-7.8-17.3-17.3-17.3s-17.3,7.8-17.3,17.3,7.8,17.3,17.3,17.3c4.3,0,8.3-1.6,11.4-4.3l7.9,7.9,1.6-1.6-7.9-7.9ZM40.52,55.62c-8.2,0-14.9-6.7-14.9-14.9s6.7-14.9,14.9-14.9,14.9,6.7,14.9,14.9-6.7,14.9-14.9,14.9Z"/>
  <polygon points="41.82 34.62 39.42 34.62 39.42 39.52 34.52 39.52 34.52 41.92 39.42 41.92 39.42 46.72 41.82 46.72 41.82 41.92 46.62 41.92 46.62 39.52 41.82 39.52 41.82 34.62"/>
</svg>