<?xml version="1.0" encoding="UTF-8"?>
<svg id="Layer_1" data-name="Layer 1" xmlns="http://www.w3.org/2000/svg" width="30mm" height="30mm" viewBox="0 0 85.04 85.04">
  <path d="M42.52,43.27c-2.7,0-4.8,2.2-4.8,4.8,0,2.2,1.5,4.1,3.6,4.7v8.6h2.4v-8.6c2.1-.5,3.6-2.4,3.6-4.7,0-2.7-2.2-4.8-4.8-4.8ZM42.52,50.47c-1.3,0-2.4-1.1-2.4-2.4s1.1-2.4,2.4-2.4,2.4,1.1,2.4,2.4-1.1,2.4-2.4,2.4Z"/>
  <path d="M42.52,23.67c-8,0-15.4,3.1-21,8.7l1.7,1.7c5.1-5.1,12-8,19.3-8s14.1,2.8,19.3,8l1.7-1.7c-5.6-5.6-13-8.7-21-8.7Z"/>
  <path d="M28.42,39.27l1.7,1.7c3.3-3.3,7.7-5.1,12.4-5.1s9.1,1.8,12.4,5.1l1.7-1.7c-3.8-3.8-8.8-5.8-14.1-5.8-5.4-.1-10.4,2-14.1,5.8Z"/>
</svg>