<?xml version="1.0" encoding="UTF-8"?>
<svg id="Layer_1" data-name="Layer 1" xmlns="http://www.w3.org/2000/svg" width="30mm" height="30mm" viewBox="0 0 85.04 85.04">
  <path d="M60.67,32.87l-1.7,1.7c2.1,2.1,3.3,4.9,3.3,7.9s-1.2,5.8-3.3,7.9l1.7,1.7c2.6-2.6,4-6,4-9.6s-1.4-7-4-9.6Z"/>
  <path d="M53.47,37.67c1.3,1.3,2,3,2,4.8s-.7,3.5-2,4.8l1.7,1.7c1.7-1.7,2.7-4.1,2.7-6.5s-1-4.8-2.7-6.5l-1.7,1.7Z"/>
  <path d="M28.87,33.97c-4.7,0-8.5,3.8-8.5,8.5s3.8,8.5,8.5,8.5h4.5l16.1,9.4V24.67l-16.1,9.4-4.5-.1ZM46.97,28.87v27.2l-13-7.6h-5.2c-3.3,0-6-2.7-6-6s2.7-6,6-6h5.2l13-7.6Z"/>
</svg>