<?xml version="1.0" encoding="UTF-8"?>
<svg id="Layer_1" data-name="Layer 1" xmlns="http://www.w3.org/2000/svg" width="30mm" height="30mm" viewBox="0 0 85.04 85.04">
  <polygon points="35.77 51.42 37.47 53.12 41.47 49.12 41.47 64.32 43.87 64.32 43.87 49.12 47.87 53.12 49.57 51.42 42.67 44.52 35.77 51.42"/>
  <path d="M68.04,44.45s0-.07,0-.11c-.3-5.86-4.46-10.76-9.97-12.25-.41-6.29-5.61-11.38-12.1-11.38-4.4,0-8.5,2.4-10.6,6.3-.9-.2-1.8-.2-2.7-.2-8.7,0-15.7,7.1-15.7,15.7s7.1,15.7,15.7,15.7v-2.4c-7.3,0-13.3-6-13.3-13.3s6-13.3,13.3-13.3c1,0,2,.1,3.1.4l1,.2.4-.9c1.6-3.5,5-5.7,8.8-5.7,4.88,0,8.97,3.68,9.59,8.45-.26-.02-.52-.05-.79-.05-.07,0-.15,0-.22,0-.03,0-.05,0-.08,0-4.8,0-9.2,2.6-11.6,6.8l2.1,1.2s.06-.08.08-.12l.22.12c1.98-3.36,5.52-5.44,9.36-5.49.66.01,1.39.1,2.04.19h.1c.25.08.5.11.75.17.08.02.15.04.23.06.08.03.15.08.23.08.2.1.5.2.7.3.1,0,.2.1.3.1.2.1.4.2.6.3.1.1.2.1.3.2.2.1.4.2.6.4.1.1.2.1.3.2.2.1.4.3.5.4.1.1.2.1.3.2.2.1.3.3.5.4.1.1.2.2.3.3.1.1.3.3.4.5.2.2.3.4.5.6.1.1.2.3.3.4.1.2.2.3.3.5.1.1.1.2.2.3.1.2.2.3.3.5.1.1.1.2.2.4.1.2.1.3.2.5.1.1.1.3.1.4.1.2.1.3.2.5,0,.2.1.3.1.5s.1.3.1.5.1.4.1.6c0,.1,0,.3.1.4,0,.3.1.7.1,1,0,6-4.9,10.9-10.9,10.9v2.4c7.3,0,13.3-6,13.3-13.3h.1c0-.19-.02-.38-.03-.57Z"/>
</svg>