<?xml version="1.0" encoding="UTF-8"?>
<svg id="Layer_1" data-name="Layer 1" xmlns="http://www.w3.org/2000/svg" width="30mm" height="30mm" viewBox="0 0 85.04 85.04">
  <rect x="40.72" y="58.17" width="3.6" height="2.4"/>
  <path d="M42.62,49.77c3.3,0,6-2.7,6-6v-13.3c0-3.3-2.7-6-6-6s-6,2.7-6,6v13.3c-.1,3.3,2.6,6,6,6ZM38.92,30.37c0-2,1.6-3.6,3.6-3.6s3.6,1.6,3.6,3.6v13.3c0,2-1.6,3.6-3.6,3.6s-3.6-1.6-3.6-3.6v-13.3Z"/>
  <path d="M52.42,48.37c-2.2,3.5-5.9,5.6-9.9,5.6s-7.6-2.1-9.9-5.6l-2,1.3c2.7,4.2,7.1,6.7,11.9,6.7s9.2-2.5,11.9-6.7l-2-1.3Z"/>
</svg>