<?xml version="1.0" encoding="UTF-8"?>
<svg id="Layer_1" data-name="Layer 1" xmlns="http://www.w3.org/2000/svg" width="30mm" height="30mm" viewBox="0 0 85.04 85.04">
  <path d="M57.02,47.32c-1.3,0-2.5.5-3.4,1.4l-6.4-3.7c.1-.4.2-.9.2-1.3,0-.9-.2-1.7-.7-2.4l4.3-4.3c.7.4,1.6.7,2.4.7,2.7,0,4.8-2.2,4.8-4.8s-2.2-4.8-4.8-4.8-4.8,2.2-4.8,4.8c0,.9.2,1.7.7,2.4l-4.3,4.3c-.7-.4-1.6-.7-2.4-.7-.7,0-1.4.2-2.1.5l-6.1-7.3c.6-.8.9-1.8.9-2.8,0-2.7-2.2-4.8-4.8-4.8s-4.8,2.2-4.8,4.8,2.2,4.8,4.8,4.8c.7,0,1.4-.2,2.1-.5l6.1,7.3c-.6.8-.9,1.8-.9,2.8,0,.7.2,1.4.4,2l-7.4,6c-.8-.5-1.7-.8-2.7-.8-2.7,0-4.8,2.2-4.8,4.8s2.2,4.8,4.8,4.8,4.8-2.2,4.8-4.8c0-.8-.2-1.5-.5-2.2l7.3-6c.8.6,1.8.9,2.8.9,1.3,0,2.5-.5,3.4-1.4l6.4,3.7c-.1.4-.2.9-.2,1.3,0,2.7,2.2,4.8,4.8,4.8s4.8-2.2,4.8-4.8c.1-2.5-2-4.7-4.7-4.7ZM53.42,30.42c1.3,0,2.4,1.1,2.4,2.4s-1.1,2.4-2.4,2.4-2.4-1.1-2.4-2.4,1.1-2.4,2.4-2.4ZM30.52,31.62c-1.3.1-2.4-1-2.4-2.4,0-1.3,1.1-2.4,2.4-2.4s2.4,1.1,2.4,2.4-1.1,2.4-2.4,2.4ZM28.12,58.22c-1.3,0-2.4-1.1-2.4-2.4s1.1-2.4,2.4-2.4,2.4,1.1,2.4,2.4c0,1.3-1.1,2.4-2.4,2.4ZM57.02,54.52c-1.3,0-2.4-1.1-2.4-2.4s1.1-2.4,2.4-2.4,2.4,1.1,2.4,2.4c0,1.4-1,2.4-2.4,2.4Z"/>
</svg>