<?xml version="1.0" encoding="UTF-8"?>
<svg id="Layer_1" data-name="Layer 1" xmlns="http://www.w3.org/2000/svg" width="30mm" height="30mm" viewBox="0 0 85.04 85.04">
  <path d="M42.52,21.82c-9.3,0-16.9,7.7-16.9,17.1,0,12.7,15.6,23.4,16.3,23.8l.7.5.5-.5c.7-.4,16.3-11.1,16.3-23.8,0-9.4-7.6-17.1-16.9-17.1ZM42.62,60.32c-2.9-2.2-14.5-11.4-14.5-21.4,0-8,6.5-14.6,14.5-14.6s14.5,6.5,14.5,14.6c0,10.1-11.6,19.2-14.5,21.4Z"/>
  <path d="M42.82,30.32c-4,0-7.3,3.3-7.3,7.3h2.4c0-2.6,2.2-4.8,4.8-4.8s4.8,2.1,4.8,4.8h2.4c0-4-3.3-7.3-7.1-7.3Z"/>
</svg>