<?xml version="1.0" encoding="UTF-8"?>
<svg id="Layer_1" data-name="Layer 1" xmlns="http://www.w3.org/2000/svg" width="30mm" height="30mm" viewBox="0 0 85.04 85.04">
  <path d="M55.82,25.12s-2.1,1.1-6.7,1.1c-2.4,0-4.3-.6-6.3-1.2-2.1-.7-4.3-1.3-7-1.3-5.2,0-7.6,1.3-7.8,1.4l-.6.3v23.3l.1-.05v12.65h2.4v-13.78c.96-.33,2.91-.82,6-.82,2.4,0,4.3.6,6.3,1.2,2.1.7,4.3,1.3,7,1.3,5.3,0,7.6-1.2,7.8-1.4l.6-.3v-23.3l-1.8.9ZM55.22,46.12c-.9.3-2.8.8-6,.8-2.4,0-4.3-.6-6.3-1.2-2.1-.7-4.3-1.3-7-1.3s-4.8.3-6,.7v-18c.9-.3,2.8-.8,6-.8,2.4,0,4.3.6,6.3,1.2,2.1.7,4.3,1.3,7,1.3s4.7-.4,6-.7v18Z"/>
</svg>