<?xml version="1.0" encoding="UTF-8"?>
<svg id="Layer_1" data-name="Layer 1" xmlns="http://www.w3.org/2000/svg" width="300" height="100" viewBox="0 0 300 100">
  <path d="M192.53,19.27h-85.07c-16.95,0-30.73,13.79-30.73,30.73s13.79,30.73,30.73,30.73h85.07c16.95,0,30.73-13.79,30.73-30.73s-13.79-30.73-30.73-30.73ZM192.53,79.4h-85.07c-16.21,0-29.4-13.19-29.4-29.4s13.19-29.4,29.4-29.4h85.07c16.21,0,29.4,13.19,29.4,29.4s-13.19,29.4-29.4,29.4Z" fill="#fff"/>
  <path d="M105.2,50c0,.16.02.31.05.46.21,1.03,1.13,1.81,2.22,1.81s2.01-.78,2.22-1.81c.03-.15.05-.3.05-.45,0-1.25-1.01-2.26-2.26-2.26s-2.26,1.02-2.26,2.26Z" fill="#fff"/>
  <path d="M107.47,39.94c-2.87,0-5.46,1.22-7.29,3.15h0s0,0,0,0l2.73,2.91s0,0,0,0l.38.41c1.01-1.18,2.51-1.93,4.18-1.93s3.17.75,4.18,1.93l.38-.41s0,0,0,0l2.73-2.91s0,0,0,0h0c-1.83-1.94-4.42-3.15-7.3-3.15Z" fill="#fff"/>
  <path d="M137.55,39.05v2.9h-2.18v3h2.18v15.24h3.68v-15.24h3.99v-3h-3.99v-2.9c0-.65.31-.95.85-.95h4.02v-2.97h-4.5c-2.45,0-4.06,1.4-4.06,3.92Z" fill="#fff"/>
  <rect x="147.71" y="41.91" width="3.68" height="18.28" fill="#fff"/>
  <path d="M149.56,34.48c-1.36,0-2.45,1.02-2.45,2.32,0,1.36,1.13,2.39,2.49,2.39s2.42-1.02,2.42-2.39-1.13-2.32-2.46-2.32Z" fill="#fff"/>
  <path d="M166.16,41.44c-3.27,0-5.22,1.84-6.31,3.92h-.2v-10.23h-3.61v25.06h3.1v-3.51h.2c.95,2.35,3.17,4.02,6.31,4.02,4.36,0,8.12-3.75,8.12-9.85,0-5.32-3.07-9.41-7.6-9.41ZM165.07,57.26c-3.44,0-5.32-2.83-5.32-6.21s2.01-6.17,5.35-6.17c2.93,0,4.88,2.32,4.88,6.07s-2.11,6.31-4.91,6.31Z" fill="#fff"/>
  <path d="M180.79,45.29h-.24v-3.34h-3.31v18.24h3.72v-10.57c0-2.35.89-3.65,3.44-3.65h2.42v-4.06h-1.16c-2.11,0-4.13.72-4.88,3.38Z" fill="#fff"/>
  <path d="M203.46,56.61v-8.29c0-4.36-2.8-6.89-7.02-6.89-3.78,0-6.61,2.11-7.81,5.73l3.07,1.3c1.09-2.66,2.39-3.82,4.74-3.82,1.91,0,3.55,1.43,3.55,4.09v1.12h-4.3c-3.96,0-7.54,1.98-7.54,5.69,0,3.14,2.52,5.08,5.73,5.08s5.52-1.84,6.61-4.26h.31l-.03,1.16c0,1.74.82,2.66,2.46,2.66h2.11v-2.93h-1.4c-.31,0-.48-.24-.48-.65ZM194.6,57.43c-1.43,0-2.9-.75-2.9-2.18,0-1.81,2.32-2.69,5.25-2.69h3.03c-.27,2.39-2.8,4.88-5.39,4.88Z" fill="#fff"/>
  <path d="M92.55,34.97l5.74,6.12c2.33-2.39,5.58-3.88,9.18-3.88s6.85,1.49,9.18,3.88l5.75-6.14s0,0,0,0h0c-3.83-3.81-9.11-6.16-14.93-6.16s-11.09,2.36-14.92,6.16h0s0,0,0,0Z" fill="#fff"/>
  <path d="M119.91,47s0,0,0,0h0c.23.97.36,1.97.36,3,0,2.87-.95,5.52-2.54,7.65-2.33,3.12-6.06,5.14-10.25,5.14s-7.92-2.02-10.25-5.14c-1.6-2.13-2.54-4.78-2.54-7.65,0-1.03.13-2.04.36-3h0s0,0,0,0l-6.36-6.78c-1.53,2.93-2.4,6.26-2.4,9.78,0,11.72,9.55,21.2,21.2,21.2.04,0,.08,0,.12,0,11.66-.07,21.08-9.59,21.08-21.2,0-3.53-.87-6.86-2.39-9.79l-6.37,6.79Z" fill="#fff"/>
</svg>