<?xml version="1.0" encoding="UTF-8"?>
<svg id="Layer_1" data-name="Layer 1" xmlns="http://www.w3.org/2000/svg" width="274.55mm" height="65.32mm" viewBox="0 0 778.25 185.16">
  <g>
    <path d="M61.72,63.77h10.75l.22,10.86h.43c3.87-7.31,10.97-12.26,19.47-12.26,15.92,0,25.06,13.55,25.06,30.11s-9.36,30.44-25.17,30.44c-10,0-15.16-5.38-17.96-11.08h-.43v29.36h-12.37V63.77ZM89.57,111.09c9.25,0,15.49-7.42,15.49-18.18,0-9.9-5.16-19.25-15.06-19.25s-15.49,8.71-15.49,18.82,5.16,18.61,15.06,18.61M153.57,62.37c15.92,0,25.92,12.05,25.92,28.5v6.88h-42.7c.97,8.17,8.6,13.77,18.18,13.77,7.21,0,12.37-3.66,16.13-7.53l7.31,7.31c-6.24,7.85-15.06,11.51-24.31,11.51-15.06,0-29.47-10.75-29.47-29.79,0-17.1,12.91-30.65,28.93-30.65M167.44,88.08c-.21-8.07-5.05-14.41-14.41-14.41-8.07,0-15.27,5.81-16.24,14.41h30.65ZM189.27,63.77h11.29v10.54h.32c2.8-7.42,6.88-10.54,15.06-10.54h3.76v12.37h-7.96c-7.1,0-10.11,4.19-10.11,11.94v33.23h-12.37v-57.54ZM229.93,102.6c4.73,5.81,10.54,10.11,18.07,10.11,5.27,0,9.68-2.04,9.68-6.45s-5.49-6.88-11.94-8.82c-8.82-2.8-19.68-6.78-19.68-17.75,0-9.47,9.47-17.53,21.4-17.53s19.57,7.1,22.91,14.63l-9.03,4.62c-2.8-6.24-8.82-9.04-13.87-9.04s-9.03,2.69-9.03,6.67c0,4.84,4.73,6.45,11.29,8.5,9.03,2.8,20.33,6.24,20.33,17.64s-10.86,17.75-22.48,17.75c-10.43,0-20-5.38-25.38-13.77l7.74-6.56ZM344.47,63.77h11.29v10.86h.21c3.87-6.88,9.36-12.48,19.04-12.48,12.58,0,19.47,9.46,19.47,22.8v36.35h-12.37v-34.42c0-7.85-2.9-13.77-10.65-13.77-9.68,0-14.63,9.47-14.63,18.39v29.79h-12.37v-57.54ZM429.44,87.76h11.29v-3.66c0-5.91-3.55-10.43-10.54-10.43s-12.69,4.62-15.7,11.18l-10.43-5.05c4.84-11.08,14.63-17.42,26.24-17.42,13.23,0,22.8,7.74,22.8,21.73v25.17c0,1.29.22,1.83,1.61,1.83h4.3v10.22h-7.85c-4.95,0-8.28-2.9-8.28-9.14v-2.8h-.54c-3.87,8.39-11.72,13.23-20.43,13.23-9.25,0-17.96-5.38-17.96-16.67s10.97-18.18,25.49-18.18M424.38,112.38c7.74,0,15.38-6.45,16.35-16.03h-10.65c-8.07,0-13.77,2.9-13.77,8.82,0,4.52,3.33,7.21,8.07,7.21M467.62,42.26h12.37v66.68c0,1.51.11,2.15,1.94,2.15h7.74v10.22h-11.94c-7.85,0-10.11-5.05-10.11-12.26V42.26Z"/>
    <path d="M337.67,92.58c0-15.12-10.93-27.72-25.3-30.35v12.56c7.57,2.37,13.08,9.45,13.08,17.79s-5.51,15.42-13.08,17.79v12.56c14.37-2.63,25.3-15.23,25.3-30.35"/>
    <path d="M301.25,62.23c-14.37,2.63-25.3,15.23-25.3,30.35s10.93,27.72,25.3,30.35v-12.56c-7.57-2.37-13.08-9.45-13.08-17.79s5.51-15.42,13.08-17.79v-12.56Z"/>
  </g>
  <g>
    <path d="M525.67,109.05v-41.64h-9.9v-5.38h9.79v-12.91h5.81v12.91h15.71v5.38h-15.6v43.69c0,2.15.32,2.8,2.04,2.8h13.56v5.7h-13.56c-4.84,0-7.86-3.66-7.86-10.54Z"/>
    <path d="M553.54,90.97c0-17.75,11.3-30.56,26.58-30.56s24.1,12.27,24.1,27.76v4.3h-44.76c.65,15.92,10.44,23.35,20.44,23.35,7.53,0,15.17-4.09,19.26-11.84l4.63,2.58c-5.17,9.68-14.74,14.74-24.1,14.74-13.24,0-26.15-9.9-26.15-30.34ZM598.31,87.2c-.32-13.34-7.75-21.41-18.4-21.41-9.58,0-18.94,6.99-20.23,21.41h38.63Z"/>
    <path d="M611.12,90.97c0-17.75,11.08-30.56,26.04-30.56,11.19,0,18.51,6.46,21.84,15.71l-5.38,1.83c-3.01-8.39-9.15-12.16-16.68-12.16-10.01,0-19.91,8.18-19.91,25.18,0,14.1,8.29,24.75,20.44,24.75,8.18,0,15.39-4.41,19.26-11.73l4.63,2.58c-5.06,9.47-13.77,14.53-24.1,14.53-15.82,0-26.15-12.91-26.15-30.13Z"/>
    <path d="M670.52,40.5h5.38v34.33h.43c3.01-7.75,9.68-14.42,20.88-14.42,13.45,0,19.37,9.58,19.37,23.24v35.94h-5.81v-35.83c0-11.62-4.3-17.97-14.31-17.97-15.6,0-20.12,15.17-20.12,21.31v32.5h-5.81V40.5Z"/>
  </g>
</svg>