<?xml version="1.0" encoding="UTF-8"?>
<svg id="Layer_1" data-name="Layer 1" xmlns="http://www.w3.org/2000/svg" width="300" height="100" viewBox="0 0 300 100">
  <path d="M112.34,26.51v9.73c5.86,1.83,10.11,7.3,10.11,13.76s-4.25,11.93-10.11,13.76v9.73c11.14-2.04,19.58-11.83,19.58-23.49s-8.44-21.46-19.58-23.49Z" fill="#fff"/>
  <path d="M84.15,50c0,11.72,8.49,21.45,19.58,23.49v-9.73c-5.86-1.83-10.11-7.3-10.11-13.76s4.25-11.93,10.11-13.76v-9.73c-11.14,2.04-19.58,11.83-19.58,23.49Z" fill="#fff"/>
  <path d="M146.1,36.32h-3.88l-.27,4.61h-3.19v3.34h3.19l.04,12.71c0,3.03,1.19,4.49,3.5,4.49h5.72v-3.73h-4.26c-.61,0-.81-.23-.81-1v-12.48h5.07v-3.34h-5.11v-4.61Z" fill="#fff"/>
  <path d="M163.38,40.35c-5.8,0-9.95,4.61-9.95,10.87,0,7.18,5.11,10.83,10.33,10.83,3.15,0,6.38-1.38,8.49-4.11l-2.3-2.42c-1.73,1.96-3.99,2.92-6.15,2.92-2.92,0-5.65-1.84-6.26-5.53h15.02c.04-1.46.04-2,.04-2.73,0-5.22-3.42-9.83-9.22-9.83ZM157.54,49.69c.54-3.92,3.07-5.72,5.61-5.72,2.69,0,5.34,2.07,5.42,5.72h-11.02Z" fill="#fff"/>
  <path d="M185.55,58.41c-3.69,0-6.22-3.03-6.22-7.11,0-4.84,2.96-7.34,5.84-7.34,2.61,0,3.99,1.5,5.11,4.3l3.42-1.46c-1.23-3.92-4.19-6.45-8.45-6.45-5.53,0-9.91,4.61-9.91,10.95s4.3,10.72,9.91,10.72c3.92,0,6.99-1.73,9.03-5.26l-2.88-2.04c-1.23,2.11-3.19,3.69-5.84,3.69Z" fill="#fff"/>
  <path d="M208.98,40.31c-3.57,0-5.68,2-6.91,4.53h-.27v-11.6h-3.92v28.23h4.19v-10.6c0-3.03,1.69-6.99,5.49-6.99,2.3,0,4.11,1.42,4.11,5.34v12.25h4.19v-12.98c0-4.8-2.19-8.18-6.88-8.18Z" fill="#fff"/>
</svg>