<?xml version="1.0" encoding="UTF-8"?>
<svg id="Layer_1" data-name="Layer 1" xmlns="http://www.w3.org/2000/svg" width="300" height="100" viewBox="0 0 300 100">
  <path d="M191.46,19.27h-82.91c-16.95,0-30.73,13.79-30.73,30.73s13.79,30.73,30.73,30.73h82.91c16.95,0,30.73-13.79,30.73-30.73s-13.79-30.73-30.73-30.73ZM191.46,79.4h-82.91c-16.21,0-29.4-13.19-29.4-29.4s13.19-29.4,29.4-29.4h82.91c16.21,0,29.4,13.19,29.4,29.4s-13.19,29.4-29.4,29.4Z" fill="#fff"/>
  <path d="M112.37,29.15v8.64c5.2,1.63,8.98,6.48,8.98,12.22s-3.78,10.59-8.98,12.22v8.63c9.89-1.81,17.38-10.5,17.38-20.85s-7.49-19.05-17.38-20.85Z" fill="#fff"/>
  <path d="M87.34,50c0,10.4,7.53,19.04,17.38,20.85v-8.63c-5.2-1.63-8.98-6.48-8.98-12.22s3.78-10.59,8.98-12.22v-8.63c-9.89,1.81-17.38,10.5-17.38,20.85Z" fill="#fff"/>
  <path d="M142.33,37.86h-3.44l-.24,4.09h-2.83v2.97h2.83l.03,11.29c0,2.69,1.06,3.99,3.1,3.99h5.08v-3.31h-3.78c-.55,0-.72-.2-.72-.89v-11.08h4.5v-2.97h-4.54v-4.09Z" fill="#fff"/>
  <path d="M157.68,41.44c-5.15,0-8.83,4.09-8.83,9.65,0,6.38,4.54,9.62,9.17,9.62,2.8,0,5.66-1.23,7.54-3.65l-2.05-2.15c-1.53,1.74-3.55,2.59-5.46,2.59-2.59,0-5.01-1.64-5.56-4.91h13.33c.03-1.3.03-1.77.03-2.42,0-4.64-3.03-8.73-8.18-8.73ZM152.49,49.72c.48-3.48,2.73-5.08,4.98-5.08,2.39,0,4.74,1.84,4.81,5.08h-9.79Z" fill="#fff"/>
  <path d="M177.35,57.46c-3.27,0-5.52-2.69-5.52-6.31,0-4.3,2.63-6.51,5.18-6.51,2.32,0,3.55,1.33,4.53,3.82l3.03-1.3c-1.09-3.48-3.72-5.73-7.5-5.73-4.91,0-8.8,4.09-8.8,9.72s3.82,9.51,8.8,9.51c3.48,0,6.21-1.53,8.01-4.67l-2.56-1.81c-1.09,1.88-2.83,3.27-5.18,3.27Z" fill="#fff"/>
  <path d="M198.15,41.4c-3.17,0-5.05,1.77-6.14,4.02h-.24v-10.3h-3.48v25.06h3.72v-9.41c0-2.69,1.5-6.21,4.88-6.21,2.05,0,3.65,1.26,3.65,4.74v10.88h3.72v-11.52c0-4.26-1.94-7.26-6.1-7.26Z" fill="#fff"/>
</svg>