<?xml version="1.0" encoding="UTF-8"?>
<svg id="Layer_1" data-name="Layer 1" xmlns="http://www.w3.org/2000/svg" width="300" height="300" viewBox="0 0 300 300">
  <path d="M106.97,206.89h-5.18l-.36,6.16h-4.26v4.46h4.26l.05,16.99c0,4.06,1.59,6.01,4.67,6.01h7.65v-4.98h-5.7c-.82,0-1.08-.31-1.08-1.33v-16.68h6.78v-4.46h-6.83v-6.16Z" fill="#0b032f"/>
  <path d="M130.08,212.27c-7.75,0-13.29,6.16-13.29,14.53,0,9.6,6.83,14.48,13.81,14.48,4.21,0,8.52-1.85,11.34-5.49l-3.08-3.23c-2.31,2.62-5.34,3.9-8.21,3.9-3.9,0-7.55-2.46-8.37-7.39h20.07c.05-1.95.05-2.67.05-3.64,0-6.98-4.57-13.14-12.32-13.14ZM122.27,224.75c.72-5.24,4.11-7.65,7.49-7.65,3.59,0,7.13,2.77,7.24,7.65h-14.73Z" fill="#0b032f"/>
  <path d="M159.7,236.4c-4.93,0-8.32-4.06-8.32-9.5,0-6.47,3.95-9.8,7.8-9.8,3.49,0,5.34,2,6.83,5.75l4.57-1.95c-1.64-5.24-5.6-8.62-11.29-8.62-7.39,0-13.24,6.16-13.24,14.63s5.75,14.32,13.24,14.32c5.24,0,9.34-2.31,12.06-7.03l-3.85-2.72c-1.64,2.82-4.26,4.93-7.8,4.93Z" fill="#0b032f"/>
  <path d="M191.01,212.22c-4.77,0-7.6,2.67-9.24,6.06h-.36v-15.5h-5.24v37.73h5.59v-14.17c0-4.06,2.26-9.34,7.34-9.34,3.08,0,5.49,1.9,5.49,7.13v16.37h5.59v-17.35c0-6.42-2.93-10.93-9.19-10.93Z" fill="#0b032f"/>
  <path d="M213.42,123.29c0-31.14-22.41-57-51.99-62.38v25.83c15.56,4.86,26.85,19.39,26.85,36.55s-11.29,31.68-26.85,36.55v25.83c29.58-5.41,51.99-31.4,51.99-62.37Z" fill="#0b032f"/>
  <path d="M138.57,185.66v-25.82c-15.56-4.86-26.85-19.39-26.85-36.55s11.29-31.68,26.85-36.55v-25.83c-29.58,5.41-51.99,31.4-51.99,62.37s22.54,56.97,51.99,62.37Z" fill="#0b032f"/>
</svg>