<?xml version="1.0" encoding="UTF-8"?>
<svg id="Layer_1" data-name="Layer 1" xmlns="http://www.w3.org/2000/svg" width="300" height="100" viewBox="0 0 300 100">
  <path d="M206.82,19.27h-113.64c-16.95,0-30.73,13.79-30.73,30.73s13.79,30.73,30.73,30.73h113.64c16.95,0,30.73-13.79,30.73-30.73s-13.79-30.73-30.73-30.73ZM206.82,79.4h-113.64c-16.21,0-29.4-13.19-29.4-29.4s13.19-29.4,29.4-29.4h113.64c16.21,0,29.4,13.19,29.4,29.4s-13.19,29.4-29.4,29.4Z"/>
  <path d="M93.18,62.8c-7.07,0-12.8-5.73-12.8-12.8h-8.4c0,11.72,9.55,21.2,21.2,21.2s21.2-9.55,21.2-21.2h-8.4c0,7.07-5.73,12.8-12.8,12.8Z"/>
  <rect x="88.63" y="45.45" width="9.11" height="9.11"/>
  <path d="M126.97,37.86h-3.44l-.24,4.09h-2.83v2.97h2.83l.03,11.29c0,2.69,1.06,3.99,3.1,3.99h5.08v-3.31h-3.78c-.55,0-.72-.2-.72-.89v-11.08h4.5v-2.97h-4.54v-4.09Z"/>
  <rect x="134.64" y="41.91" width="3.68" height="18.28"/>
  <path d="M136.48,34.48c-1.36,0-2.45,1.02-2.45,2.32,0,1.36,1.13,2.39,2.49,2.39s2.42-1.02,2.42-2.39-1.13-2.32-2.45-2.32Z"/>
  <path d="M150.57,41.44c-5.15,0-8.83,4.09-8.83,9.65,0,6.38,4.53,9.62,9.17,9.62,2.8,0,5.66-1.23,7.54-3.65l-2.05-2.15c-1.53,1.74-3.55,2.59-5.46,2.59-2.59,0-5.01-1.64-5.56-4.91h13.33c.03-1.3.03-1.77.03-2.42,0-4.64-3.03-8.73-8.18-8.73ZM145.38,49.72c.48-3.48,2.73-5.08,4.98-5.08,2.39,0,4.74,1.84,4.81,5.08h-9.79Z"/>
  <path d="M172.08,41.44c-2.9,0-5.56,1.77-6.21,4.02h-.24v-3.51h-3.41v18.24h3.72v-9.17c0-3.99,2.05-6.38,4.81-6.38,2.32,0,3.72,1.6,3.72,5.25v10.3h3.72v-11.49c0-4.5-2.08-7.26-6.1-7.26Z"/>
  <path d="M195.61,45.36h-.24c-.82-2.08-2.76-3.92-5.76-3.92-4.74,0-8.11,4.02-8.11,9.61s3.51,9.65,8.25,9.65c3.1,0,5.15-1.77,6.17-4.02h.2v3.51h3.1v-25.06h-3.61v10.23ZM190.36,57.26c-3.1,0-5.08-2.56-5.08-6.24s2.15-6.14,5.11-6.14c3.31,0,5.11,2.83,5.11,6.14s-1.94,6.24-5.15,6.24Z"/>
  <path d="M217.74,56.61v-8.29c0-4.36-2.8-6.89-7.02-6.89-3.78,0-6.61,2.11-7.81,5.73l3.07,1.3c1.09-2.66,2.39-3.82,4.74-3.82,1.91,0,3.55,1.43,3.55,4.09v1.12h-4.3c-3.96,0-7.54,1.98-7.54,5.69,0,3.14,2.52,5.08,5.73,5.08s5.52-1.84,6.61-4.26h.31l-.03,1.16c0,1.74.82,2.66,2.46,2.66h2.11v-2.93h-1.4c-.31,0-.48-.24-.48-.65ZM208.88,57.43c-1.43,0-2.9-.75-2.9-2.18,0-1.81,2.32-2.69,5.25-2.69h3.03c-.27,2.39-2.8,4.88-5.39,4.88Z"/>
</svg>