<?xml version="1.0" encoding="UTF-8"?>
<svg id="Layer_1" data-name="Layer 1" xmlns="http://www.w3.org/2000/svg" width="300" height="300" viewBox="0 0 300 300">
  <path d="M84.98,206.88h-5.18l-.36,6.16h-4.26v4.47h4.26l.05,16.99c0,4.05,1.59,6.01,4.67,6.01h7.65v-4.98h-5.7c-.82,0-1.08-.31-1.08-1.33v-16.68h6.78v-4.47h-6.83v-6.16Z" fill="#00b9c0"/>
  <path d="M99.3,201.8c-2.05,0-3.7,1.54-3.7,3.49,0,2.05,1.69,3.59,3.75,3.59s3.64-1.54,3.64-3.59-1.69-3.49-3.7-3.49Z" fill="#00b9c0"/>
  <rect x="96.53" y="212.99" width="5.54" height="27.51" fill="#00b9c0"/>
  <path d="M120.5,212.27c-7.75,0-13.29,6.16-13.29,14.53,0,9.6,6.83,14.47,13.81,14.47,4.21,0,8.52-1.85,11.34-5.49l-3.08-3.23c-2.31,2.62-5.34,3.9-8.21,3.9-3.9,0-7.55-2.46-8.37-7.39h20.07c.05-1.95.05-2.67.05-3.64,0-6.98-4.57-13.14-12.32-13.14ZM112.7,224.75c.72-5.24,4.11-7.65,7.49-7.65,3.59,0,7.13,2.77,7.24,7.65h-14.73Z" fill="#00b9c0"/>
  <path d="M152.89,212.27c-4.36,0-8.37,2.67-9.34,6.06h-.36v-5.29h-5.13v27.46h5.59v-13.81c0-6,3.08-9.6,7.24-9.6,3.49,0,5.59,2.41,5.59,7.91v15.5h5.6v-17.3c0-6.78-3.13-10.93-9.19-10.93Z" fill="#00b9c0"/>
  <path d="M188.32,218.18h-.36c-1.23-3.13-4.16-5.9-8.67-5.9-7.13,0-12.22,6.06-12.22,14.48s5.29,14.53,12.42,14.53c4.67,0,7.75-2.67,9.29-6.06h.31v5.29h4.67v-37.73h-5.44v15.4ZM180.41,236.09c-4.67,0-7.65-3.85-7.65-9.39s3.23-9.24,7.7-9.24c4.98,0,7.7,4.26,7.7,9.24s-2.93,9.39-7.75,9.39Z" fill="#00b9c0"/>
  <path d="M222.35,236.09c-.46,0-.72-.36-.72-.97v-12.47c0-6.57-4.21-10.37-10.57-10.37-5.7,0-9.96,3.18-11.75,8.62l4.62,1.95c1.64-4,3.59-5.75,7.13-5.75,2.87,0,5.34,2.16,5.34,6.16v1.69h-6.47c-5.95,0-11.34,2.98-11.34,8.57,0,4.72,3.8,7.65,8.62,7.65s8.32-2.77,9.96-6.42h.46l-.05,1.75c0,2.62,1.23,4,3.7,4h3.18v-4.42h-2.1ZM208.29,236.35c-2.16,0-4.36-1.13-4.36-3.29,0-2.72,3.49-4.05,7.9-4.05h4.57c-.41,3.59-4.21,7.34-8.11,7.34Z" fill="#00b9c0"/>
  <path d="M188.28,123.28c0,21.14-17.14,38.28-38.28,38.28s-38.28-17.14-38.28-38.28h-25.14c0,35.05,28.57,63.42,63.42,63.42s63.42-28.57,63.42-63.42h-25.14Z" fill="#00b9c0"/>
  <rect x="136.38" y="109.66" width="27.24" height="27.24" fill="#00b9c0"/>
</svg>